<?xml version="1.0" encoding="UTF-8"?> <svg xmlns="http://www.w3.org/2000/svg" height="60" viewBox="0 0 60 60" width="60"><path d="m52.5938672 31.7578125h5.6483203c.9707812 0 1.7578125-.7870313 1.7578125-1.7578125v-16.9453125c0-.9707813-.7870313-1.7578125-1.7578125-1.7578125h-15.1875v-3.890625c0-4.08386719-3.3225-7.40625-7.40625-7.40625s-7.40625 3.3225-7.40625 7.40625v3.890625h-15.1875c-.9707813 0-1.7578125.7870312-1.7578125 1.7578125v15.1875h-3.890625c-4.08375 0-7.40625 3.3225-7.40625 7.40625s3.3225 7.40625 7.40625 7.40625h3.890625v15.1875c0 .9707812.7870312 1.7578125 1.7578125 1.7578125h16.9453125c.9707812 0 1.7578125-.7870313 1.7578125-1.7578125v-5.6484375c0-2.1453516 1.7453906-3.890625 3.890625-3.890625s3.890625 1.7453906 3.890625 3.890625v5.6484375c0 .9707812.7870312 1.7578125 1.7578125 1.7578125h16.9453125c.9707812 0 1.7578125-.7870313 1.7578125-1.7578125v-16.9453125c0-.9707813-.7870313-1.7578125-1.7578125-1.7578125h-5.6483203c-2.1454688 0-3.8907422-1.7453906-3.8907422-3.890625s1.7452734-3.890625 3.8907422-3.890625zm0 11.296875h3.8905078v13.4296875h-13.4296875v-3.890625c0-4.0838672-3.3225-7.40625-7.40625-7.40625s-7.40625 3.3223828-7.40625 7.40625v3.890625h-13.4296875v-15.1875c0-.9707813-.7870313-1.7578125-1.7578125-1.7578125h-5.6484375c-2.14535156 0-3.890625-1.7453906-3.890625-3.890625s1.74539062-3.890625 3.890625-3.890625h5.6484375c.9707812 0 1.7578125-.7870313 1.7578125-1.7578125v-15.1875h15.1875c.9707812 0 1.7578125-.7870313 1.7578125-1.7578125v-5.6484375c0-2.14535156 1.7453906-3.890625 3.890625-3.890625s3.890625 1.74539062 3.890625 3.890625v5.6484375c0 .9707812.7870312 1.7578125 1.7578125 1.7578125h15.1875v13.4296875h-3.8905078c-4.0839844 0-7.4063672 3.3225-7.4063672 7.40625s3.3223828 7.40625 7.4063672 7.40625z" fill="#c1cadb" transform="matrix(-1 0 0 1 60 0)"></path></svg> 