<?xml version="1.0" encoding="UTF-8"?> <svg xmlns="http://www.w3.org/2000/svg" fill="none" height="28" viewBox="0 0 28 28" width="28"><g fill="#1ab394"><path d="m9.13881 2.33301h-2.91667c-1.0314 0-2.02055.40972-2.74986 1.13903s-1.13903 1.71846-1.13903 2.74986v2.91666c0 1.03144.40972 2.02054 1.13903 2.74984s1.71846 1.1391 2.74986 1.1391h2.91667c1.03139 0 2.02059-.4098 2.74989-1.1391s1.139-1.7184 1.139-2.74984v-2.91666c0-1.0314-.4097-2.02055-1.139-2.74986s-1.7185-1.13903-2.74989-1.13903zm1.94449 6.80555c0 .5157-.2049 1.01024-.5696 1.37494-.3646.3646-.85919.5695-1.37489.5695h-2.91667c-.5157 0-1.01027-.2049-1.37493-.5695-.36465-.3647-.56951-.85924-.56951-1.37494v-2.91666c0-.5157.20486-1.01028.56951-1.37493.36466-.36466.85923-.56952 1.37493-.56952h2.91667c.5157 0 1.01029.20486 1.37489.56952.3647.36465.5696.85923.5696 1.37493z"></path><path d="m9.13881 14.9727h-2.91667c-1.0314 0-2.02055.4097-2.74986 1.139s-1.13903 1.7184-1.13903 2.7498v2.9167c0 1.0314.40972 2.0206 1.13903 2.7499s1.71846 1.139 2.74986 1.139h2.91667c1.03139 0 2.02059-.4097 2.74989-1.139s1.139-1.7185 1.139-2.7499v-2.9167c0-1.0314-.4097-2.0205-1.139-2.7498s-1.7185-1.139-2.74989-1.139zm1.94449 6.8055c0 .5157-.2049 1.0103-.5696 1.3749-.3646.3647-.85919.5696-1.37489.5696h-2.91667c-.5157 0-1.01027-.2049-1.37493-.5696-.36465-.3646-.56951-.8592-.56951-1.3749v-2.9167c0-.5157.20486-1.0102.56951-1.3749.36466-.3646.85923-.5695 1.37493-.5695h2.91667c.5157 0 1.01029.2049 1.37489.5695.3647.3647.5696.8592.5696 1.3749z"></path><path d="m21.7777 14.9727h-2.9166c-1.0314 0-2.0206.4097-2.7499 1.139s-1.139 1.7184-1.139 2.7498v2.9167c0 1.0314.4097 2.0206 1.139 2.7499s1.7185 1.139 2.7499 1.139h2.9166c1.0314 0 2.0206-.4097 2.7499-1.139s1.139-1.7185 1.139-2.7499v-2.9167c0-1.0314-.4097-2.0205-1.139-2.7498s-1.7185-1.139-2.7499-1.139zm1.9445 6.8055c0 .5157-.2049 1.0103-.5695 1.3749-.3647.3647-.8593.5696-1.375.5696h-2.9166c-.5157 0-1.0103-.2049-1.375-.5696-.3646-.3646-.5695-.8592-.5695-1.3749v-2.9167c0-.5157.2049-1.0102.5695-1.3749.3647-.3646.8593-.5695 1.375-.5695h2.9166c.5157 0 1.0103.2049 1.375.5695.3646.3647.5695.8592.5695 1.3749z"></path><path d="m15.9444 9.139h2.9167v2.9167c0 .2578.1024.5051.2847.6874.1823.1824.4296.2848.6875.2848.2578 0 .5051-.1024.6874-.2848.1824-.1823.2848-.4296.2848-.6874v-2.9167h2.9167c.2578 0 .5051-.10243.6874-.28476.1824-.18233.2848-.42962.2848-.68746 0-.25785-.1024-.50514-.2848-.68747-.1823-.18233-.4296-.28476-.6874-.28476h-2.9167v-2.91666c0-.25785-.1024-.50514-.2848-.68747-.1823-.18233-.4296-.28476-.6874-.28476-.2579 0-.5052.10243-.6875.28476s-.2847.42962-.2847.68747v2.91666h-2.9167c-.2579 0-.5051.10243-.6875.28476-.1823.18233-.2847.42962-.2847.68747 0 .25784.1024.50513.2847.68746.1824.18233.4296.28476.6875.28476z"></path></g></svg> 