<?xml version="1.0" encoding="UTF-8"?> <svg xmlns="http://www.w3.org/2000/svg" width="24" height="24" viewBox="0 0 24 24" fill="none"><path d="M19.8571 2H4.14286C3.57454 2 3.02949 2.22576 2.62763 2.62763C2.22576 3.02949 2 3.57454 2 4.14286V19.8571C2 20.4255 2.22576 20.9705 2.62763 21.3724C3.02949 21.7742 3.57454 22 4.14286 22H19.8571C20.4255 22 20.9705 21.7742 21.3724 21.3724C21.7742 20.9705 22 20.4255 22 19.8571V4.14286C22 3.57454 21.7742 3.02949 21.3724 2.62763C20.9705 2.22576 20.4255 2 19.8571 2ZM4.14286 3.42857H19.8571C20.0466 3.42857 20.2283 3.50383 20.3622 3.63778C20.4962 3.77174 20.5714 3.95342 20.5714 4.14286V7.71429H3.42857V4.14286C3.42857 3.95342 3.50383 3.77174 3.63778 3.63778C3.77174 3.50383 3.95342 3.42857 4.14286 3.42857V3.42857ZM19.8571 20.5714H4.14286C3.95342 20.5714 3.77174 20.4962 3.63778 20.3622C3.50383 20.2283 3.42857 20.0466 3.42857 19.8571V9.14286H20.5714V19.8571C20.5714 20.0466 20.4962 20.2283 20.3622 20.3622C20.2283 20.4962 20.0466 20.5714 19.8571 20.5714Z" fill="#1AB394"></path><path d="M5.57122 6.28572H6.2855C6.47495 6.28572 6.65663 6.21046 6.79058 6.07651C6.92454 5.94255 6.99979 5.76087 6.99979 5.57143C6.99979 5.38199 6.92454 5.20031 6.79058 5.06636C6.65663 4.9324 6.47495 4.85715 6.2855 4.85715H5.57122C5.38178 4.85715 5.2001 4.9324 5.06614 5.06636C4.93219 5.20031 4.85693 5.38199 4.85693 5.57143C4.85693 5.76087 4.93219 5.94255 5.06614 6.07651C5.2001 6.21046 5.38178 6.28572 5.57122 6.28572Z" fill="#1AB394"></path><path d="M9.143 6.28572H9.85728C10.0467 6.28572 10.2284 6.21046 10.3624 6.07651C10.4963 5.94255 10.5716 5.76087 10.5716 5.57143C10.5716 5.38199 10.4963 5.20031 10.3624 5.06636C10.2284 4.9324 10.0467 4.85715 9.85728 4.85715H9.143C8.95356 4.85715 8.77188 4.9324 8.63792 5.06636C8.50397 5.20031 8.42871 5.38199 8.42871 5.57143C8.42871 5.76087 8.50397 5.94255 8.63792 6.07651C8.77188 6.21046 8.95356 6.28572 9.143 6.28572V6.28572Z" fill="#1AB394"></path><path d="M18.4084 12.565C18.4049 12.5479 18.3999 12.5329 18.3949 12.5157C18.3742 12.4374 18.3399 12.3634 18.2934 12.2971L18.2877 12.2907V12.2857C18.2877 12.2807 18.2791 12.2793 18.2756 12.275C18.2253 12.2114 18.1644 12.157 18.0956 12.1143C18.0841 12.1071 18.0749 12.0993 18.0627 12.0929C17.9927 12.0541 17.9166 12.0275 17.8377 12.0143C17.822 12.0143 17.807 12.0143 17.7906 12.0086C17.7741 12.0029 17.7391 12 17.7141 12H15.5713C15.3819 12 15.2002 12.0753 15.0662 12.2092C14.9323 12.3432 14.857 12.5248 14.857 12.7143C14.857 12.9037 14.9323 13.0854 15.0662 13.2194C15.2002 13.3533 15.3819 13.4286 15.5713 13.4286L11.9999 16.1071L6.71415 12.1429C6.5626 12.0292 6.3721 11.9804 6.18456 12.0072C5.99703 12.034 5.82781 12.1342 5.71415 12.2857C5.60048 12.4373 5.55168 12.6278 5.57847 12.8153C5.60526 13.0028 5.70545 13.1721 5.85701 13.2857L11.5713 17.5714C11.6949 17.6642 11.8453 17.7143 11.9999 17.7143C12.1544 17.7143 12.3048 17.6642 12.4284 17.5714L16.3192 14.6529C16.2803 14.8273 16.3082 15.01 16.3975 15.1649C16.4868 15.3197 16.6308 15.4355 16.8013 15.4893C16.9717 15.5431 17.1561 15.5311 17.3181 15.4556C17.4801 15.3801 17.6079 15.2466 17.6763 15.0814L18.3906 12.9386C18.3997 12.9065 18.4064 12.8738 18.4106 12.8407C18.4106 12.8264 18.4177 12.8136 18.4191 12.7993C18.4287 12.7211 18.425 12.642 18.4084 12.565V12.565Z" fill="#1AB394"></path></svg> 