<?xml version="1.0" encoding="UTF-8"?> <svg xmlns="http://www.w3.org/2000/svg" fill="none" height="40" viewBox="0 0 40 40" width="40"><path d="m20.1275 6h.2225c2.055.0075 12.4675.0825 15.275.8375.8487.23042 1.6221.67956 2.2429 1.30252s1.0672 1.39794 1.2946 2.24748c.2525.95.43 2.2075.55 3.505l.025.26.055.65.02.26c.1625 2.285.1825 4.425.185 4.8925v.1875c-.0025.485-.025 2.77-.205 5.15l-.02.2625-.0225.26c-.125 1.43-.31 2.85-.5875 3.895-.2274.8495-.6738 1.6245-1.2946 2.2475-.6208.6229-1.3942 1.0721-2.2429 1.3025-2.9.78-13.9225.835-15.45.8375h-.355c-.7725 0-3.9675-.015-7.3175-.13l-.425-.015-.2175-.01-.4275-.0175-.4275-.0175c-2.775-.1225-5.4175-.32-6.635-.65-.84843-.2302-1.62163-.679-2.24237-1.3015-.62075-.6225-1.06732-1.3969-1.29513-2.246-.2775-1.0425-.4625-2.465-.5875-3.895l-.02-.2625-.02-.26c-.1240914-1.694-.1924617-3.3915-.205-5.09v-.3075c.005-.5375.025-2.395.16-4.445l.0175-.2575.0075-.13.02-.26.055-.65.025-.26c.12-1.2975.2975-2.5575.55-3.505.22743-.84954.67383-1.62452 1.2946-2.24748s1.39417-1.0721 2.2429-1.30252c1.2175-.325 3.86-.525 6.635-.65l.425-.0175.43-.015.215-.0075.4275-.0175c2.3793-.07649 4.7595-.119 7.14-.1275zm-4.1275 8.025v12.045l10.3925-6.02z" fill="#fcfcfc"></path></svg> 