<?xml version="1.0" encoding="UTF-8"?>
<svg width="1920px" height="488px" viewBox="0 0 1920 488" version="1.1" xmlns="http://www.w3.org/2000/svg" xmlns:xlink="http://www.w3.org/1999/xlink">
    <title>Group 12</title>
    <defs>
        <polygon id="path-1" points="0 -1.28674849e-13 1920 -1.28674849e-13 1920 488 0 488"></polygon>
        <polygon id="path-3" points="0.786989741 0.36476175 1931.1455 0.36476175 1931.1455 1286.6481 0.786989741 1286.6481"></polygon>
        <linearGradient x1="-0.125128033%" y1="28.3718343%" x2="99.0746502%" y2="71.1749607%" id="linearGradient-5">
            <stop stop-color="#3B0072" offset="0%"></stop>
            <stop stop-color="#562F87" offset="100%"></stop>
        </linearGradient>
        <path d="M1802.47826,88.1959858 C1729.01664,157.196063 1687.15108,252.232256 1635.08809,338.50486 L1635.08809,338.50486 C1583.02768,424.782608 1511.42434,509.221211 1413.01223,531.069736 L1413.01223,531.069736 C1328.2799,549.883028 1240.18102,518.154567 1164.90744,474.959104 L1164.90744,474.959104 C1089.6287,431.766213 1021.00326,376.586729 941.536945,341.691853 L941.536945,341.691853 C801.328759,280.122949 637.747824,287.73675 492.502696,336.254158 L492.502696,336.254158 C347.257568,384.766421 217.758997,471.249948 96.7256796,565.020603 L96.7256796,565.020603 C64.2751094,590.161582 32.2903986,615.896746 0.786989741,642.213234 L0.786989741,642.213234 L0.786989741,918.648251 L1931.14292,918.648251 L1931.14292,0.598683355 C1885.19788,25.469578 1840.42391,52.5525907 1802.47826,88.1959858" id="path-6"></path>
        <linearGradient x1="60.6765696%" y1="72.9094651%" x2="36.6277089%" y2="40.1095749%" id="linearGradient-8">
            <stop stop-color="#461CBC" offset="0%"></stop>
            <stop stop-color="#7E1FCC" offset="100%"></stop>
        </linearGradient>
        <path d="M0.786436065,0.365232409 L0.786436065,523.333546 C30.0568995,476.509358 55.5199903,426.584485 84.0315517,379.291978 L84.0315517,379.291978 C136.069075,292.984888 207.634817,208.517624 305.996231,186.658445 L305.996231,186.658445 C390.692265,167.840767 478.742902,199.578391 553.984818,242.789832 L553.984818,242.789832 C629.221588,286.001273 697.813464,341.198595 777.246062,376.108952 L777.246062,376.108952 C917.380528,437.698057 1080.88146,430.081439 1226.05555,381.548658 L1226.05555,381.548658 C1371.23221,333.01845 1500.66744,246.502933 1621.64156,152.695019 L1621.64156,152.695019 C1684.30629,104.103055 1745.24998,53.2827152 1804.31056,0.365232409 L1804.31056,0.365232409 L0.786436065,0.365232409 Z" id="path-9"></path>
        <linearGradient x1="122.41279%" y1="59.4506034%" x2="-25.0767517%" y2="40.25425%" id="linearGradient-11">
            <stop stop-color="#3B0072" offset="0%"></stop>
            <stop stop-color="#562F87" offset="100%"></stop>
        </linearGradient>
        <path d="M3.38569024,0.365281782 C-2.59888721,42.3085497 1.04278089,85.6103875 15.1285268,125.595565 L15.1285268,125.595565 C45.1259962,210.745468 121.433859,277.917479 209.664585,296.847399 L209.664585,296.847399 C264.063288,308.518748 320.077082,302.814299 376.029152,297.112423 L376.029152,297.112423 C434.905358,291.1095 493.712125,285.111724 550.50003,299.350976 L550.50003,299.350976 C628.595294,318.93445 693.445791,375.425735 739.056655,441.802675 L739.056655,441.802675 C770.273157,487.23757 794.059731,538.037271 830.684728,579.234355 L830.684728,579.234355 C874.356455,628.343564 932.131931,659.487746 995.143591,679.233323 L995.143591,679.233323 L995.143591,0.365281782 L3.38569024,0.365281782 Z" id="path-12"></path>
        <linearGradient x1="22.6396687%" y1="54.5938653%" x2="182.451577%" y2="23.8647906%" id="linearGradient-14">
            <stop stop-color="#461CBC" offset="0%"></stop>
            <stop stop-color="#FF1F9A" offset="100%"></stop>
        </linearGradient>
        <path d="M0.787283811,1054.64782 L1443.90054,1054.64782 C1382.69517,992.760751 1299.23189,952.739798 1211.93282,952.49787 L1211.93282,952.49787 C1193.38972,952.44897 1174.85949,953.952008 1156.3447,955.455046 L1156.3447,955.455046 C1130.8637,957.524296 1105.40845,959.596121 1079.96864,957.611802 L1079.96864,957.611802 C1019.13397,952.876204 960.513257,923.999348 919.686506,878.668863 L919.686506,878.668863 C919.686506,878.668863 891.515302,825.591556 819.433266,702.051633 L819.433266,702.051633 C747.35123,578.516859 608.335874,496.156053 469.320519,527.042963 L469.320519,527.042963 C330.305163,557.9273 279.178405,521.782331 279.178405,521.782331 L279.178405,521.782331 C231.073943,493.587505 190.986034,444.666715 190.043818,388.928208 L190.043818,388.928208 C189.140219,335.240935 223.518201,287.329033 232.502712,234.390706 L232.502712,234.390706 C247.269232,147.35607 186.895378,59.1401087 106.168646,23.3683252 L106.168646,23.3683252 C72.8332789,8.59531728 37.080589,1.49706713 0.787283811,0.449573362 L0.787283811,0.449573362 L0.787283811,1054.64782 Z" id="path-15"></path>
        <linearGradient x1="56.0891821%" y1="45.8184763%" x2="-30.6079065%" y2="113.303481%" id="linearGradient-17">
            <stop stop-color="#461CBC" offset="0%"></stop>
            <stop stop-color="#FF1F9A" offset="100%"></stop>
        </linearGradient>
        <path d="M0.787205131,549.648645 L663.717978,549.648645 C619.817972,534.551127 574.33981,523.068581 529.657162,510.326194 L529.657162,510.326194 C451.344102,487.998735 371.766974,459.873438 312.064819,404.545871 L312.064819,404.545871 C224.918724,323.784952 194.305601,199.132733 121.849479,104.999507 L121.849479,104.999507 C89.0480495,62.3886157 47.4959675,26.6939916 0.787205131,0.0187971402 L0.787205131,0.0187971402 L0.787205131,549.648645 Z" id="path-18"></path>
        <linearGradient x1="62.8296154%" y1="40.4484192%" x2="17.1391771%" y2="104.627546%" id="linearGradient-20">
            <stop stop-color="#461CBC" offset="0%"></stop>
            <stop stop-color="#FF1F9A" offset="100%"></stop>
        </linearGradient>
        <path d="M0.949454545,1.5343875 C-0.345614821,4.497075 0.278793623,7.95915 2.49891254,10.29825 L2.49891254,10.29825 L185.686988,203.607788 C187.904538,205.952062 191.306664,206.74125 194.307936,205.58205 L194.307936,205.58205 C194.670247,205.439737 195.029989,205.297425 195.394869,205.155112 L195.394869,205.155112 L1.42225765,0.46575 C1.26037398,0.81765 1.10362947,1.1773125 0.949454545,1.5343875" id="path-21"></path>
        <linearGradient x1="0.00021316264%" y1="49.999093%" x2="99.9986634%" y2="49.999093%" id="linearGradient-23">
            <stop stop-color="#461CBC" offset="0%"></stop>
            <stop stop-color="#7E1FCC" offset="100%"></stop>
        </linearGradient>
        <path d="M1.22789176,0.495589509 C-0.689848295,3.51653934 -0.303726136,7.45612554 2.17002983,10.0447759 L2.17002983,10.0447759 L195.089531,212.147349 C197.563287,214.735999 201.478566,215.307252 204.590711,213.53431 L204.590711,213.53431 L204.642193,213.503431 L1.26135568,0.444125286 L1.22789176,0.495589509 Z" id="path-24"></path>
        <linearGradient x1="-0.000203565993%" y1="49.9994852%" x2="100.00096%" y2="49.9994852%" id="linearGradient-26">
            <stop stop-color="#461CBC" offset="0%"></stop>
            <stop stop-color="#7E1FCC" offset="100%"></stop>
        </linearGradient>
        <path d="M0.288676803,4.89813946 L207.849876,222.112005 C209.489148,220.953751 211.09749,219.749166 212.690367,218.526564 L212.690367,218.526564 L4.10075709,0.236809339 C2.80428895,1.76827893 1.5258631,3.31519191 0.288676803,4.89813946" id="path-27"></path>
        <linearGradient x1="-6.06744502e-07%" y1="49.9995231%" x2="100.000709%" y2="49.9995231%" id="linearGradient-29">
            <stop stop-color="#461CBC" offset="0%"></stop>
            <stop stop-color="#7E1FCC" offset="100%"></stop>
        </linearGradient>
        <path d="M0.490908315,4.97618465 C0.309219468,7.22499307 1.13065778,9.44285458 2.67629247,11.0727249 L2.67629247,11.0727249 L150.148779,166.818181 C151.691855,168.45063 153.84909,169.376459 156.088213,169.299091 L156.088213,169.299091 C157.564755,169.252671 159.038738,169.180462 160.505044,169.087621 L160.505044,169.087621 L0.908024964,0.537882718 C0.749367098,2.01301851 0.608622216,3.49073322 0.490908315,4.97618465" id="path-30"></path>
        <linearGradient x1="0.000293886551%" y1="50.0007654%" x2="99.9998286%" y2="50.0007654%" id="linearGradient-32">
            <stop stop-color="#461CBC" offset="0%"></stop>
            <stop stop-color="#7E1FCC" offset="100%"></stop>
        </linearGradient>
        <path d="M6.20329865,13.9319846 C6.58324692,14.7460154 7.09925774,15.4883707 7.71795729,16.1360116 L7.71795729,16.1360116 L71.6853293,82.9786988 C72.3040289,83.6263398 73.0254171,84.1741467 73.8212547,84.5888417 L73.8212547,84.5888417 C78.239437,86.887583 82.7834129,88.9866564 87.4506153,90.8476641 L87.4506153,90.8476641 L0.570822256,0.0627413127 C2.21897624,4.80101544 4.10844872,9.42409653 6.20329865,13.9319846" id="path-33"></path>
        <linearGradient x1="0.00171414219%" y1="50.0005541%" x2="99.9999867%" y2="50.0005541%" id="linearGradient-35">
            <stop stop-color="#461CBC" offset="0%"></stop>
            <stop stop-color="#7E1FCC" offset="100%"></stop>
        </linearGradient>
        <path d="M0.723052296,2.70515512 C0.0211373299,5.36809626 0.818533376,8.21867707 2.7255744,10.2133125 L2.7255744,10.2133125 L172.338681,187.257772 C174.243141,189.247266 177.063704,190.172613 179.770722,189.601982 L179.770722,189.601982 C180.62489,189.419484 181.471317,189.231844 182.320325,189.036493 L182.320325,189.036493 L1.40690327,0.193867967 C1.16949086,1.02667967 0.942400723,1.8672026 0.723052296,2.70515512" id="path-36"></path>
        <linearGradient x1="-4.43133394e-05%" y1="49.9996887%" x2="100.000282%" y2="49.9996887%" id="linearGradient-38">
            <stop stop-color="#461CBC" offset="0%"></stop>
            <stop stop-color="#7E1FCC" offset="100%"></stop>
        </linearGradient>
        <path d="M1.20961736,7.61668519 C1.43146536,9.29755556 2.20019448,10.8600185 3.37392519,12.0852778 L3.37392519,12.0852778 L121.291297,135.393722 C122.465028,136.621556 123.992167,137.45813 125.663766,137.759296 L125.663766,137.759296 C128.055081,138.186593 130.464454,138.57013 132.897043,138.876444 L132.897043,138.876444 L0.430569732,0.355222222 C0.624041826,2.79801852 0.894902758,5.2125 1.20961736,7.61668519" id="path-39"></path>
        <linearGradient x1="9.73690759e-07%" y1="50.0003651%" x2="100.000004%" y2="50.0003651%" id="linearGradient-41">
            <stop stop-color="#461CBC" offset="0%"></stop>
            <stop stop-color="#7E1FCC" offset="100%"></stop>
        </linearGradient>
        <path d="M0.00291270345,3.89823373 L208.245525,221.825031 C209.528683,220.276038 210.780922,218.703888 211.999664,217.103434 L211.999664,217.103434 L4.90364828,0.375690665 C3.24430353,1.51556399 1.61330163,2.69403347 0.00291270345,3.89823373" id="path-42"></path>
        <linearGradient x1="0.000592875287%" y1="49.9999929%" x2="99.9997403%" y2="49.9999929%" id="linearGradient-44">
            <stop stop-color="#461CBC" offset="0%"></stop>
            <stop stop-color="#7E1FCC" offset="100%"></stop>
        </linearGradient>
        <path d="M129.27271,135.204528 C129.026256,132.694943 128.723324,130.198189 128.361345,127.719396 L128.361345,127.719396 C128.122592,126.089962 127.360126,124.576 126.220277,123.385358 L126.220277,123.385358 L12.1147437,3.86445283 C10.9800294,2.67381132 9.50387395,1.83984906 7.88395378,1.52422642 L7.88395378,1.52422642 C5.42455042,1.04437736 2.94460924,0.626113208 0.444130252,0.264301887 L0.444130252,0.264301887 L129.27271,135.204528 Z" id="path-45"></path>
        <linearGradient x1="0.0011637639%" y1="50.0004925%" x2="99.9991706%" y2="50.0004925%" id="linearGradient-47">
            <stop stop-color="#461CBC" offset="0%"></stop>
            <stop stop-color="#7E1FCC" offset="100%"></stop>
        </linearGradient>
        <path d="M82.5824063,85.8995307 C80.6059688,80.7428488 78.3649687,75.7139975 75.8490313,70.8436559 L75.8490313,70.8436559 C75.4807187,70.1252486 75.000875,69.4707565 74.4380313,68.8904061 L74.4380313,68.8904061 L17.07725,9.63586211 C16.5118125,9.05295509 15.8685625,8.55185958 15.1630625,8.15558507 L15.1630625,8.15558507 C10.3412812,5.44813536 5.3535,3.00912966 0.22046875,0.818115117 L0.22046875,0.818115117 L82.5824063,85.8995307 Z" id="path-48"></path>
        <linearGradient x1="6.92826099e-05%" y1="49.9988173%" x2="100.003799%" y2="49.9988173%" id="linearGradient-50">
            <stop stop-color="#461CBC" offset="0%"></stop>
            <stop stop-color="#7E1FCC" offset="100%"></stop>
        </linearGradient>
        <path d="M4.73006182,0.368749495 C3.18920969,0.394474242 1.65349373,0.445923737 0.120345865,0.520525505 L0.120345865,0.520525505 L158.286249,166.553191 C158.430062,165.025141 158.555898,163.491946 158.656053,161.948461 L158.656053,161.948461 C158.799866,159.74385 157.978079,157.582971 156.452635,155.985464 L156.452635,155.985464 L10.5775957,2.84861515 C9.08810526,1.28712298 7.02849958,0.368749495 4.87387469,0.368749495 L4.87387469,0.368749495 C4.82508104,0.368749495 4.77885547,0.368749495 4.73006182,0.368749495" id="path-51"></path>
        <linearGradient x1="0.000784589419%" y1="49.9997706%" x2="99.999323%" y2="49.9997706%" id="linearGradient-53">
            <stop stop-color="#461CBC" offset="0%"></stop>
            <stop stop-color="#7E1FCC" offset="100%"></stop>
        </linearGradient>
        <path d="M1.89693878,1.17450505 C1.48595547,1.32654097 1.07497217,1.48373064 0.663988868,1.64092031 L0.663988868,1.64092031 L193.564139,204.441369 C193.738807,204.034222 193.916044,203.629652 194.088143,203.227659 L194.088143,203.227659 C195.333936,200.313208 194.650676,196.919457 192.469896,194.626034 L192.469896,194.626034 L10.3863126,3.19735578 C8.85026252,1.58165208 6.73626716,0.687474747 4.58631076,0.687474747 L4.58631076,0.687474747 C3.6821475,0.687474747 2.77284694,0.844664422 1.89693878,1.17450505" id="path-54"></path>
        <linearGradient x1="0.000478271296%" y1="49.9990274%" x2="100.000238%" y2="49.9990274%" id="linearGradient-56">
            <stop stop-color="#461CBC" offset="0%"></stop>
            <stop stop-color="#7E1FCC" offset="100%"></stop>
        </linearGradient>
        <path d="M0.347509943,1.26111395 L0.226525,1.32823773 L202.979271,214.430777 C204.894437,211.327593 204.477425,207.323401 201.965057,204.68492 L201.965057,204.68492 L9.78948381,2.70169372 C8.27588494,1.11137626 6.21914091,0.277476903 4.1366554,0.277476903 L4.1366554,0.277476903 C2.84185909,0.274910585 1.53934034,0.597621109 0.347509943,1.26111395" id="path-57"></path>
        <linearGradient x1="1.60293221e-05%" y1="49.9996134%" x2="99.9999049%" y2="49.9996134%" id="linearGradient-59">
            <stop stop-color="#461CBC" offset="0%"></stop>
            <stop stop-color="#7E1FCC" offset="100%"></stop>
        </linearGradient>
        <path d="M0.0399773243,4.25539068 L210.178744,224.151855 C211.642558,222.795854 213.077975,221.406339 214.484993,219.996201 L214.484993,219.996201 L4.40560529,0.153873967 C2.92371856,1.49698535 1.46764868,2.85814237 0.0399773243,4.25539068" id="path-60"></path>
        <linearGradient x1="0.000706563614%" y1="50.0005068%" x2="100.000343%" y2="50.0005068%" id="linearGradient-62">
            <stop stop-color="#461CBC" offset="0%"></stop>
            <stop stop-color="#7E1FCC" offset="100%"></stop>
        </linearGradient>
        <path d="M2.92961429,0.659672099 C2.03495714,0.8367657 1.1403,1.02155902 0.250814286,1.21661864 L0.250814286,1.21661864 L180.063971,188.253127 C180.299271,187.380492 180.526814,186.50529 180.744014,185.624955 L180.744014,185.624955 C181.405957,182.99165 180.6018,180.188952 178.716814,178.225523 L178.716814,178.225523 L10.2808,3.02092011 C8.74747143,1.42451113 6.6246,0.513377385 4.44225714,0.513377385 L4.44225714,0.513377385 C3.93804286,0.513377385 3.43382857,0.562142289 2.92961429,0.659672099" id="path-63"></path>
        <linearGradient x1="0.000676896826%" y1="49.9998882%" x2="100.000627%" y2="49.9998882%" id="linearGradient-65">
            <stop stop-color="#461CBC" offset="0%"></stop>
            <stop stop-color="#7E1FCC" offset="100%"></stop>
        </linearGradient>
    </defs>
    <g id="DEV" stroke="none" stroke-width="1" fill="none" fill-rule="evenodd">
        <g id="SEO-Email-Client-" transform="translate(0.000000, -3505.000000)">
            <g id="Group-12" transform="translate(0.000000, 3505.000000)">
                <mask id="mask-2" fill="white">
                    <use xlink:href="#path-1"></use>
                </mask>
                <use id="Mask" fill="#484292" xlink:href="#path-1"></use>
                <g id="Group-107" opacity="0.710797991" style="mix-blend-mode: soft-light;" mask="url(#mask-2)">
                    <g transform="translate(-11.000000, -400.000000)">
                        <g id="Group-3">
                            <mask id="mask-4" fill="white">
                                <use xlink:href="#path-3"></use>
                            </mask>
                            <g id="Clip-2"></g>
                            <polygon id="Fill-1" fill="url(#linearGradient-5)" mask="url(#mask-4)" points="0.786989741 1286.6481 1931.1455 1286.6481 1931.1455 0.36476175 0.786989741 0.36476175"></polygon>
                        </g>
                        <g id="Group-6" transform="translate(0.000000, 368.000000)">
                            <mask id="mask-7" fill="white">
                                <use xlink:href="#path-6"></use>
                            </mask>
                            <g id="Clip-5"></g>
                            <path d="M1802.47826,88.1959858 C1729.01664,157.196063 1687.15108,252.232256 1635.08809,338.50486 L1635.08809,338.50486 C1583.02768,424.782608 1511.42434,509.221211 1413.01223,531.069736 L1413.01223,531.069736 C1328.2799,549.883028 1240.18102,518.154567 1164.90744,474.959104 L1164.90744,474.959104 C1089.6287,431.766213 1021.00326,376.586729 941.536945,341.691853 L941.536945,341.691853 C801.328759,280.122949 637.747824,287.73675 492.502696,336.254158 L492.502696,336.254158 C347.257568,384.766421 217.758997,471.249948 96.7256796,565.020603 L96.7256796,565.020603 C64.2751094,590.161582 32.2903986,615.896746 0.786989741,642.213234 L0.786989741,642.213234 L0.786989741,918.648251 L1931.14292,918.648251 L1931.14292,0.598683355 C1885.19788,25.469578 1840.42391,52.5525907 1802.47826,88.1959858" id="Fill-4" fill="url(#linearGradient-8)" mask="url(#mask-7)"></path>
                        </g>
                        <g id="Group-9">
                            <mask id="mask-10" fill="white">
                                <use xlink:href="#path-9"></use>
                            </mask>
                            <g id="Clip-8"></g>
                            <path d="M0.786436065,0.365232409 L0.786436065,523.333546 C30.0568995,476.509358 55.5199903,426.584485 84.0315517,379.291978 L84.0315517,379.291978 C136.069075,292.984888 207.634817,208.517624 305.996231,186.658445 L305.996231,186.658445 C390.692265,167.840767 478.742902,199.578391 553.984818,242.789832 L553.984818,242.789832 C629.221588,286.001273 697.813464,341.198595 777.246062,376.108952 L777.246062,376.108952 C917.380528,437.698057 1080.88146,430.081439 1226.05555,381.548658 L1226.05555,381.548658 C1371.23221,333.01845 1500.66744,246.502933 1621.64156,152.695019 L1621.64156,152.695019 C1684.30629,104.103055 1745.24998,53.2827152 1804.31056,0.365232409 L1804.31056,0.365232409 L0.786436065,0.365232409 Z" id="Fill-7" fill="url(#linearGradient-11)" mask="url(#mask-10)"></path>
                        </g>
                        <g id="Group-18" transform="translate(936.000000, 0.000000)">
                            <mask id="mask-13" fill="white">
                                <use xlink:href="#path-12"></use>
                            </mask>
                            <g id="Clip-17"></g>
                            <path d="M3.38569024,0.365281782 C-2.59888721,42.3085497 1.04278089,85.6103875 15.1285268,125.595565 L15.1285268,125.595565 C45.1259962,210.745468 121.433859,277.917479 209.664585,296.847399 L209.664585,296.847399 C264.063288,308.518748 320.077082,302.814299 376.029152,297.112423 L376.029152,297.112423 C434.905358,291.1095 493.712125,285.111724 550.50003,299.350976 L550.50003,299.350976 C628.595294,318.93445 693.445791,375.425735 739.056655,441.802675 L739.056655,441.802675 C770.273157,487.23757 794.059731,538.037271 830.684728,579.234355 L830.684728,579.234355 C874.356455,628.343564 932.131931,659.487746 995.143591,679.233323 L995.143591,679.233323 L995.143591,0.365281782 L3.38569024,0.365281782 Z" id="Fill-16" fill="url(#linearGradient-14)" mask="url(#mask-13)"></path>
                        </g>
                        <g id="Group-21" transform="translate(0.000000, 233.000000)">
                            <mask id="mask-16" fill="white">
                                <use xlink:href="#path-15"></use>
                            </mask>
                            <g id="Clip-20"></g>
                            <path d="M0.787283811,1054.64782 L1443.90054,1054.64782 C1382.69517,992.760751 1299.23189,952.739798 1211.93282,952.49787 L1211.93282,952.49787 C1193.38972,952.44897 1174.85949,953.952008 1156.3447,955.455046 L1156.3447,955.455046 C1130.8637,957.524296 1105.40845,959.596121 1079.96864,957.611802 L1079.96864,957.611802 C1019.13397,952.876204 960.513257,923.999348 919.686506,878.668863 L919.686506,878.668863 C919.686506,878.668863 891.515302,825.591556 819.433266,702.051633 L819.433266,702.051633 C747.35123,578.516859 608.335874,496.156053 469.320519,527.042963 L469.320519,527.042963 C330.305163,557.9273 279.178405,521.782331 279.178405,521.782331 L279.178405,521.782331 C231.073943,493.587505 190.986034,444.666715 190.043818,388.928208 L190.043818,388.928208 C189.140219,335.240935 223.518201,287.329033 232.502712,234.390706 L232.502712,234.390706 C247.269232,147.35607 186.895378,59.1401087 106.168646,23.3683252 L106.168646,23.3683252 C72.8332789,8.59531728 37.080589,1.49706713 0.787283811,0.449573362 L0.787283811,0.449573362 L0.787283811,1054.64782 Z" id="Fill-19" fill="url(#linearGradient-17)" mask="url(#mask-16)"></path>
                        </g>
                        <g id="Group-24" transform="translate(0.000000, 737.000000)">
                            <mask id="mask-19" fill="white">
                                <use xlink:href="#path-18"></use>
                            </mask>
                            <g id="Clip-23"></g>
                            <path d="M0.787205131,549.648645 L663.717978,549.648645 C619.817972,534.551127 574.33981,523.068581 529.657162,510.326194 L529.657162,510.326194 C451.344102,487.998735 371.766974,459.873438 312.064819,404.545871 L312.064819,404.545871 C224.918724,323.784952 194.305601,199.132733 121.849479,104.999507 L121.849479,104.999507 C89.0480495,62.3886157 47.4959675,26.6939916 0.787205131,0.0187971402 L0.787205131,0.0187971402 L0.787205131,549.648645 Z" id="Fill-22" fill="url(#linearGradient-20)" mask="url(#mask-19)"></path>
                        </g>
                        <g id="Group-27" transform="translate(1390.000000, 647.000000)">
                            <mask id="mask-22" fill="white">
                                <use xlink:href="#path-21"></use>
                            </mask>
                            <g id="Clip-26"></g>
                            <path d="M0.949454545,1.5343875 C-0.345614821,4.497075 0.278793623,7.95915 2.49891254,10.29825 L2.49891254,10.29825 L185.686988,203.607788 C187.904538,205.952062 191.306664,206.74125 194.307936,205.58205 L194.307936,205.58205 C194.670247,205.439737 195.029989,205.297425 195.394869,205.155112 L195.394869,205.155112 L1.42225765,0.46575 C1.26037398,0.81765 1.10362947,1.1773125 0.949454545,1.5343875" id="Fill-25" fill="url(#linearGradient-23)" mask="url(#mask-22)"></path>
                        </g>
                        <g id="Group-30" transform="translate(1400.000000, 629.000000)">
                            <mask id="mask-25" fill="white">
                                <use xlink:href="#path-24"></use>
                            </mask>
                            <g id="Clip-29"></g>
                            <path d="M1.22789176,0.495589509 C-0.689848295,3.51653934 -0.303726136,7.45612554 2.17002983,10.0447759 L2.17002983,10.0447759 L195.089531,212.147349 C197.563287,214.735999 201.478566,215.307252 204.590711,213.53431 L204.590711,213.53431 L204.642193,213.503431 L1.26135568,0.444125286 L1.22789176,0.495589509 Z" id="Fill-28" fill="url(#linearGradient-26)" mask="url(#mask-25)"></path>
                        </g>
                        <g id="Group-33" transform="translate(1410.000000, 613.000000)">
                            <mask id="mask-28" fill="white">
                                <use xlink:href="#path-27"></use>
                            </mask>
                            <g id="Clip-32"></g>
                            <path d="M0.288676803,4.89813946 L207.849876,222.112005 C209.489148,220.953751 211.09749,219.749166 212.690367,218.526564 L212.690367,218.526564 L4.10075709,0.236809339 C2.80428895,1.76827893 1.5258631,3.31519191 0.288676803,4.89813946" id="Fill-31" fill="url(#linearGradient-29)" mask="url(#mask-28)"></path>
                        </g>
                        <g id="Group-36" transform="translate(1378.000000, 693.000000)">
                            <mask id="mask-31" fill="white">
                                <use xlink:href="#path-30"></use>
                            </mask>
                            <g id="Clip-35"></g>
                            <path d="M0.490908315,4.97618465 C0.309219468,7.22499307 1.13065778,9.44285458 2.67629247,11.0727249 L2.67629247,11.0727249 L150.148779,166.818181 C151.691855,168.45063 153.84909,169.376459 156.088213,169.299091 L156.088213,169.299091 C157.564755,169.252671 159.038738,169.180462 160.505044,169.087621 L160.505044,169.087621 L0.908024964,0.537882718 C0.749367098,2.01301851 0.608622216,3.49073322 0.490908315,4.97618465" id="Fill-34" fill="url(#linearGradient-32)" mask="url(#mask-31)"></path>
                        </g>
                        <g id="Group-39" transform="translate(1386.000000, 760.000000)">
                            <mask id="mask-34" fill="white">
                                <use xlink:href="#path-33"></use>
                            </mask>
                            <g id="Clip-38"></g>
                            <path d="M6.20329865,13.9319846 C6.58324692,14.7460154 7.09925774,15.4883707 7.71795729,16.1360116 L7.71795729,16.1360116 L71.6853293,82.9786988 C72.3040289,83.6263398 73.0254171,84.1741467 73.8212547,84.5888417 L73.8212547,84.5888417 C78.239437,86.887583 82.7834129,88.9866564 87.4506153,90.8476641 L87.4506153,90.8476641 L0.570822256,0.0627413127 C2.21897624,4.80101544 4.10844872,9.42409653 6.20329865,13.9319846" id="Fill-37" fill="url(#linearGradient-35)" mask="url(#mask-34)"></path>
                        </g>
                        <g id="Group-42" transform="translate(1382.000000, 670.000000)">
                            <mask id="mask-37" fill="white">
                                <use xlink:href="#path-36"></use>
                            </mask>
                            <g id="Clip-41"></g>
                            <path d="M0.723052296,2.70515512 C0.0211373299,5.36809626 0.818533376,8.21867707 2.7255744,10.2133125 L2.7255744,10.2133125 L172.338681,187.257772 C174.243141,189.247266 177.063704,190.172613 179.770722,189.601982 L179.770722,189.601982 C180.62489,189.419484 181.471317,189.231844 182.320325,189.036493 L182.320325,189.036493 L1.40690327,0.193867967 C1.16949086,1.02667967 0.942400723,1.8672026 0.723052296,2.70515512" id="Fill-40" fill="url(#linearGradient-38)" mask="url(#mask-37)"></path>
                        </g>
                        <g id="Group-45" transform="translate(1377.000000, 722.000000)">
                            <mask id="mask-40" fill="white">
                                <use xlink:href="#path-39"></use>
                            </mask>
                            <g id="Clip-44"></g>
                            <path d="M1.20961736,7.61668519 C1.43146536,9.29755556 2.20019448,10.8600185 3.37392519,12.0852778 L3.37392519,12.0852778 L121.291297,135.393722 C122.465028,136.621556 123.992167,137.45813 125.663766,137.759296 L125.663766,137.759296 C128.055081,138.186593 130.464454,138.57013 132.897043,138.876444 L132.897043,138.876444 L0.430569732,0.355222222 C0.624041826,2.79801852 0.894902758,5.2125 1.20961736,7.61668519" id="Fill-43" fill="url(#linearGradient-41)" mask="url(#mask-40)"></path>
                        </g>
                        <g id="Group-48" transform="translate(1438.000000, 586.000000)">
                            <mask id="mask-43" fill="white">
                                <use xlink:href="#path-42"></use>
                            </mask>
                            <g id="Clip-47"></g>
                            <path d="M0.00291270345,3.89823373 L208.245525,221.825031 C209.528683,220.276038 210.780922,218.703888 211.999664,217.103434 L211.999664,217.103434 L4.90364828,0.375690665 C3.24430353,1.51556399 1.61330163,2.69403347 0.00291270345,3.89823373" id="Fill-46" fill="url(#linearGradient-44)" mask="url(#mask-43)"></path>
                        </g>
                        <g id="Group-51" transform="translate(1550.000000, 561.000000)">
                            <mask id="mask-46" fill="white">
                                <use xlink:href="#path-45"></use>
                            </mask>
                            <g id="Clip-50"></g>
                            <path d="M129.27271,135.204528 C129.026256,132.694943 128.723324,130.198189 128.361345,127.719396 L128.361345,127.719396 C128.122592,126.089962 127.360126,124.576 126.220277,123.385358 L126.220277,123.385358 L12.1147437,3.86445283 C10.9800294,2.67381132 9.50387395,1.83984906 7.88395378,1.52422642 L7.88395378,1.52422642 C5.42455042,1.04437736 2.94460924,0.626113208 0.444130252,0.264301887 L0.444130252,0.264301887 L129.27271,135.204528 Z" id="Fill-49" fill="url(#linearGradient-47)" mask="url(#mask-46)"></path>
                        </g>
                        <g id="Group-54" transform="translate(1590.000000, 571.000000)">
                            <mask id="mask-49" fill="white">
                                <use xlink:href="#path-48"></use>
                            </mask>
                            <g id="Clip-53"></g>
                            <path d="M82.5824063,85.8995307 C80.6059688,80.7428488 78.3649687,75.7139975 75.8490313,70.8436559 L75.8490313,70.8436559 C75.4807187,70.1252486 75.000875,69.4707565 74.4380313,68.8904061 L74.4380313,68.8904061 L17.07725,9.63586211 C16.5118125,9.05295509 15.8685625,8.55185958 15.1630625,8.15558507 L15.1630625,8.15558507 C10.3412812,5.44813536 5.3535,3.00912966 0.22046875,0.818115117 L0.22046875,0.818115117 L82.5824063,85.8995307 Z" id="Fill-52" fill="url(#linearGradient-50)" mask="url(#mask-49)"></path>
                        </g>
                        <g id="Group-57" transform="translate(1522.000000, 559.000000)">
                            <mask id="mask-52" fill="white">
                                <use xlink:href="#path-51"></use>
                            </mask>
                            <g id="Clip-56"></g>
                            <path d="M4.73006182,0.368749495 C3.18920969,0.394474242 1.65349373,0.445923737 0.120345865,0.520525505 L0.120345865,0.520525505 L158.286249,166.553191 C158.430062,165.025141 158.555898,163.491946 158.656053,161.948461 L158.656053,161.948461 C158.799866,159.74385 157.978079,157.582971 156.452635,155.985464 L156.452635,155.985464 L10.5775957,2.84861515 C9.08810526,1.28712298 7.02849958,0.368749495 4.87387469,0.368749495 L4.87387469,0.368749495 C4.82508104,0.368749495 4.77885547,0.368749495 4.73006182,0.368749495" id="Fill-55" fill="url(#linearGradient-53)" mask="url(#mask-52)"></path>
                        </g>
                        <g id="Group-60" transform="translate(1475.000000, 567.000000)">
                            <mask id="mask-55" fill="white">
                                <use xlink:href="#path-54"></use>
                            </mask>
                            <g id="Clip-59"></g>
                            <path d="M1.89693878,1.17450505 C1.48595547,1.32654097 1.07497217,1.48373064 0.663988868,1.64092031 L0.663988868,1.64092031 L193.564139,204.441369 C193.738807,204.034222 193.916044,203.629652 194.088143,203.227659 L194.088143,203.227659 C195.333936,200.313208 194.650676,196.919457 192.469896,194.626034 L192.469896,194.626034 L10.3863126,3.19735578 C8.85026252,1.58165208 6.73626716,0.687474747 4.58631076,0.687474747 L4.58631076,0.687474747 C3.6821475,0.687474747 2.77284694,0.844664422 1.89693878,1.17450505" id="Fill-58" fill="url(#linearGradient-56)" mask="url(#mask-55)"></path>
                        </g>
                        <g id="Group-63" transform="translate(1455.000000, 576.000000)">
                            <mask id="mask-58" fill="white">
                                <use xlink:href="#path-57"></use>
                            </mask>
                            <g id="Clip-62"></g>
                            <path d="M0.347509943,1.26111395 L0.226525,1.32823773 L202.979271,214.430777 C204.894437,211.327593 204.477425,207.323401 201.965057,204.68492 L201.965057,204.68492 L9.78948381,2.70169372 C8.27588494,1.11137626 6.21914091,0.277476903 4.1366554,0.277476903 L4.1366554,0.277476903 C2.84185909,0.274910585 1.53934034,0.597621109 0.347509943,1.26111395" id="Fill-61" fill="url(#linearGradient-59)" mask="url(#mask-58)"></path>
                        </g>
                        <g id="Group-66" transform="translate(1423.000000, 598.000000)">
                            <mask id="mask-61" fill="white">
                                <use xlink:href="#path-60"></use>
                            </mask>
                            <g id="Clip-65"></g>
                            <path d="M0.0399773243,4.25539068 L210.178744,224.151855 C211.642558,222.795854 213.077975,221.406339 214.484993,219.996201 L214.484993,219.996201 L4.40560529,0.153873967 C2.92371856,1.49698535 1.46764868,2.85814237 0.0399773243,4.25539068" id="Fill-64" fill="url(#linearGradient-62)" mask="url(#mask-61)"></path>
                        </g>
                        <g id="Group-69" transform="translate(1497.000000, 562.000000)">
                            <mask id="mask-64" fill="white">
                                <use xlink:href="#path-63"></use>
                            </mask>
                            <g id="Clip-68"></g>
                            <path d="M2.92961429,0.659672099 C2.03495714,0.8367657 1.1403,1.02155902 0.250814286,1.21661864 L0.250814286,1.21661864 L180.063971,188.253127 C180.299271,187.380492 180.526814,186.50529 180.744014,185.624955 L180.744014,185.624955 C181.405957,182.99165 180.6018,180.188952 178.716814,178.225523 L178.716814,178.225523 L10.2808,3.02092011 C8.74747143,1.42451113 6.6246,0.513377385 4.44225714,0.513377385 L4.44225714,0.513377385 C3.93804286,0.513377385 3.43382857,0.562142289 2.92961429,0.659672099" id="Fill-67" fill="url(#linearGradient-65)" mask="url(#mask-64)"></path>
                        </g>
                    </g>
                </g>
            </g>
        </g>
    </g>
</svg>