<?xml version="1.0" encoding="UTF-8"?> <svg xmlns="http://www.w3.org/2000/svg" fill="none" height="28" viewBox="0 0 28 28" width="28"><path d="m21.2116 3.93884c-.3546-.25819-.7666-.42657-1.2005-.49072-.434-.06415-.8771-.02215-1.2913.1224l-10.51718 3.66838h-3.52805c-2.57502 0-4.66993133 2.42151-4.66993133 5.3977 0 2.9761 2.09491133 5.3976 4.66993133 5.3976h.3034v5.6734c0 .2321.09219.4546.25629.6187.16409.1641.38665.2563.61871.2563h.00597l1.21203-.0083c.11491-.0003.22862-.0233.33463-.0677.10601-.0443.20226-.1091.28324-.1906s.14511-.1782.18872-.2845c.04362-.1063.06587-.2202.06549-.3351-.00039-.1149-.0234-.2286-.06773-.3346-.04432-.106-.1091-.2023-.19062-.2832-.08152-.081-.1782-.1451-.28451-.1888-.1063-.0436-.22016-.0658-.33507-.0655h-.00601l-.33114.0023v-4.7918h1.47465l10.51718 3.6683c.2868.1006.5885.1522.8924.1525.5744-.0026 1.1336-.1847 1.5994-.5208.887-.63 1.4164-1.7175 1.4164-2.9093v-11.57739c.0001-1.19164-.5294-2.27921-1.4164-2.90927zm-19.45696 8.69796c0-2.0114 1.30987-3.64762 2.91993-3.64762h2.80126v7.29562h-2.80126c-1.61006 0-2.91993-1.6365-2.91993-3.648zm19.12346 5.7887c0 .6166-.2605 1.1848-.6799 1.4826-.1269.0964-.2757.1599-.433.1848-.1574.0249-.3186.0104-.469-.0421l-10.07037-3.5125v-7.80287l10.07027-3.51258c.1505-.05256.3117-.06704.4692-.04213.1574.02491.3063.08842.4332.18486.4194.29789.6799.86598.6799 1.48258zm3.7133-12.43259c-.0469-.10489-.0728-.21799-.076-.33285s.0162-.22924.0572-.3366c.0409-.10736.1026-.2056.1816-.28911.0789-.0835.1735-.15065.2784-.19759l1.5795-.70695c.105-.04747.2183-.07374.3334-.07731.1152-.00358.2299.01562.3376.05648s.2063.10259.29.18164c.0838.07905.1512.17387.1982.27901.0471.10515.0729.21855.0761.3337.0031.11515-.0166.22979-.0578.33733-.0413.10754-.1034.20587-.1828.28935s-.1745.15047-.2798.19711l-1.5795.70695c-.1048.04703-.218.07292-.3328.0762-.1149.00328-.2293-.01613-.3367-.0571-.1074-.04098-.2056-.10272-.2891-.18169-.0835-.07898-.1506-.17364-.1975-.27857zm3.1768 14.70979c-.0468.1049-.1139.1996-.1974.2786s-.1818.1407-.2891.1817c-.1074.041-.2218.0604-.3367.0571s-.228-.0292-.3329-.0762l-1.5795-.707c-.1062-.0461-.2022-.1127-.2825-.1962-.0802-.0834-.1431-.1819-.185-.2899-.0419-.1079-.062-.223-.059-.3388.0029-.1157.0288-.2297.0761-.3353.0473-.1057.1151-.2009.1994-.2802.0844-.0793.1836-.141.292-.1816.1084-.0407.2238-.0594.3395-.0551s.2294.0314.3345.08l1.5795.707c.2117.0948.3772.2698.4599.4866.0828.2167.076.4575-.0187.6693zm.2272-8.0659c0 .2321-.0922.4547-.2563.6188-.1641.164-.3866.2562-.6187.2562h-1.7303c-.2321 0-.4546-.0922-.6187-.2562-.1641-.1641-.2563-.3867-.2563-.6188 0-.232.0922-.4546.2563-.6187s.3866-.2563.6187-.2563h1.7303c.2321 0 .4547.0922.6188.2563s.2562.3867.2562.6187zm-15.1711-.7849v1.7303c0 .2321-.0922.4546-.2563.6187s-.3867.2563-.6187.2563c-.2321 0-.4547-.0922-.6188-.2563-.164-.1641-.2562-.3866-.2562-.6187v-1.7303c0-.2321.0922-.4547.2562-.6188.1641-.1641.3867-.2562.6188-.2562.232 0 .4546.0921.6187.2562s.2563.3867.2563.6188z" fill="#1ab394"></path></svg> 