<?xml version="1.0" encoding="UTF-8"?> <svg xmlns="http://www.w3.org/2000/svg" fill="none" height="28" viewBox="0 0 28 28" width="28"><path d="m21.7781 13.996c-.5964-.0001-1.1848.1372-1.7196.4013s-1.0016.6479-1.3642 1.1216l-.068-.0292c.2674-.8285.3074-1.7136.116-2.5629-.1914-.8494-.6072-1.6317-1.2041-2.2653-.5969-.6337-1.3529-1.09537-2.1891-1.33692s-1.7219-.25408-2.5646-.03629l-.0885-.16727c.7062-.62848 1.159-1.493 1.2736-2.43153.1146-.93852-.1169-1.88664-.6511-2.66665s-1.3345-1.33839-2.2508-1.57048c-.9162-.23208-1.8857-.12196-2.72663.30975s-1.49561 1.15536-1.84136 2.03533c-.34574.87998-.35881 1.85587-.03676 2.7448.32205.88892.95712 1.62986 1.78619 2.08394.82906.45412 1.79526.59012 2.71736.38272l.071.1332c-.9721.7462-1.62606 1.8327-1.83055 3.0412s.05562 2.4497.72811 3.4744l-1.83255 1.7145c-.82832-.4578-1.7951-.5978-2.71918-.3936-.92407.2041-1.74201.7383-2.30054 1.5025-.55854.7642-.81933 1.7059-.73351 2.6486s.51237 1.8218 1.1997 2.4725 1.58828 1.0283 2.53402 1.0621c.94574.0339 1.87135-.2784 2.60338-.8784.73204-.5999 1.22026-1.4462 1.37322-2.3804.1529-.9342-.04-1.8921-.54258-2.6943l1.78688-1.6707c.9814.6562 2.1682.9321 3.3383.7762 1.17-.1559 2.2433-.7329 3.0187-1.6232l.2713.1157c-.1177.7853.0077 1.5877.3592 2.2996.3516.7119.9125 1.2991 1.6075 1.6827.6949.3837 1.4906.5455 2.2801.4636s1.5351-.4036 2.1365-.9217c.6015-.5182 1.03-1.208 1.2281-1.9769.198-.7689.1561-1.58-.1201-2.3244-.2763-.7443-.7736-1.3863-1.4253-1.8397-.6516-.4533-1.4264-.6963-2.2201-.6964zm-13.61045-7.77975c0-.38468.11403-.76071.32768-1.08056.21365-.31984.51731-.56913.8726-.71634.35528-.1472.74627-.18572 1.12337-.11068.3772.07505.7236.26029.9956.53229.2719.27201.4571.61857.5321.99585s.0365.76834-.1107 1.12374c-.1471.35539-.3963.65915-.7161.87286-.3197.21371-.6956.32778-1.0802.32778-.51568 0-1.01023-.20491-1.37487-.56966-.36463-.36475-.56948-.85945-.56948-1.37528zm-1.94435 17.50445c-.38456 0-.76048-.114-1.08022-.3277-.31975-.2137-.56896-.5175-.71612-.8729-.14717-.3554-.18567-.7465-.11065-1.1237.07503-.3773.26021-.7239.53213-.9959s.61837-.4572.99554-.5323c.37716-.075.76811-.0365 1.12339.1107s.65895.3965.8726.7163c.21364.3199.32768.6959.32768 1.0806 0 .5158-.20485 1.0105-.56949 1.3753-.36463.3647-.85919.5696-1.37486.5696zm7.7774-6.8073c-.6313-.0012-1.2451-.2073-1.7492-.5872-.5042-.38-.8715-.9133-1.0469-1.5199-.1753-.6066-.1491-1.2537.0746-1.8441.2237-.5905.6328-1.0924 1.166-1.4304l.3957-.211c.3976-.173.8287-.2552 1.262-.2405s.8579.1258 1.2429.3253.7206.4823.9826.8279c.2619.3456.4435.7453.5316 1.1699.088.4247.0803.8637-.0225 1.285-.1029.4213-.2984.8143-.5723 1.1505-.2739.3363-.6193.6072-1.011.793-.3917.1859-.8199.2821-1.2535.2815zm7.7774 2.9175c-.3846 0-.7605-.1141-1.0802-.3278-.3198-.2137-.569-.5175-.7162-.8729-.1471-.3554-.1856-.7464-.1106-1.1237s.2602-.7239.5321-.9959.6184-.4572.9956-.5323c.3771-.075.7681-.0365 1.1234.1107.3552.1472.6589.3965.8725.7164.2137.3198.3277.6958.3277 1.0805 0 .5158-.2048 1.0105-.5695 1.3753-.3646.3647-.8591.5697-1.3748.5697z" fill="#1ab394"></path></svg> 