<?xml version="1.0" encoding="UTF-8"?> <svg xmlns="http://www.w3.org/2000/svg" fill="none" height="28" viewBox="0 0 28 28" width="28"><g fill="#1ab394"><path d="m5.25178 23.6943c-.2578 0-.50504-.1024-.68733-.2847s-.2847-.4295-.2847-.6873v-20.38929h-1.94406v20.38929c0 .7734.30723 1.5151.8541 2.0619.54688.5469 1.28859.8541 2.06199.8541h20.41262v-1.944z"></path><path d="m9.13986 13.9971h-1.94406v6.8042h1.94406z"></path><path d="m14 12.0537h-1.9441v8.7483h1.9441z"></path><path d="m18.8601 14.9697h-1.9441v5.8322h1.9441z"></path><path d="m23.7202 11.0811h-1.9441v9.7202h1.9441z"></path><path d="m13.0281 6.62389 4.8601 4.86011 7.4914-7.49139-1.3744-1.37445-6.117 6.11697-4.8601-4.86013-5.54739 5.54736 1.37445 1.37444z"></path></g></svg> 