<?xml version="1.0" encoding="UTF-8"?> <svg xmlns="http://www.w3.org/2000/svg" fill="none" height="28" viewBox="0 0 28 28" width="28"><path d="m10.1104 7.19417c0-2.14477-1.74404-3.88898-3.88858-3.88898-2.14455 0-3.88857 1.74421-3.88857 3.88898 0 1.80838 1.24143 3.33283 2.91643 3.76553v7.0517c-1.675.4326-2.91643 1.9571-2.91643 3.7655 0 2.1447 1.74402 3.889 3.88857 3.889 2.14454 0 3.88858-1.7443 3.88858-3.889 0-1.8084-1.24144-3.3329-2.91644-3.7655v-7.0517c1.675-.4327 2.91644-1.95715 2.91644-3.76553zm-5.83287 0c0-1.07238.87201-1.94449 1.94429-1.94449 1.07227 0 1.94428.87211 1.94428 1.94449 0 1.07239-.87201 1.94449-1.94428 1.94449-1.07228 0-1.94429-.8721-1.94429-1.94449zm3.88857 14.58363c0 1.0724-.87201 1.9445-1.94428 1.9445-1.07228 0-1.94429-.8721-1.94429-1.9445 0-1.0723.87201-1.9444 1.94429-1.9444 1.07227 0 1.94428.8721 1.94428 1.9444zm14.5821-3.7655v-6.9291c0-2.68052-2.1805-4.86127-4.8607-4.86127h-3.3743l2.1348-2.24686c.3704-.3889.3539-1.0053-.035-1.37475-.3879-.36848-1.0042-.3539-1.3736.035l-2.3293 2.452c-1.1374 1.13655-1.1374 2.98771-.0291 4.0951l2.3477 2.55798c.1905.209.453.315.7155.315.2353 0 .4705-.0846.6572-.2557.3956-.3636.4228-.9781.0593-1.3738l-2.0736-2.25948h3.3024c1.6079 0 2.9164 1.30864 2.9164 2.91678v6.9291c-1.676.4327-2.9164 1.9572-2.9164 3.7655 0 2.1448 1.744 3.889 3.8885 3.889 2.1446 0 3.8886-1.7442 3.8886-3.889 0-1.8083-1.2405-3.3328-2.9164-3.7655zm-.9721 5.71c-1.0723 0-1.9443-.8721-1.9443-1.9445 0-1.0723.872-1.9444 1.9443-1.9444 1.0722 0 1.9443.8721 1.9443 1.9444 0 1.0724-.8721 1.9445-1.9443 1.9445z" fill="#1ab394"></path></svg> 