<?xml version="1.0" encoding="UTF-8"?> <svg xmlns="http://www.w3.org/2000/svg" height="42" viewBox="0 0 45 42" width="45"><g fill="#ee3124" fill-rule="evenodd"><g fill-opacity=".101262"><path d="m22.0093209 22.4553533c-.0673255-1.0489322-1.2886046-1.1400509-1.6775581-.3698136-.0017442-.0039152-.0034884-.0074746-.0048837-.0117457.122093-.9439322-.6073256-2.0348645-1.7832558-1.7074068-.730814.2035932-1.4302326.482644-2.1756977.6392542-.6952326.1462881-1.4584884.0964576-2.0745349.4765932-.424186.2619661-.625814 1.0183221-.1740698 1.3767458.4206977.3335085.9910465.5271356 1.615814.624661.1496512.1825932.3743023.315.6746512.341339.2696511.0238475.5424418.0338136.816279.0373729.1098837.3509491.3976744.635339.8665116.635339.5005814 0 .7932559-.325678.8843024-.7097289.06-.0053389.1210465-.0088983.1810465-.0145932.3613953-.0345254.6851163-.2000339.915-.4445593-.2319768 1.0852373-.6456977 2.1113898-1.212907 3.0563898-1.3538372 1.533356-2.8803488 2.5527458-4.9667442 2.6456441-1.9768604.0882712-3.4056977-.9168814-5.23360463-1.3781695-.35372093-.089339-.71860465.241322-.60593023.6182542.72523256 2.4246102 3.84034886 3.6073729 6.11127906 3.6404746 2.8388372.0416441 5.4931395-1.4361864 7.1944186-3.6938644.3788372-.5025763.3237209-1.054983.0495349-1.5020339.4796512-1.3525424.6948837-2.7776949.6003488-4.2601525"></path><path d="m32.736414 30.1502516c-.3533721-.6164746-1.2376745-.9076271-1.8491861-.4947458-.4175581.2818983-.8169767.6100678-1.2756977.8229153-.454186.2107118-.9505814.2594745-1.4173255.4274745-.6034884.2174746-.8051163 1.1008984-.1859303 1.4525594 1.2104651.687661 3.1168605.4385084 4.2432558-.3217627.6080233-.4103899.867907-1.2187119.4848838-1.8864407"></path><path d="m31.9173442 21.2195567c-.8155814-.3513051-1.875.0911186-2.0863954 1.0222373-.0038372.0170847-.019186.0722542-.0327907.1235084-.0181395.0387966-.0390697.0868475-.0439534.1014407-.0031396.0085424-.0024419.0110339-.0034884.0163729-.0045349.0042712-.0066279.005339-.0118605.010322-.0139535.0131695-.0847674.0761695-.1280232.1171017-.0362791.0231356-.0784884.0508983-.0861628.058017-.0094186.0085423-.012907.0135254-.0160465.0185084-.0115117.0032034-.0205814.005339-.0373256.0103221-.1775582.0558813-.3509303.1121186-.5351163.1395254-.4887209.0729661-.8410465.6606102-.8410465 1.1268814 0 .5488474.3652325.939661.8410465 1.1268813 1.3953488.5502712 3.0509302-.351661 3.7206977-1.6330169.4356976-.8339492.1332558-1.8622373-.7395349-2.2381017"></path><path d="m31.242693 14.8053024c-.3048837-.4822881-.9955814-.7549322-1.504186-.4022034-.3390698.2345594-.6781396.4694746-1.0172093.7043899-.4454651.3082373-.6854651.9393051-.3697675 1.4390339.3136047.4961695.8989535.6517118 1.4103489.3772881.362093-.1946949.724186-.3890339 1.086279-.5833729.51-.2737118.7063954-1.0414576.3945349-1.5351356"></path></g><path d="m44.2769954 28.8489634c-.7583721-5.774644-1.4703489-11.5489322-2.0846512-17.3410169-.1022093-.9642203-1.5554651-1.0108475-1.5118605 0 .1796512 4.1462542.3198837 8.2875254.4053489 12.436983.0401162 1.9508645.0861628 3.9013729.1175581 5.8525933.0125581.7791356.4883721 4.4352712-.3603488 5.3827627-.0006977 0-.0013954 0-.0020931 0 .0122093-.0886271.0233721-.1783221.0209303-.2765593-.1995349-8.3124407-.3425582-16.6174068-1.133721-24.8978136-.0174418-.1801017-.1147674-.29328814-.2337209-.34632204.0087209-.30788135-.0722093-.61861017-.24-.882 1.0311628-.20110169 1.9475582-1.10018644 1.4619768-2.28401695-.6275582-1.53157627-1.0838373-3.1069322-1.465814-4.71894915-.3955814-1.66932203-2.8231395-1.25501695-2.8698837.39615254-.0073256.25911865.0268604.53176272.0666279.80618645.03.33920339.0648837.67733898.1063953 1.01333898 0 .1160339-.0048837.23028813-.0226744.34062712-.1056977.6488644.1297675.53283051-.4880232.94250847-.5344186.35415254-1.2648838.37693221-1.8809303.44562712-2.0522093.22922034-4.1651162.10998305-6.2246511.09289831-4.2673256-.03594916-8.5238372-.06228814-12.7904651.03167796-.6844187.01530509-.6704652 1.02472882 0 1.07527119 5.4422093.41038983 10.8924418.52998305 16.3496511.48371186 1.6489535-.01423729 3.8483721.05837288 5.5562791-.43459322.0366279.17511865.0690698.35023729.1074418.52571187.0324419.14877966.0781396.28332203.1343024.40505084-2.2848837-.37194915-4.9590698.03345763-7.1731396.0530339-3.0129069.02633899-6.0258139.04093221-9.0380232.1060678-5.9110465.1270678-11.82488374.15091525-17.71465118.70438983-.75418605.07083051-.7472093 1.11122034 0 1.19201695 5.88558139.63569487 11.80220928.74318647 17.71465118.95354237 2.8915116.1028644 5.7840697.1587458 8.6762791.2249492 1.446279.0331016 2.8922093.0665593 4.3384883.099305 1.4490698.0323899 2.9640698.2306441 4.3632558-.1986101.1580233-.0484068.2951163-.1192373.4168605-.2032373-.724186 8.0074068-.87 16.0365254-1.062907 24.0734746-.0031395.1327627.0094186.2555593.0327907.3708813-4.0472093.2292204-8.1355814.7866102-12.1311628 1.1279492-2.6539535.2270847-5.3155814.4345932-7.9646511.7164915-2.1003489.2235254-4.3346512.4107458-6.4036047.9667119-.8996511.004983-1.79825579.0359491-2.69372091.1085593-.43081395.0348813-.56790698.6808983-.10639535.803339 5.26674416 1.3981017 10.94058136 1.5604067 16.33744186 2.1167288 5.427907.5598813 10.8655814.9859322 16.2233721-.3210509.9739535-.2374068 1.3451163-1.0578305 1.2743023-1.8601017 1.0548837-.4644915 1.9046512-1.3803051 2.2943023-2.614322.7304652-2.3142712-.0959302-5.1439322-.4011627-7.4699492" fill-opacity=".098093"></path><path d="m15.3807163 1.06774311c-2.8859302 0-4.2087209.06406779-5.85976746.14450847-1.46825581.07154237-3.1322093.15269492-6.34116279.21355932-1.18709302.02242373-2.14395349 1.02615255-2.1332303 2.23774577.10474193 11.80271183 1.01625356 28.83442373 1.32427681 33.66442373 6.975-.3189153 14.05360464-.5591695 20.90511624-.7923051 5.543721-.1886441 11.2705814-.383339 16.9130233-.6182542-.0181395-1.1379153-.0362791-2.9410678-.057907-5.1385932-.0690697-6.9332034-.1848837-18.5373051-.4939535-27.19642378-.0411628-1.15606779-.9624418-2.08291525-2.0968604-2.11032203-12.3976745-.30218644-18.5211628-.40433898-22.1595349-.40433898zm-13.49825583 37.35081359c-.27348837 0-.50267442-.2160509-.52151163-.4972373-.3122093-4.6331695-1.25267442-22.0578305-1.36094884-34.24815256-.01591162-1.79461017 1.4017628-3.28169492 3.16025117-3.31515255 3.19395349-.06050847 4.84988372-.14130508 6.31081395-.21213559 3.75662788-.18294915 5.82558138-.28332203 28.09395348.25840678 1.6869768.04128814 3.0565116 1.42016949 3.117907 3.13932203.3097674 8.67299999.4255814 20.28599999.4943023 27.22418649.025814 2.5698305.0460465 4.599.0674412 5.6504237.0058146.2907966-.2170924.5324746-.5013947.5445763-5.8116279.2448813-11.719186.4456271-17.4324418.6399661-7.015814.2384745-14.27058143.4854915-21.40430236.8150847-.00802326.0007119-.01604651.0007119-.02406977.0007119z"></path><path d="m40.2800186 8.44692955c-8.235-.29542373-16.6353488-.31215255-24.7587209-.32852543-4.9133721-.00961017-9.99418607-.01957627-14.97767444-.09147457-.28918604-.00427119-.52011628-.24666102-.5160408-.54172882.00429662-.29471186.25197103-.525.53069196-.52606779 4.97755814.0718983 10.05488368.0818644 14.96511628.09147457 8.132093.01637288 16.5411628.0331017 24.7932558.32923729.2888372.01032204.5148837.25769492.5044186.55240678-.0097674.28830509-.242093.5150339-.5225581.5150339-.0062791 0-.0122093 0-.0184884-.00035593z"></path><path d="m3.2411814 4.16969226c0-.29435593.08930233-.59298305.2577907-.86349153.15523256-.24844067.47895349-.32211864.72244186-.16372881.24383721.15838983.31569767.48833898.16046512.73713559-.06174419.09894916-.09418605.1989661-.09418605.29008475 0 .22708474.20825581.36447458.46116279.29898305.2822093-.0729661.56476744.10144068.63558139.38654237.07046512.28616949-.09906976.57661017-.37953488.64850848-.1294186.03310169-.26058139.05018644-.38930232.05018644-.7705814 0-1.37441861-.60828814-1.37441861-1.38422034z"></path><path d="m7.14327442 3.93869226c0-.35059322.13674419-.6830339.38511628-.9361017.20441861-.2078644.53546512-.20822033.73988372.00035594.20406977.2089322.20406977.54671186-.00034883.75528813-.05302326.05445763-.07813954.11176271-.07813954.18045763 0 .32318644.44337209.53211864.59651163.53211864.19116279 0 .29790698-.02776271.34011628-.04555932.14093023-.23171186.43465116-.31927119.67813953-.19505085.25848841.13205085.36313951.45238983.23406981.7161356-.13255818.27015254-.45697678.59227118-1.25232562.59227118-.66976744 0-1.64302326-.62323728-1.64302326-1.59991525z"></path><path d="m11.5407163 3.52189565c0-.29471187.2344186-.53389831.5232558-.53389831.289186 0 .5232558.23918644.5232558.53389831 0 .33422034.3366279.62038983.6118605.62038983.1290697-.26374576.4545349-.37159322.7126744-.24061017.2584884.13169492.3739535.45025424.2448837.71435593-.1876744.38333899-.5277907.59405085-.9575581.59405085-.8836047 0-1.6583721-.78874576-1.6583721-1.68818644z"></path><path d="m12.3015302 13.2616245c-3.75802322 0-6.9331395 3.4052034-6.9331395 7.4357796 0 2.9111695 2.07593024 7.5297458 7.645814 7.5297458 5.9654651 0 7.1846511-6.3530339 7.1846511-8.0543898 0-3.1318475-2.3658139-5.7849661-6.0265116-6.7598645-.4653488-.1235084-.8386047-.130983-1.3109302-.1395254-.113721-.0021356-.2305814-.0046271-.3533721-.0085423-.0694186-.0017797-.1381396-.0032034-.2065117-.0032034zm.7126745 16.033322c-6.3324419 0-8.69232562-5.2734915-8.69232562-8.5975424 0-4.6936779 3.79151162-8.6423898 8.21825582-8.499661.1182558.0039153.2312791.0060509.3404651.0078305.4988372.0092543.9701163.0185085 1.555814.1744068 4.1361627 1.1008983 6.8089534 4.1597797 6.8089534 7.7927797 0 .9111864-.321279 3.1806101-1.5366279 5.2475084-1.4909302 2.5349492-3.8054651 3.874678-6.6945348 3.874678z"></path><path d="m19.0229256 25.7509295-.6941861-.252c-2.2681395-.8222033-4.6133721-1.6725254-6.8494186-2.7695084-.1813953-.0889831-.2965116-.2762034-.2965116-.4815763.0038372-2.9026271.0289535-6.2733051.2867442-9.5560678.0226744-.2936441.2731395-.5125424.5630232-.4894068.2881396.0234916.5030233.2808305.48.5748305-.2445348 3.1176102-.2773255 6.3298983-.2825581 9.1339322 2.097907 1.0040848 4.3081395 1.8056441 6.4489535 2.5815763l.6955814.2523559c.272093.0993051.4140698.404695.317093.6823221-.0763953.2185423-.2780232.3545084-.492907.3545084-.0586046 0-.1179069-.0096101-.1758139-.0309661z"></path><path d="m11.9446698 22.8981329c-.2134884 0-.4140698-.1341864-.4915117-.3509491-.0990697-.2769153.0404652-.5833729.3118605-.6844576 1.4490698-.5403051 2.9187209-1.1350678 4.3402326-1.7098983 1.4103488-.5709153 2.8684883-1.1610509 4.3252325-1.7059831.2713954-.1014407.572093.0405763.6715117.3174915.0994186.2769153-.0397675.5833729-.3111628.6848136-1.4438372.5403051-2.8956977 1.1279491-4.2997675 1.6960169-1.4281395.577678-2.9044186 1.1752882-4.3667442 1.7205763-.0593023.0220678-.12.0323898-.1796511.0323898"></path><path d="m27.966414 15.3406245c.1524418.0035593.3048837.0078305.4576744.0121017.4189535.0113898.8382558.0224237 1.2575581.0242033-.057907-.7232542-.1126744-1.5176949-.1433721-2.3334915-.2431395-.0056949-.4866279-.0113898-.7304651-.0167288-.3244186-.0074746-.6488372-.0149491-.9722093-.0227797.0230233.819.0669767 1.601339.130814 2.336695zm1.8034883 1.1041017c-.4583721 0-.9160465-.0121017-1.3737209-.0245594-.304186-.0085423-.6090698-.0163728-.9136047-.021-.2651162-.0039152-.4855813-.209644-.5131395-.4790847-.1074418-1.0592542-.1723256-2.2224407-.192907-3.4561017-.0024418-.1455763.053721-.2861695.1555814-.388678.1015117-.1025084.2393024-.1640847.3826745-.1537627.503372.0145932 1.0098837.0259831 1.5163953.0373729.4098837.0096102.8201163.0188644 1.2282558.0298983.2787209.0074746.5026744.236339.5093023.5203729.0286047 1.1873898.1186047 2.3598305.2033721 3.3500339.0125582.147-.0348837.2929322-.1315116.4025593-.0962791.1099831-.2330233.1744068-.3774419.1776102-.1646511.0039152-.3289534.005339-.4932558.005339z"></path><path d="m28.0299023 20.4770821c.0139535.2883051.0251163.577322.0362791.8666949.0174419.4577288.0352326.9264915.0659302 1.3902712.1775582-.0071187.3544186-.0142373.5312791-.0217119.4039535-.0167288.8169767-.0338135 1.2327907-.0444915-.0823256-.693-.1622093-1.4013051-.2026744-2.1110339-.2117442-.010322-.4238372-.0206441-.6355814-.031322-.342907-.0170848-.6861628-.0341695-1.0280233-.0484068zm-.3798837 3.3418474c-.2693023 0-.4956977-.2092881-.5208139-.4851355-.0593024-.6517119-.0844186-1.3108984-.1088373-1.9483729-.0181395-.4769492-.036279-.9531865-.0687209-1.4262204-.0101163-.1502034.0425582-.2982712.1451163-.4068305.1022093-.1085593.2393023-.1715593.3927907-.1637288.5365116.0163729 1.077907.0434237 1.6196512.0704746.3694186.0181525.7388372.036661 1.1065116.0516102.2748837.0110339.4943023.2377627.5023256.5182372.0261628.9193729.1398837 1.8668645.2501162 2.7833899l.0376745.3157118c.0177907.1512712-.0282559.3032543-.1269768.4171526-.0983721.1142542-.2403488.1801017-.3893023.1811695-.5947674.0035593-1.1989535.0284746-1.7836047.0526779-.3453488.0145933-.6917441.0288305-1.0559302.0398644z"></path><path d="m28.5172279 29.7672685c.7848837.0117458 1.5851163-.0270508 2.372093-.0740339-.0080232-.1252881-.0160465-.2502203-.0237209-.3755084-.0327907-.5132543-.0652326-1.0261526-.1046512-1.5401187-.2745348-.010678-.5476744-.0252712-.8204651-.0395085-.5277907-.0274067-1.0273256-.0533898-1.5348837-.0551695.010814.6570509.0383721 1.3710509.1116279 2.084339zm.3223256 1.0702882c-.2706977 0-.5417442-.005339-.8124419-.0177966-.2529069-.0117458-.4611628-.2060848-.495-.462356-.1465116-1.1144237-.1726744-2.241661-.178968-3.197339-.0020785-.2890169.2222238-.5271356.5054797-.5367457.7210465-.0256271 1.4410465.0128135 2.1355814.0484068.4172093.0220678.8365116.0437796 1.2603488.0526779.2672093.005339.4873256.215339.5106977.4872712.0586046.6808983.1015116 1.3582373.1444186 2.0373559.019186.3021865.0383721.6047289.0589535.9079831.0097674.1423729-.0366279.2822542-.128721.3893898-.092093.1071356-.2225581.1722712-.3617442.1804577l-.1506976.0092542c-.8127907.0498305-1.6534884.1014407-2.487907.1014407z"></path><path d="m36.0283907 14.6689804c-.0230233 0-.0463953-.0014237-.0697674-.0046271-1.2589535-.1712034-2.5116279-.1950509-3.6777907-.1950509-.2888372 0-.5232559-.2391864-.5232559-.5338983 0-.2947118.2344187-.5338983.5232559-.5338983 1.2024418 0 2.4966279.0245593 3.8159302.2039492.2867442.0395084.4876744.3078813.4496512.6001017-.0352326.2683728-.2598838.4634237-.5180233.4634237"></path><path d="m36.4501349 22.0809126c-.5473256 0-1.0806977-.0914746-1.5966279-.1801017-.6547675-.1124746-1.2872093-.2103559-1.842907-.1398814-.2853488.0345255-.5480233-.1715593-.5836046-.4637796-.0359303-.2925763.1677907-.5595254.4545348-.5958305.1754652-.0224238.3603489-.0338136.548721-.0338136.5473255 0 1.0806976.0914746 1.5966279.1801017.4956976.0850678.9634883.1655085 1.4232558.1655085.1493023 0 .2863953-.0085424.4193023-.0249153.2860465-.0370169.5483721.1708475.5839535.4634238.0359302.2929322-.1677907.5595254-.4545349.5958305-.1761628.0227796-.3558139.0334576-.5487209.0334576"></path><path d="m37.1861814 29.145455h-3.657907c-.289186 0-.5232558-.2391865-.5232558-.5338983 0-.2950678.2340698-.5338983.5232558-.5338983h3.657907c.289186 0 .5232558.2388305.5232558.5338983 0 .2947118-.2340698.5338983-.5232558.5338983"></path><path d="m23.5274605 9.56598039c-.278721 0-.5103489-.22423728-.5225582-.51111864l-.06-1.42194915c-.0129069-.29471187.2110465-.54386441.4998838-.55667797.2961627-.00818644.5330232.21533898.5455813.51005085l.06 1.42266102c.0125582.29471186-.2113953.5438644-.5002325.55667796-.0076744.00035593-.0153488.00035593-.0226744.00035593zm.1866279 4.62320341c-.2794186 0-.5113954-.2253051-.5225582-.5121865l-.0561628-1.422305c-.0118604-.2947119.2124419-.5431526.5012791-.5552543.2968605-.0195762.5323256.2171187.5441861.5118305l.0561628 1.422661c.0118604.2947119-.2127907.5431526-.501628.5548984-.0069767.0003559-.0143023.0003559-.021279.0003559zm.1793023 4.6239152c-.2794186 0-.5113953-.225661-.5225581-.5128983l-.0547675-1.422661c-.0111628-.2943559.2134884-.5431525.5026744-.5545424.2836047-.0195762.5316279.2181865.5431396.5128983l.0547674 1.4226611c.0111628.2947118-.2134884.5427966-.5026744.5541864-.0069767.0003559-.0139535.0003559-.0205814.0003559zm.1782558 4.6235594c-.2797674 0-.5113953-.2253051-.5225581-.5128983l-.0551163-1.423017c-.0111628-.2943559.2134884-.5427966.5023256-.5545424.2877907-.0081864.5319767.2181865.5434884.5128983l.0551162 1.4223051c.0111628.2947119-.2134883.5427966-.5023256.5548983-.0069767.000356-.0139534.000356-.0209302.000356zm.1827907 4.6228474c-.2790698 0-.5106977-.2245932-.5225581-.5118305l-.0572093-1.4230169c-.0115117-.294356.2127907-.5427966.5016279-.5548983.2958139-.0195763.5323256.2171186.544186.5118305l.0572093 1.4215932c.0118605.2947118-.2124418.5438644-.501279.5559661-.0073256.0003559-.0146512.0003559-.0219768.0003559zm.1943023 4.6224915c-.2783721 0-.51-.2238813-.5222093-.5100508l-.0613953-1.422661c-.0125582-.2947119.2110465-.5438644.4998837-.556678.2916279-.0128135.5330233.2156949.5455814.5104068l.0613954 1.4215932c.0125581.2943559-.2110466.5438644-.4995349.556678-.0080233.0007118-.0156977.0007118-.023721.0007118zm.2120931 4.6221356c-.2773256 0-.5086047-.2221017-.5222093-.5075593l-.0676745-1.422661c-.0136046-.2947119.2093024-.5449322.4977907-.5588136.2884884-.0088983.5340698.2135594.5476745.5079153l.0673255 1.4212373c.0143024.2943559-.2082558.5449322-.4967441.5591695-.0090698.0003559-.0174419.0007118-.0261628.0007118z"></path></g></svg> 