<?xml version="1.0" encoding="UTF-8"?> <svg xmlns="http://www.w3.org/2000/svg" height="43" viewBox="0 0 45 43" width="45"><g fill="#ee3124" fill-rule="evenodd"><path d="m35.9263705 11.6860064c.5511046-2.65538555.3415651-5.89658795-.4723304-8.48370758-.6286185-1.99812761-1.9747128-2.66554605-3.9888127-2.19784512-.3015478.0698535-.2999723.54199966 0 .61312322 2.0446643.48484679 2.0632551 2.29659257 2.1111498 4.04737529-4.9826286-.37593883-9.9702987-.61026557-14.9661614-.74203468-5.3459354-.14097706-10.75016375-.33688438-16.08822174.05493026-.25396816.01873343-.24230958.35720539 0 .38959202 5.32135785.71123563 10.73062774.81188818 16.08822174 1.05447033 5.0040552.22638884 10.0093708.48452928 15.0042881.87189869-.0056717 1.35674548-.1146953 2.7023779-.1156406 4.06134597 0 .0279414.0050416.0536602.0069322.0806491-.0784592.4388069-.12982.8801541-.2029225 1.3211837-.0671156.4054678.1723581.8134757.6150693.8134757.1313955 0 .2486115-.0438172.3472369-.1117656-.0037812.0222261-.0063019.0450873-.0103982.0673134-.2356925 1.2846694 1.4078533 1.2183085 1.6202287.4511901.1197368-.1365318.1940997-.319421.182126-.5550178-.0274134-.5470799-.0806648-1.0992401-.1550277-1.6501302.0078775-.0288939.0179606-.0555653.0242625-.0860468" fill-opacity=".098421"></path><path d="m38.091717 27.1217248c-.3371538.1165283-.6128637.3765739-.6928983.79887-.0759384.3988-.1978809.7588631-.3544841 1.0890796-.0904328.0844592-.1877978.1647908-.289259.2425822.539446-1.3138809.6034107-2.8687563.4351489-4.3785444-.0803497-.7210787-.6116032-1.1379771-1.1724759-1.2316442-.0721572-1.4075481-.2234037-2.8109684-.3317971-4.2534432 1.3539717 1.8939824 2.9426907 5.2348848 2.4057655 7.7331zm-1.9406824-8.6370678c-.1685768-.1104955-.3733899-.0689009-.5227458.0447698-.0034661-.0587405-.0078775-.1168459-.0110284-.1755863-.0352909-.6448748-1.0672335-.8766614-1.1879157-.1622506-.2621607 1.5513827-.1855921 3.0995903-.2549134 4.6655787-.0775139 1.7561805-.3075347 3.4879123-.5258969 5.2304396-.0460042.3673659.1121745.6483675.3595257.8315742-.4843041.6055028-1.1951629.9909671-1.9318596 1.3107056-1.9113783.8290341-4.3833142.6753564-6.1179231 1.765706-.0642797.0403245-.0970498.1076379-.1017763.1759038-.7297646-.3591105-1.4488159-.8128407-2.1804711-1.3192786-.1726731-.120021-.4263262.1238312-.2965063.2987825 1.0010632 1.3516652 2.0333209 2.7776292 3.5026181 3.6495278 1.64071.9738213 3.4449553.7537828 5.1953191.2425822 2.5803291-.7534653 5.3490863-1.8803292 6.7736398-4.0759517 4.0480509-2.9538505.8353221-10.1700346-2.7000661-12.482503z" fill-opacity=".103748"></path><path d="m30.7086796 17.4041504c-2.2006374 1.1763964-4.5837158 2.6823744-6.5023414 4.3645737-.3904051-.4572229-.7978255-.8709461-1.312694-1.2205312-.233802-.1587579-.5630783.1616156-.3957618.3988.4367244.6172509.8167314 1.1760789 1.0165028 1.9238289.0828706.3102131.4707549.5867694.7940444.4540478 2.5355855-1.0395471 5.1392318-2.6614184 7.362241-4.2616986.9859385-.7099655.1399031-2.2476951-.961991-1.6590206" fill-opacity=".098203"></path><path d="m17.4204096 21.1254369c-.7448893-.9731863-1.7487883-2.8576432-3.2076873-2.6169662-.6525658.1079554-1.5745396.8826943-1.952656 1.3764315-.1556579.1352618-.3110007.2705236-.4663435.4061028.2545983.419121.247036.4626207-.0220568.1301816-.4631926-.2971949-.8567487-.8947599-1.2613332-1.2802242-1.19799876-1.1414697-2.17605979-1.8317493-3.78494499-1.0274815-1.9422578.9712812-3.76792972 2.4680512-5.29016324 4.0089559-.36834837.3730812.10209142.9931898.55772166.7283815 1.4311705-.8315742 2.84406537-1.6914072 4.29949833-2.4804343.99287059-.5381894 1.78344892-.9068254 2.75457782-.180349.679034.5077079 1.03414832 1.3624608 1.65520442 1.9133509.6393318.5674009 1.2288783.5607331 1.9472994.1057328.438615-.2775089 1.1661739-1.2926073 1.6466968-1.3700812.3380991-.0542952 1.1003187 1.197035 1.4311705 1.6028203.7682065.9420697 2.4423167-.3375194 1.6930161-1.3164209" fill-opacity=".103748"></path><path d="m16.4120993 32.2864386c-2.1458105-.3251363-4.379533-.1120831-6.52219249.1657433-2.18834854.2835417-4.68675252 1.1890971-6.61388567-.3578404-.21489614-.1727287-.5845049-.0212736-.49438716.289892.55488578 1.9184311 2.37551615 2.5674336 4.21253156 2.6356995 1.5036428.0558828 3.02335556-.1930496 4.52416246-.2575054 1.5209732-.0654082 3.060537.0365144 4.5739478-.0946197 1.2399066-.1076379 1.7598167-2.1629184.3198235-2.3813693" fill-opacity=".098421"></path><path d="m22.1374114 35.8829413c-.415928-.288622-.9005471-.4527777-1.3123789-.7655309-.4023788-.3054503-.7546573-.6813891-1.1214302-1.028434-.3258102-.3086255-.9745949-.0082554-.8019218.4702411.2095395.5813716.5287328 1.0627257.9191379 1.5358244-.1269841.0177809-.256804.0523901-.3894599.1206561-.9254398.4775439-1.816219 1.0331967-2.703217 1.5790066-.7335457.4511901-1.4412536 1.0354193-2.2009524 1.4281865-.2350623.1216086-.2829571.4343618-.1698373.6524952.0207964.0403245.0415928.0803315.0623892.1206561.0964197.1863818.3154121.3000525.5189648.3000525.7111739-.000635 1.4592141-.3314866 2.1514822-.6293165.1329709.131134.3166724.2184509.5580367.2184509.5025797 0 .7672612-.368636.7997162-.7604506.7231475-.2832242 1.4437743-.5759738 2.14455-.9071429.4055298-.1914621.5769426-.5165984.5841898-.8563404.0261531.0142882.051991.030799.0781441.0431821 1.0174481.4842118 1.8155888-.8734862.8825866-1.5215362" fill-opacity=".098312"></path><path d="m43.3415478 23.1981807c-.1367521-.240677-.4924966-.1257363-.5022646.1371669-.0787742 2.1117983.3746503 4.2693189-.3110007 6.3245994-.591122 1.7720563-1.9706166 2.9852846-3.3750038 4.1108785-.4811531.3857818-.4338885.9665184-.1392729 1.39707-1.1803533 1.1424222-2.5497648 2.077189-4.2282864 2.7099982-3.0948825 1.1665535-6.631216.9931898-9.8455203.2019402.403009-1.0643134-1.1715306-1.9774891-2.0676664-1.1887796-.9711289.8550703-1.7147578 1.936212-2.7514269 2.7287317-1.2484142.9544528-2.5355854 1.1862395-4.0502566 1.3573805-.5066759.0571529-.6793491.6432873-.2555436.9503251 2.5648894 1.8593732 6.0322166-.3267238 8.0699488-2.4839269 7.115205 4.4290294 17.8124324.3559353 20.5975747-7.6534035.1414785-.4067379.051991-.7575929-.1584938-1.0157334.7587535-2.3785117.4411358-5.070729-.9827875-7.5762471" fill-opacity=".098421"></path><path d="m43.2271676 11.1887765c-.2785457.6563054-.5574066 1.3126108-.8359523 1.9689161-.3828428-.1860643-.6862812-.1581229-.9591552-.6791665-.3437708-.6566229-1.2027252-.6639258-1.7015237-.2209911-.3245499.288622-3.1128431 2.7376222-1.9630542 3.1507104.5082514.1828892.9465513-.1917796 1.3731926-.4416646.3103705-.1816191.6223166-.3559354.9386739-.5223137.48714.5296165 1.1674344.8671359 1.8376456.8156984.0047265.0219086.006302.0425471.0122888.0647732.3072196 1.1573455 2.0326907.6686885 1.7746262-.4931022-.1093386-.4927847.0976801-1.0617732.1846469-1.5517002.1002008-.5610507.2000865-1.1217837.2999723-1.6828344.0964197-.5410471-.7092833-1.0020802-.9613609-.4083254" fill-opacity=".102327"></path><g fill-opacity=".09629"><path d="m8.50820654 13.5187082c-.90117737-.0200035-1.83102856.1997175-2.72180773.3333917-.76032902.1136707-1.61802301.1076379-2.19465049.6674185-.18118076.1759038-.10965375.4391245.0731025.5721636.64216765.4670659 1.57516982.3321217 2.33360825.3400596.91850771.0095255 1.84804381.0689009 2.75615331-.0781089 1.06030135-.1720937.7622196-1.8123808-.24640584-1.8349245"></path><path d="m9.53132645 10.400702c-1.47654447.2254363-2.94395111.4080079-4.43215416.5362844-.68848691.0593754-.71274938 1.1103531 0 1.0995576 1.56130555-.0238137 3.10528076.0155582 4.66469573.0946197 1.20461578.0609631 1.08897518-1.9320843-.23254157-1.7304617"></path><path d="m10.6335357 8.24667407c-.4304225.13589681-.87061297.28195413-1.32088656.33402674-.43105267.04953248-.86273554-.00127007-1.28937685.08699935-.44649243.09207962-.4285319.6724987-.11627079.8960299.82303332.58930954 2.2299413.51437574 3.1566416.25433024 1.0023235-.28131909.5646538-1.88540946-.4301074-1.57138623"></path></g><path d="m14.2165035 33.0986443c-3.0139027 0-6.02370904-.1406596-8.93425987-.2762389-.84099384-.0393719-1.68261788-.0784264-2.52770799-.1149407-.96230619-.0409596-1.74721277-.8337968-1.7862848-1.8047605-.19536013-4.8205265-.34755197-9.7086839-.49470226-14.4361783-.14147855-4.5417475-.28736845-9.23812535-.47170018-13.86655476-.02552286-.64741494.21426594-1.28657446.6576074-1.75395788.44428674-.46833597 1.06723348-.738542 1.70971623-.74108213.79152362-.00349268 1.58367743-.00508026 2.37646144-.00508026 2.70668308 0 5.46441183.01809841 8.13107763.0358793 2.6717073.01746338 5.4344777.0358793 8.1509288.0358793 4.6199519 0 8.3866213-.0539777 11.8539485-.16987101.8923546-.02921147 1.7780922.31084807 2.424041.9341318.6459489.62391876 1.0215445 1.49899261 1.0300521 2.40042028l.0151246 1.56376585c.0182757 1.81206329.0371815 3.68604219.0371815 5.62098411 0 .2632207-.2117452.4762739-.4726455.4762739-.2612154 0-.4726455-.2130532-.4726455-.4762739 0-1.93017919-.0189058-3.80161795-.0371814-5.61145864l-.0151247-1.56440088c-.0059868-.64646239-.2753947-1.27387383-.7389024-1.72157126-.4628775-.44674488-1.0940167-.68900952-1.7387051-.66995857-3.4777254.11621083-7.2544779.17050605-11.8851431.17050605-2.7196021 0-5.4839479-.01841593-8.1572307-.0358793-2.6650903-.01778089-5.42124362-.0358793-8.12477573-.0358793-.79120852 0-1.58210195.00158758-2.37236518.00508026-.38725419.00158758-.7628498.16447324-1.03036714.44642736-.26751733.28195413-.41183175.66741844-.396392 1.05796301.18433174 4.63255712.33053674 9.33115757.47201528 13.87481017.14715029 4.7252718.29902704 9.6112066.49407207 14.4272879.01953601.4797665.4071053.8715812.88227155.8919022.8457203.0361968 1.68923493.0755688 2.53117406.1149408 2.89983754.1352617 5.89830039.2752862 8.89046139.2752862.2609003 0 .4726455.2130532.4726455.4762739 0 .2629032-.2117452.4762739-.4726455.4762739"></path><path d="m35.8803663 5.5789054c-.0069321 0-.0141793-.00031751-.0214266-.00063503-6.8366592-.30799043-14.1497451-.45119011-23.0146836-.45119011-3.44684587 0-7.08527073.02032102-11.79754611.06636083l-.05262119.00031751c-.15786359 0-.31572718-.00666783-.47327567-.01873344-.26058521-.01968598-.45563024-.24797992-.43609423-.51056558.01922092-.26226814.24735113-.46071558.50636085-.4391245.13423132.00984299.26846263.0158758.40300905.0158758l.04316828-.00031752c4.71574145-.04603981 8.35731728-.06636082 11.80699902-.06636082 8.8791179 0 16.2057529.14351719 23.0569066.45214265.2609003.01174809.4628775.23432674.4512189.49722991-.0113435.25528279-.2205679.4550003-.4720153.4550003"></path><path d="m10.2828327 8.34415145c-.60561635-.0180984-1.19390242-.04095955-1.780613-.06318566-1.68734434-.06509076-3.42604949-.1317691-5.15246586-.07906146-.24987191.01016051-.47894742-.19876496-.48682484-.46166814-.00787743-.26290317.19725071-.48262418.45815101-.49056208 1.75382981-.05429522 3.51490685.01428822 5.21706075.07937898.5845049.02222612 1.17027019.04508726 1.75855624.06286815.2612154.0079379.4660285.22765891.4584661.49056208-.0078774.25782292-.2180471.46166813-.4723304.46166813"></path><path d="m3.47579263 10.9055523c-.24167938 0-.44775281-.1860643-.4701247-.4330917-.02363227-.2619506.16794669-.49373725.42790171-.51755094 1.31458461-.12033853 2.61971631-.12954649 3.88230992-.13811942.99728195-.00698535 2.02827928-.0139707 3.05108404-.07652133.2593249-.0158758.4846192.18415922.5003741.44674489.0157548.2625856-.1827563.4883395-.4430264.5038977-1.04801257.0641383-2.09224397.0714411-3.1021298.0784265-1.2427425.0085729-2.52802309.0174633-3.80290549.1339917-.01449446.0015876-.02898892.0022226-.04348338.0022226"></path><path d="m8.8469358 13.8787713c-1.26164832 0-2.11020449-.0876344-2.85919002-.1647908-.54637817-.0562003-1.01839345-.1050978-1.53798838-.1050978-.32927634 0-.62357692.0215911-.89960188.0654083-.25837953.0409596-.50005891-.1362143-.54070642-.3959423s.1354917-.5038978.39324103-.5448573c.32518009-.0517551.66769051-.0771564 1.04706727-.0771564.56780477 0 1.06187684.0511201 1.63409296.110178.72629854.0746163 1.54964696.1597105 2.76308544.1597105.44365655 0 .80790866-.0266713 1.14663792-.0835066.25617388-.0438172.50100418.1317691.54385738.3914971.0428532.2594105-.1307652.5048503-.3885146.5480324-.39135042.0657258-.80507276.0965249-1.3019807.0965249"></path><path d="m3.688168 3.0082966h-.5646538c-.26121539 0-.47264547-.21305317-.47264547-.47627386 0-.26290318.21143008-.47627387.47264547-.47627387h.5646538c.2612154 0 .47264547.21337069.47264547.47627387 0 .26322069-.21143007.47627386-.47264547.47627386"></path><path d="m7.07735114 3.07942016h-.56496889c-.2609003 0-.47264547-.21305317-.47264547-.47627386 0-.26290317.21174517-.47627386.47264547-.47627386h.56496889c.26090031 0 .47264548.21337069.47264548.47627386 0 .26322069-.21174517.47627386-.47264548.47627386"></path><path d="m10.1838923 3.0082966h-.49438717c-.2609003 0-.47264547-.21305317-.47264547-.47627386 0-.26290318.21174517-.47627387.47264547-.47627387h.49438717c.2609003 0 .4726455.21337069.4726455.47627387 0 .26322069-.2117452.47627386-.4726455.47627386"></path><path d="m1.11508604 22.266589c-.1673165 0-.32927635-.089857-.41498273-.2476624-.1254086-.230834-.0415928-.520091.18748271-.6464624 2.15526336-1.1897321 4.38772548-2.3318368 6.54677001-3.4364746l.96199108-.4921497c.18590722-.0955723.41214686-.0562003.55646128.0958898.39355613.4165809.77293289.8576105 1.14002091 1.2840343.2993421.3479975.6065617.7052029.9216586 1.0484376.4370396-.2457573.8794357-.4842118 1.3101733-.7166334.8242937-.4442048 1.6769461-.9039678 2.4845397-1.4129458.2007168-.1260539.4631926-.0835067.614124.0997.2990271.3629206.5889163.7350493.8784904 1.1071779.2230887.2863994.4461773.5727987.6736774.8550704.1644806.2041627.1339162.5042152-.0690063.6699585-.2022922.1660609-.5000589.1346268-.6645395-.0692184-.2309661-.2863994-.4575208-.5772439-.6837605-.8680885-.2000865-.2568704-.399858-.5137408-.6030956-.767436-.7237778.438172-1.4645708.837607-2.1845674 1.225929-.5318837.2867168-1.082043.5832767-1.6114059.8884095-.1887431.1082729-.4256961.0739812-.5756822-.0835067-.4197092-.4400771-.81862199-.9042853-1.20493089-1.3529353-.28358729-.3295815-.5747369-.667736-.87061296-.9925547l-.64563372.330534c-2.15242749 1.1008277-4.37827258 2.2397572-6.52061696 3.421869-.07215721.040007-.14998617.0590579-.22655473.0590579"></path><path d="m28.887419 14.1835865c-5.5170331 0-10.3562925 5.0710466-10.3562925 10.8520588 0 9.3698945 6.9507243 12.7711249 11.6229824 12.7711249.8460354 0 1.6971123-.0939847 2.5295985-.278779.8053879-.179079 1.6028984-.4451573 2.3701596-.7912496 5.2217872-2.0552805 8.3299038-7.4803573 7.411081-12.9082918-.3664578-2.165776-2.4054504-9.2622566-13.252664-9.639148-.1087085-.0038102-.2171018-.0057153-.324865-.0057153zm1.2666899 24.5757314c-3.0699899 0-6.1384044-1.2135458-8.4187612-3.3297893-1.8931027-1.7568156-4.1495122-4.9859524-4.1495122-10.3938833 0-6.4128688 5.4785913-12.0179772 11.6595337-11.7982562 4.0962607.1422472 7.456455 1.2551404 9.9869988 3.3075633 2.2438057 1.8200011 3.6837989 4.2832896 4.1643218 7.1234694.9938158 5.8711866-2.3613368 11.736658-7.9779405 13.9468863-.8044426.3632382-1.663397.649955-2.5314892.8430047-.8989717.1997175-1.8187398.3010051-2.7331512.3010051z"></path><path d="m29.2315049 16.686882c-4.3417213 0-8.1502986 3.992445-8.1502986 8.5440356 0 7.3901827 5.4773309 10.0728747 9.158924 10.0728747.6670604 0 1.3375867-.0739812 1.9936187-.2200386.6349204-.140977 1.2635389-.350855 1.8688402-.6236012 4.119893-1.6221888 6.569457-5.8969055 5.8456792-10.1738448-.2886289-1.7063305-1.8968839-7.2974681-10.4612198-7.5949805-.0853913-.0028577-.1707826-.0044452-.2555437-.0044452zm1.0086254 19.569458c-5.0210704 0-10.1042149-3.7873298-10.1042149-11.0254224 0-5.058981 4.2503432-9.4965834 9.0955895-9.4965834.0954744 0 .191579.0019051.2876835.0050803 3.2839408.1139882 5.9786502 1.007478 8.0100804 2.655068 1.8055058 1.4643834 2.9641174 3.4463177 3.3510565 5.7314797.7987708 4.720509-1.8981443 9.4359378-6.4128538 11.2124393-.6424828.2905271-1.3328603.5207261-2.0301699.6756739-.7225174.160663-1.46205.2422646-2.1971713.2422646z"></path><path d="m15.8436643 41.3994627c-2.3235251 0-2.8465861-2.5794993-2.8465861-3.482832 0-2.0835394 1.2128082-2.8195413 4.4542109-4.7868699.6194807-.3756213 1.3208866-.8014101 2.1133555-1.2951474.2224584-.1381194.513293-.0689009.6506752.1546303.1373823.2238487.0686912.5172334-.1534522.6556703-.7962501.4959599-1.5008069.9233363-2.1228084 1.3008627-3.2984352 2.0019378-3.9966901 2.4775767-3.9966901 3.970854 0 .0250837.0819252 2.5302843 1.9012952 2.5302843 1.1003187 0 3.811098-1.6574331 7.436919-4.5474629.204813-.1635207.5022646-.1279589.6639093.0781089.1619599.2063854.1272992.5058029-.0775138.669006-3.9569879 3.1538856-6.6564238 4.7528957-8.0233145 4.7528957"></path><path d="m20.8376364 38.8205985c-.1197369 0-.2397888-.0457223-.3317971-.1371669-1.510575-1.5008977-2.6187711-3.2399323-3.2054816-5.028817-.0816102-.249885.0526211-.519456.3006025-.6016926.247036-.0831892.5151835.0527076.5971088.3025926.5397611 1.64632 1.5672923 3.2542206 2.9713645 4.649703.1859072.1847943.1881129.4864344.0047265.6734513-.0926386.0946197-.2145811.1419296-.3365236.1419296"></path><path d="m6.23415162 32.8662226c-.2511323 0-.4600416-.1990824-.47170019-.4540477-.21993769-4.7659138-.34125003-9.0619041-.37088182-13.1334106-.00187791-.2629031.20797668-.4778614.46887699-.4797665.26310598 0 .47422096.2108306.47642663.4727812.02961912 4.0591234.15061636 8.3427305.36992386 13.0959437.01197369.2629031-.18968838.4857993-.45027359.4978649-.00756232.0003175-.01480955.000635-.02237188.000635"></path><path d="m12.7563441 33.0884838c-.2476663 0-.4556303-.1943198-.4713851-.4464274-.0504155-.8083955-.1036669-1.6158385-.1566032-2.4229639-.2243491-3.4098034-.4562605-6.936135-.4647695-10.4202371-.0006288-.2632207.2104862-.4769089.4717016-.4775439.2615305 0 .4729606.2127356.4735908.4753213.0081925 3.453938.2394737 6.9643939.4628774 10.359274.0529363.8083955.1061877 1.6171086.1566032 2.4261391.0163851.2625856-.1814958.4889745-.442081.5054853-.0100831.000635-.0201662.0009526-.0299342.0009526"></path><path d="m24.4861443 24.5514335c-.1298199 0-.2590097-.0536602-.3519633-.1581229-.7461496-.8372895-1.422978-1.7733264-1.9870016-2.5785467-.1503012-.2149583-.0995706-.5121532.1137501-.6636083.2133206-.1520901.5079363-.100335.6585526.1146233.4751663.678214 1.0316276 1.4507302 1.6366138 2.166411 1.2370707-.9077779 2.5242419-1.7593556 3.7723411-2.5852145 1.2887466-.8528477 2.6212918-1.7349069 3.8917628-2.6738015.211115-.1552652.5063608-.109543.6607584.1025577.1543975.2121006.1090235.510248-.1014613.6655133-1.2903221.9535003-2.6335806 1.8425448-3.9320952 2.7017429-1.3558623.8972999-2.7577288 1.8250814-4.0795607 2.814461-.0841308.0631857-.1830713.0939847-.2816967.0939847"></path><path d="m35.859885 15.5562078c-.1386426 0-.2757098-.060963-.3689785-.1781264-.1635354-.2051153-.1307653-.5051678.0727874-.6696411 1.5326317-1.2386295 3.1591623-2.3267565 4.8351632-3.234217.2290755-.1251013.5161288-.0377844.6399619.1940022.1235181.2317866.0374966.5204086-.1925242.6448748-1.6252703.8801541-3.203591 1.936212-4.6911639 3.1383273-.0869668.0704885-.191579.1047802-.2952459.1047802"></path><path d="m40.2129499 10.4064173c.2397888.3508551.4707548.7086955.6976247 1.0601856.2933553.4546828.5933276.9198436.9115755 1.3684936.2322265-.7639433.47107-1.5386821.7247231-2.3007203-.5949031-.0403245-1.1926421-.070171-1.7755715-.0997-.1862223-.009208-.3721295-.0187334-.5583518-.0282589zm1.7919565 3.9343396c-.1402182 0-.2753948-.0631857-.3661427-.1752688-.5646538-.6978999-1.0505333-1.4510477-1.520658-2.1794292-.4165583-.6458273-.8097993-1.2554579-1.2471539-1.8180961-.1150104-.1479624-.1329709-.3499025-.0460042-.51596332.0866517-.16606082.2646815-.26449075.4477529-.25306018.5154986.03270414 1.0306822.05842293 1.5458658.08445924.7893179.03968948 1.6054191.08096655 2.4120674.14700986.1455748.01174809.2779155.09112707.357635.21495827.0800347.12383121.0983103.27750893.0501005.41689843-.3938713 1.1344843-.7524516 2.3216763-1.0993734 3.4701313l-.0819252.2708411c-.0507307.1682834-.1896884.2946548-.3607861.328629-.0305644.0060328-.0608137.0088904-.0913781.0088904z"></path><path d="m25.7893855 33.2526395c-.2482965 0-.4565756-.1952723-.4713851-.4483325-.0154398-.2625856.1833864-.4880219.4439716-.5032627.7215721-.0428646 1.4384178-.0965248 2.154003-.150185 1.6886047-.1263713 3.4462157-.2635382 5.1864963-.2324217.6667453.0104781 1.3136394-.2524251 1.7853395-.7239362.47107-.4711936.7376421-1.1249589.7313401-1.7936474-.0362361-3.8295594-.0393871-7.603871-.0393871-11.455339 0-.2632207.2114301-.4762738.4726455-.4762738.2609003 0 .4726455.2130531.4726455.4762738 0 3.8489279.0031509 7.6210169.0393871 11.4464486.0085076.9239712-.3598408 1.827304-1.0108311 2.4785291-.6519357.6518602-1.5521678 1.0093831-2.4675245 1.0004927-1.7018388-.0311166-3.4326665.1050977-5.0998447.2298815-.7206268.0539777-1.442514.1079554-2.1688125.1511376-.0094529.0003175-.0185907.000635-.0280436.000635"></path><path d="m26.9461065 33.1761182c-.2401039 0-.4458622-.1838418-.4694945-.4299166-.3340028-3.4380622-.3658276-6.9037484-.3696091-10.158604-.0003148-.2629032.2111153-.4765914.4720156-.4769089.2615305 0 .4729606.2130532.4732757.4756389.0037811 3.2319944.0352908 6.6713267.3648823 10.0671594.0255228.2619506-.1644806.4946898-.4244357.5204085-.0157548.0015876-.0311946.0022227-.0466343.0022227"></path><path d="m30.7149815 32.9192478c-.2757099-.0085729-.480838-.2279764-.4726455-.4908796.0538816-1.7714213.1874827-3.5637986.3160423-5.2971179.1666863-2.2410273.3390444-4.5579409.3390444-6.8332599 0-.3038627-.0028359-.608043-.009453-.9122232-.0056717-.2632207.201347-.4810366.4622473-.4864344.2624758-.0123831.4770568.2028927.4827286.4654783.0069321.3114831.009768.6223312.009768.9331793 0 2.3108808-.1736184 4.6462103-.3415651 6.9043834-.1282445 1.7231589-.2605852 3.5050582-.3138366 5.2552059-.0081925.2578229-.2180471.4616681-.4723304.4616681"></path></g></svg> 