<?xml version="1.0" encoding="UTF-8"?> <svg xmlns="http://www.w3.org/2000/svg" fill="none" height="28" viewBox="0 0 28 28" width="28"><path d="m20.8055 3.5h-13.61114c-1.28877.00152-2.52432.50484-3.43562 1.39957-.9113.89474-1.42394 2.10782-1.42549 3.37316v11.45457c.00155 1.2653.51419 2.4784 1.42549 3.3731.9113.8948 2.14685 1.3981 3.43562 1.3996h13.61114c1.2887-.0015 2.5243-.5048 3.4356-1.3996.9113-.8947 1.4239-2.1078 1.4255-3.3731v-11.45457c-.0016-1.26534-.5142-2.47842-1.4255-3.37316-.9113-.89473-2.1469-1.39805-3.4356-1.39957zm-13.61114 1.90909h13.61114c.5821.00113 1.1506.17326 1.6323.49427.4817.321.8545.77618 1.0705 1.30696l-7.4453 7.31088c-.5479.5358-1.2898.8366-2.0631.8366s-1.5151-.3008-2.063-.8366l-7.44531-7.31088c.21597-.53078.58879-.98596 1.07046-1.30696.48167-.32101 1.05016-.49314 1.63231-.49427zm13.61114 17.18181h-13.61114c-.77355 0-1.51541-.3017-2.06239-.8387-.54698-.5371-.85427-1.2654-.85427-2.0249v-10.02275l6.2844 6.16635c.9126.8937 2.1489 1.3956 3.4378 1.3956s2.5252-.5019 3.4378-1.3956l6.2844-6.16635v10.02275c0 .7595-.3073 1.4878-.8542 2.0249-.547.537-1.2889.8387-2.0624.8387z" fill="#1ab394"></path></svg> 