<?xml version="1.0" encoding="UTF-8"?> <svg xmlns="http://www.w3.org/2000/svg" fill="none" height="28" viewBox="0 0 28 28" width="28"><g fill="#1ab394"><path d="m25.257 11.4226c-1.5491-2.52288-5.0727-6.75561-11.257-6.75561-6.18429 0-9.7079 4.23273-11.25697 6.75561-.47887.7745-.73253 1.6671-.73253 2.5778 0 .9106.25366 1.8032.73253 2.5777 1.54907 2.5229 5.07268 6.7556 11.25697 6.7556 6.1843 0 9.7079-4.2327 11.257-6.7556.4788-.7745.7325-1.6671.7325-2.5777 0-.9107-.2537-1.8033-.7325-2.5778zm-1.7029 4.1099c-1.3303 2.1633-4.3416 5.8037-9.5541 5.8037s-8.22375-3.6404-9.55409-5.8037c-.28451-.4604-.43521-.9909-.43521-1.5321s.1507-1.0717.43521-1.5321c1.33034-2.1633 4.34159-5.8038 9.55409-5.8038s8.2238 3.6365 9.5541 5.8038c.2845.4604.4352.9909.4352 1.5321s-.1507 1.0717-.4352 1.5321z"></path><path d="m13.9999 9.00684c-.9877 0-1.9532.29288-2.7744.8416-.8212.54876-1.4613 1.32866-1.83927 2.24116-.37796.9125-.47686 1.9166-.28417 2.8853.19269.9686.6683 1.8585 1.36664 2.5568.6984.6984 1.5882 1.1741 2.5569 1.3667.9687.1927 1.9728.0938 2.8853-.2841.9125-.378 1.6924-1.0181 2.2412-1.8393.5487-.8212.8416-1.7867.8416-2.7744-.0016-1.3239-.5283-2.5932-1.4644-3.5294-.9362-.93614-2.2055-1.46278-3.5294-1.46436zm0 7.99006c-.5926 0-1.1719-.1757-1.6647-.505-.4927-.3292-.8767-.7972-1.1035-1.3447s-.2861-1.1499-.1705-1.7311.401-1.1151.82-1.5342c.419-.419.9529-.7044 1.5341-.82.5813-.1156 1.1837-.0563 1.7312.1705s1.0155.6108 1.3447 1.1036c.3292.4927.5049 1.072.5049 1.6646 0 .7947-.3156 1.5568-.8775 2.1187s-1.3241.8776-2.1187.8776z"></path></g></svg> 