<?xml version="1.0" encoding="UTF-8"?> <svg xmlns="http://www.w3.org/2000/svg" width="16" height="16" viewBox="0 0 16 16" fill="none"><path d="M7.92507 2.90671e-07C7.40862 0.000226816 6.93437 0.285136 6.69164 0.740983C6.44891 1.19683 6.47724 1.74936 6.76533 2.17798L7.36246 1.58169C7.34273 1.52221 7.33277 1.45992 7.33299 1.39725C7.33299 1.07164 7.59694 0.807691 7.92254 0.807691C8.24814 0.807691 8.5121 1.07164 8.5121 1.39725C8.5121 1.72285 8.24814 1.9868 7.92254 1.9868C7.86015 1.98694 7.79815 1.97698 7.73894 1.95732L7.14264 2.55362C7.63921 2.8904 8.29536 2.87256 8.77289 2.50929C9.25042 2.14602 9.44271 1.51843 9.25066 0.949992C9.0586 0.381558 8.52507 -0.000796945 7.92507 2.90671e-07Z" fill="#34A853"></path><path d="M7.36929 4.07214C7.3702 3.60015 7.21735 3.1407 6.93386 2.76333L6.15902 3.53733C6.40134 3.98054 6.31414 4.53144 5.94678 4.87815L6.36789 5.90734C6.99183 5.5055 7.369 4.81429 7.36929 4.07214Z" fill="#FBBC04"></path><path d="M5.2038 5.18303H5.18359C4.70832 5.18307 4.28559 4.88099 4.13168 4.43134C3.97776 3.98169 4.1267 3.48392 4.50229 3.19271C4.87789 2.9015 5.39706 2.88125 5.7942 3.14233L6.56146 2.37506C5.81539 1.77021 4.7618 1.72356 3.96518 2.26009C3.16856 2.79662 2.81578 3.7905 3.09585 4.70921C3.37591 5.62792 4.22314 6.25597 5.18359 6.25686C5.33179 6.25693 5.47962 6.24226 5.62491 6.21307L5.2038 5.18303Z" fill="#EA4335"></path><path d="M7.95455 6.07326C7.46961 6.07276 6.98721 6.14342 6.52278 6.28297L7.13676 7.78297C7.40402 7.71673 7.67836 7.68336 7.95371 7.68358C9.54918 7.68405 10.9222 8.81142 11.2331 10.3763C11.544 11.9412 10.7062 13.5078 9.23211 14.1181C7.75799 14.7285 6.05802 14.2125 5.17174 12.8859C4.28547 11.5592 4.45971 9.79122 5.58791 8.66309C5.82333 8.42841 6.09208 8.22975 6.38549 8.07353L5.77825 6.57775C3.51473 7.6863 2.44303 10.3166 3.28728 12.6914C4.13153 15.0662 6.62306 16.4297 9.07839 15.8607C11.5337 15.2917 13.1715 12.9712 12.885 10.4671C12.5986 7.96304 10.4792 6.07229 7.95876 6.07241L7.95455 6.07326Z" fill="#4285F4"></path></svg> 