<?xml version="1.0" encoding="UTF-8"?> <svg xmlns="http://www.w3.org/2000/svg" xmlns:xlink="http://www.w3.org/1999/xlink" fill="none" height="120" viewBox="0 0 273 120" width="273"><clipPath id="a"><path d="m197.809 0h74.3826v120h-74.3826z"></path></clipPath><path d="m.808716 55.5371h107v64.4628h-107z" fill="#ee3124"></path><path clip-rule="evenodd" d="m14.6823 67.438v15.7038h.1167c.7906-1.6613 2.1611-2.9702 3.8489-3.676 1.8254-.7799 3.7911-1.1704 5.7734-1.1469 2.1032-.0497 4.1892.3932 6.0941 1.2939 1.6816.8236 3.1568 2.02 4.3154 3.4996 1.1712 1.5183 2.0513 3.2437 2.5951 5.0875.5922 1.9836.887 4.0453.8748 6.1168.012 2.0694-.2728 4.1297-.8456 6.1173-.5176 1.83-1.3897 3.539-2.5659 5.028-1.1639 1.445-2.6401 2.602-4.3155 3.382-1.8961.859-3.9579 1.281-6.0358 1.235-.8312-.008-1.6603-.087-2.4785-.235-.9274-.161-1.8361-.417-2.7117-.765-.9075-.359-1.7612-.844-2.5368-1.441-.8074-.618-1.4903-1.387-2.0119-2.264h-.1167v4.058h-4.95692v-41.994zm17.8159 22.3793c-.344-1.2982-.9169-2.5235-1.6912-3.6171-.762-1.0619-1.7608-1.9282-2.9159-2.5291-1.2929-.652-2.7245-.9751-4.1696-.941-2.8328-.1189-5.5247 1.2497-7.1147 3.6171-.7551 1.1149-1.2989 2.3613-1.6037 3.676-.6707 2.7938-.6607 5.7098.0291 8.4989.3175 1.3206.8816 2.5679 1.6621 3.6759.7722 1.071 1.7803 1.947 2.945 2.559 1.3563.682 2.8588 1.015 4.3737.97 1.4912.053 2.9698-.292 4.2863-1 1.1223-.643 2.0729-1.551 2.7701-2.647.7226-1.154 1.236-2.4284 1.5162-3.7638.3129-1.4292.4693-2.8887.4666-4.3524.0013-1.401-.1851-2.7958-.554-4.1465zm13.6461 9.3517c.4232 1.321 1.1077 2.541 2.012 3.588.8321.944 1.8566 1.697 3.0033 2.205 2.3247 1.02 4.9649 1.02 7.2896 0 1.1464-.509 2.1707-1.261 3.0033-2.205.9035-1.047 1.5878-2.268 2.012-3.588.9719-3.2007.9719-6.6215 0-9.8222-.4288-1.3272-1.1124-2.5563-2.012-3.6171-.8264-.9582-1.8518-1.7212-3.0033-2.235-2.3247-1.0195-4.9649-1.0195-7.2896 0-1.1519.5132-2.1773 1.2763-3.0033 2.235-.9004 1.0602-1.5841 2.2895-2.012 3.6171-.9721 3.2007-.9723 6.6215-.0005 9.8222zm-5.0444-11.1749c.5777-1.8626 1.5307-3.5846 2.7992-5.0582 1.2728-1.4526 2.8453-2.6069 4.6071-3.3819 4.0501-1.6468 8.5754-1.6468 12.6256 0 1.75.7811 3.3117 1.9348 4.5779 3.3819 1.2677 1.4742 2.2206 3.1961 2.7992 5.0582.6344 2.0257.9492 4.1395.9331 6.2638.0177 2.1149-.2972 4.2192-.9331 6.2341-.5831 1.852-1.5357 3.563-2.7992 5.029-1.2621 1.445-2.8254 2.589-4.5779 3.353-4.0576 1.607-8.568 1.607-12.6256 0-1.7643-.757-3.3384-1.903-4.6071-3.353-1.2643-1.465-2.2171-3.177-2.7992-5.029-.6364-2.0148-.9514-4.1192-.9331-6.2341-.0167-2.1244.2982-4.2382.9331-6.2638zm29.4501-8.9694h6.3565l7.2313 10.6456 7.5229-10.6456h5.9484l-10.3805 13.9981 11.6634 16.4092h-6.3565l-8.3977-12.5862-8.3976 12.5862h-6.0066l11.3135-15.9975z" fill="#fff" fill-rule="evenodd"></path><path clip-rule="evenodd" d="m5.61619 11.1524v3.9626h.11332c.76683-1.5991 2.09589-2.8589 3.73278-3.5384 1.77011-.7514 3.67641-1.1279 5.59891-1.1059 2.0398-.0478 4.063.3784 5.9105 1.2453 1.6307.7924 3.0615 1.9435 4.1854 3.3671 1.1358 1.4617 1.9894 3.1224 2.5171 4.8972.574 1.9094.8599 3.8939.848 5.8878.0116 1.9919-.2645 3.975-.8197 5.8878-.5018 1.7623-1.3477 3.4075-2.4887 4.8405-1.1289 1.3905-2.5605 2.504-4.1855 3.2555-1.839.826-3.8386 1.2319-5.8538 1.1886-.8061-.0086-1.6102-.0843-2.4037-.2263-.8995-.1548-1.7806-.4014-2.6298-.736-.8802-.3464-1.7082-.8132-2.46041-1.3871-.78311-.5956-1.44534-1.3354-1.95108-2.1798h-.11332v15.0589h-4.807474v-40.4178zm17.27821 10.3886c-.3336-1.2496-.8892-2.429-1.64-3.4818-.7391-1.022-1.7079-1.8559-2.8281-2.4344-1.254-.6274-2.6423-.9383-4.0438-.9055-2.7474-.1145-5.35817 1.2028-6.90021 3.4817-.73219 1.0733-1.25944 2.273-1.55508 3.5385-.65041 2.6891-.64069 5.4959.02833 8.1804.30776 1.2711.85477 2.4719 1.61174 3.5379.74894 1.0311 1.72672 1.8741 2.85642 2.4628 1.3155.6564 2.7728.9772 4.2421.9339 1.4462.0513 2.8802-.2806 4.1571-.9623 1.0884-.6187 2.0103-1.4929 2.6864-2.5472.7007-1.1109 1.1987-2.3376 1.4707-3.6229.3034-1.3758.4552-2.7807.4527-4.1895.0009-1.3487-.1801-2.6914-.5383-3.9916zm8.7374-15.65436v-5.88664h4.8104v5.88782h-4.8074zm4.8075 5.26516v29.269h-4.8075v-29.2684h4.8104zm17.136 0v4.2462h-5.8255v18.1703c-.0123.4571.0351.9139.141 1.3587.0801.3195.2706.6003.5377.7927.3313.2126.7105.3391 1.103.3681.6105.0634 1.2241.0916 1.8378.0844h2.206v4.2486h-3.6773c-1.0706.0144-2.1403-.0709-3.1952-.2546-.7838-.1246-1.5234-.4461-2.1493-.9346-.5839-.5093-1.0065-1.1782-1.2158-1.9246-.295-1.0685-.4285-2.1752-.396-3.2832v-18.6252h-4.9768v-4.2462h4.9768v-8.77471h4.8075v8.77471h5.8255zm19.9641 5.0951c-1.3851-1.0783-3.1119-1.621-4.8642-1.5288-1.5094-.0516-3.0073.2794-4.3548.9623-1.1288.6053-2.0905 1.4805-2.7997 2.5478-.7214 1.1136-1.2297 2.3517-1.499 3.6513-.3046 1.4041-.4562 2.8371-.4521 4.2739-.0029 1.3356.1584 2.6665.4804 3.9627.2928 1.222.8003 2.3821 1.499 3.4262.6803 1.003 1.5911 1.8281 2.6558 2.4061 1.2024.6302 2.5459.942 3.9027.9056 2.3756 0 4.2325-.6227 5.5706-1.8679 1.4168-1.4081 2.2887-3.2736 2.4604-5.2646h4.9202c-.5284 3.6231-1.8764 6.4159-4.0438 8.3783-2.1675 1.9624-5.1183 2.9436-8.8525 2.9436-2.0218.0376-4.0308-.3281-5.9099-1.0757-1.651-.6703-3.123-1.7171-4.2988-3.057-1.1829-1.3793-2.0685-2.9881-2.6014-4.7259-.6026-1.952-.8983-3.986-.8764-6.029-.0156-2.0781.27-4.1476.8481-6.1436.5186-1.8152 1.3935-3.5088 2.5737-4.9816 1.1684-1.4295 2.6484-2.572 4.3265-3.34 1.9031-.8463 3.9694-1.2618 6.0515-1.2169 1.5748-.0109 3.144.189 4.6658.5942 1.3864.3654 2.6914.9898 3.8461 1.8402 1.1238.8439 2.0582 1.9143 2.7431 3.1421.7547 1.3917 1.2167 2.9235 1.3574 4.5007h-4.9769c-.273-1.6646-1.1106-3.1844-2.3718-4.3034zm14.8721-16.24512781v15.45352781h.1127c.3532-.8715.8941-1.6543 1.584-2.2926.6806-.6242 1.4531-1.1399 2.2905-1.5288.8477-.3959 1.7391-.6903 2.6557-.8773.8837-.1843 1.7837-.2791 2.6864-.2829 1.6386-.0489 3.2712.2203 4.8072.7927 1.201.4716 2.269 1.2296 3.111 2.2082.809.9782 1.38 2.1308 1.668 3.3671.334 1.419.495 2.8731.481 4.3307v19.2484h-4.807v-19.8143c.083-1.5907-.49-3.1458-1.584-4.3023-1.174-1.102-2.7478-1.6747-4.3549-1.5849-1.3051-.0305-2.6031.2005-3.8177.6793-1.0323.4234-1.9515 1.0825-2.6841 1.9246-.7288.8526-1.2771 1.8443-1.6117 2.9153-.3686 1.1815-.5498 2.4135-.5371 3.6513v16.531h-4.8075v-40.4208h4.8075z" fill="#292f38" fill-rule="evenodd"></path><path d="m153.609 72.8002v-12h11.2v-1.6h-11.2v-12h-1.6v12h-11.2v1.6h11.2v12z" fill="#a7adb5"></path><g clip-path="url(#a)"><path d="m234.747.00000933c-3.874.00169894-7.43 2.13852067-9.251 5.55737067-1.82 3.41885-1.608 7.56282.553 10.77752l4.478-4.4722c-.148-.4461-.222-.9133-.221-1.3833 0-2.44206 1.98-4.42171 4.422-4.42171s4.421 1.97965 4.421 4.42171c0 2.442-1.979 4.4216-4.421 4.4216-.468.001-.933-.0736-1.377-.2211l-4.472 4.4722c3.724 2.5259 8.645 2.3921 12.226-.3324 3.582-2.7246 5.024-7.4315 3.584-11.69475-1.441-4.26325-5.442-7.13091994-9.942-7.12494067z" fill="#34a853"></path><path d="m230.578 30.5412c.007-3.54-1.14-6.9858-3.266-9.8161l-5.811 5.805c1.817 3.3241 1.163 7.4558-1.592 10.0561l3.158 7.719c4.68-3.0138 7.509-8.1979 7.511-13.764z" fill="#fbbc04"></path><path d="m214.338 38.8729h-.152c-3.564.0003-6.735-2.2653-7.889-5.6377-1.155-3.3724-.038-7.1056 2.779-9.2897s6.711-2.336 9.69-.3779l5.754-5.7545c-5.595-4.5363-13.497-4.8863-19.472-.8623s-8.621 11.4781-6.52 18.3684c2.1 6.8903 8.455 11.6007 15.658 11.6074 1.112.0006 2.22-.1095 3.31-.3285z" fill="#ea4335"></path><path d="m234.968 45.5493c-3.637-.0037-7.255.5262-10.738 1.5728l4.604 11.25c2.005-.4967 4.062-.747 6.128-.7454 11.966.0035 22.263 8.4588 24.595 20.1955 2.332 11.7366-3.952 23.4858-15.007 28.0638-11.056 4.577-23.806.708-30.453-9.2422-6.647-9.95-5.34-23.2098 3.121-31.6708 1.766-1.7601 3.781-3.25 5.982-4.4217l-4.554-11.2183c-16.977 8.3141-25.015 28.0413-18.683 45.8523 6.332 17.8107 25.019 28.0377 43.434 23.7697 18.415-4.267 30.698-21.6713 28.55-40.4518-2.149-18.7805-18.045-32.9611-36.948-32.9602z" fill="#4285f4"></path></g></svg> 