<?xml version="1.0" encoding="UTF-8"?> <svg xmlns="http://www.w3.org/2000/svg" fill="none" height="40" viewBox="0 0 40 40" width="40"><path d="m30.6621 36.4754c-2.0676 2.0053-4.3251 1.6887-6.4983.7388-2.2997-.971-4.4095-1.0132-6.8358 0-3.0382 1.3087-4.6417.9288-6.4561-.7388-10.295994-10.6176-8.77691-26.78662 2.9116-27.37766 2.8482.14776 4.8315 1.56206 6.4982 1.68866 2.4896-.5066 4.8738-1.96307 7.5322-1.77309 3.1858.2533 5.591 1.51979 7.1734 3.79949-6.5827 3.9473-5.0214 12.6229 1.0127 15.0503-1.2026 3.1663-2.7639 6.3115-5.359 8.6334zm-10.5913-27.50431c-.3165-4.70718 3.5023-8.591138 7.8907-8.97109.6119 5.44598-4.937 9.4988-7.8907 8.97109z" fill="#fcfcfc"></path></svg> 