<?xml version="1.0" encoding="UTF-8"?> <svg xmlns="http://www.w3.org/2000/svg" height="46" viewBox="0 0 45 46" width="45"><g fill="none" fill-rule="evenodd"><path d="m0 30.0531469 5.26777788 3.355944 1.55040394-1.2587412 2.51377093 3.0714933c-.82403988 1.4493075-.82403988 2.3487864 0 2.6984367.82403985.3496504 1.64807975.6638465 2.47211965.9425885-.2354856.6885818-.1583797 1.2572422.2313178 1.7059813.3896974.448739.9234818.6731085 1.601353.6731085-.3402123 1.327739-.198056 2.1258742.4264691 2.3944056.6245251.2685315 1.5508014.1550946 2.7788287-.3403108.3271219 1.1359648.9343662 1.7039472 1.8217329 1.7039472.8873668 0 1.7115633-.3202797 2.4725897-.9608392l1.3636364.279021 2.0454545-2.0454545 2.7272728 1.0233255 2.008122-2.494544 1.5040052.4404492c1.3040453-.5706293 1.7242453-1.6778554 1.2606-3.3216783-.1463181-.3937063 4.0909091 2.5556835 4.7727273.3858837.4545455-1.4465332-.1264537-2.6243452-1.7429976-3.5334361l2.0254794-2.2233998 1.7629728 1.5415816 5.5592583-3.4090909-7.0065789-13.2404008-6.0977287 5.0585826-.5337326.3409091-12.3757636.3409091-5.7891545.5315052-.3472091-1.5444114-6.13636366-4.9535081z" fill="#fff"></path><path d="m34.9132191 27.9545455c1.4151278 2.4470862 4.0609464 2.4470862 7.9374556 0 0 0 .5241276 1.0227272 1.5723826 3.0681818l-5.5594209 3.0681818z" fill="#ee3124" fill-opacity=".098257"></path><path d="m0 27.2727273c1.41512784 2.4470862 4.06094638 2.4470862 7.93745561 0 0 0 .52412754 1.0227272 1.57238263 3.0681818l-5.55942098 3.0681818z" fill="#ee3124" fill-opacity=".098257" transform="matrix(-1 0 0 1 9.509838 0)"></path><circle cx="22.5" cy="10.227273" fill="#fff" r="8.863636"></circle><g fill="#ee3124"><path d="m15.6818182 7.5c0 4.8952512 3.9683852 8.8636364 8.8636363 8.8636364 2.2850041 0 4.3680595-.864645 5.939833-2.2846016-1.4336482 2.9661572-4.4705664 5.0118743-7.9852875 5.0118743-4.8952512 0-8.8636364-3.9683852-8.8636364-8.8636364 0-2.61024714 1.1283066-4.95696419 2.9238034-6.57903477-.5627727 1.16457245-.8783488 2.47131389-.8783488 3.85176207z" fill-opacity=".098257"></path><path d="m9.33195275 29.5286713c3.66373005 3.4497003 6.77433715 5.7224276 9.33182115 6.8181818 2.5574841 1.0957543 5.8693626 2.4783252 9.9356357 4.1477126l-.6448641 2.6526486-3.409091-.874487-1.3636363 2.0454545h-2.0454546l-2.7272727.6818182-2.0454545-1.3636364h-1.8566895l-.8705833-2.3944056-1.8322912-1.0920279-.8949815-1.2870619-2.08740233-1.3628682v-2.278157l-2.00350675-3.0714933z" fill-opacity=".098257"></path><g><path d="m35.0720434 39.5454545c-.4687834 0-.9327833-.1361445-1.3306114-.3979608l-7.7907339-5.1340178c-.2630928-.1732016-.3364398-.5284663-.1650309-.7943106.1698144-.2650388.5221992-.3383473.7844947-.1675625l7.7915311 5.1348234c.3045498.2013972.6665016.2634275 1.0204809.1740071.3531821-.0878091.6449759-.3141796.8211683-.6364152.3324535-.6074139.1379243-1.3727234-.4440687-1.7424886l-10.8027471-6.871673c-.4847284-.3085405-1.0443984-.4712694-1.6184189-.4712694h-5.0968238v1.3574172c0 1.2824974-1.0324396 2.3265406-2.30246 2.3265406s-2.3024601-1.0440432-2.3024601-2.3265406v-3.9183842c0-.6025805.3491958-1.1568256.8881373-1.4138084l4.4367002-2.1098372c.0757388-.0362515.1578557-.0539745.241567-.0539745h12.115819c.3141168 0 .5676425.2561773.5676425.5735793 0 .3165964-.2535257.5735792-.5676425.5735792h-11.9890562l-4.321896 2.0542516c-.1443024.0676695-.2367835.2158978-.2367835.37621v3.9183842c0 .6509158.5237937 1.1793821 1.1679723 1.1793821s1.1679723-.5284663 1.1679723-1.1793821v-1.9309965c0-.317402.2535257-.5727737.5668452-.5727737h5.6644663c.7884809 0 1.5562334.2231481 2.222735.6468879l10.8035443 6.8716729c1.0898417.693612 1.4557798 2.1299769.8315325 3.2690796-.3252783.5945245-.88734 1.0295425-1.5410856 1.1938826-.1921374.0483354-.3874639.0716974-.5827903.0716974"></path><path d="m30.221977 41.5909091c-.492022 0-.9715084-.1510993-1.3891003-.4427373l-5.404407-3.7661098c-.2554127-.1779073-.323575-.5369712-.151994-.8018012.1715809-.26483.5186601-.3355055.7740727-.1575982l5.4036236 3.7652975c.3118228.217713.6863236.294075 1.0545566.2152759.3674496-.0796115.6816228-.303011.8853262-.6303929.4105406-.6628873.2264241-1.5507989-.4089737-1.9813507l-4.9116015-3.3201232c-.2577631-.1746578-.3306263-.5329094-.1621792-.8001765.168447-.267267.5131757-.3420043.7717223-.1689712l4.9108181 3.3209355c1.1477901.776618 1.4791998 2.3802204.738033 3.5735801-.3650991.5922118-.9331181.9959557-1.5975045 1.1397437-.170014.0365563-.3423784.0544283-.5123923.0544283"></path><path d="m26.7069778 43.6363636c-.4838352 0-.9709617-.1244907-1.4029574-.3842308l-3.8986584-2.3453447c-.272363-.1636823-.3505336-.5025739-.1760896-.7561662.1760896-.2535924.5381432-.3265962.8096833-.1636823l3.8994812 2.3453447c.6278337.3788516 1.4720768.2359177 1.9205294-.3212169.2386262-.2966262.3332539-.6624139.267426-1.0266647-.065828-.3657877-.2838829-.680857-.6138454-.8868047l-2.5426032-1.5968632c-.2690716-.1675246-.3398366-.5087215-.1596327-.7584715.1802039-.2505185.544726-.3181431.8129748-.1490816l2.5426032 1.5960947c.599034.3757777.9948244.9482816 1.1149603 1.6122324.120136.6647193-.0518395 1.3271332-.484658 1.8658248-.5076978.6316754-1.2926957.96903-2.0892135.96903"></path><path d="m21.8906392 45c-.4753375 0-.9532584-.1221284-1.3829567-.3797691l-.4426151-.2651692c-.2884748-.1714816-.3788922-.5387032-.2015018-.8180928.1773905-.2810626.5545605-.3672217.8430353-.1949036l.4434762.2643327c.6346445.3797691 1.4725131.2149794 1.9056559-.3764231.2273353-.3103399.311725-.6875995.2376688-1.0623496-.0740563-.3739137-.297086-.6942915-.6277556-.900906l-1.0006201-.6265354c-.2841692-.1773371-.3659755-.5462317-.1834183-.8222753.1842794-.2752071.5631717-.3555107.848202-.1781736l.9997589.6256988c.6148389.3856246 1.029037.9803731 1.166816 1.6780106.1386401.696801-.0189446 1.3994574-.4417539 1.977476-.5132268.700147-1.3321508 1.0790796-2.1639916 1.0790796"></path><path d="m18.8441692 42.046743c-.3153113 0-.6282157.1295101-.8544696.3813351l-.1909518.2118529c-.2126145.2366356-.314509.5404246-.2888348.8562053.0256742.3165801.1773124.5995835.4244266.7986453.4709612.375739 1.1577461.3229757 1.5637194-.1183178l.1941612-.2110534c.2166261-.2358362.3233345-.5404247.2992649-.8586037-.0248719-.3133823-.1700916-.5947869-.4123919-.794648-.2270562-.1822734-.4821936-.2654157-.734924-.2654157m-.1925565 3.6350752c-.5046586 0-1.0117241-.1638862-1.4313368-.5004524-.495833-.3957252-.7967026-.9601331-.8488533-1.590895-.0513484-.6307619.1524406-1.2375405.5768672-1.7092128l.1901496-.2126523c.8087373-.8993754 2.1766909-1.0144954 3.1266364-.267814.5086701.4093157.8175629.9945092.8648997 1.6204744.0473368.6259653-.1700916 1.2503316-.5961229 1.7132101l-.1933588.2110534c-.4484962.4868618-1.0678864.7362886-1.6888811.7362886"></path><path d="m17.513567 37.9904846c-.3091651 0-.6167727.1365394-.8387175.401393l-2.3308092 2.7900102c-.2032547.2418229-.3013776.5535604-.2772362.8759909.0241413.3232529.1689895.6144274.4065093.8192365.4618008.403038 1.1400951.3487513 1.5411531-.1209114l2.3604019-2.7628669c.2071484-.2426454.3083864-.5552055.2858025-.880926-.0233626-.3240755-.1666532-.6177175-.4041731-.8241717-.239856-.2089218-.4921722-.2977546-.7429308-.2977546m-2.3308092 6.3276972c-.4984022 0-.998362-.1760207-1.4134376-.5346423-.4711458-.4096182-.7585059-.988677-.8075673-1.6310703-.0482828-.6432158.1471844-1.2634008.5513574-1.7454014l2.3300305-2.7900103c.7997798-.9541309 2.1548109-1.0692846 3.0862001-.2607409l-.322404.4787104.3519966-.4523896c.4750396.4129084.7616209.9952572.8075674 1.6434082.0451677.6465059-.1565295 1.2691585-.5684901 1.7511591l-2.3604018 2.7628669c-.4399957.5149017-1.045866.7781102-1.6548512.7781102"></path><path d="m14.0391518 37.2311706c-.3519382 0-.7015038.1471739-.9371837.4307341l-.8043172.9662623c-.2000908.2411803-.2902502.5432336-.254661.8506807.0355893.3074471.1929729.5817608.4428886.7728558.4879682.3729433 1.1942173.3097587 1.6054709-.1440918l.8462334-.9338994c.2214443-.2450331.3266303-.5586445.2949954-.8845847-.0316349-.3267107-.1953454-.6164352-.4610786-.8167767-.216699-.1618143-.4753143-.2411803-.7323478-.2411803m-.830416 4.3597385c-.4974587 0-.9980809-.1564205-1.4172433-.4754257-.48955-.3737139-.7979902-.9115537-.867587-1.5141192-.0695967-.6017949.1075587-1.1928022.4990405-1.6636047l.8051081-.9670328c.7900815-.9485398 2.2397506-1.1134362 3.2315045-.3652379.5077401.3821899.8335795.9585568.8936858 1.5796154.0608972.6218291-.1478931 1.2467403-.5725916 1.7152311l-.8454426.9338995c-.452379.4993126-1.0874495.7566743-1.7264744.7566743"></path><path d="m10.7540703 35.221843c-.2990218 0-.595619.1255517-.80250978.3679141l-.37175678.4322792c-.18911106.2193181-.27396858.4982336-.24083374.7835061.03394301.2868617.18183756.5379651.41620596.7111946.46954494.3424859 1.10476414.2622282 1.45954944-.1756134l.3596343-.4418148c.1769885-.2185235.2569971-.4918765.2214377-.7699973-.0347511-.2789155-.1786049-.525251-.4048916-.6945074-.1899192-.1430336-.4145896-.2129611-.6368355-.2129611m-.3572098 3.6417934c-.45823065 0-.91969396-.1406497-1.31650391-.4314846-.49702266-.363941-.81463226-.9066739-.88413461-1.49629-.06950236-.5904107.1147597-1.1895624.50429615-1.6432966l.37175679-.4330739c.7572524-.8820403 2.08345428-1.0250738 3.01607898-.3242094.4752021.3559947.7766484.8725047.8493834 1.4557638.072735.5824644-.092131 1.1561879-.464696 1.6154846l-.3588261.4418148c-.435602.5347866-1.0740538.8152913-1.7173547.8152913"></path><path d="m9.83621712 36.1363636c-.1462841 0-.29178592-.0597738-.40130343-.1793215l-3.14237011-3.4152967c-.18617975-.2014296-.20808325-.5125811-.05397648-.7402129l5.6557968-8.3740684c.1048239-.1547569.2730115-.2456459.4544977-.2456459h5.5040368c.3074313 0 .5561925.2603846.5561925.5821807 0 .3217962-.2487612.5829996-.5561925.5829996h-5.2161622l-5.22320273 7.7337515 2.82320483 3.068936c.2135591.2309071.2065187.6001948-.0148631.8237325-.107953.108903-.24719666.1629451-.38565808.1629451"></path><path d="m38.9834211 34.4459008c-.6284211 0-1.2410527-.3094215-1.62-.8815289-1.4328948-2.1595041-4.5339474-6.9361983-6.2557895-9.5904545-.5660527-.8750827-.3694737-2.058781.4476316-2.6937397l5.0739473-3.9467356c.2463158-.1933884.5992106-.1434297.7871053.1079753.1878947.2522107.1397368.6115909-.106579.8041735l-5.0739473 3.9459298c-.3481579.2715495-.4326316.7767768-.1902632 1.1498553 1.7202632 2.6518389 4.8181579 7.4245042 6.2486842 9.5799794.2534211.3827479.7531579.4899173 1.1368421.2441529l4.1313158-2.6494215c.2636842-.1684091.6094737-.0870248.7744737.1804958.165.2683265.0860526.6220662-.1760526.7904753l-4.1321053 2.6494214c-.3268421.2095042-.688421.3094215-1.0452631.3094215"></path><path d="m5.20147059 33.5578879c-.33449198.0008001-.67219252-.0846131-.98342246-.2618858l-3.92807487-2.2304133c-.27433155-.1555165-.37139037-.506033-.21657754-.7808057.15561498-.2755786.50294118-.3722728.77807487-.2167562l3.928877 2.2304132c.38181819.2159504.86149733.108781 1.11336899-.2530165l5.89572192-8.4559091c.2542781-.3650207.190107-.8573554-.1508021-1.1434091l-5.65427811-4.6808058c-.24385027-.2006405-.27914439-.562438-.07860963-.8065909.2013369-.2441529.56069519-.2788017.80374332-.0773554l5.65989302 4.6824174c.8013369.6744421.9521391 1.8267148.3553476 2.6824586l-5.8957219 8.4559091c-.38582888.555186-.99946525.8557495-1.62754011.8557495"></path><path d="m34.6163719 35.4545455c-.1336448 0-.2658128-.049576-.3684461-.1487278-.2067432-.2004908-.2096967-.5292958-.0066453-.734161l2.35835-2.3708952c.2030514-.2048652.5360558-.2070523.7427991-.0065615.2074816.2012199.2104351.5300248.0066453.734161l-2.3576117 2.3708952c-.1033716.1035262-.2392315.1552893-.3750913.1552893"></path><path d="m3.28487039 30c-.10898345 0-.2179669-.0313549-.3144055-.0972001-.25481742-.1748034-.31989387-.5212747-.14504992-.776033l2.97469939-4.3387302c.17484396-.2539744.52139565-.3190358.77542902-.1450163.25403337.1748034.31910982.5212747.14504992.7752492l-2.97469939 4.3387302c-.1081994.1583421-.28304335.2430002-.46102352.2430002"></path><path d="m40.328985 30.6818182c-.1934059 0-.3835475-.0905148-.4928993-.2548105l-2.9296494-4.3720923c-.1697401-.2532893-.0873182-.5864446.1844292-.7454159.2725635-.1582107.6316291-.0813873.8005532.1726626l2.9296494 4.3713317c.1697402.2532893.0865022.5879658-.1852452.7469371-.0954788.0547653-.2023825.0813873-.3068379.0813873"></path><path d="m22.2595364 19.8235227c-5.3157 0-9.6396-4.3017482-9.6396-9.5884615s4.3239-9.58846155 9.6396-9.58846155c2.5752 0 4.9953818.99755245 6.8160545 2.80856643.2198727.2187063.2198727.57272728 0 .79143357-.2198727.21949301-.5757818.21949301-.7956545 0-1.6087091-1.59938811-3.7465364-2.47972028-6.0204-2.47972028-4.6948364 0-8.5141364 3.79903846-8.5141364 8.46818183 0 4.6699301 3.8193 8.4689685 8.5141364 8.4689685 4.6948363 0 8.5141363-3.7990384 8.5141363-8.4689685 0-.48540211-.0419182-.97001749-.1233818-1.44283218-.0529909-.30445804.1534364-.59318182.4587273-.64667832.3092454-.05270979.5979273.15262238.6509182.45708042.0925363.53496503.1392 1.08409091.1392 1.63243008 0 5.2867133-4.3239 9.5884615-9.6396 9.5884615"></path><path d="m15.5604508 9.54545455c-.0456328 0-.0904787-.00549572-.1368983-.01648716-.29976-.07458477-.4815042-.37841956-.4067609-.67754374.8032938-3.20478971 3.6789443-5.44233274 6.9936134-5.44233274 1.926017 0 3.7355918.74741788 5.0982804 2.10564576.2187225.21904369.2187225.57233996 0 .79059854-.2195093.21825858-.5735566.21825858-.7922791 0-1.1502602-1.14782032-2.6789575-1.77982809-4.3060013-1.77982809-2.7993337 0-5.2288846 1.89131269-5.9078685 4.59677701-.0637285.25437331-.2918923.42317042-.5420857.42317042"></path><path d="m22.3164009 17.0454545c-.1373875 0-.2707813-.0511813-.3754195-.1446076l-6.0650218-5.4171007c-.2364344-.2095999-.2603973-.5759935-.0527185-.8156522.2068801-.2396588.5655256-.2632185.80196-.0528062l5.6161159 5.0157738 8.7896089-11.32083055c.1948986-.25022001.5519465-.29246494.7979661-.09505111.2468183.19741384.2891529.56137022.0934555.81240263l-9.159437 11.79771083c-.0974493.1242976-.2396295.2031007-.3953886.2177239-.0167741.0016248-.0343469.0024372-.051121.0024372"></path></g></g></g></svg> 