<?xml version="1.0" encoding="UTF-8"?> <svg xmlns="http://www.w3.org/2000/svg" height="45" viewBox="0 0 45 45" width="45"><g fill="none" fill-rule="evenodd"><path d="m43.2280352 19.7534459h-2.9299532c-.200915-1.3205902-.5496216-2.5928247-1.0216015-3.8024009l2.5397014-1.4656577c.5210168-.301713.6994565-.9677972.3991057-1.489495l-1.6352436-2.8305174c-.3003508-.52169782-.9671161-.70013756-1.4881329-.39910564l-2.5424257 1.46770084c-.8234108-1.026369-1.7564736-1.95943171-2.7828426-2.78284255l1.468382-2.54174464c.3010319-.52169785.1219111-1.18778206-.3984246-1.48881398l-2.8318795-1.63456246c-.5210168-.30035086-1.1877821-.12259219-1.4881329.39910567l-1.4663388 2.53902036c-1.2102573-.47129885-2.4818106-.82068657-3.8024009-1.02160154v-2.92927215c0-.60206385-.4876445-1.08970831-1.0897083-1.08970831h-3.2691249c-.6020639 0-1.0897084.48764446-1.0897084 1.08970831v2.92927215c-1.3212713.20091497-2.5928247.55030269-3.8024009 1.02160154l-1.4663387-2.53902036c-.301032-.52169786-.9677972-.69945653-1.4881329-.39910567l-2.8318795 1.63456246c-.5210168.30103192-.69945654.96711613-.39842462 1.48881398l1.46770092 2.54174464c-1.026369.82341084-1.95943179 1.75647355-2.78284263 2.78284255l-2.5424257-1.46770084c-.52033572-.30103192-1.18778206-.12259218-1.48813292.39910564l-1.63456246 2.8305174c-.30103192.5216978-.12191112 1.187782.3984246 1.489495l2.5403825 1.4656577c-.47197991 1.2095762-.82136764 2.4818107-1.02160154 3.8024009h-2.92995322c-.60206384 0-1.08970831.4876445-1.08970831 1.0897083v3.269125c0 .6013827.48764447 1.0897083 1.08970831 1.0897083h2.92995322c.2002339 1.3205902.54962163 2.5928247 1.02160154 3.8024009l-2.5403825 1.4656577c-.52033572.301713-.69945652.9677972-.3984246 1.489495l1.63456246 2.8305174c.30035086.5216978.9677972.6994565 1.48813292.3991056l2.5424257-1.4677008c.82341084 1.026369 1.75647363 1.9594317 2.78284263 2.7828426l-1.46770092 2.5417446c-.30103192.5216978-.12259218 1.1877821.39842462 1.488814l2.8318795 1.6345624c.5203357.3003509 1.1871009.1225922 1.4881329-.3991056l1.4663387-2.5390204c1.2095762.4712989 2.4811296.8206866 3.8024009 1.0216015v2.9292722c0 .6013828.4876445 1.0897083 1.0897084 1.0897083h3.2691249c.6020638 0 1.0897083-.4883255 1.0897083-1.0897083v-2.9292722c1.3205903-.2009149 2.5921436-.5503026 3.8024009-1.0216015l1.4663388 2.5390204c.3003508.5216978.9671161.6994565 1.4881329.3991056l2.8318795-1.6345624c.5203357-.3010319.6994565-.9671162.3984246-1.488814l-1.468382-2.5417446c1.026369-.8234109 1.9594318-1.7564736 2.7828426-2.7828426l2.5424257 1.4677008c.5210168.3003509 1.1877821.1225922 1.4881329-.3991056l1.6352436-2.8305174c.3003508-.5216978.1219111-1.187782-.3991057-1.489495l-2.5397014-1.4656577c.4719799-1.2095762.8206865-2.4818107 1.0216015-3.8024009h2.9299532c.6020639 0 1.0897083-.4883256 1.0897083-1.0897083v-3.269125c0-.6020638-.4876444-1.0897083-1.0897083-1.0897083" fill="#fff"></path><g fill="#fdebea"><path d="m41.8160457 14.4851149c.5216978-.3010319.6994565-.9677972.3991056-1.4894951l-1.6345624-2.8305173c-.3010319-.52101678-.9671161-.70013759-1.488814-.39910566l-.8506535.49104976c.6422468 1.7666896 1.0583792 3.6403069 1.2238786 5.5854362z"></path><path d="m43.2280352 19.7534459h-2.9299532c-.1634562-1.0754059-.4297537-2.1153962-.775055-3.11929.0170267.3561984.0265616.7151211.0265616 1.0754059 0 12.0365093-9.7576568 21.7941662-21.7934851 21.7941662-.361647 0-.7198886-.010216-1.076087-.0272427 1.0032127.3466634 2.0438842.6122798 3.11929.7764171v2.9292722c0 .6013828.4876445 1.0897083 1.0897084 1.0897083h3.2691249c.6020638 0 1.0897083-.4883255 1.0897083-1.0897083v-2.9292722c1.3205903-.2009149 2.5921436-.5503026 3.8024009-1.0216015l1.4663388 2.5390204c.3003508.5216978.9671161.6994565 1.4881329.3991056l2.8318795-1.6345624c.5203357-.3010319.6994565-.9671162.3984246-1.488814l-1.468382-2.5417446c1.026369-.8234109 1.9594318-1.7564736 2.7828426-2.7828426l2.5424257 1.4677008c.5210168.3003509 1.1877821.1225922 1.4881329-.3991056l1.6352436-2.8305174c.3003508-.5216978.1219111-1.187782-.3991057-1.489495l-2.5397014-1.4656577c.4719799-1.2095762.8206865-2.4818107 1.0216015-3.8024009h2.9299532c.6020639 0 1.0897083-.4883256 1.0897083-1.0897083v-3.269125c0-.6020638-.4876444-1.0897083-1.0897083-1.0897083"></path><path d="m9.81185746 39.0461186c-.30035086.5216979-.12259219 1.1877821.39910564 1.488814l2.8311984 1.6345624c.5210168.3003509 1.187101.1225922 1.488814-.3991056l1.3573679-2.3517268c-1.9451293-.1648184-3.8194276-.5809507-5.5847551-1.2231975z"></path></g><path d="m15.9966332 38.7202277c.0626582 0 .1253164.0115782.1852504.0354155 1.2007223.4678935 2.4436709.8016167 3.6941112.9923157.2492707.0374587.4338401.251995.4338401.5046711v2.9299532c0 .3194208.2594868.5782265.5795886.5782265h3.2684439c.3187396 0 .5789075-.2588057.5789075-.5782265v-2.9299532c0-.2526761.1845693-.4672124.4345212-.5046711 1.2504403-.190699 2.4927078-.5244222 3.6941112-.9923157.2329251-.0939873.5005847.0006811.6272633.2199849l1.4656577 2.5397014c.1600509.2771946.5155682.3711819.7914006.2118121l2.8311985-1.6345625c.2758324-.1600509.3711818-.5142061.211812-.7907196l-1.4683819-2.5424257c-.1253165-.2179416-.0735554-.4958173.1232732-.653825.9950399-.7988924 1.9049464-1.7081177 2.7038388-2.7038387.1580077-.1968286.4338401-.2485897.6538249-.1219111l2.5417447 1.4670198c.2758324.1586888.6313497.0660636.7907196-.2118121l1.6352435-2.8311984c.0769607-.1334892.0973927-.2901348.0578908-.4392886-.0408641-.1491539-.1362136-.2744703-.2697029-.351431l-2.5397014-1.4663387c-.2186227-.1266786-.311929-.3929761-.2206659-.6279444.4685746-1.2014034.8022977-2.444352.9923156-3.6934301.0381398-.2499519.2533572-.4345212.5053522-.4345212h2.9292722c.3187397 0 .5789075-.2588057.5789075-.5782265v-3.2691249c0-.3194208-.2601678-.5795886-.5789075-.5795886h-2.9292722c-.251995 0-.4672124-.1838883-.5053522-.4338402-.1900179-1.2490781-.523741-2.4927077-.9923156-3.6934301-.0912631-.2349683.0020432-.5019468.2206659-.6279444l2.5390204-1.4656576c.1341703-.0776418.2295198-.2022772.2703839-.352112.0395019-.1491539.0190699-.3051184-.0578908-.4392887l-1.6352435-2.8311984c-.1593699-.2765135-.5148872-.371863-.7907196-.2118121l-2.5417447 1.4677009c-.2199848.1273597-.4958172.0735553-.6538249-.1225922-.7975303-.9936777-1.7067557-1.90358417-2.7045199-2.70383871-.1961475-.15868878-.2479086-.43588333-.1225921-.65382499l1.469063-2.5424257c.1586887-.27583242.0633393-.63134975-.2131742-.79071959l-2.8305174-1.63456247c-.2751513-.15936984-.6313497-.06402036-.7914006.21181205l-1.4656577 2.53970143c-.1266786.2193038-.392976.31124794-.6272633.22066594-1.2034467-.46925564-2.4463952-.80297881-3.6941112-.9929967-.2499519-.03813979-.4345212-.25199505-.4345212-.50467116v-2.92927215c0-.31942075-.2601679-.57958861-.5789075-.57958861h-3.2684439c-.3201018 0-.5795886.26016786-.5795886.57958861v2.92927215c0 .25267611-.1845694.46653137-.4338401.50467116-1.2483971.19001789-2.4906646.52374106-3.6941112.9929967-.2356494.08990093-.5019469-.00204321-.6272633-.22066594l-1.4670199-2.53970143c-.1593698-.27651348-.5148871-.37254403-.7900385-.21181205l-2.8311984 1.63456247c-.2758324.15936984-.3718629.51488717-.2124931.79071959l1.4683819 2.5424257c.1253165.21794166.0742364.49581728-.1225921.65382499-.995721.79821133-1.90562745 1.70811781-2.70383879 2.70383871-.15800771.1961475-.43520226.2499519-.65450606.1225922l-2.54174463-1.4677009c-.27515135-.1600509-.63134975-.0647014-.79071959.2118121l-1.63456247 2.8311984c-.15936984.2765135-.06402036.6313497.21181206.7914007l2.53970143 1.4656576c.21862273.1259976.311929.3929761.22066593.6279444-.46925564 1.2020845-.80297881 2.4457141-.99231563 3.6934301-.03813979.2499519-.25335718.4338402-.50535223.4338402h-2.92927215c-.32010182 0-.57958861.2601678-.57958861.5795886v3.2691249c0 .3194208.25948679.5782265.57958861.5782265h2.92927215c.25199505 0 .46721244.1845693.50535223.4345212.18933682 1.247716.52305999 2.4906645.99231563 3.6934301.09126307.2349683-.0020432.5012658-.22066593.6279444l-2.53970143 1.4663387c-.13417034.0769607-.22951982.2022771-.26970281.351431-.040183.1491538-.0190699.3057994.05789075.4392886l1.63456247 2.8311984c.07764172.1341704.2022771.2295198.35143093.2697028.14847276.039502.30511833.0190699.43860759-.0578907l2.5424257-1.4670198c.2193038-.1266786.49649835-.0749175.65450606.1219111.7988924.995721 1.70879889 1.9049463 2.70383879 2.7038387.1968285.1580077.2479086.4358834.1225921.653825l-1.4683819 2.5424257c-.0769607.1334893-.0973927.2894538-.0578908.4392887.040183.1491538.1368946.2737892.2703839.3514309l2.8311984 1.6345625c.2758324.1600509.6313498.0647014.7900385-.2118121l1.4670199-2.5397014c.0926252-.1620941.2635732-.2554004.4420129-.2554004m8.1612342 6.0621836h-3.2684439c-.8826637 0-1.6011901-.7171643-1.6011901-1.5998281v-2.4961131c-1.0352229-.1838882-2.0629541-.4604017-3.0661668-.8247729l-1.2497592 2.1644331c-.4406508.7641579-1.4220694 1.026369-2.1855463.5857182l-2.83119836-1.6352435c-.36981976-.2131742-.63543616-.5584755-.74576912-.9712026-.11101404-.412727-.05380435-.8445239.1600509-1.2143436l1.25112138-2.1671575c-.80910844-.6817487-1.56168824-1.4343285-2.24343701-2.2434369l-2.1671574 1.2511213c-.36981976.2138553-.80025454.2703839-1.2143437.1600509-.41272702-.1103329-.75802834-.3752683-.9718836-.7457691l-1.63456246-2.8311984c-.21385526-.3705008-.27038388-.8016167-.16005091-1.2143437.11101403-.412727.37594937-.7580283.74576912-.9718836l2.16443314-1.2497592c-.36505229-1.0032127-.64156577-2.031625-.82409191-3.0661668h-2.4961131c-.88266373 0-1.60119015-.7171643-1.60119015-1.599828v-3.2691249c0-.8826638.71852642-1.6011902 1.60119015-1.6011902h2.4961131c.18252614-1.0338607.45903962-2.0622729.82409191-3.0661667l-2.16443314-1.2490782c-.76415795-.4413318-1.02705008-1.4220693-.58571821-2.1862273l1.63456246-2.83119838c.4406508-.76415795 1.42206935-1.02705008 2.1862273-.58571822l2.16647634 1.2511214c.68242983-.80910846 1.43500963-1.5610072 2.24411807-2.24343703l-1.25112138-2.1671574c-.44201293-.76347689-.17843973-1.74421436.58571822-2.1862273l2.83119836-1.63456246c.7621148-.44201294 1.7442144-.17843974 2.1855463.58571821l1.2504403 2.16443313c1.0038937-.36437121 2.0316249-.6408847 3.0654857-.82477297v-2.49543203c0-.88266373.7185264-1.60119015 1.6011901-1.60119015h3.2684439c.8826637 0 1.600509.71852642 1.600509 1.60119015v2.49543203c1.0345419.18388827 2.062273.46040176 3.0661668.82477297l1.2497592-2.16443313c.4406508-.76415795 1.4220694-1.02773115 2.1862273-.58571821l2.8311984 1.63456246c.7634769.44201294 1.0270501 1.42275041.5850372 2.1862273l-1.2504403 2.16783847c.8104705.68242983 1.5623693 1.43432856 2.243437 2.24275596l2.1664763-1.2511214c.764839-.44201293 1.7462576-.17775867 2.1869084.58571822l1.6345624 2.83119838c.2131742.3698198.2703839.8016167.1593699 1.2150248-.110333.4120459-.3752683.7573473-.7457691.9712025l-2.1637521 1.2490782c.3643712 1.0032127.6408847 2.0309438.8240919 3.0661667h2.4961131c.8826637 0 1.6005091.7185264 1.6005091 1.6011902v3.2691249c0 .8826637-.7178454 1.599828-1.6005091 1.599828h-2.4961131c-.1832072 1.035904-.4597207 2.0636351-.8240919 3.0661668l2.1637521 1.2497592c.3705008.2138553.6354361.5591566.7457691.9718836.111014.412727.0538043.8438429-.1593699 1.2143437l-1.6345624 2.8311984c-.4413319.764158-1.4227504 1.0250069-2.1869084.5857182l-2.1664763-1.2511213c-.6824299.8091084-1.4350097 1.5616882-2.243437 2.2434369l1.2504403 2.1671575c.4420129.764839.1784397 1.7448954-.5850372 2.1855462l-2.8311984 1.6352435c-.7655201.4413319-1.7462575.1777587-2.1862273-.5857182l-1.2497592-2.1644331c-1.0025316.3643712-2.0302628.6408847-3.0661668.8247729v2.4961131c0 .8826638-.7178453 1.5998281-1.600509 1.5998281" fill="#ee3124"></path><path d="m34.7825234 22.2409095c0 6.7704939-5.4887246 12.2592185-12.2592185 12.2592185s-12.2592185-5.4887246-12.2592185-12.2592185c0-6.770494 5.4887246-12.25921853 12.2592185-12.25921853s12.2592185 5.48872453 12.2592185 12.25921853" fill="#fff"></path><path d="m30.0145047 20.1977064c0 6.7698129-5.4887246 12.2592185-12.2592185 12.2592185-.7941249 0-1.56918-.0824092-2.3210787-.2267956 2.002339 1.4241126 4.4446478 2.2699987 7.0892336 2.2699987 6.770494 0 12.2592185-5.4887246 12.2592185-12.2592185 0-5.975688-4.2777862-10.9468011-9.9374587-12.0331041 3.1247386 2.2223239 5.1693038 5.8633118 5.1693038 9.989901z" fill="#fdebea"></path><path d="m22.5233049 10.4924917c-6.4783159 0-11.7484177 5.2701019-11.7484177 11.7484178s5.2701018 11.7484177 11.7484177 11.7484177 11.7484177-5.2701018 11.7484177-11.7484177-5.2701018-11.7484178-11.7484177-11.7484178m0 24.518437c-7.0415589 0-12.77001926-5.7284603-12.77001926-12.7700192s5.72846036-12.7700193 12.77001926-12.7700193 12.7700193 5.7284604 12.7700193 12.7700193-5.7284604 12.7700192-12.7700193 12.7700192" fill="#ee3124"></path><path d="m35.4635911 30.3099952h-14.7049326-11.17427765v-16.3449436h25.87921025z" fill="#fdebea"></path><path d="m9.58438085 13.9649835 2.37215875 12.30485 7.6906164-4.1320377z" fill="#fff"></path><path d="m10.0942281 29.8000798h24.8582898v-15.3240231h-24.8582898zm25.3690906 1.0216015h-25.87989135c-.28128095 0-.51080077-.2288387-.51080077-.5108007v-16.3456247c0-.281962.22951982-.5108008.51080077-.5108008h25.87989135c.2826431 0 .5108007.2288388.5108007.5108008v16.3456247c0 .281962-.2281576.5108007-.5108007.5108007z" fill="#ee3124"></path><path d="m25.3985684 22.1371829 10.0648184 8.1728123-3.3018162-11.9241332z" fill="#fff"></path><path d="m9.58301871 30.3099952h4.11773529 7.0579045 14.7049326l-12.9409673-10.5075124z" fill="#fdebea"></path><path d="m9.58438085 30.3099952h4.11637315 7.0579045l9.3326706-1.558964-4.6925564-6.6138483-2.8747867 2.3347-2.87683-2.334019z" fill="#fff"></path><path d="m11.0223191 29.7998074h23.0016992l-11.5005091-9.3388002zm24.4414763 1.0216015h-25.88057237c-.21657952 0-.40932168-.1362135-.48151486-.3398528-.07219317-.2043203-.00885388-.4311158.15936984-.5673294l12.94028619-10.5075123c.1866125-.1525592.4556343-.1525592.6429279 0l12.9409673 10.5075123c.1675426.1362136.232244.3630091.1600509.5673294-.0728743.2036393-.2656164.3398528-.4815149.3398528z" fill="#ee3124"></path><path d="m35.4635911 13.9643705h-25.88057239l12.94096729 10.5075124z" fill="#fdebea"></path><path d="m35.4635911 13.9649835-25.87921025-.0006811 11.83218905 7.5870941z" fill="#fff"></path><path d="m11.0223191 14.4757843 11.5018712 9.3388002 11.499828-9.3388002zm11.5018712 10.5075123c-.1137383 0-.2281577-.0381397-.322145-.1144193l-12.94096729-10.5075124c-.16822372-.1362136-.23156301-.3630091-.15936984-.5673294.07219318-.2036392.26493534-.3398528.48151486-.3398528h25.88057237c.2158985 0 .4086406.1362136.4815149.3398528.0721931.2043203.0074917.4311158-.1600509.5673294l-12.9396052 10.5075124c-.0933062.0762796-.2070445.1144193-.3214639.1144193z" fill="#ee3124"></path></g></svg> 