<?xml version="1.0" encoding="UTF-8"?> <svg xmlns="http://www.w3.org/2000/svg" height="66" viewBox="0 0 67 66" width="67"><g fill="none" fill-rule="evenodd"><path d="m58.8301 10.7481h-58v-8c0-1.104.896-2 2-2h54c1.104 0 2 .896 2 2z" fill="#a5dce5"></path><path d="m46.8292 7.7481h-46.001v-5c0-1.104.896-2 2-2h51.001c0 3.866-3.134 7-7 7" fill="#fff"></path><g fill="#1d596b"><path d="m53.8311 6.7501c-.27 0-.52-.111-.71-.291-.19-.189-.29-.449-.29-.709 0-.271.1-.521.29-.711.38-.369 1.04-.369 1.42 0 .18.19.29.45.29.711 0 .26-.11.52-.29.709-.19.18-.45.291-.71.291"></path><path d="m46.8311 5.7501c0-.551.44-1 1-1 .55 0 1 .449 1 1 0 .549-.45 1-1 1-.56 0-1-.451-1-1"></path><path d="m41.8311 6.7501c-.26 0-.52-.111-.71-.291-.19-.189-.29-.449-.29-.709 0-.261.1-.521.29-.711.38-.369 1.04-.369 1.41 0 .19.19.3.44.3.711 0 .27-.11.52-.3.709-.18.18-.44.291-.7.291"></path><path d="m1.5801 9.9981h56.5v-7.25c0-.689-.561-1.25-1.25-1.25h-54c-.689 0-1.25.561-1.25 1.25zm57.25 1.5h-58c-.414 0-.75-.336-.75-.75v-8c0-1.516 1.233-2.75 2.75-2.75h54c1.517 0 2.75 1.234 2.75 2.75v8c0 .414-.336.75-.75.75z"></path></g><path d="m58.8301 10.7481h-58.002v52c0 1.105.896 2 2 2h54.002c1.104 0 2-.895 2-2z" fill="#a5dce5"></path><path d="m53.8292 10.7481h-53.001v51h51.001c1.104 0 2-.895 2-2z" fill="#fff"></path><path d="m1.5782 11.4981v51.25c0 .689.561 1.25 1.25 1.25h54.002c.689 0 1.25-.561 1.25-1.25v-51.25zm55.252 54h-54.002c-1.517 0-2.75-1.232-2.75-2.75v-52c0-.414.336-.75.75-.75h58.002c.414 0 .75.336.75.75v52c0 1.518-1.233 2.75-2.75 2.75z" fill="#1d596b"></path><path d="m51.8292 32.4972h-1.5c-.414 0-.75-.336-.75-.75s.336-.75.75-.75h.75v-.75c0-.414.336-.75.75-.75s.75.336.75.75v1.5c0 .414-.336.75-.75.75" fill="#21365f"></path><path d="m51.8292 26.7667c-.414 0-.75-.336-.75-.75v-2.538c0-.414.336-.75.75-.75s.75.336.75.75v2.538c0 .414-.336.75-.75.75" fill="#21365f"></path><g transform="translate(20.0801 20.9981)"><path d="m43.75.75h-42c-.552 0-1 .447-1 1v12c0 .552.448 1 1 1h42c.553 0 1-.448 1-1v-12c0-.553-.447-1-1-1" fill="#a5dce5"></path><path d="m41.75.75h-40c-.552 0-1 .447-1 1v10h40c.552 0 1-.448 1-1z" fill="#fff"></path><g fill="#1d596b"><path d="m1.75 1.5c-.138 0-.25.111-.25.25v12c0 .137.112.25.25.25h42c.138 0 .25-.113.25-.25v-12c0-.139-.112-.25-.25-.25zm42 14h-42c-.965 0-1.75-.785-1.75-1.75v-12c0-.965.785-1.75 1.75-1.75h42c.965 0 1.75.785 1.75 1.75v12c0 .965-.785 1.75-1.75 1.75z"></path><path d="m4.75 4.5c-.138 0-.25.111-.25.25v3c0 .137.112.25.25.25h3c.138 0 .25-.113.25-.25v-3c0-.139-.112-.25-.25-.25zm0 5c-.965 0-1.75-.785-1.75-1.75v-3c0-.965.785-1.75 1.75-1.75h3c.965 0 1.75.785 1.75 1.75v3c0 .965-.785 1.75-1.75 1.75z"></path><path d="m11.6699 5.5019c-.414 0-.75-.336-.75-.75s.336-.75.75-.75h10.0801c.414 0 .75.336.75.75s-.336.75-.75.75z"></path><path d="m11.6699 11.5019c-.414 0-.75-.336-.75-.75s.336-.75.75-.75h18.0801c.414 0 .75.336.75.75s-.336.75-.75.75z"></path><path d="m11.6699 8.5019c-.414 0-.75-.336-.75-.75s.336-.75.75-.75h25.0831c.414 0 .75.336.75.75s-.336.75-.75.75z"></path></g></g><g transform="translate(20.0801 41)"><path d="m43.75.75h-42c-.552 0-1 .447-1 1v12c0 .552.448 1 1 1h42c.553 0 1-.448 1-1v-12c0-.553-.447-1-1-1" fill="#a5dce5"></path><path d="m41.75.75h-40c-.552 0-1 .447-1 1v10h40c.552 0 1-.448 1-1z" fill="#fff"></path><g fill="#1d596b"><path d="m1.75 1.5c-.138 0-.25.111-.25.25v12c0 .137.112.25.25.25h42c.138 0 .25-.113.25-.25v-12c0-.139-.112-.25-.25-.25zm42 14h-42c-.965 0-1.75-.785-1.75-1.75v-12c0-.965.785-1.75 1.75-1.75h42c.965 0 1.75.785 1.75 1.75v12c0 .965-.785 1.75-1.75 1.75z"></path><path d="m4.75 4.5c-.138 0-.25.111-.25.25v3c0 .137.112.25.25.25h3c.138 0 .25-.113.25-.25v-3c0-.139-.112-.25-.25-.25zm0 5c-.965 0-1.75-.785-1.75-1.75v-3c0-.965.785-1.75 1.75-1.75h3c.965 0 1.75.785 1.75 1.75v3c0 .965-.785 1.75-1.75 1.75z"></path><path d="m11.6699 5.5019c-.414 0-.75-.336-.75-.75s.336-.75.75-.75h10.0801c.414 0 .75.336.75.75s-.336.75-.75.75z"></path><path d="m11.6699 11.5019c-.414 0-.75-.336-.75-.75s.336-.75.75-.75h18.0801c.414 0 .75.336.75.75s-.336.75-.75.75z"></path><path d="m11.6699 8.5019c-.414 0-.75-.336-.75-.75s.336-.75.75-.75h25.0831c.414 0 .75.336.75.75s-.336.75-.75.75z"></path></g></g></g></svg> 