<?xml version="1.0" encoding="UTF-8"?> <svg xmlns="http://www.w3.org/2000/svg" height="45" viewBox="0 0 45 45" width="45"><g fill="none" fill-rule="evenodd"><path d="m35.373637 10.6336233h-34.51993152v-4.93150686c0-.68054795.55171233-1.23287671 1.23287671-1.23287671h32.05417811c.6805479 0 1.2328767.55232876 1.2328767 1.23287671z" fill="#fdebea"></path><path d="m31.6750068 8.78430822h-30.82130132v-3.08219178c0-.68054795.55171233-1.23287671 1.23287671-1.23287671h30.82130141v3.08219178c0 .68054794-.5523288 1.23287671-1.2328768 1.23287671" fill="#fff"></path><path d="m1.31541781 10.1712945h33.59589039v-4.46917806c0-.42472603-.3458219-.77054795-.7705479-.77054795h-32.05479455c-.42472602 0-.77054794.34582192-.77054794.77054795zm34.05821919.9246576h-34.52054796c-.25520548 0-.46232877-.2071233-.46232877-.4623288v-4.93150686c0-.93513699.7600685-1.69520548 1.69520548-1.69520548h32.05479455c.935137 0 1.6952055.76006849 1.6952055 1.69520548v4.93150686c0 .2552055-.2071233.4623288-.4623288.4623288z" fill="#ee3124"></path><path d="m35.373637 10.6336233h-34.52178084v32.0547945c0 .680548.55294521 1.2328767 1.23287672 1.2328767h32.05602742c.6805479 0 1.2328767-.5523287 1.2328767-1.2328767z" fill="#fdebea"></path><path d="m32.9072671 10.6336233h-32.05356162v30.8219178h30.82068492c.6811644 0 1.2328767-.5523288 1.2328767-1.2328767z" fill="#fff"></path><path d="m1.31418493 11.0959521v31.5924657c0 .424726.34582192.770548.77054795.770548h32.05602742c.424726 0 .7705479-.345822.7705479-.770548v-31.5924657zm32.82657537 33.2876712h-32.05602742c-.93513699 0-1.69520548-.7600685-1.69520548-1.6952055v-32.0547945c0-.2552055.20712328-.4623288.46232876-.4623288h34.52178084c.2552055 0 .4623288.2071233.4623288.4623288v32.0547945c0 .935137-.7600685 1.6952055-1.6952055 1.6952055z" fill="#ee3124"></path><path d="m39.0728836 15.5651301h-32.05602744c-.68054794 0-1.23287671.5523288-1.23287671 1.2328767v20.9589042c0 .6805479.55232877 1.2328767 1.23287671 1.2328767h4.31383564l.0006164 4.9321233 9.8642466-4.9321233h17.8773288c.6805479 0 1.2328767-.5523288 1.2328767-1.2328767v-20.9589042c0-.6805479-.5523288-1.2328767-1.2328767-1.2328767" fill="#fdebea"></path><path d="m35.373637 15.5651301h-28.35678084c-.68054794 0-1.23287671.5523288-1.23287671 1.2328767v20.3424658h28.35678085c.6805479 0 1.2328767-.5523288 1.2328767-1.2328767z" fill="#fff"></path><path d="m7.01685616 16.0274589c-.42472602 0-.77054794.3458219-.77054794.7705479v20.9589042c0 .424726.34582192.7705479.77054794.7705479h4.31383564c.2552055 0 .4623287.2071233.4623287.4623288v4.1837671l9.195411-4.5973973c.0641096-.0320548.135-.0486986.2065069-.0486986h17.8773287c.4247261 0 .770548-.3458219.770548-.7705479v-20.9589042c0-.424726-.3458219-.7705479-.770548-.7705479zm4.31383564 28.3567808c-.0844521 0-.1682877-.0228082-.2428767-.0690411-.1362329-.084452-.2194521-.2330137-.2194521-.3932876v-4.4697946h-3.85150684c-.93513698 0-1.69520548-.7600685-1.69520548-1.6952054v-20.9589042c0-.9351369.7600685-1.6952054 1.69520548-1.6952054h32.05541094c.935137 0 1.6952055.7600685 1.6952055 1.6952054v20.9589042c0 .9351369-.7600685 1.6952054-1.6952055 1.6952054h-17.7682192l-9.7668493 4.8834247c-.064726.0326712-.1362328.0486986-.2065068.0486986z" fill="#ee3124"></path><path d="m33.5254932 18.6479384 1.2014383 2.4349315 2.6876712.3902054-1.944863 1.895548.4586302 2.6765753-2.4028767-1.2636986-2.4034932 1.2636986.4592466-2.6765753-1.944863-1.895548 2.6876712-.3902054z" fill="#fff"></path><path d="m35.4699247 23.3687466 1.9442465-1.895548-1.7882876-.260137-1.2328768 1.2020548c-.2909589.2835617-.4234931.6916439-.354452 1.0917124l.2903425 1.6976712 1.5996575.8408219z" fill="#fdebea"></path><path d="m33.5249384 24.3186781c.0739726 0 .1473287.0172603.2151369.0530137l1.5743836.8278767-.3002055-1.7525343c-.0258904-.1497945.0240411-.3026712.1331507-.409315l1.2735617-1.2421233-1.7599316-.2558219c-.1510274-.0215754-.2810958-.1158904-.3489041-.2527398l-.7871917-1.5953424-.7865754 1.5953424c-.0678082.1368494-.1978767.2311644-.3489041.2527398l-1.7599315.2558219 1.2735616 1.2421233c.1091096.1066438.1590411.2595205.1331507.409315l-.3002055 1.7525343 1.5737672-.8278767c.0671918-.0357534.1411644-.0530137.215137-.0530137m-2.4028768 2.1883561c-.0961643 0-.1917123-.029589-.2718493-.0887671-.1423972-.1029452-.2139041-.2786301-.184315-.4518493l.4179452-2.4361644-1.770411-1.7260274c-.1257534-.1226712-.1713699-.3063698-.1165068-.4740411.0536301-.1670548.1984931-.2891096.3729452-.3143835l2.4466438-.3563014 1.0935616-2.2167123c.1565754-.3156165.6731507-.3156165.8297261 0l1.0941781 2.2167123 2.4466438.3563014c.174452.0252739.3193151.1473287.3729452.3143835.054863.1676713.0092466.3513699-.1165069.4740411l-1.7704109 1.7260274.4179452 2.4361644c.029589.1732192-.0419178.3489041-.1843151.4518493-.1417808.1047945-.3310274.1177397-.4863698.0357534l-2.1889726-1.1502739-2.1883562 1.1502739c-.0671918.035137-.1411644.0530137-.2145206.0530137" fill="#ee3124"></path><path d="m23.0448699 18.6479384 1.2014383 2.4349315 2.6876713.3902054-1.9448631 1.895548.4592466 2.6765753-2.4034931-1.2636986-2.4034932 1.2636986.4592466-2.6765753-1.944863-1.895548 2.6876712-.3902054z" fill="#fff"></path><path d="m24.9893014 23.3687466 1.9442465-1.895548-1.7882876-.260137-1.2328767 1.2020548c-.2909589.2835617-.4234932.6916439-.3544521 1.0917124l.2903425 1.6976712 1.6002739.8408219z" fill="#fdebea"></path><path d="m23.0448699 24.3186781c.0739726 0 .1479452.0172603.2151369.0530137l1.5737672.8278767-.3002055-1.7525343c-.0258904-.1497945.0240411-.3026712.1331507-.409315l1.2735616-1.2421233-1.7599315-.2558219c-.1510274-.0215754-.2810959-.1158904-.3489041-.2527398l-.7865753-1.5953424-.7871918 1.5953424c-.0678082.1368494-.1978767.2311644-.3482877.2527398l-1.7599315.2558219 1.2735616 1.2421233c.1091096.1066438.1590411.2595205.1331507.409315l-.3008219 1.7525343 1.5743836-.8278767c.0678082-.0357534.1411644-.0530137.215137-.0530137m-2.4034932 2.1883561c-.0961644 0-.1917123-.029589-.2718493-.0887671-.1423973-.1035616-.2139041-.2786301-.1843151-.4518493l.4185617-2.4361644-1.770411-1.7260274c-.1257534-.1226712-.1713698-.3063698-.1165068-.4740411.0536301-.1670548.1984931-.2891096.3723287-.3143835l2.4466439-.3563014 1.094178-2.2167123c.0782877-.1578082.2391781-.2576713.4148631-.2576713.1756849 0 .3365753.0998631.414863.2576713l1.0935616 2.2167123 2.4466439.3563014c.174452.0252739.319315.1473287.3729452.3143835.054863.1676713.0092465.3513699-.1165069.4740411l-1.7704109 1.7260274.4179452 2.4361644c.029589.1732192-.0419178.3489041-.1843151.4518493-.1417808.1047945-.3310274.1177397-.4863699.0357534l-2.1883561-1.1502739-2.1889726 1.1502739c-.0671918.035137-.1411644.0530137-.2145206.0530137" fill="#ee3124"></path><path d="m12.5641849 18.6479384 1.2020548 2.4349315 2.6876713.3902054-1.9454795 1.895548.4592466 2.6765753-2.4034932-1.2636986-2.4028767 1.2636986.4586302-2.6765753-1.94486306-1.895548 2.68767126-.3902054z" fill="#fff"></path><path d="m14.5086164 23.3687466 1.9448631-1.895548-1.7882877-.260137-1.2334932 1.2020548c-.2909589.2835617-.4234931.6916439-.354452 1.0917124l.2909589 1.6976712 1.5996575.8408219z" fill="#fdebea"></path><g fill="#ee3124"><path d="m12.5641849 24.3186781c.0739726 0 .1473288.0172603.215137.0530137l1.5743836.8278767-.3008219-1.7525343c-.0258904-.1497945.0240411-.3026712.1331506-.409315l1.2735617-1.2421233-1.7599315-.2558219c-.1510274-.0215754-.2810959-.1158904-.3489041-.2527398l-.7865754-1.594726-.7865753 1.594726c-.0678082.1368494-.1978767.2311644-.3489041.2527398l-1.75993153.2558219 1.27356163 1.2421233c.1091096.1066438.1590411.2595205.1331507.409315l-.3008219 1.7525343 1.5743835-.8278767c.0678083-.0357534.1411644-.0530137.215137-.0530137m2.4034932 2.1883561c-.0733562 0-.1473288-.0178767-.2145206-.0530137l-2.1889726-1.1502739-2.1889726 1.1502739c-.1553424.0819863-.344589.0684247-.48636983-.0357534-.14239726-.1035616-.21390411-.2786301-.18431507-.4518493l.4185616-2.4361644-1.77041092-1.7260274c-.12575342-.1226712-.17136986-.3063698-.11650685-.4740411.05363014-.1670548.19849315-.2891096.37294521-.3143835l2.44664386-.3563014 1.0935616-2.2167123c.1565754-.3156165.6731507-.3156165.829726 0l1.0935617 2.2167123 2.4466438.3563014c.1744521.0252739.3193151.1473287.3729452.3143835.054863.1676713.0092466.3513699-.1165068.4740411l-1.770411 1.7260274.4185617 2.4361644c.029589.1732192-.0419178.3482877-.1843151.4518493-.080137.0591781-.1756849.0887671-.2718493.0887671"></path><path d="m37.4143562 29.5891027h-10.0337672c-.2552054 0-.4623287-.2071232-.4623287-.4623287s.2071233-.4623288.4623287-.4623288h10.0337672c.2552054 0 .4623287.2071233.4623287.4623288s-.2071233.4623287-.4623287.4623287"></path><path d="m24.9146507 29.5891027h-7.0119863c-.2552055 0-.4623288-.2071232-.4623288-.4623287s.2071233-.4623288.4623288-.4623288h7.0119863c.2552055 0 .4623288.2071233.4623288.4623288s-.2071233.4623287-.4623288.4623287"></path><path d="m15.436911 29.5891027h-6.76171237c-.25520548 0-.46232877-.2071232-.46232877-.4623287s.20712329-.4623288.46232877-.4623288h6.76171237c.2552054 0 .4623287.2071233.4623287.4623288s-.2071233.4623287-.4623287.4623287"></path><path d="m37.4143562 32.671911h-5.3118494c-.2552054 0-.4623287-.2071233-.4623287-.4623288s.2071233-.4623288.4623287-.4623288h5.3118494c.2552054 0 .4623287.2071233.4623287.4623288s-.2071233.4623288-.4623287.4623288"></path><path d="m29.6360753 32.671911h-6.5921917c-.2552055 0-.4623288-.2071233-.4623288-.4623288s.2071233-.4623288.4623288-.4623288h6.5921917c.2552055 0 .4623288.2071233.4623288.4623288s-.2071233.4623288-.4623288.4623288"></path><path d="m20.5778836 32.671911h-11.90280826c-.25520548 0-.46232876-.2071233-.46232876-.4623288s.20712328-.4623288.46232876-.4623288h11.90280826c.2552054 0 .4623287.2071233.4623287.4623288s-.2071233.4623288-.4623287.4623288"></path><path d="m30.632363 35.7541027h-12.729452c-.2552055 0-.4623288-.2071232-.4623288-.4623287s.2071233-.4623288.4623288-.4623288h12.729452c.2552055 0 .4623288.2071233.4623288.4623288s-.2071233.4623287-.4623288.4623287"></path><path d="m15.436911 35.7541027h-6.76171237c-.25520548 0-.46232877-.2071232-.46232877-.4623287s.20712329-.4623288.46232877-.4623288h6.76171237c.2552054 0 .4623287.2071233.4623287.4623288s-.2071233.4623287-.4623287.4623287"></path></g></g></svg> 