<?xml version="1.0" encoding="UTF-8"?> <svg xmlns="http://www.w3.org/2000/svg" height="50" viewBox="0 0 45 50" width="45"><g fill="none" fill-rule="evenodd"><path d="m35.2840909 6.92702703h-34.77272726v35.81013517c0 .7466216.61090909 1.3513513 1.36363636 1.3513513h32.0454545c.7527273 0 1.3636364-.6047297 1.3636364-1.3513513z" fill="#fdebea"></path><path d="m33.9204545.84527027h-32.0454545c-.75272727 0-1.36363636.60540541-1.36363636 1.35135135v4.73040541h34.77272726v-4.73040541c0-.74594594-.6109091-1.35135135-1.3636364-1.35135135" fill="#fdebea"></path><path d="m29.1470455 6.92702703h-28.63568186v33.78310807h25.90840906c1.5061364 0 2.7272728-1.2101351 2.7272728-2.7027027z" fill="#fff"></path><path d="m31.875.84527027h-30c-.75272727 0-1.36363636.60540541-1.36363636 1.35135135v2.7027027h27.27272726c2.2588636 0 4.0909091-1.81554054 4.0909091-4.05405405" fill="#fff"></path><g fill="#ee3124"><path d="m1.02272727 7.43310811v35.30405409c0 .4655405.3825.8445946.85227273.8445946h32.0454545c.4697728 0 .8522728-.3790541.8522728-.8445946v-35.30405409zm32.89772723 37.16216219h-32.0454545c-1.03431818 0-1.875-.8331081-1.875-1.8581081v-35.81081085c0-.27972973.22909091-.50675676.51136364-.50675676h34.77272726c.2822727 0 .5113636.22702703.5113636.50675676v35.81081085c0 1.025-.8406818 1.8581081-1.875 1.8581081z"></path><path d="m1.02272727 6.41959459h33.75000003v-4.22297297c0-.46554054-.3825-.84459459-.8522728-.84459459h-32.0454545c-.46977273 0-.85227273.37905405-.85227273.84459459zm34.26136363 1.01351352h-34.77272726c-.28227273 0-.51136364-.22702703-.51136364-.50675676v-4.72972973c0-1.025.84068182-1.85810811 1.875-1.85810811h32.0454545c1.0343182 0 1.875.83310811 1.875 1.85810811v4.72972973c0 .27972973-.2290909.50675676-.5113636.50675676z"></path><path d="m28.3007727 3.88709459c0-.28378378.225-.50675675.5038637-.50675675.2870454 0 .5188636.22297297.5188636.50675675 0 .27702703-.2318182.50675676-.5188636.50675676-.2788637 0-.5038637-.22972973-.5038637-.50675676"></path><path d="m31.8730227 4.39385135c-.1356818 0-.2659091-.05405405-.3606818-.14864865-.0961364-.09459459-.1506818-.22972973-.1506818-.35810811 0-.13513513.0545454-.26351351.1506818-.3581081.1902273-.18918919.5311364-.18918919.7220455 0 .0961363.09459459.15.22297297.15.3581081 0 .12837838-.0538637.25675676-.15.35810811-.0947728.0945946-.225.14864865-.3613637.14864865"></path></g><path d="m37.6138636 34.5716216-3.0681818 3.0405406-3.1527273-3.1243244 3.0681819-3.0405405z" fill="#fdebea"></path><path d="m35.1396136 35.1694595-1.5293181 1.5162162-2.2172728-2.197973 2.0113637-1.9932432 1.7352272 1.7195946c.2665909.2641891.2665909.6912162 0 .9554054" fill="#fff"></path><path d="m32.1160227 34.4878378 2.4293182 2.4074325 2.3454546-2.3236487-2.43-2.4074324zm2.4293182 3.6310811c-.1309091 0-.2611364-.0493243-.3613636-.1486486l-3.1527273-3.1243244c-.1997727-.1979729-.1997727-.5182432 0-.7162162l3.0681818-3.0405405c.1997727-.197973.5236364-.197973.7234091 0l3.1527273 3.1243243c.1997727.197973.1997727.5182433 0 .7162162l-3.0681818 3.0405406c-.1002273.0993243-.2304546.1486486-.3620455.1486486z" fill="#ee3124"></path><path d="m42.7168636 38.1902027-4.5197727 4.4790541-4.3772727-4.3371622 4.5197727-4.4797297z" fill="#fff"></path><path d="m42.7168636 38.1902027-4.3772727-4.3378378-1.0227273 1.0135135 1.9540909 1.9364865c.5331819.5283783.5331819 1.3837837 0 1.9114865l-2.5329545 2.5101351 1.4590909 1.4452703z" fill="#fdebea"></path><path d="m34.5430227 38.3314189 3.6531818 3.620946 3.7977273-3.7621622-3.6545454-3.6209459zm3.6531818 4.8445946c-.1356818 0-.2652272-.0533784-.3613636-.1486486l-4.3765909-4.3378379c-.1997727-.1979729-.1997727-.5182432 0-.7162162l4.5197727-4.479054c.1997728-.197973.5236364-.197973.7234091 0l4.3772727 4.3378378c.0954546.0945946.1493182.2236486.1493182.3581081s-.0538636.2635135-.1493182.3581081l-4.5204545 4.4790541c-.0961364.0952702-.2256818.1486486-.3620455.1486486z" fill="#ee3124"></path><path d="m43.5251591 41.977027-1.5068182 1.4932433c-.8325.825-2.1811364.825-3.0136364 0l-.8072727-.8013514 4.5190909-4.4783784.8086364.8006757c.8318182.8243243.8318182 2.1614865 0 2.9858108" fill="#fff"></path><path d="m43.5251591 38.9912162-.8086364-.8013513-1.0227272 1.0135135.2931818.2905405c.5522727.5472973.5522727 1.4331081 0 1.9804054l-2.4115909 2.3898649c.7956818.3871622 1.7809091.2621622 2.4429545-.3939189l1.5068182-1.4932433c.8318182-.8243243.8318182-2.1614865 0-2.9858108" fill="#fdebea"></path><path d="m38.9195455 42.6691892.4465909.4425676c.6313636.6256756 1.6595454.6256756 2.2909091 0l1.5061363-1.4932433c.3054546-.3033784.4738637-.7060811.4738637-1.1344594 0-.4283784-.1677273-.8317568-.4738637-1.1344595l-.4465909-.4425676zm1.5920454 1.925c-.6763636 0-1.3527273-.2547297-1.8681818-.7655406l-.8086364-.8013513c-.0954545-.0945946-.15-.2236487-.15-.3581081 0-.1344595.0545455-.2635135.15-.3581081l4.5204546-4.4790541c.0961363-.0952702.2256818-.1486486.3613636-.1486486.1363636 0 .2659091.0533784.3620455.1486486l.8072727.8006757c.4997727.4945946.7738636 1.1513514.7738636 1.8513514 0 .6993243-.2740909 1.356081-.7738636 1.8513513l-1.5061364 1.4932432c-.5154545.5108109-1.1918182.7655406-1.8681818.7655406z" fill="#ee3124"></path><path d="m23.9082273 10.3047297c7.6493182 0 13.8490909 6.1452703 13.8490909 13.725 0 7.5804054-6.1997727 13.7256757-13.8490909 13.7256757s-13.8497728-6.1452703-13.8497728-13.7256757c0-7.5797297 6.2004546-13.725 13.8497728-13.725" fill="#fff"></path><path d="m32.6213864 13.3677027c1.9302272 2.3587838 3.0906818 5.3621622 3.0906818 8.6351351 0 7.5804054-6.2011364 13.725-13.8497727 13.725-3.3034091 0-6.3327273-1.15-8.7136364-3.0621621 2.5390909 3.1027027 6.4138636 5.0898648 10.7597727 5.0898648 7.6486364 0 13.8490909-6.1452702 13.8490909-13.7256756 0-4.3067568-2.0045454-8.1452703-5.1361363-10.6621622" fill="#fdebea"></path><path d="m23.9076136 10.8114865c-7.3547727 0-13.3377272 5.9297297-13.3377272 13.2182432 0 7.2891892 5.9829545 13.2189189 13.3377272 13.2189189 7.3547728 0 13.3384091-5.9297297 13.3384091-13.2189189 0-7.2885135-5.9836363-13.2182432-13.3384091-13.2182432m0 27.4506757c-7.9186363 0-14.36045451-6.3844595-14.36045451-14.2324325 0-7.8472973 6.44181821-14.23175673 14.36045451-14.23175673 7.9186364 0 14.3611364 6.38445943 14.3611364 14.23175673 0 7.847973-6.4425 14.2324325-14.3611364 14.2324325" fill="#ee3124"></path><path d="m14.7030682 24.0293919c0-5.0371622 4.1209091-9.1216216 9.2045454-9.1216216 5.0836364 0 9.2045455 4.0844594 9.2045455 9.1216216 0 5.0378378-4.1209091 9.1216216-9.2045455 9.1216216-5.0836363 0-9.2045454-4.0837838-9.2045454-9.1216216" fill="#fff"></path><path d="m29.3061818 16.6523649c1.1025 1.5047297 1.7604546 3.3486486 1.7604546 5.35 0 5.0378378-4.1215909 9.1216216-9.2045455 9.1216216-2.0195454 0-3.8809091-.652027-5.3986364-1.7445946 1.6731819 2.2824324 4.38 3.7716216 7.444091 3.7716216 5.0836363 0 9.2045454-4.0837838 9.2045454-9.1216216 0-3.0364865-1.5034091-5.7189189-3.8059091-7.377027" fill="#fdebea"></path><path d="m23.9076136 15.414527c-4.7931818 0-8.6931818 3.8648649-8.6931818 8.6148649s3.9 8.6148649 8.6931818 8.6148649c4.7931819 0 8.6931819-3.8648649 8.6931819-8.6148649s-3.9-8.6148649-8.6931819-8.6148649m0 18.2432433c-5.3570454 0-9.7159091-4.3195946-9.7159091-9.6283784s4.3588637-9.6283784 9.7159091-9.6283784c5.3570455 0 9.7159091 4.3195946 9.7159091 9.6283784s-4.3588636 9.6283784-9.7159091 9.6283784" fill="#ee3124"></path><path d="m29.9867045 22.9597973-2.4422727-2.4202703-4.6786363 4.6189189-2.595-2.5716216-2.4422728 2.4202703 5.0372728 4.9918919z" fill="#fdebea"></path><path d="m26.7760227 23.1570946-.9402272-.9317568-2.97 2.9331081-2.595-2.5716216-2.4422728 2.4202703 4.0165909 3.9804054 4.9302273-4.8743243c.2672727-.2641892.2679546-.6918919.0006818-.9560811" fill="#fff"></path><path d="m18.5515909 25.0072297 4.3138636 4.275 6.3968182-6.3236486-1.7188636-1.7040541-4.3179546 4.2628379c-.1997727.1972973-.5229545.1966216-.7220454-.0006757l-2.2329546-2.2128378zm4.3131818 5.497973c-.1309091 0-.2618182-.05-.3613636-.1486486l-5.0365909-4.9912163c-.1997727-.1979729-.1997727-.5182432 0-.7162162l2.4422727-2.4202702c.0961364-.0952703.2256818-.1486487.3613636-.1486487.1363637 0 .2659091.0533784.3620455.1486487l2.2329545 2.2135135 4.3172728-4.2628379c.2004545-.1972973.5236363-.1966216.7227272.0006757l2.4422728 2.4202703c.0954545.0952702.15.225.15.3587838 0 .1344594-.0545455.2635135-.1506818.3587837l-7.121591 7.0391892c-.0995454.097973-.2297727.147973-.3606818.147973z" fill="#ee3124"></path><path d="m6.64840909 13.6837838h-2.04545454c-.37704546 0-.68181819-.302027-.68181819-.6756757v-2.027027c0-.3736487.30477273-.6756757.68181819-.6756757h2.04545454c.37636364 0 .68181818.302027.68181818.6756757v2.027027c0 .3736487-.30545454.6756757-.68181818.6756757" fill="#e6e5ff"></path><path d="m5.28477273 12.3324324h-1.36363637v-1.3513513c0-.3736487.30477273-.6756757.68181819-.6756757h1.36363636v1.3513514c0 .3729729-.30545455.6756756-.68181818.6756756" fill="#fff"></path><path d="m4.60295455 10.8121622c-.09409091 0-.17045455.0756756-.17045455.1689189v2.027027c0 .0932433.07636364.1689189.17045455.1689189h2.04545454c.09409091 0 .17045455-.0756756.17045455-.1689189v-2.027027c0-.0932433-.07636364-.1689189-.17045455-.1689189zm2.04545454 3.3783783h-2.04545454c-.65795455 0-1.19318182-.5304054-1.19318182-1.1824324v-2.027027c0-.652027.53522727-1.18243245 1.19318182-1.18243245h2.04545454c.65795455 0 1.19318182.53040545 1.19318182 1.18243245v2.027027c0 .652027-.53522727 1.1824324-1.19318182 1.1824324z" fill="#ee3124"></path><path d="m6.64840909 20.4411486h-2.04545454c-.37704546 0-.68181819-.302027-.68181819-.6756756v-2.0270271c0-.3736486.30477273-.6756756.68181819-.6756756h2.04545454c.37636364 0 .68181818.302027.68181818.6756756v2.0270271c0 .3736486-.30545454.6756756-.68181818.6756756" fill="#e6e5ff"></path><path d="m5.28477273 19.0897973h-1.36363637v-1.3513514c0-.3736486.30477273-.6756756.68181819-.6756756h1.36363636v1.3513513c0 .372973-.30545455.6756757-.68181818.6756757" fill="#fff"></path><path d="m4.60295455 17.569527c-.09409091 0-.17045455.0756757-.17045455.1689189v2.0270271c0 .0932432.07636364.1689189.17045455.1689189h2.04545454c.09409091 0 .17045455-.0756757.17045455-.1689189v-2.0270271c0-.0932432-.07636364-.1689189-.17045455-.1689189zm2.04545454 3.3783784h-2.04545454c-.65795455 0-1.19318182-.5304054-1.19318182-1.1824324v-2.0270271c0-.652027.53522727-1.1824324 1.19318182-1.1824324h2.04545454c.65795455 0 1.19318182.5304054 1.19318182 1.1824324v2.0270271c0 .652027-.53522727 1.1824324-1.19318182 1.1824324z" fill="#ee3124"></path><path d="m6.64840909 27.1985811h-2.04545454c-.37704546 0-.68181819-.302027-.68181819-.6756757v-2.027027c0-.3736487.30477273-.6756757.68181819-.6756757h2.04545454c.37636364 0 .68181818.302027.68181818.6756757v2.027027c0 .3736487-.30545454.6756757-.68181818.6756757" fill="#e6e5ff"></path><path d="m5.28477273 25.8472297h-1.36363637v-1.3513513c0-.3736487.30477273-.6756757.68181819-.6756757h1.36363636v1.3513514c0 .3729729-.30545455.6756756-.68181818.6756756" fill="#fff"></path><path d="m4.60295455 24.3269595c-.09409091 0-.17045455.0756756-.17045455.1689189v2.027027c0 .0932432.07636364.1689189.17045455.1689189h2.04545454c.09409091 0 .17045455-.0756757.17045455-.1689189v-2.027027c0-.0932433-.07636364-.1689189-.17045455-.1689189zm2.04545454 3.3783783h-2.04545454c-.65795455 0-1.19318182-.5304054-1.19318182-1.1824324v-2.027027c0-.652027.53522727-1.1824325 1.19318182-1.1824325h2.04545454c.65795455 0 1.19318182.5304055 1.19318182 1.1824325v2.027027c0 .652027-.53522727 1.1824324-1.19318182 1.1824324z" fill="#ee3124"></path><path d="m6.64840909 33.9560135h-2.04545454c-.37704546 0-.68181819-.302027-.68181819-.6756757v-2.027027c0-.372973.30477273-.6756757.68181819-.6756757h2.04545454c.37636364 0 .68181818.3027027.68181818.6756757v2.027027c0 .3736487-.30545454.6756757-.68181818.6756757" fill="#e6e5ff"></path><path d="m5.28477273 32.6046622h-1.36363637v-1.3513514c0-.372973.30477273-.6756757.68181819-.6756757h1.36363636v1.3513514c0 .372973-.30545455.6756757-.68181818.6756757" fill="#fff"></path><path d="m4.60295455 31.0843919c-.09409091 0-.17045455.0756757-.17045455.1689189v2.027027c0 .0932433.07636364.168919.17045455.168919h2.04545454c.09409091 0 .17045455-.0756757.17045455-.168919v-2.027027c0-.0932432-.07636364-.1689189-.17045455-.1689189zm2.04545454 3.3783784h-2.04545454c-.65795455 0-1.19318182-.5304054-1.19318182-1.1824325v-2.027027c0-.652027.53522727-1.1824324 1.19318182-1.1824324h2.04545454c.65795455 0 1.19318182.5304054 1.19318182 1.1824324v2.027027c0 .6520271-.53522727 1.1824325-1.19318182 1.1824325z" fill="#ee3124"></path><path d="m6.64840909 40.7134459h-2.04545454c-.37704546 0-.68181819-.302027-.68181819-.6756756v-2.0270271c0-.3729729.30477273-.6756756.68181819-.6756756h2.04545454c.37636364 0 .68181818.3027027.68181818.6756756v2.0270271c0 .3736486-.30545454.6756756-.68181818.6756756" fill="#e6e5ff"></path><path d="m5.28477273 39.3620946h-1.36363637v-1.3513514c0-.3729729.30477273-.6756756.68181819-.6756756h1.36363636v1.3513513c0 .372973-.30545455.6756757-.68181818.6756757" fill="#fff"></path><path d="m4.60295455 37.8418243c-.09409091 0-.17045455.0756757-.17045455.1689189v2.0270271c0 .0932432.07636364.1689189.17045455.1689189h2.04545454c.09409091 0 .17045455-.0756757.17045455-.1689189v-2.0270271c0-.0932432-.07636364-.1689189-.17045455-.1689189zm2.04545454 3.3783784h-2.04545454c-.65795455 0-1.19318182-.5304054-1.19318182-1.1824324v-2.0270271c0-.652027.53522727-1.1824324 1.19318182-1.1824324h2.04545454c.65795455 0 1.19318182.5304054 1.19318182 1.1824324v2.0270271c0 .652027-.53522727 1.1824324-1.19318182 1.1824324z" fill="#ee3124"></path></g></svg> 