<?xml version="1.0" encoding="UTF-8"?> <svg xmlns="http://www.w3.org/2000/svg" xmlns:xlink="http://www.w3.org/1999/xlink" height="81" viewBox="0 0 80 81" width="80"><mask id="a" fill="#fff"><path d="m0 80.0130633h80v-80.00000001h-80z" fill="#fff" fill-rule="evenodd"></path></mask><mask id="b" fill="#fff"></mask><mask id="c" fill="#fff"><path d="m0 80.0130633h80v-80.00000001h-80z" fill="#fff" fill-rule="evenodd"></path></mask><mask id="d" fill="#fff"><path d="m0 80.0130633h80v-80.00000001h-80z" fill="#fff" fill-rule="evenodd"></path></mask><mask id="e" fill="#fff"><path d="m0 80.0130633h80v-80.00000001h-80z" fill="#fff" fill-rule="evenodd"></path></mask><mask id="f" fill="#fff"><path d="m0 80.0130633h80v-80.00000001h-80z" fill="#fff" fill-rule="evenodd"></path></mask><mask id="g" fill="#fff"><path d="m0 80.0130633h80v-80.00000001h-80z" fill="#fff" fill-rule="evenodd"></path></mask><mask id="h" fill="#fff"><path d="m0 80.0130633h80v-80.00000001h-80z" fill="#fff" fill-rule="evenodd"></path></mask><mask id="i" fill="#fff"><path d="m0 80.0130633h80v-80.00000001h-80z" fill="#fff" fill-rule="evenodd"></path></mask><mask id="j" fill="#fff"><path d="m0 80.0130633h80v-80.00000001h-80z" fill="#fff" fill-rule="evenodd"></path></mask><mask id="k" fill="#fff"><path d="m0 80.0130633h80v-80.00000001h-80z" fill="#fff" fill-rule="evenodd"></path></mask><mask id="l" fill="#fff"><path d="m0 80.0130633h80v-80.00000001h-80z" fill="#fff" fill-rule="evenodd"></path></mask><mask id="m" fill="#fff"><path d="m0 80.0130633h80v-80.00000001h-80z" fill="#fff" fill-rule="evenodd"></path></mask><mask id="n" fill="#fff"><path d="m0 80.0130633h80v-80.00000001h-80z" fill="#fff" fill-rule="evenodd"></path></mask><mask id="o" fill="#fff"><path d="m0 80.0130633h80v-80.00000001h-80z" fill="#fff" fill-rule="evenodd"></path></mask><mask id="p" fill="#fff"><path d="m0 80.0130633h80v-80.00000001h-80z" fill="#fff" fill-rule="evenodd"></path></mask><mask id="q" fill="#fff"><path d="m0 80.0130633h80v-80.00000001h-80z" fill="#fff" fill-rule="evenodd"></path></mask><mask id="r" fill="#fff"><path d="m0 80.0130633h80v-80.00000001h-80z" fill="#fff" fill-rule="evenodd"></path></mask><mask id="s" fill="#fff"><path d="m0 80.0130633h80v-80.00000001h-80z" fill="#fff" fill-rule="evenodd"></path></mask><mask id="t" fill="#fff"><path d="m0 80.0130633h80v-80.00000001h-80z" fill="#fff" fill-rule="evenodd"></path></mask><mask id="u" fill="#fff"><path d="m0 80.0130633h80v-80.00000001h-80z" fill="#fff" fill-rule="evenodd"></path></mask><mask id="v" fill="#fff"><path d="m0 80.0130633h80v-80.00000001h-80z" fill="#fff" fill-rule="evenodd"></path></mask><mask id="w" fill="#fff"><path d="m0 80.0130633h80v-80.00000001h-80z" fill="#fff" fill-rule="evenodd"></path></mask><mask id="x" fill="#fff"><path d="m0 80.0130633h80v-80.00000001h-80z" fill="#fff" fill-rule="evenodd"></path></mask><mask id="y" fill="#fff"><path d="m0 80.0130633h80v-80.00000001h-80z" fill="#fff" fill-rule="evenodd"></path></mask><mask id="z" fill="#fff"><path d="m0 80.0130633h80v-80.00000001h-80z" fill="#fff" fill-rule="evenodd"></path></mask><mask id="A" fill="#fff"><path d="m0 80.0130633h80v-80.00000001h-80z" fill="#fff" fill-rule="evenodd"></path></mask><mask id="B" fill="#fff"><path d="m0 80.0130633h80v-80.00000001h-80z" fill="#fff" fill-rule="evenodd"></path></mask><mask id="C" fill="#fff"><path d="m0 80.0130633h80v-80.00000001h-80z" fill="#fff" fill-rule="evenodd"></path></mask><mask id="D" fill="#fff"><path d="m0 80.0130633h80v-80.00000001h-80z" fill="#fff" fill-rule="evenodd"></path></mask><g fill="none" fill-rule="nonzero"><path d="m71.5471392 34.188962h-4.3564557c-.2987341-1.9635443-.8172151-3.8551898-1.5189873-5.6536709l3.7762025-2.1792405c.7746836-.4486076 1.04-1.4389873.5934178-2.2146835l-2.4313924-4.2086076c-.4465823-.7756962-1.4379747-1.0410127-2.2126583-.5934177l-3.7802531 2.1822785c-1.2243038-1.526076-2.6116456-2.9134178-4.1377216-4.1377216l2.1832912-3.7792405c.4475949-.7756962.1812658-1.7660759-.5924051-2.2136709l-4.2106329-2.43037971c-.7746835-.44658227-1.7660759-.18227848-2.2126582.59341771l-2.1802532 3.7751899c-1.7994937-.7007595-3.6901266-1.2202532-5.6536709-1.5189874v-4.35544299c0-.89518987-.7250633-1.62025316-1.6202531-1.62025316h-4.8607595c-.8951899 0-1.6202532.72506329-1.6202532 1.62025316v4.35544299c-1.964557.2987342-3.8551899.8182279-5.6536709 1.5189874l-2.1802531-3.7751899c-.447595-.77569619-1.4389874-1.03999998-2.2126583-.59341771l-4.2106329 2.43037971c-.7746835.447595-1.04 1.4379747-.5924051 2.2136709l2.1822785 3.7792405c-1.5260759 1.2243038-2.9134177 2.6116456-4.1377215 4.1377216l-3.7802532-2.1822785c-.7736708-.447595-1.7660759-.1822785-2.2126582.5934177l-2.4303797 4.2086076c-.447595.7756962-.1812659 1.7660759.592405 2.2146835l3.7772152 2.1792405c-.7017721 1.7984811-1.2212658 3.6901266-1.5189873 5.6536709h-4.35645571c-.89518988 0-1.62025317.7250633-1.62025317 1.6202532v4.8607595c0 .8941772.72506329 1.6202531 1.62025317 1.6202531h4.35645571c.2977215 1.9635444.8172152 3.8551899 1.5189873 5.6536709l-3.7772152 2.1792405c-.7736709.4486076-1.04 1.4389874-.592405 2.2146836l2.4303797 4.2086076c.4465823.7756962 1.4389874 1.04 2.2126582.5934177l3.7802532-2.1822785c1.2243038 1.526076 2.6116456 2.9134177 4.1377215 4.1377215l-2.1822785 3.7792405c-.4475949.7756962-.1822784 1.766076.5924051 2.2136709l4.2106329 2.4303798c.7736709.4465823 1.7650633.1822785 2.2126583-.5934177l2.1802531-3.7751899c1.798481.7007595 3.6891139 1.2202531 5.6536709 1.5189873v4.3554431c0 .8941772.7250633 1.6202531 1.6202532 1.6202531h4.8607595c.8951898 0 1.6202531-.7260759 1.6202531-1.6202531v-4.3554431c1.9635443-.2987342 3.8541772-.8182278 5.6536709-1.5189873l2.1802532 3.7751899c.4465823.7756962 1.4379747 1.04 2.2126582.5934177l4.2106329-2.4303798c.7736709-.4475949 1.04-1.4379747.5924051-2.2136709l-2.1832912-3.7792405c1.526076-1.2243038 2.9134178-2.6116455 4.1377216-4.1377215l3.7802531 2.1822785c.7746836.4465823 1.766076.1822785 2.2126583-.5934177l2.4313924-4.2086076c.4465822-.7756962.1812658-1.766076-.5934178-2.2146836l-3.7762025-2.1792405c.7017722-1.798481 1.2202532-3.6901265 1.5189873-5.6536709h4.3564557c.8951899 0 1.6202532-.7260759 1.6202532-1.6202531v-4.8607595c0-.8951899-.7250633-1.6202532-1.6202532-1.6202532" fill="#fff" mask="url(#a)"></path><path d="m69.4476962 26.3556456c.7756962-.447595 1.04-1.4389874.5934177-2.2146836l-2.4303797-4.2086076c-.447595-.7746835-1.4379747-1.0410126-2.2136709-.5934177l-1.2648101.7301266c.9549367 2.6268354 1.5736709 5.4126582 1.8197468 8.3048101z" fill="#32a6b8" fill-opacity=".197225" mask="url(#b)"></path><path d="m71.5471392 34.188962h-4.3564557c-.2430379-1.5989873-.6389873-3.1453164-1.152405-4.6379747.0253164.5296203.0394937 1.0632912.0394937 1.5989874 0 17.8967088-14.5083545 32.4050633-32.4040507 32.4050633-.5377215 0-1.0703797-.0151899-1.6-.0405064 1.4916456.5154431 3.0389874.9103798 4.6379747 1.1544304v4.3554431c0 .8941772.7250633 1.6202531 1.6202532 1.6202531h4.8607595c.8951898 0 1.6202531-.7260759 1.6202531-1.6202531v-4.3554431c1.9635443-.2987342 3.8541772-.8182278 5.6536709-1.5189873l2.1802532 3.7751899c.4465823.7756962 1.4379747 1.04 2.2126582.5934177l4.2106329-2.4303798c.7736709-.4475949 1.04-1.4379747.5924051-2.2136709l-2.1832912-3.7792405c1.526076-1.2243038 2.9134178-2.6116455 4.1377216-4.1377215l3.7802531 2.1822785c.7746836.4465823 1.766076.1822785 2.2126583-.5934177l2.4313924-4.2086076c.4465822-.7756962.1812658-1.766076-.5934178-2.2146836l-3.7762025-2.1792405c.7017722-1.798481 1.2202532-3.6901265 1.5189873-5.6536709h4.3564557c.8951899 0 1.6202532-.7260759 1.6202532-1.6202531v-4.8607595c0-.8951899-.7250633-1.6202532-1.6202532-1.6202532" fill="#a5dce5" mask="url(#c)"></path><path d="m21.8616709 62.8746329c-.4465823.7756962-.1822785 1.766076.5934177 2.2136709l4.2096203 2.4303797c.7746835.4465823 1.7650633.1822785 2.2136708-.5934177l2.0182279-3.4967088c-2.8921519-.2450633-5.6789873-.8637975-8.3037975-1.8187342z" fill="#a5dce5" mask="url(#d)"></path><path d="m31.0576203 62.3900759c.0931645 0 .1863291.0172152.275443.0526583 1.7853164.6956962 3.6334177 1.1918987 5.4926582 1.475443.3706329.0556962.6450633.3746836.6450633.7503798v4.3564557c0 .4749367.3858228.8597468.8617722.8597468h4.8597468c.473924 0 .8607595-.3848101.8607595-.8597468v-4.3564557c0-.3756962.2744304-.6946836.6460759-.7503798 1.8592405-.2835443 3.7063292-.7797468 5.4926583-1.475443.3463291-.1397469.7443038.0010126.9326582.3270886l2.1792405 3.7762025c.2379747.4121519.7665823.5518988 1.1767089.3149367l4.2096202-2.4303797c.4101266-.2379747.5518988-.764557.3149367-1.1756962l-2.1832911-3.7802532c-.1863291-.3240506-.1093671-.7372152.1832911-.9721519 1.4794937-1.1878481 2.8324051-2.5397468 4.0202532-4.0202532.2349367-.2926582.6450633-.3696202.9721519-.1812658l3.7792405 2.1812658c.4101266.2359494.9387342.0982279 1.1756962-.3149367l2.4313924-4.2096202c.1144304-.198481.1448101-.4313924.086076-.6531646-.0607595-.2217721-.2025317-.4081012-.4010127-.5225316l-3.7762025-2.1802532c-.3250633-.1883544-.4637975-.5843038-.3281013-.9336709.6967089-1.7863291 1.1929114-3.6344303 1.475443-5.4916455.0567089-.3716456.3767089-.646076.7513924-.646076h4.3554431c.473924 0 .8607595-.3848101.8607595-.8597468v-4.8607595c0-.4749367-.3868355-.8617722-.8607595-.8617722h-4.3554431c-.3746835 0-.6946835-.2734177-.7513924-.6450633-.2825316-1.8572151-.7787341-3.7063291-1.475443-5.4916455-.1356962-.3493671.003038-.7463291.3281013-.9336709l3.7751898-2.1792405c.1994937-.1154431.3412659-.3007595.4020254-.5235443.0587341-.2217722.0283544-.4536709-.086076-.6531646l-2.4313924-4.2096202c-.236962-.4111393-.7655696-.5529114-1.1756962-.3149367l-3.7792405 2.1822784c-.3270886.1893671-.7372152.1093671-.9721519-.1822784-1.1858228-1.4774684-2.5377215-2.8303798-4.0212658-4.0202532-.2916456-.2359494-.3686076-.6481013-.1822785-.9721519l2.1843038-3.7802532c.2359494-.4101266.0941772-.9387341-.316962-1.1756962l-4.2086076-2.4303797c-.409114-.236962-.9387342-.0951899-1.1767089.3149367l-2.1792405 3.7762025c-.1883544.326076-.5843038.4627848-.9326582.3281013-1.7893671-.6977215-3.6374684-1.1939241-5.4926583-1.4764557-.3716455-.0567089-.6460759-.3746836-.6460759-.7503798v-4.35544299c0-.47493671-.3868355-.86177216-.8607595-.86177216h-4.8597468c-.4759494 0-.8617722.38683545-.8617722.86177216v4.35544299c0 .3756962-.2744304.6936709-.6450633.7503798-1.8562025.2825316-3.7032911.7787342-5.4926582 1.4764557-.3503798.1336709-.7463291-.003038-.9326582-.3281013l-2.1812659-3.7762025c-.236962-.4111393-.7655696-.5539241-1.1746835-.3149367l-4.2096203 2.4303797c-.4101265.2369621-.5529113.7655696-.3159493 1.1756962l2.1832911 3.7802532c.1863291.3240506.1103798.7372152-.1822785.9721519-1.4805063 1.1868354-2.8334177 2.5397468-4.0202531 4.0202532-.2349367.2916455-.6470886.3716455-.9731646.1822784l-3.7792405-2.1822784c-.4091139-.2379747-.9387342-.0962026-1.1756962.3149367l-2.4303797 4.2096202c-.2369621.4111393-.0951899.9387342.3149367 1.1767089l3.7762025 2.1792405c.3250633.1873418.4637975.5843038.3281013.9336709-.6977216 1.7873417-1.1939241 3.6364557-1.4754431 5.4916455-.0567088.3716456-.3767088.6450633-.7513924.6450633h-4.35544302c-.47594936 0-.86177215.3868355-.86177215.8617722v4.8607595c0 .4749367.38582279.8597468.86177215.8597468h4.35544302c.3746836 0 .6946836.2744304.7513924.646076.281519 1.8551898.7777215 3.7032911 1.4754431 5.4916455.1356962.3493671-.003038.7453165-.3281013.9336709l-3.7762025 2.1802532c-.1994937.1144304-.3412659.3007595-.4010127.5225316-.0597468.2217722-.0283544.4546836.086076.6531646l2.4303797 4.2096202c.115443.1994937.3007595.3412659.5225316.4010127.2207595.0587342.4536709.0283544.6521519-.086076l3.7802532-2.1812658c.326076-.1883544.7382279-.1113924.9731646.1812658 1.1878481 1.4805064 2.5407595 2.8324051 4.0202531 4.0202532.2926583.2349367.3686076.6481013.1822785.9721519l-2.1832911 3.7802532c-.1144304.198481-.1448102.4303797-.086076.6531645.0597469.2217722.2035443.4070886.4020253.5225317l4.2096203 2.4303797c.4101266.2379747.9387342.0962026 1.1746835-.3149367l2.1812659-3.7762025c.1377215-.2410127.3918987-.3797469.6572152-.3797469m12.1346835 9.0136709h-4.8597468c-1.3124051 0-2.3807595-1.0663291-2.3807595-2.3787341v-3.7113924c-1.5392405-.2734178-3.0673418-.684557-4.5589874-1.2263292l-1.8582278 3.2182279c-.6551899 1.1362025-2.1144304 1.5260759-3.2496203.8708861l-4.2096202-2.4313924c-.5498734-.3169621-.9448102-.8303798-1.1088608-1.4440507-.1650633-.6136709-.08-1.2556962.2379747-1.8055696l1.8602532-3.2222785c-1.203038-1.0136709-2.3220254-2.1326582-3.3356962-3.3356962l-3.2222785 1.8602532c-.5498734.3179747-1.1898734.4020253-1.8055696.2379747-.6136709-.1640507-1.1270887-.5579747-1.4450633-1.1088608l-2.4303798-4.2096202c-.3179747-.5508861-.4020253-1.1918988-.2379747-1.8055697.1650633-.6136708.5589874-1.1270886 1.1088608-1.4450633l3.2182278-1.8582278c-.5427848-1.4916456-.953924-3.0207595-1.2253164-4.5589873h-3.71139242c-1.31240506 0-2.38075949-1.0663292-2.38075949-2.3787342v-4.8607595c0-1.3124051 1.06835443-2.3807595 2.38075949-2.3807595h3.71139242c.2713924-1.5372152.6825316-3.0663291 1.2253164-4.5589874l-3.2182278-1.8572151c-1.1362025-.6562026-1.5270886-2.1144304-.8708861-3.250633l2.4303798-4.2096202c.6551898-1.1362025 2.1144303-1.5270886 3.2506329-.8708861l3.2212658 1.8602532c1.0146835-1.203038 2.1336709-2.3210127 3.3367089-3.3356962l-1.8602532-3.2222785c-.6572152-1.1351899-.2653165-2.5934177.8708861-3.2506329l4.2096202-2.43037976c1.1331646-.65721519 2.5934177-.26531645 3.2496203.87088606l1.8592405 3.2182279c1.4926582-.5417722 3.0207595-.9529114 4.5579747-1.2263291v-3.71037979c0-1.31240507 1.0683544-2.3807595 2.3807595-2.3807595h4.8597468c1.3124051 0 2.3797468 1.06835443 2.3797468 2.3807595v3.71037979c1.5382279.2734177 3.0663291.6845569 4.5589874 1.2263291l1.8582278-3.2182279c.6551899-1.13620251 2.1144304-1.52810125 3.2506329-.87088606l4.2096203 2.43037976c1.1351899.6572152 1.5270886 2.115443.8698734 3.2506329l-1.8592405 3.2232911c1.2050633 1.0146836 2.323038 2.1326583 3.3356962 3.3346836l3.2212658-1.8602532c1.1372152-.6572152 2.5964557-.2643038 3.2516456.8708861l2.4303797 4.2096202c.3169621.5498735.4020254 1.1918988.2369621 1.8065823-.1640507.6126583-.5579747 1.126076-1.1088608 1.4440507l-3.2172152 1.8572151c.5417722 1.4916456.9529114 3.0197469 1.2253165 4.5589874h3.7113924c1.312405 0 2.3797468 1.0683544 2.3797468 2.3807595v4.8607595c0 1.312405-1.0673418 2.3787342-2.3797468 2.3787342h-3.7113924c-.2724051 1.5402531-.6835443 3.0683544-1.2253165 4.5589873l3.2172152 1.8582278c.5508861.3179747.9448101.8313925 1.1088608 1.4450633.1650633.6136709.08 1.2546836-.2369621 1.8055697l-2.4303797 4.2096202c-.6562025 1.1362025-2.115443 1.5240506-3.2516456.8708861l-3.2212658-1.8602532c-1.0146835 1.203038-2.1336709 2.3220253-3.3356962 3.3356962l1.8592405 3.2222785c.6572152 1.1372152.2653165 2.5944304-.8698734 3.2496203l-4.2096203 2.4313924c-1.1382278.6562025-2.5964557.2643038-3.2506329-.8708861l-1.8582278-3.2182279c-1.4906329.5417722-3.0187342.9529114-4.5589874 1.2263292v3.7113924c0 1.312405-1.0673417 2.3787341-2.3797468 2.3787341" fill="#1d596b" mask="url(#e)"></path><path d="m15.446481 10.8978228c0 1.1179747-.9073418 2.0253164-2.0253164 2.0253164-1.1179747 0-2.0253165-.9073417-2.0253165-2.0253164s.9073418-2.02531647 2.0253165-2.02531647c1.1179746 0 2.0253164.90734177 2.0253164 2.02531647" fill="#fff" mask="url(#f)"></path><path d="m13.4211646 9.6329114c-.6977216 0-1.2658228.5681013-1.2658228 1.2658228s.5681012 1.2658228 1.2658228 1.2658228c.6967088 0 1.2658227-.5681013 1.2658227-1.2658228s-.5691139-1.2658228-1.2658227-1.2658228m0 4.0506329c-1.5362026 0-2.7848102-1.2486076-2.7848102-2.7848101 0-1.5362026 1.2486076-2.78481015 2.7848102-2.78481015 1.5362025 0 2.7848101 1.24860755 2.7848101 2.78481015 0 1.5362025-1.2486076 2.7848101-2.7848101 2.7848101" fill="#1d596b" mask="url(#g)"></path><path d="m67.0901266 7.8598481c0 1.11797468-.9063291 2.0253165-2.0253165 2.0253165-1.1179747 0-2.0253164-.90734182-2.0253164-2.0253165s.9073417-2.02531645 2.0253164-2.02531645c1.1189874 0 2.0253165.90734177 2.0253165 2.02531645" fill="#fff" mask="url(#h)"></path><path d="m65.0657215 6.59402532c-.6977215 0-1.2658228.56810126-1.2658228 1.26582278s.5681013 1.2658228 1.2658228 1.2658228c.6967089 0 1.2658228-.56810128 1.2658228-1.2658228s-.5691139-1.26582278-1.2658228-1.26582278m0 4.05063288c-1.5362025 0-2.7848101-1.2486076-2.7848101-2.7848101 0-1.53620253 1.2486076-2.78481013 2.7848101-2.78481013 1.5362026 0 2.7848101 1.2486076 2.7848101 2.78481013 0 1.5362025-1.2486075 2.7848101-2.7848101 2.7848101" fill="#1d596b" mask="url(#i)"></path><path d="m73.1669873 14.9493671c0 1.1179747-.9073417 2.0253164-2.0253164 2.0253164s-2.0253165-.9073417-2.0253165-2.0253164.9073418-2.0253165 2.0253165-2.0253165 2.0253164.9073418 2.0253164 2.0253165" fill="#fff" mask="url(#j)"></path><path d="m71.1416709 13.6835443c-.6977215 0-1.2658228.5681013-1.2658228 1.2658228s.5681013 1.2658228 1.2658228 1.2658228 1.2658228-.5681013 1.2658228-1.2658228-.5681013-1.2658228-1.2658228-1.2658228m0 4.0506329c-1.5362025 0-2.7848101-1.2486076-2.7848101-2.7848101s1.2486076-2.7848101 2.7848101-2.7848101 2.7848101 1.2486076 2.7848101 2.7848101-1.2486076 2.7848101-2.7848101 2.7848101" fill="#1d596b" mask="url(#k)"></path><path d="m12.4074937 62.5423797c0 1.1179747-.9073418 2.0253165-2.0253165 2.0253165-1.11797467 0-2.02531644-.9073418-2.02531644-2.0253165 0-1.1179746.90734177-2.0253164 2.02531644-2.0253164 1.1179747 0 2.0253165.9073418 2.0253165 2.0253164" fill="#fff" mask="url(#l)"></path><path d="m10.3831899 61.2775696c-.69772155 0-1.26582281.5681013-1.26582281 1.2658228s.56810126 1.2658228 1.26582281 1.2658228c.6967088 0 1.2658228-.5681013 1.2658228-1.2658228s-.569114-1.2658228-1.2658228-1.2658228m0 4.0506329c-1.53620256 0-2.78481015-1.2486076-2.78481015-2.7848101s1.24860759-2.7848101 2.78481015-2.7848101c1.5362025 0 2.7848101 1.2486076 2.7848101 2.7848101s-1.2486076 2.7848101-2.7848101 2.7848101" fill="#1d596b" mask="url(#m)"></path><path d="m20.5097722 68.6193418c0 1.1179747-.9063292 2.0253164-2.0253165 2.0253164-1.1179747 0-2.0253165-.9073417-2.0253165-2.0253164s.9073418-2.0253165 2.0253165-2.0253165c1.1189873 0 2.0253165.9073418 2.0253165 2.0253165" fill="#fff" mask="url(#n)"></path><path d="m18.4844557 67.353519c-.6977215 0-1.2658228.5681013-1.2658228 1.2658228s.5681013 1.2658228 1.2658228 1.2658228 1.2658228-.5681013 1.2658228-1.2658228-.5681013-1.2658228-1.2658228-1.2658228m0 4.0506329c-1.5362025 0-2.7848101-1.2486076-2.7848101-2.7848101 0-1.5362026 1.2486076-2.7848102 2.7848101-2.7848102s2.7848101 1.2486076 2.7848101 2.7848102c0 1.5362025-1.2486076 2.7848101-2.7848101 2.7848101" fill="#1d596b" mask="url(#o)"></path><path d="m72.1543291 63.555038c0 1.1189873-.9073418 2.0253164-2.0253164 2.0253164-1.1179747 0-2.0253165-.9063291-2.0253165-2.0253164 0-1.1179747.9073418-2.0253165 2.0253165-2.0253165 1.1179746 0 2.0253164.9073418 2.0253164 2.0253165" fill="#fff" mask="url(#p)"></path><path d="m70.1290127 62.2902278c-.6977216 0-1.2658228.5681013-1.2658228 1.2658228 0 .6977216.5681012 1.2658228 1.2658228 1.2658228.6977215 0 1.2658227-.5681012 1.2658227-1.2658228 0-.6977215-.5681012-1.2658228-1.2658227-1.2658228m0 4.050633c-1.5362026 0-2.7848102-1.2486076-2.7848102-2.7848102 0-1.5362025 1.2486076-2.7848101 2.7848102-2.7848101 1.5362025 0 2.7848101 1.2486076 2.7848101 2.7848101 0 1.5362026-1.2486076 2.7848102-2.7848101 2.7848102" fill="#1d596b" mask="url(#q)"></path><path d="m58.9897722 37.8874937c0 10.0668354-8.1610127 18.2278481-18.2278481 18.2278481-10.0668355 0-18.2278482-8.1610127-18.2278482-18.2278481 0-10.0668355 8.1610127-18.2278481 18.2278482-18.2278481 10.0668354 0 18.2278481 8.1610126 18.2278481 18.2278481" fill="#35adc0" mask="url(#r)"></path><path d="m51.9003544 34.849519c0 10.0658228-8.1610126 18.2278481-18.2278481 18.2278481-1.1807595 0-2.3331645-.1225317-3.4511392-.3372152 2.9772152 2.1174684 6.6086076 3.3751899 10.5407595 3.3751899 10.0668354 0 18.2278481-8.1610127 18.2278481-18.2278481 0-8.8850633-6.3605063-16.2764557-14.7756962-17.8916456 4.6460759 3.3043038 7.6860759 8.7179747 7.6860759 14.8536709z" fill="#32a6b8" fill-opacity=".197225" mask="url(#s)"></path><path d="m40.7619241 20.4191392c-9.6324051 0-17.4683545 7.8359494-17.4683545 17.4683545 0 9.632405 7.8359494 17.4683544 17.4683545 17.4683544 9.632405 0 17.4683544-7.8359494 17.4683544-17.4683544 0-9.6324051-7.8359494-17.4683545-17.4683544-17.4683545m0 36.4556962c-10.4698735 0-18.9873418-8.5174683-18.9873418-18.9873417s8.5174683-18.9873418 18.9873418-18.9873418c10.4698734 0 18.9873417 8.5174684 18.9873417 18.9873418s-8.5174683 18.9873417-18.9873417 18.9873417" fill="#1d596b" mask="url(#t)"></path><path d="m60.0024304 49.8851646h-21.8643038-16.6146836v-24.3027849h38.4789874z" fill="#a5dce5" mask="url(#u)"></path><path d="m21.523443 25.5822785 3.5270886 18.2956962 11.4349368-6.1437975z" fill="#fff" mask="url(#v)"></path><path d="m22.281519 49.1269873h36.9610126v-22.7848101h-36.9610126zm37.7205063 1.5189874h-38.48c-.4182278 0-.7594937-.3402532-.7594937-.7594937v-24.3037975c0-.4192405.3412659-.7594936.7594937-.7594936h38.48c.4202532 0 .7594937.3402531.7594937.7594936v24.3037975c0 .4192405-.3392405.7594937-.7594937.7594937z" fill="#1d596b" mask="url(#w)"></path><path d="m45.0370633 37.7332658 14.9650633 12.1518988-4.9093671-17.7296203z" fill="#fff" mask="url(#x)"></path><path d="m21.5214177 49.8851646h6.1225317 10.4941772 21.8643038l-19.241519-15.6232912z" fill="#32a6b8" fill-opacity=".198099" mask="url(#y)"></path><path d="m21.523443 49.8851646h6.1205064 10.4941772l13.8764557-2.3179747-6.9772152-9.8339241-4.2744304 3.4713924-4.2774683-3.4703797z" fill="#fff" mask="url(#z)"></path><path d="m23.6614684 49.1265823h34.2005063l-17.0997469-13.8855696zm36.3412658 1.5189873h-38.4810127c-.3220253 0-.6086076-.2025316-.7159493-.5053164-.1073418-.3037975-.0131646-.6410127.236962-.8435443l19.2405063-15.6232912c.2774684-.2268354.6774684-.2268354.9559494 0l19.241519 15.6232912c.2491139.2025316.3453164.5397468.2379746.8435443-.1083544.3027848-.3949367.5053164-.7159493.5053164z" fill="#1d596b" mask="url(#A)"></path><path d="m60.0024304 25.5813671h-38.4810127l19.241519 15.6232911z" fill="#a5dce5" mask="url(#B)"></path><path d="m60.0024304 25.5822785-38.4789874-.0010127 17.5929114 11.2810127z" fill="#fff" mask="url(#C)"></path><path d="m23.6614684 26.3417722 17.1017721 13.8855696 17.0987342-13.8855696zm17.1017721 15.6232911c-.1691139 0-.3392405-.0567089-.4789873-.1701266l-19.241519-15.6232911c-.2501266-.2025317-.3443038-.5397469-.236962-.8435443.1073417-.3027848.393924-.5053165.7159493-.5053165h38.4810127c.3210126 0 .6075949.2025317.7159493.5053165.1073418.3037974.0111393.6410126-.2379746.8435443l-19.2394937 15.6232911c-.1387342.1134177-.3078481.1701266-.4779747.1701266z" fill="#1d596b" mask="url(#D)"></path></g></svg> 