<?xml version="1.0" encoding="UTF-8"?> <svg xmlns="http://www.w3.org/2000/svg" xmlns:xlink="http://www.w3.org/1999/xlink" height="50" viewBox="0 0 45 50" width="45"><mask id="a" fill="#fff"><path d="m.16720671.29510032h34.37325969v27.95901958h-34.37325969z" fill="#fff" fill-rule="evenodd"></path></mask><g fill="none" fill-rule="evenodd"><path d="m31.2211602 43.9027447h-29.36717207c-.73684904 0-1.33487145-.6040893-1.33487145-1.3484136v-35.05875443h32.03691492v35.05875443c0 .7443243-.5980224 1.3484136-1.3348714 1.3484136" fill="#fff"></path><path d="m31.2211602 43.9034189h-25.3625577v-5.3936545c0-13.4052541 10.7577291-24.2714454 24.0276862-24.2714454h2.6697429v28.3166863c0 .7443243-.5980224 1.3484136-1.3348714 1.3484136" fill="#fdebea"></path><path d="m32.5560316 7.49557667h-32.03691492v-5.39365452c0-.74432432.59802241-1.34841363 1.33487145-1.34841363h29.36717207c.736849 0 1.3348714.60408931 1.3348714 1.34841363z" fill="#fff"></path><path d="m32.5560316 7.49557667h-26.6974291v-2.02262044c0-.74432433.59802242-1.34841363 1.33487146-1.34841363h25.36255764z" fill="#fdeae9"></path><g fill="#ee3124"><path d="m1.01969347 8.00123179v34.55309931c0 .4645285.37443145.8427585.83429466.8427585h29.36717207c.4598632 0 .8342946-.37823.8342946-.8427585v-34.55309931zm30.20146673 36.40716801h-29.36717207c-1.0125 0-1.83544825-.831297-1.83544825-1.8540687v-35.05875443c0-.27912162.22425841-.50565511.5005768-.50565511h32.03691492c.2763184 0 .5005768.22653349.5005768.50565511v35.05875443c0 1.0227717-.8229482 1.8540687-1.8354482 1.8540687z"></path><path d="m1.01969347 6.98992156h31.03576133v-4.88799941c0-.4645285-.3744314-.84275852-.8342946-.84275852h-29.36717207c-.45986321 0-.83429466.37823002-.83429466.84275852zm31.53633813 1.01131023h-32.03691492c-.27631839 0-.5005768-.22653349-.5005768-.50565512v-5.39365452c0-1.02277174.82294825-1.85406874 1.83544825-1.85406874h29.36717207c1.0125 0 1.8354482.831297 1.8354482 1.85406874v5.39365452c0 .27912163-.2242584.50565512-.5005768.50565512z"></path><path d="m22.5425602 4.79942362c-.1735333 0-.3470666-.07416275-.4738794-.20226205-.1201384-.12135722-.1935564-.28990893-.1935564-.47194477 0-.18271004.073418-.35732961.2008982-.47868684.2396094-.24945652.6941331-.24945652.9404169 0 .1208059.12742509.1935564.2959768.1935564.47868684 0 .17529378-.0727505.35058755-.1935564.47868684-.1261453.12135723-.2930043.19551998-.4738793.19551998"></path><path d="m25.2123031 4.1252168c0-.37081374.300346-.67420681.6674357-.67420681.3677571 0 .6674357.30339307.6674357.67420681 0 .37081375-.2996786.67420682-.6674357.67420682-.3670897 0-.6674357-.30339307-.6674357-.67420682"></path><path d="m29.2169174 4.79942362c-.1735333 0-.3470665-.07416275-.4738793-.20226205-.1201385-.12135722-.1935564-.29665099-.1935564-.47194477 0-.18271004.0734179-.35126175.1935564-.47868684.2469512-.24945652.6941331-.24945652.9477587 0 .1268128.12742509.1935564.30339307.1935564.47868684 0 .17529378-.0667436.35058755-.1935564.47868684-.1261453.12135723-.2996786.19551998-.4738794.19551998"></path></g><path d="m26.5497775 12.2150244 7.2016315 13.8380949 9.4842617-5.0160987-4.5572511 17.1477761c-.1568474.5892568-.6847891.9985003-1.2894858.9985003h-21.6783125c-.6040293 0-1.1326384-.4092435-1.2888184-.9985003l-4.55791859-17.1477761 9.48492909 5.0160987z" fill="#fff"></path><path d="m13.97669 36.5108086 29.2590475-15.4737206-4.5572512 17.1471019c-.1568474.5892568-.6854565.9991745-1.2894858.9991745h-21.6783125c-.6040293 0-1.1326384-.4099177-1.2888184-.9991745z" fill="#fdeae9"></path><path d="m37.9600585 23.8272929-.9030405-8.094527-5.9715475 5.1974603 2.6657383 5.1232976z" fill="#fff"></path><path d="m1.44766809 10.5858561 4.26157713 16.032638c.09744562.3674427.42849374.6243155.80559493.6243155h21.67831245c.3771012 0 .7088167-.2568728.8055949-.6243155l4.2615772-16.032638-8.4724292 4.4807784c-.243614.1307962-.5466298.0343846-.6754449-.2130493l-6.7584542-12.98657169-6.7577868 12.98657169c-.1288151.2474339-.4298286.3431713-.67544493.2130493zm26.74548451 17.6682638h-21.67831245c-.82828774 0-1.55712756-.5649854-1.7727093-1.3726851l-4.55791859-17.14777616c-.05139255-.19349736.01601846-.39980464.17086355-.52520711.15551252-.12607668.36975939-.14697709.54529499-.05326234l9.04241925 4.78147471 6.96802905-13.39176995c.1735332-.33305817.7128213-.33305817.8863546 0l6.9693639 13.39176995 9.0410844-4.78147471c.1755355-.09371475.3897824-.07281434.5452949.05326234.1548451.12540247.2222561.33170975.1708636.52520711l-4.5572512 17.14710196c-.2155817.8083739-.9444215 1.3733593-1.7733767 1.3733593z" fill="#ee3124" mask="url(#a)" transform="translate(9.195781 11.434091)"></path><path d="m22.8886923 28.6112622 3.660885 7.0353481 3.6615524-7.0353481-3.6615524-7.0353481z" fill="#fff"></path><path d="m23.3638398 29.5238011 3.1856707 6.1224721 3.6615525-7.0353481-1.1052736-2.1237515z" fill="#fdebea"></path><path d="m23.4544108 28.6112622 3.095567 5.9485267 3.0948994-5.9485267-3.0948994-5.9485267zm3.095567 7.5410032c-.1862146 0-.3564107-.104502-.4431774-.2710311l-3.6615524-7.0346739c-.0760877-.1469771-.0760877-.3236193 0-.4705964l3.6615524-7.0346739c.1728659-.3330582.7128214-.3330582.8863547 0l3.6608849 7.0346739c.0760877.1469771.0760877.3236193 0 .4705964l-3.6608849 7.0346739c-.0867667.1665291-.2576302.2710311-.4431773.2710311z" fill="#ee3124"></path><path d="m37.9600585 23.8272929-.9030405-8.094527-2.3647248 2.0583534.4952373 4.4450455c.0614041.5528496-.2189189 1.0868214-.7074819 1.3457168l-1.5798204.8353423.8509806 1.6362999z" fill="#fdeae9"></path><path d="m31.713928 21.0501676 2.2479235 4.3203173 3.4626566-1.8311457-.7588744-6.7987016zm2.0383487 5.5082697c-.1808751 0-.3544084-.0984342-.4438448-.270357l-2.6657383-5.1232975c-.108792-.20833-.0600692-.4645285.1161339-.6182477l5.9715474-5.1967861c.1388266-.1227057.3350528-.1570902.508586-.0876469.1728659.0687691.2943392.2278819.3150297.413963l.903708 8.094527c.0233602.2076557-.082762.4078951-.2656394.5043067l-4.2088497 2.2255567c-.0740854.0397782-.1528428.0579818-.2309328.0579818z" fill="#ee3124"></path><path d="m15.1408314 23.8279671.9030406-8.0952012 5.97088 5.1967861-2.6657383 5.1239718z" fill="#fff"></path><path d="m15.7385201 18.4652587 2.8018952 2.438606c.4705422.410592.6000247 1.0935635.3103576 1.6491099l-1.3201879 2.5383886 1.818095.9620932 2.6657383-5.1239718-5.9708801-5.1967862z" fill="#fdeae9"></path><g fill="#ee3124"><path d="m15.6765821 23.5396088 3.4619891 1.8311458 2.2479235-4.3203173-4.9517056-4.30953zm3.6715639 3.0190982c-.07809 0-.1568474-.0188778-.2316002-.0579818l-4.2075148-2.2255567c-.1835448-.0970858-.2889997-.2973252-.2656394-.5043067l.9030405-8.094527c.0206905-.1860811.1421638-.3458681.3143622-.413963.1708636-.0694433.3684246-.0350588.5092535.0876469l5.97088 5.1967861c.1768705.1537191.2249259.4099177.1168013.6182476l-2.6657383 5.1226234c-.0901039.172597-.2636371.2710312-.4438448.2710312z"></path><path d="m13.4787162 10.698059h-7.19762688c-.27631839 0-.5005768-.2265334-.5005768-.5056551 0-.27912159.22425841-.50565508.5005768-.50565508h7.19762688c.2763184 0 .5005768.22653349.5005768.50565508 0 .2791217-.2242584.5056551-.5005768.5056551"></path><path d="m17.6267625 10.698059h-1.4777027c-.2763184 0-.5005768-.2265334-.5005768-.5056551 0-.27912159.2242584-.50565508.5005768-.50565508h1.4777027c.2763184 0 .5005768.22653349.5005768.50565508 0 .2791217-.2242584.5056551-.5005768.5056551"></path></g><path d="m37.8961849 12.6113906c1.475033 0 2.6690755 1.206156 2.6690755 2.6968272.0006674-1.4906712 1.1947099-2.6968272 2.6704103-2.6968272-1.4757004 0-2.6697429-1.206156-2.6697429-2.69682729-.0006674 1.49067129-1.1947099 2.69682729-2.6697429 2.69682729" fill="#fff"></path><path d="m39.603886 12.6113906c.3857778.2501307.7141562.5818405.9617748.971532.2476187-.3896915.5766645-.7214013.9617749-.971532-.3851104-.2501308-.7141562-.5818405-.9617749-.9715321-.2476186.3896916-.575997.7214013-.9617748.9715321m.9611074 3.2024823c-.2763184 0-.5005768-.2265334-.5005768-.5056551 0-1.2081786-.9724538-2.1911721-2.1684987-2.1911721-.2763184 0-.5005768-.2265335-.5005768-.5056551 0-.2791217.2242584-.5056551.5005768-.5056551 1.1953774 0 2.1684987-.9829936 2.1691661-2.19117219 0-.27912162.2242585-.50565511.5005768-.50565511.2763184 0 .5005768.22653349.5005768.50565511 0 1.20817859.9731213 2.19117219 2.1691662 2.19117219.2763183 0 .5005768.2265334.5005768.5056551 0 .2791216-.2242585.5056551-.5005768.5056551-1.1960449 0-2.1691662.9829935-2.1698336 2.1911721 0 .2791217-.2242584.5056551-.5005768.5056551" fill="#ee3124"></path><path d="m5.85926994 38.233879c1.4757004 0 2.66974291 1.206156 2.66974291 2.6968272 0-1.4906712 1.19404252-2.6968272 2.66974295-2.6968272-1.47570043 0-2.66974295-1.206156-2.66974295-2.6968273 0 1.4906713-1.19404251 2.6968273-2.66974291 2.6968273" fill="#fff"></path><path d="m7.566971 38.233879c.38577785.2494565.71415622.5818404.96177488.9708578.24761866-.3890174.57666447-.7214013.96244232-.9708578-.38577785-.2501308-.71482366-.5818405-.96244232-.9715321-.24761866.3896916-.57599703.7214013-.96177488.9715321m.96177488 3.2024823c-.27631839 0-.5005768-.2265335-.5005768-.5056551 0-1.2081786-.97312129-2.1911721-2.16916611-2.1911721-.2763184 0-.5005768-.2265335-.5005768-.5056551 0-.2791217.2242584-.5056551.5005768-.5056551 1.19604482-.0006743 2.16916611-.9836678 2.16916611-2.1911722 0-.2791216.22425841-.5056551.5005768-.5056551s.5005768.2265335.5005768.5056551c0 1.2081786.97312132 2.1904979 2.16916612 2.1904979.2763184 0 .5005768.2265335.5005768.5056552 0 .2791216-.2242584.5056551-.5005768.5056551-1.1960448.0006742-2.16916612.9836677-2.16916612 2.1918463 0 .2791216-.22425841.5056551-.5005768.5056551" fill="#ee3124"></path><path d="m2.52142386 25.4226011c1.4757004 0 2.66974292 1.206156 2.66974292 2.6968272.00066743-1.4906712 1.19404251-2.6968272 2.66974291-2.6968272-1.4757004 0-2.66907548-1.206156-2.66907548-2.6968273-.00066743 1.4906713-1.19470995 2.6968273-2.67041035 2.6968273" fill="#fff"></path><path d="m4.22912492 25.4226011c.38577785.2494565.71415623.5818404.96177488.9708578.24761866-.3890174.57666447-.7214013.96244232-.9708578-.38577785-.2501308-.71482366-.5818405-.96244232-.9715321-.24761865.3896916-.57599703.7214013-.96177488.9715321m.96177488 3.2024823c-.27631839 0-.50057679-.2265335-.50057679-.5056551 0-1.2081786-.9731213-2.1911721-2.16916612-2.1911721-.27631839 0-.5005768-.2265335-.5005768-.5056551 0-.2791217.22425841-.5056552.5005768-.5056552 1.19604482-.0006742 2.16916612-.9836677 2.16916612-2.1911721 0-.2791216.2242584-.5056551.50057679-.5056551s.5005768.2265335.5005768.5056551c0 1.2081786.97312129 2.1904979 2.16916612 2.1904979.27631839 0 .50057679.2265335.50057679.5056552 0 .2791216-.2242584.5056551-.50057679.5056551-1.19604483.0006742-2.16916612.9836677-2.16916612 2.1918463 0 .2791216-.22425841.5056551-.5005768.5056551" fill="#ee3124"></path><path d="m34.5583388 3.45033578c1.4757004 0 2.6697429 1.20615599 2.6697429 2.69682726 0-1.49067127 1.1940426-2.69682726 2.669743-2.69682726-1.4757004 0-2.669743-1.20615599-2.669743-2.69682726 0 1.49067127-1.1940425 2.69682726-2.6697429 2.69682726" fill="#fff"></path><path d="m36.2667073 3.45033578c.3851104.25013073.7134888.58184048.9611075.97085782.2482861-.38901734.5766644-.72072709.9617749-.97085782-.3851105-.25013073-.7134888-.58184048-.9617749-.97085781-.2476187.38901733-.5759971.72072708-.9611075.97085781m.9611075 3.20248238c-.2763184 0-.5005768-.22653349-.5005768-.50565512 0-1.20817861-.9731213-2.19117215-2.1691661-2.19117215-.2763184 0-.5005768-.22653349-.5005768-.50565511s.2242584-.50565511.5005768-.50565511c1.1960448 0 2.1691661-.98299354 2.1691661-2.19117215 0-.27912162.2242584-.50565511.5005768-.50565511s.5005768.22653349.5005768.50565511c0 1.20817861.9731213 2.19117215 2.1691661 2.19117215.2763184 0 .5005768.22653349.5005768.50565511s-.2242584.50565511-.5005768.50565511c-1.1960448 0-2.1691661.98299354-2.1691661 2.19117215 0 .27912163-.2242584.50565512-.5005768.50565512" fill="#ee3124"></path></g></svg> 