<?xml version="1.0" encoding="UTF-8"?> <svg xmlns="http://www.w3.org/2000/svg" xmlns:xlink="http://www.w3.org/1999/xlink" height="51" viewBox="0 0 54 51" width="54"><mask id="a" fill="#fff"><path d="m0 .525h19.59972v19.6h-19.59972z" fill="#fff" fill-rule="evenodd"></path></mask><g fill="none" fill-rule="evenodd"><path d="m19.59972 10.325c0 5.4124-4.3876 9.8-9.8 9.8-5.4117 0-9.8-4.3876-9.8-9.8 0-5.4117 4.3883-9.8 9.8-9.8 5.4124 0 9.8 4.3883 9.8 9.8" fill="#fff" mask="url(#a)" opacity=".196894" transform="translate(0 26.42367)"></path><path d="m45.98846 41.82367c0 4.6396-3.7611 8.4-8.4 8.4-4.6396 0-8.4-3.7604-8.4-8.4 0-4.6389 3.7604-8.4 8.4-8.4 4.6389 0 8.4 3.7611 8.4 8.4" fill="#fff" opacity=".196894"></path><path d="m53.33846 14.00007c0 7.7315-6.2678 14-14 14s-14-6.2685-14-14c0-7.7329 6.2678-14 14-14s14 6.2671 14 14" fill="#fff" opacity=".196894"></path><path d="m47.38846 30.62367-19.6-7.0007-19.5993 7.0007 19.5993 7.0007z" fill="#dbe9f2"></path><path d="m24.28846 24.87331-16.0993 5.7505 16.0993 5.7505z" fill="#fff"></path><path d="m43.33546 32.07155-15.547-5.5496v11.1027z" fill="#fff"></path><path d="m9.74981 30.62367 18.039 6.4435 18.039-6.4435-18.039-6.4435zm18.039 7.5257c-.0595 0-.1197-.0105-.1764-.0308l-19.6-7c-.2086-.0749-.3479-.2737-.3479-.4949s.1393-.42.3479-.4949l19.6-7c.1141-.0413.2387-.0413.3528 0l19.5993 7c.2093.0749.3493.2737.3493.4949s-.14.42-.3493.4949l-19.5993 7c-.0574.0203-.1169.0308-.1764.0308z" fill="#21365f"></path><path d="m24.98846 18.72234-19.6 7.0014 2.8007 4.9 19.5993-7.0007z" fill="#dbe9f2"></path><path d="m30.58916 18.72234 19.5993 7.0014-2.8 4.9-19.6-7.0007z" fill="#dbe9f2"></path><path d="m16.76556 21.65975-11.3771 4.0642 1.9222 3.3628 9.8035-3.5014c.8204-.2933 1.1767-1.2565.7448-2.0132z" fill="#fff"></path><path d="m30.58916 18.72234 16.5263 5.9038-1.2453 2.1791c-.3367.5894-1.0472.8519-1.6863.6237l-15.4224-5.509z" fill="#fff"></path><path d="m6.15545 26.00668 2.2708 3.9746 18.5962-6.6423-2.2722-3.9739zm2.0335 5.1422c-.1834 0-.3598-.0973-.4557-.2646l-2.8007-4.9007c-.0763-.1344-.0903-.2968-.0364-.4424s.1694-.2604.3157-.3122l19.5993-7.0007c.2408-.084.5068.0126.6335.2345l2.8 4.9c.077.1344.0903.2961.0364.4424-.0539.1449-.1694.2604-.3157.3122l-19.6 7.0007c-.0581.021-.1176.0308-.1764.0308z" fill="#1198eb"></path><path d="m28.55545 23.33933 18.5948 6.6416 2.2722-3.9739-18.5962-6.6423zm18.8328 7.8092c-.0588 0-.119-.0091-.1771-.0308l-19.5993-7.0007c-.1463-.0518-.2618-.1666-.3157-.3115-.0539-.1463-.0399-.308.0364-.4431l2.8007-4.9c.126-.2212.3927-.3192.6321-.2345l19.6 7.0007c.1463.0518.2618.1673.3157.3129s.0406.308-.0364.4417l-2.8 4.9007c-.0959.168-.2723.2646-.4564.2646z" fill="#1198eb"></path><path d="m38.98846 14.52437c0-6.3896-5.3501-11.529-11.8146-11.1839-5.7379.3073-10.395 5.0722-10.5791 10.8157-.1078 3.3208 1.2362 6.3224 3.4419 8.4364 1.2285 1.1774 1.8851 2.8315 1.8851 4.5339v1.2474h11.7334v-1.3699c0-1.7031.7434-3.2956 1.9621-4.4856 2.0783-2.03 3.3712-4.8587 3.3712-7.994" fill="#fff"></path><path d="m30.26107 3.61214c3.9025 1.75 6.6276 5.6574 6.6276 10.2123 0 3.1353-1.2929 5.9633-3.3719 7.994-1.218 1.19-1.9614 2.7818-1.9614 4.4856v2.0699h2.1v-1.3699c0-1.7038.7434-3.2956 1.9614-4.4856 2.079-2.0307 3.3719-4.8587 3.3719-7.994 0-5.334-3.7338-9.7853-8.7276-10.9123" fill="#dbe9f2"></path><path d="m22.4469 27.84901h10.6834v-.8456c0-1.799.7532-3.5252 2.1203-4.8601 2.072-2.0251 3.213-4.7306 3.213-7.6195 0-2.9596-1.1837-5.7106-3.332-7.7476-2.1469-2.0356-4.9637-3.0681-7.9296-2.9113-5.4768.2926-9.9057 4.8195-10.0828 10.3075-.0973 3.0184 1.0983 5.9486 3.2802 8.0402 1.302 1.2481 2.0475 3.0394 2.0475 4.914zm11.2084 1.05h-11.7334c-.2898 0-.525-.2352-.525-.525v-1.2474c0-1.5904-.6272-3.1052-1.7241-4.1552-2.3968-2.2981-3.71-5.5174-3.6029-8.8326.1939-6.0277 5.0589-11.0012 11.0761-11.3225 3.2571-.1743 6.349.9611 8.708 3.1976 2.3597 2.2372 3.6596 5.2591 3.6596 8.5099 0 3.1745-1.253 6.1467-3.5294 8.3699-1.1634 1.1361-1.8039 2.5963-1.8039 4.1097v1.3706c0 .2898-.2352.525-.525.525z" fill="#1198eb"></path><path d="m31.28846 31.17401h-7c-.7728 0-1.4-.6272-1.4-1.4v-1.4h9.8v1.4c0 .7728-.6272 1.4-1.4 1.4" fill="#dbe9f2"></path><path d="m31.28846 33.97464h-7c-.7728 0-1.4-.6272-1.4-1.4 0-.7735.6272-1.4 1.4-1.4h7c.7728 0 1.4.6265 1.4 1.4 0 .7728-.6272 1.4-1.4 1.4" fill="#dbe9f2"></path><path d="m29.18846 31.17401h-4.9c-.7728 0-1.4-.6272-1.4-1.4v-1.4h7.7v1.4c0 .7728-.6272 1.4-1.4 1.4" fill="#fff"></path><path d="m29.18846 33.97464h-4.9c-.7728 0-1.4-.6272-1.4-1.4 0-.7735.6272-1.4 1.4-1.4h4.9c.7728 0 1.4.6265 1.4 1.4 0 .7728-.6272 1.4-1.4 1.4" fill="#fff"></path><g fill="#1198eb"><path d="m23.41346 28.89901v.875c0 .4823.3927.875.875.875h7c.4823 0 .875-.3927.875-.875v-.875zm7.875 2.8h-7c-1.0619 0-1.925-.8631-1.925-1.925v-1.4c0-.2898.2352-.525.525-.525h9.8c.2898 0 .525.2352.525.525v1.4c0 1.0619-.8631 1.925-1.925 1.925z"></path><path d="m24.28846 31.69964c-.4823 0-.875.3927-.875.875s.3927.875.875.875h7c.4823 0 .875-.3927.875-.875s-.3927-.875-.875-.875zm7 2.8h-7c-1.0619 0-1.925-.8638-1.925-1.925 0-1.0626.8631-1.925 1.925-1.925h7c1.0619 0 1.925.8624 1.925 1.925 0 1.0612-.8631 1.925-1.925 1.925z"></path><path d="m26.17727 27.84901h3.1724l2.4752-10.1094-1.491 1.1361c-.2016.154-.4844.1421-.6713-.0301l-1.8739-1.7136-1.8732 1.7136c-.1876.1722-.4704.1841-.672.0301l-1.4994-1.1424zm3.584 1.05h-3.9977c-.2422 0-.4529-.1659-.5096-.4025l-2.8756-11.9518c-.0518-.2163.0378-.4417.224-.5635.1862-.1204.4284-.112.6048.0224l2.3233 1.771 1.904-1.7409c.2002-.1834.5075-.1834.7084 0l1.904 1.7409 2.324-1.771c.1771-.1344.4186-.1435.6055-.021.1862.1218.2751.3472.2219.5635l-2.9267 11.9532c-.0574.2352-.2681.3997-.5103.3997z"></path><path d="m35.33124 13.49691c-.2443 0-.4627-.1708-.5131-.42-.1372-.6685-.3689-1.3125-.6888-1.9145-.1358-.2562-.0385-.5733.217-.7105.2569-.1351.574-.0378.7098.2177.3675.6909.6335 1.4301.7903 2.1973.0581.2842-.1246.5614-.4095.6195-.035.0077-.0707.0105-.1057.0105"></path><path d="m33.01592 9.3954c-.1281 0-.2555-.0455-.3563-.1393-1.3293-1.2292-3.0597-1.9075-4.8713-1.9075-1.6639 0-3.2858.5831-4.5668 1.6415-.224.1855-.5537.154-.7392-.0707-.1848-.2233-.1533-.5544.0707-.7385 1.4679-1.2138 3.3278-1.8823 5.2353-1.8823 2.0769 0 4.06.777 5.5846 2.1861.2121.1974.2254.5292.0287.7427-.1036.112-.2443.168-.3857.168"></path></g><path d="m27.78846 48.12437-19.5993-7.0007v-10.5l19.5993 7.0007z" fill="#dbe9f2"></path><path d="m27.78846 48.12437 19.6-7.0007v-10.5l-19.6 7.0007z" fill="#dbe9f2"></path><path d="m22.4175 43.9558-14.2282-5.0827v-8.2495l16.0993 5.7505v6.2629c0 .9681-.959 1.6443-1.8711 1.3188" fill="#fff"></path><path d="m27.78846 45.72428 15.8704-5.6693c.5572-.1988.9289-.7266.9289-1.3181v-7.1127l-16.7993 6.0004z" fill="#fff"></path><path d="m27.7068971 48.6425407.0815629.0059193c-.0415824 0-.0831648-.0044445-.1240304-.0142893-.0135182-.0033367-.0271409-.0072132-.0406097-.011647-.0039229-.0013554-.0078463-.0027319-.0117599-.0041637l-19.6-7.0014c-.2086-.0735-.3479-.2716-.3479-.4935v-10.5c0-.1708.0826-.3304.2219-.4291.1407-.0987.3185-.1232.4795-.0658l19.4236 6.9374884 19.4222-6.9370684c.1617-.056.3402-.0322.4795.0651.1393.0987.2226.259.2226.4298v10.5c0 .2212-.1393.4193-.3486.4935l-19.5993 7.0014-.0121099.0034241c-.013469.0044084-.0270907.0082659-.0408328.0115694l.0529427-.0149935c-.0309573.0109483-.062729.0188425-.0947662.0237923-.0275028.0037707-.0548723.0058877-.0823338.0058877-.0272821.00042-.0545641-.001697-.0815629-.0059193zm-18.9927371-17.2735807v9.3842l18.5493 6.6255v-9.3842zm38.1493-.00028-18.55 6.6255v9.3842l18.55-6.6255z" fill="#1198eb"></path><path d="m24.98846 42.52367-19.6-7.0007 2.8007-4.8993 19.5993 7.0007z" fill="#dbe9f2"></path><path d="m21.78379 39.32859-15.4217-5.5083 1.827-3.1969 16.5256 5.9038-1.2446 2.1777c-.3367.5894-1.0472.8519-1.6863.6237" fill="#fff"></path><path d="m30.58916 42.52367 19.5993-7.0007-2.8-4.8993-19.6 7.0007z" fill="#dbe9f2"></path><path d="m29.54462 40.69646 14.8694-5.3109c.8211-.294 1.1774-1.2572.7448-2.0139l-.9268-1.6205-16.4437 5.873z" fill="#fff"></path><path d="m47.84465 30.36348 2.8 4.8993c.077.1344.0903.2968.0364.4431-.0539.1449-.1694.2597-.3157.3115l-19.6 7.0014c-.0581.0203-.1176.0301-.1764.0301-.1834 0-.3598-.0973-.4557-.2646l-2.345549-4.1017942-2.343051 4.1014442c-.0959.168-.2723.2646-.4564.2646-.0588 0-.119-.0091-.1771-.0301l-19.5993-7.0014c-.1463-.0518-.2618-.1666-.3157-.3115-.0539-.1463-.0399-.308.0364-.4431l2.8007-4.8993c.1267-.2205.3927-.3192.6321-.2345l19.422351 6.9378558 19.423449-6.9375058c.2401-.084.5075.0133.6335.2345zm-39.4184.90265-2.2708 3.9732 18.5948 6.6416 2.2722-3.9725zm38.724.00035-18.5948 6.6416 2.2708 3.9732 18.5962-6.6423z" fill="#1198eb"></path></g></svg> 