<?xml version="1.0" encoding="UTF-8"?> <svg xmlns="http://www.w3.org/2000/svg" xmlns:xlink="http://www.w3.org/1999/xlink" height="46" viewBox="0 0 45 46" width="45"><mask id="a" fill="#fff"><path d="m0 45.1461039h44.5605195v-45.1461039h-44.5605195z" fill="#fff" fill-rule="evenodd"></path></mask><g fill="none" fill-rule="evenodd"><path d="m14.4637013 41.3491558h15.1948052v-3.5064935h-15.1948052z" fill="#fdebea" mask="url(#a)"></path><path d="m27.9052597 37.8426623h-13.4415584v2.337078h12.2727273c.6451948 0 1.1688311-.523052 1.1688311-1.1688312z" fill="#fff" mask="url(#a)"></path><path d="m14.902013 40.9108442h14.3181818v-2.6298702h-14.3181818zm14.7564935.8766233h-15.1948052c-.2419481 0-.4383117-.1963636-.4383117-.4383117v-3.5064935c0-.241948.1963636-.4383117.4383117-.4383117h15.1948052c.241948 0 .4383117.1963637.4383117.4383117v3.5064935c0 .2419481-.1963637.4383117-.4383117.4383117z" fill="#ee3124" mask="url(#a)"></path><path d="m39.0091558 37.8426623h-33.89610385c-.96837663 0-1.75324676-.7854545-1.75324676-1.7532467v-1.7532468h37.40259741v1.7532468c0 .9677922-.7854545 1.7532467-1.7532468 1.7532467" fill="#fdebea" mask="url(#a)"></path><path d="m37.8397403 36.6738312h-34.47993511v-2.3376624h35.64876621v1.1688312c0 .6451948-.5236363 1.1688312-1.1688311 1.1688312" fill="#fff" mask="url(#a)"></path><path d="m3.79811688 34.7744805v1.3149351c0 .7246753.59025974 1.314935 1.31493507 1.314935h33.89610385c.7246754 0 1.3149351-.5902597 1.3149351-1.314935v-1.3149351zm35.21103892 3.5064935h-33.89610385c-1.20798701 0-2.19155844-.9835714-2.19155844-2.1915584v-1.7532468c0-.241948.19636363-.4383117.43831168-.4383117h37.40259741c.241948 0 .4383117.1963637.4383117.4383117v1.7532468c0 1.207987-.9835714 2.1915584-2.1915585 2.1915584z" fill="#ee3124" mask="url(#a)"></path><path d="m33.7494156 41.7874675h-23.3766234c-.241948 0-.43831168-.1963636-.43831168-.4383117 0-.241948.19636368-.4383116.43831168-.4383116h23.3766234c.241948 0 .4383117.1963636.4383117.4383116 0 .2419481-.1963637.4383117-.4383117.4383117" fill="#ee3124" mask="url(#a)"></path><path d="m40.7624026 34.3361688h-37.40259741v-21.6233766c0-.9677922.78487013-1.7532467 1.75324676-1.7532467h33.89610385c.9677923 0 1.7532468.7854545 1.7532468 1.7532467z" fill="#fdebea" mask="url(#a)"></path><path d="m36.0864935 29.6608442h-32.72668831v-16.948052c0-.9677922.78487013-1.7532467 1.75324676-1.7532467h32.14227275v17.5324675c0 .6451948-.5236364 1.1688312-1.1688312 1.1688312" fill="#fff" mask="url(#a)"></path><path d="m3.79811688 33.8978571h36.52597402v-21.1850649c0-.7246753-.5902597-1.3149351-1.3149351-1.3149351h-33.89610385c-.72467533 0-1.31493507.5902598-1.31493507 1.3149351zm36.96428572.8766234h-37.40259741c-.24194805 0-.43831168-.1963636-.43831168-.4383117v-21.6233766c0-1.207987.98357143-2.1915584 2.19155844-2.1915584h33.89610385c1.2079871 0 2.1915585.9835714 2.1915585 2.1915584v21.6233766c0 .2419481-.1963637.4383117-.4383117.4383117z" fill="#ee3124" mask="url(#a)"></path><path d="m9.20396104 34.3361688h25.71428576v-25.7148701h-25.71428576z" fill="#fdebea" mask="url(#a)"></path><path d="m32.5805844 8.6212987h-23.37662336v23.3766234h13.44155846c5.4870779 0 9.9350649-4.4474026 9.9350649-9.935065z" fill="#fff" mask="url(#a)"></path><path d="m9.64227273 33.8978571h24.83766237v-24.83824671h-24.83766237zm25.27597407.8766234h-25.71428576c-.24194805 0-.43831169-.1963636-.43831169-.4383117v-25.7148701c0-.24194805.19636364-.43831169.43831169-.43831169h25.71428576c.241948 0 .4383116.19636364.4383116.43831169v25.7148701c0 .2419481-.1963636.4383117-.4383116.4383117z" fill="#ee3124" mask="url(#a)"></path><path d="m33.7494156 3.94597403h-23.3766234c-.6451948 0-1.16883116.52363636-1.16883116 1.16883116v3.50649351h25.71428576v-3.50649351c0-.6451948-.5236364-1.16883116-1.1688312-1.16883116" fill="#fdebea" mask="url(#a)"></path><path d="m33.165 3.94597403h-22.7922078c-.6451948 0-1.16883116.52363636-1.16883116 1.16883116v2.33766234h22.79220776c.6451948 0 1.1688312-.52363636 1.1688312-1.16883117z" fill="#fff" mask="url(#a)"></path><path d="m9.64227273 8.18357143h24.83707787v-3.06818182c0-.40266234-.3278571-.73051948-.7305194-.73051948h-23.376039c-.40266233 0-.73051947.32785714-.73051947.73051948zm25.27538957.87662338h-25.71370126c-.24194805 0-.43831169-.19636364-.43831169-.43831169v-3.50649351c0-.88655844.72058442-1.60714286 1.60714285-1.60714286h23.376039c.8865584 0 1.6071428.72058442 1.6071428 1.60714286v3.50649351c0 .24194805-.1963636.43831169-.4383117.43831169z" fill="#ee3124" mask="url(#a)"></path><path d="m26.9795455 14.2228636c.9525974 1.402013 1.5101298 3.095065 1.5101298 4.9184416 0 4.8412987-3.924935 8.7662338-8.7662337 8.7662338-1.8233767 0-3.5164286-.5575325-4.9184416-1.5101299 1.5767532 2.3218831 4.2381818 3.8477922 7.2561039 3.8477922 4.8412987 0 8.7662338-3.9249351 8.7662338-8.7662338 0-3.0185065-1.5259091-5.6793506-3.8477922-7.2561039" fill="#fdebea" mask="url(#a)"></path><g fill="#ee3124"><path d="m22.0611039 13.1511039c-4.5917533 0-8.3279221 3.7361688-8.3279221 8.3279221 0 4.5917532 3.7361688 8.3279221 8.3279221 8.3279221 4.5917532 0 8.3279221-3.7361689 8.3279221-8.3279221 0-4.5917533-3.7361689-8.3279221-8.3279221-8.3279221m0 17.5324675c-5.0756494 0-9.2045455-4.1288961-9.2045455-9.2045454 0-5.0756494 4.1288961-9.2045455 9.2045455-9.2045455 5.0756493 0 9.2045455 4.1288961 9.2045455 9.2045455 0 5.0756493-4.1288962 9.2045454-9.2045455 9.2045454" mask="url(#a)"></path><path d="m22.0611039 21.9173377c-.0572727 0-.113961-.0111039-.1683117-.0338961-.1630519-.0677922-.27-.2273377-.27-.4044156v-8.7662338c0-.241948.1963636-.4383117.4383117-.4383117.241948 0 .4383117.1963637.4383117.4383117v7.7125325l5.4707143-5.4356494c.1706493-.1706493.4494156-.1706493.6200649.0017533.1706494.1718182.1694805.4494156-.0023377.6200649l-6.2181818 6.1784416c-.082987.0835714-.1951948.1274026-.3085714.1274026" mask="url(#a)"></path><path d="m16.3413701 28.5576429c-.1016883 0-.2033766-.035065-.2857792-.1063637-.1840909-.1577922-.2045454-.4348052-.0461688-.6177273l5.7196753-6.6407142c.1373377-.1607143.3699351-.1975325.5511039-.0935065l7.5903896 4.3831169c.2098052.120974.2816883.3892207.1607143.5990259-.120974.2086364-.388052.2822728-.599026.1601299l-7.275974-4.2013636-5.482987 6.3648701c-.0864935.1011039-.2092208.1525325-.3319481.1525325" mask="url(#a)"></path></g><path d="m18.0763831 21.479026c0-2.2009091 1.7842208-3.9845455 3.9845455-3.9845455 2.2009091 0 3.9851298 1.7836364 3.9851298 3.9845455s-1.7842207 3.9845454-3.9851298 3.9845454c-2.2003247 0-3.9845455-1.7836363-3.9845455-3.9845454" fill="#fff" mask="url(#a)"></path><path d="m25.9819481 20.7679091c-.2033767-1.1209091-.8596754-2.0442857-1.7433117-2.6216883.277013.428961.4774675.9187013.5744805 1.4528571.3921428 2.1652598-1.0449351 4.2393507-3.2101948 4.6320779-1.0437663.1887663-2.0641559-.0502597-2.8881818-.587922.8485714 1.3090909 2.4264935 2.0524675 4.0570129 1.7567532 2.1652598-.3927273 3.6029221-2.4662338 3.2101949-4.6320779" fill="#fdebea" mask="url(#a)"></path><path d="m22.0611039 17.9325584c-1.9554545 0-3.5462338 1.5913637-3.5462338 3.5462338 0 1.9554546 1.5907793 3.5468182 3.5462338 3.5468182s3.5456493-1.5913636 3.5456493-3.5468182c0-1.9548701-1.5901948-3.5462338-3.5456493-3.5462338m0 7.9696754c-2.4387662 0-4.4228571-1.9846754-4.4228571-4.4234416 0-2.4381818 1.9840909-4.4228571 4.4228571-4.4228571s4.4222727 1.9846753 4.4222727 4.4228571c0 2.4387662-1.9835065 4.4234416-4.4222727 4.4234416" fill="#ee3124" mask="url(#a)"></path></g></svg> 