<?xml version="1.0" encoding="UTF-8"?> <svg xmlns="http://www.w3.org/2000/svg" height="55" viewBox="0 0 56 55" width="56"><g fill="none" fill-rule="evenodd"><path d="m34.475 19.60007c-5.4124 0-9.8-4.3883-9.8-9.8 0-5.4124 4.3876-9.8 9.8-9.8 5.4117 0 9.8 4.3876 9.8 9.8 0 5.4117-4.3883 9.8-9.8 9.8z" fill="#fff" opacity=".201753"></path><path d="m8.4 44.97507c-4.6396 0-8.4-3.7611-8.4-8.4 0-4.6396 3.7604-8.4 8.4-8.4 4.6389 0 8.4 3.7604 8.4 8.4 0 4.6389-3.7611 8.4-8.4 8.4z" fill="#fff" opacity=".201753"></path><path d="m41.2986 54.77437c-7.7315 0-14-6.2678-14-14s6.2685-14 14-14c7.7322 0 14 6.2678 14 14s-6.2678 14-14 14z" fill="#fff" opacity=".201753"></path><path d="m45.3236 50.40007h-34.9993c-.7735 0-1.4-.6272-1.4-1.4v-2.8h37.7993v2.8c0 .7728-.6272 1.4-1.4 1.4" fill="#dbe9f2"></path><path d="m8.9243 46.20007h37.7993v-33.6h-37.7993z" fill="#dbe9f2"></path><path d="m40.4236 49.00007h-31.4993v-2.8h34.2993c0 1.5463-1.253 2.8-2.8 2.8" fill="#fff"></path><path d="m9.4493 46.72507v2.275c0 .4823.3927.875.875.875h34.9993c.4823 0 .875-.3927.875-.875v-2.275zm35.8743 4.2h-34.9993c-1.0619 0-1.925-.8631-1.925-1.925v-2.8c0-.2898.2352-.525.525-.525h37.7993c.2898 0 .525.2352.525.525v2.8c0 1.0619-.8631 1.925-1.925 1.925z" fill="#1198eb"></path><path d="m38.3236 41.99937h-29.4v-29.4h34.3v24.5c0 2.7062-2.1938 4.9-4.9 4.9" fill="#fff"></path><path d="m9.4493 45.67437h36.7493v-32.55h-36.7493zm37.2743 1.05h-37.7993c-.2898 0-.525-.2352-.525-.525v-33.6c0-.2898.2352-.525.525-.525h37.7993c.2898 0 .525.2352.525.525v33.6c0 .2898-.2352.525-.525.525z" fill="#1198eb"></path><path d="m46.7243 12.60007h-37.7993v-5.6c0-.7728.6265-1.4 1.4-1.4h34.9993c.7728 0 1.4.6272 1.4 1.4z" fill="#dbe9f2"></path><path d="m38.3243 10.49937h-29.4v-3.4993c0-.7735.6272-1.4 1.4-1.4h32.8993c0 2.7055-2.1938 4.8993-4.8993 4.8993" fill="#fff"></path><g fill="#1198eb"><path d="m43.22157 9.79664c-.182 0-.3647-.07-.49-.203-.1337-.126-.21-.3073-.21-.497 0-.182.0763-.364.21-.49.259-.266.721-.266.987 0 .1323.126.203.308.203.49 0 .1897-.0707.371-.203.497-.133.133-.315.203-.497.203"></path><path d="m39.02157 9.09664c0-.385.315-.7.7-.7.392 0 .7.315.7.7 0 .3927-.308.7-.7.7-.385 0-.7-.3073-.7-.7"></path><path d="m36.22157 9.79664c-.182 0-.3647-.07-.49-.203-.1337-.126-.21-.3073-.21-.497 0-.182.0763-.364.21-.497.259-.2513.728-.259.987 0 .1323.133.203.315.203.497 0 .1897-.0707.371-.203.497-.133.133-.308.203-.497.203"></path><path d="m9.45 12.07507h36.7493v-5.075c0-.4823-.3927-.875-.875-.875h-34.9993c-.4823 0-.875.3927-.875.875zm37.2743 1.05h-37.7993c-.2898 0-.525-.2352-.525-.525v-5.6c0-1.0619.8631-1.925 1.925-1.925h34.9993c1.0619 0 1.925.8631 1.925 1.925v5.6c0 .2898-.2352.525-.525.525z"></path><path d="m34.12227 40.07437c.2898 0 .525.2352.525.525l-.00013.8747.87513.0003c.2898 0 .525.2352.525.525s-.2352.525-.525.525l-.87513-.0003.00013.8753c0 .2898-.2352.525-.525.525s-.525-.2352-.525-.525l-.00013-.8753-.87487.0003c-.2898 0-.525-.2352-.525-.525s.2352-.525.525-.525l.87487-.0003.00013-.8747c0-.2898.2352-.525.525-.525zm-4.2 1.4c.2898 0 .525.2352.525.525s-.2352.525-.525.525-.525-.2352-.525-.525.2352-.525.525-.525zm-2.8007 0c.2898 0 .525.2352.525.525s-.2352.525-.525.525-.525-.2352-.525-.525.2352-.525.525-.525zm-3.5 0c.2898 0 .525.2352.525.525s-.2352.525-.525.525-.525-.2352-.525-.525.2352-.525.525-.525zm-4.9007 0c.2898 0 .525.2352.525.525s-.2352.525-.525.525-.525-.2352-.525-.525.2352-.525.525-.525zm-1.95573-26.5993c.2898 0 .525.2352.525.525v.874l.875.001c.2898 0 .525.2352.525.525s-.2352.525-.525.525l-.875-.001v.876c0 .2898-.2352.525-.525.525s-.525-.2352-.525-.525v-.876l-.875.001c-.2898 0-.525-.2352-.525-.525s.2352-.525.525-.525l.875-.001v-.874c0-.2898.2352-.525.525-.525zm4.2007 1.4c.2898 0 .525.2352.525.525s-.2352.525-.525.525-.525-.2352-.525-.525.2352-.525.525-.525zm2.1 0c.2898 0 .525.2352.525.525s-.2352.525-.525.525-.525-.2352-.525-.525.2352-.525.525-.525zm2.8 0c.2905 0 .525.2352.525.525s-.2345.525-.525.525c-.2898 0-.525-.2352-.525-.525s.2352-.525.525-.525zm4.20063 0c.2898 0 .525.2352.525.525s-.2352.525-.525.525-.525-.2352-.525-.525.2352-.525.525-.525z"></path></g><path d="m15.94621 25.72507 2.1217 3.675-2.1217 3.675h-4.2434l-2.1217-3.675 2.1217-3.675zm18.9343-1.0507h-14.1113c-1.5127-2.2176-4.0579-3.6743-6.9447-3.6743-4.6389 0-8.4 3.7604-8.4 8.4 0 4.6389 3.7611 8.4 8.4 8.4 2.8868 0 5.432-1.4574 6.9447-3.675h14.1113c1.512 2.2176 4.0579 3.675 6.944 3.675 3.3194 0 6.181-1.9306 7.5446-4.725h-8.6163l-2.1217-3.675 2.1217-3.675h8.6163c-1.3636-2.7951-4.2252-4.725-7.5446-4.725-2.8861 0-5.432 1.4567-6.944 3.6743z" fill="#fff"></path><path d="m34.17897 31.32437h-12.7085c-.4123 0-.812.1757-1.0696.4991-1.5386 1.9348-3.9116 3.1759-6.5765 3.1759-4.1608 0-7.6055-3.0282-8.2733-7-.0777.4564-.1267.9219-.1267 1.4007 0 4.6389 3.7611 8.4 8.4 8.4 2.8868 0 5.4327-1.4574 6.9447-3.675h14.1113c1.512 2.2176 4.0579 3.675 6.944 3.675 3.3194 0 6.181-1.9306 7.5446-4.725h-2.2078c-1.4497 1.1998-3.3068 1.9243-5.3368 1.9243-2.6642 0-5.0372-1.2411-6.5765-3.1759-.2569-.3234-.6566-.4991-1.0689-.4991" fill="#dbe9f2"></path><path d="m12.00598 32.54937h3.6372l1.8186-3.15-1.8186-3.15h-3.6372l-1.8186 3.15zm3.9403 1.05h-4.2434c-.1869 0-.3605-.1001-.4543-.2625l-2.1217-3.675c-.0938-.1624-.0938-.3626 0-.525l2.1217-3.675c.0938-.1624.2674-.2625.4543-.2625h4.2434c.1869 0 .3612.1001.4543.2625l2.1224 3.675c.0931.1624.0931.3626 0 .525l-2.1224 3.675c-.0931.1624-.2674.2625-.4543.2625zm4.823.0007h14.1113c.1736 0 .3353.0861.434.2289 1.47 2.1574 3.9039 3.4454 6.51 3.4454 2.7398 0 5.2185-1.3881 6.6535-3.675h-7.7252c-.1869 0-.3605-.1001-.4543-.2625l-2.1217-3.675c-.0938-.1624-.0938-.3626 0-.525l2.1217-3.675c.0938-.1624.2674-.2625.4543-.2625h7.7252c-1.4357-2.2869-3.9144-3.675-6.6535-3.675-2.6054 0-5.0393 1.288-6.51 3.4461-.0987.1428-.2604.2289-.434.2289h-14.1113c-.1736 0-.336-.0861-.4347-.2289-1.4707-2.1581-3.9046-3.4461-6.51-3.4461-4.3421 0-7.875 3.5329-7.875 7.875s3.5329 7.875 7.875 7.875c2.6054 0 5.04-1.288 6.51-3.4454.0987-.1428.2611-.2289.4347-.2289zm21.0553 4.7243c-2.8595 0-5.537-1.3685-7.2163-3.6743h-13.5674c-1.6793 2.3058-4.3561 3.6743-7.2163 3.6743-4.9217 0-8.925-4.004-8.925-8.925s4.0033-8.925 8.925-8.925c2.8595 0 5.5363 1.3685 7.2163 3.675h13.5674c1.68-2.3065 4.3568-3.675 7.2163-3.675 3.4335 0 6.5058 1.9236 8.0164 5.0197.0791.1624.0693.3549-.0266.5082-.0959.154-.2639.2471-.4452.2471h-8.3132l-1.8186 3.15 1.8186 3.15h8.3132c.1813 0 .3493.0931.4452.2471.0959.1533.1057.3458.0266.5082-1.5106 3.0961-4.5822 5.0197-8.0164 5.0197z" fill="#1198eb"></path></g></svg> 