<?xml version="1.0" encoding="UTF-8"?> <svg xmlns="http://www.w3.org/2000/svg" height="39" viewBox="0 0 45 39" width="45"><g fill="#ee3124" fill-rule="evenodd"><path d="m17.8478571 23.9485375c-2.872653.0003075-5.8322449-1.2064995-8.02102037-3.2928855-2.20469387-2.1017633-3.40989795-4.9096501-3.39473585-7.9060621.01667463-2.94689717 1.23075626-5.71234277 3.41861341-7.78704206 2.30173471-2.18326271 5.42387751-3.33963231 8.56071431-3.17663341.4065306.02122062.8106122.06366184 1.2.12578595 2.2506122.35921269 4.2716326 1.46422226 5.8447959 3.19570121 1.9346939 2.12944231 2.8695918 4.41450246 2.9415306 7.19071211.1607143 6.1902679-4.2168367 11.3004374-9.9655102 11.6335088-.1940816.0113791-.3890816.016915-.5843878.016915zm-.0254081-21.255365c-2.7045919 0-5.3534694 1.05487971-7.3414286 2.93982367-2.00357142 1.90032122-3.11510203 4.42957213-3.13054123 7.12182203-.01394856 2.7386892 1.08992899 5.3069984 3.10880653 7.2316156 2.1566327 2.0562466 5.1171429 3.1864749 7.9203061 3.0243986 5.2503062-.3044696 9.2479592-4.9994532 9.1004082-10.6887302-.0661224-2.54155272-.9247959-4.63654999-2.7021429-6.59253686-1.4314285-1.57555358-3.267551-2.58061099-5.3103061-2.90660881-.3581632-.05720339-.7291837-.09626161-1.1038775-.11563696-.1803062-.00953389-.3612245-.01414707-.5412245-.01414707z"></path><path d="m17.6984694 20.2564584c-1.9151021 0-3.8871429-.8033078-5.3442857-2.1927966-1.4715306-1.4024056-2.2757143-3.2765855-2.2651057-5.2768589.0111261-1.967366.82082-3.81325178 2.2807179-5.1975123 1.5339796-1.4549959 3.6186735-2.22601149 5.704898-2.11652543.2736734.01445462.5427551.04274877.7995918.08365227 1.504898.24080782 2.8558163.97922362 3.9070408 2.13590077 1.29 1.4202433 1.9135715 2.94443689 1.9613266 4.79647349.1068367 4.1269478-2.8157143 7.5339325-6.6538776 7.7562876-.1294898.0073811-.2598979.0113791-.3903061.0113791zm-.0171429-13.8712069c-1.7240816 0-3.4135714.67260115-4.6809183 1.87479497-1.2756123 1.20957491-1.9833674 2.81895843-1.992952 4.53198473-.009395 1.7425505.6934622 3.3771528 1.9788703 4.60272 1.3757143 1.3113724 3.2635715 2.0291826 5.0494898 1.929538 3.3401021-.1937534 5.8830613-3.1852446 5.7890817-6.811509-.0428572-1.6398305-.5736735-2.9345954-1.7219388-4.19860579-.9091837-1.00075177-2.0755102-1.63921542-3.3728572-1.84650082-.2253061-.03598278-.4619387-.06089393-.7034693-.07350328-.1151021-.0061509-.2305103-.00891881-.3453062-.00891881z"></path><path d="m17.779898 16.6963163c-.2002041 0-.3930613-.0184527-.5816327-.0359828l-.0756122-.0070735c-1.644796-.1525424-3.3609184-1.7856069-3.2944898-3.9744054.0385714-1.2849235.6939796-2.4332969 1.752551-3.07083792.4509184-.27156233.8846939-.43240842 1.2893877-.47854019 1.3236735-.14946692 2.5276531.19836659 3.3906123.98168401.7784694.7064311 1.2 1.7213299 1.187449 2.8567865-.0229592 2.0162657-1.8633674 3.6284171-3.4934694 3.723141-.0587755.0036906-.1172449.0052283-.1747959.0052283zm-1.7268368-6.2972936c-.7891836.4754647-1.2780612 1.3384363-1.3071428 2.3078185-.0505102 1.6699699 1.2315306 2.9136823 2.4612245 3.027474l.0774489.0073811c.217347.0206055.4239796.0387507.6165306.0286017 1.177347-.0685826 2.6121429-1.3384363 2.6286735-2.8128076.0097959-.8801941-.2960204-1.6275287-.8846939-2.1620421-.6645918-.6030959-1.6117347-.86942998-2.6718367-.7494874-.2690816.0310621-.587449.1528499-.9202041.3530618z"></path><path d="m17.9231633 13.4840077c-.1564286 0-.3091837-.0805769-.394898-.2254306-.1297959-.2189721-.0584694-.5022212.1594898-.6323127 3.1371429-1.8760252 6.4983673-3.50047845 9.7493878-5.0717264 2.2432653-1.0840965 4.5630612-2.20509842 6.7729591-3.39253007.2222449-.12025014.5017347-.03598278.6211225.18914024.1196939.22481547.0352041.50406643-.1882653.62431656-2.2270408 1.19665801-4.5557143 2.32196556-6.8081633 3.41098278-3.2323469 1.56232914-6.5752041 3.17786359-9.6771428 5.03266809-.0737755.0436714-.1545919.0648921-.2344898.0648921"></path><path d="m32.6081633 8.68784172c-.0440817 0-.0887755-.00645845-.1319388-.01968289-1.1727551-.35429196-2.3292857-.7854702-3.447551-1.20250137l-.1019388-.03813559c-.1166327-.04305632-.2106123-.13193685-.2605102-.24603609-.0502041-.11440678-.0523469-.24357572-.0055102-.35921268.3198979-.79438901.5516326-1.63921542.7760204-2.45605522l.1328571-.48161564c.0394898-.14085566.1429592-.25464735.2791837-.30662247 1.5358163-.58679606 3.0618367-1.27754237 4.6640816-2.11129716.1536735-.07996172.3394898-.06612219.4806123.03659787.1405102.10241252.2118367.27556042.1836735.44778568-.0805102.49360989-.165.98629715-.249796 1.47836932-.0388775.22604566-.0777551.45209131-.1163265.67813696.3486735.13870285.692449.28109623 1.0346939.42348962.3811224.15807818.7604081.31554128 1.1427551.46562329.1637755.06427692.2764286.2168193.2905102.39304264.0140816.17622335-.0731633.34445052-.2246939.43425369-1.1877551.70274057-2.7348979 1.65243986-4.1644898 2.76729087-.0814286.0633543-.1809183.09656917-.2816326.09656917zm-2.9271429-1.96306042c.9281633.34537316 1.8795918.69412931 2.835.99121788 1.1093878-.84851695 2.2683674-1.59585156 3.2758163-2.20940405-.0991836-.0409035-.1977551-.08180699-.2966326-.12271049-.4496939-.18698743-.9012245-.3742824-1.3631633-.55173592-.2041837-.07873155-.325102-.29063013-.2889796-.50744943.0590817-.35121651.1190817-.70181793.1793878-1.05211181.0327551-.19067797.0655102-.38104839.0979592-.57141881-1.2664286.63108256-2.494898 1.17605249-3.7279592 1.65551531l-.0704082.25495489c-.1910204.69535949-.3872449 1.41009432-.6410204 2.11314243z"></path><path d="m5.28765306 18.4923797c-.1405102 0-.27948979-.0642769-.36948979-.1869874-1.2844898-1.7462411-1.9089796-4.0048524-1.9089796-6.9046952 0-1.3199836.12551021-2.62243712.2344898-3.60965691.02846939-.25310963.25530612-.43333106.50755102-.40749727.25193878.02829415.43346939.25649262.40561224.50960224-.10683673.96353882-.22928571 2.23277744-.22928571 3.50755194 0 2.7328458.5494898 4.7524945 1.72897959 6.3563423.15061225.204825.1077551.4936099-.09612245.6449221-.08234694.0612014-.17785714.0904182-.2727551.0904182"></path><path d="m5.96540816 4.88566156c-.09612245 0-.19255102-.03013942-.27520408-.09226353-.20295918-.15284992-.24397959-.44224986-.09183673-.64615227 1.41489796-1.89540049 3.73897959-3.34732094 6.54367345-4.08911973.2458163-.0661222.4962245.08242208.5608163.32876571.0645919.24634364-.0820408.49883817-.3269387.56342264-2.60571432.68890104-4.75163269 2.0208789-6.04285718 3.75082012-.09030612.12086523-.22806122.18452706-.36765306.18452706"></path><path d="m1.57316327 36.9183297c-.30979592 0-.62479592-.0144546-.93551021-.0430563-.25255102-.0233735-.43867347-.2475738-.41571428-.5016061.0232653-.2537247.24428571-.4404046.49928571-.4173387.28316327.0261413.56969388.0393658.85193878.0393658 2.40153061 0 3.945-.708584 4.71857142-2.1660402.67714286-1.2753896.67591837-2.9299822.67530613-4.2594997v-.3395298c0-5.3488245.77510204-5.8362835 5.13061228-6.1721228.2510204-.024296.4738775.1697649.4931632.4241047s-.1695918.4757723-.422449.4954552c-3.7956122.2930905-4.28295914.3309185-4.28295914 5.2525629v.3386071c.00091837 1.4328527.00214286 3.2153841-.78306122 4.6946761-.93520408 1.7613108-2.79551021 2.6544218-5.52918367 2.6544218"></path><path d="m29.6283673 37.8886345h-4.9086734c-.2534694 0-.4591837-.2066703-.4591837-.4613177v-4.4203458c-1.4788775-.0384431-2.9152041-.0464393-4.1442857-.0488996-.2479592-.0006151-.4506123-.1986742-.4582653-.4474782-.0214286-.7138122-.0376531-1.4322375-.0544898-2.1509705-.012551-.5505057-.0254082-1.1010114-.0401021-1.6496719-1.3668367-.0667373-2.6096938-.0805768-3.792551-.0430563-.2191836.0098414-.3869387-.1227105-.4506122-.3167715-.1261225-.3856615-.2409184-.774091-.3557143-1.1625205-.2537755-.8608187-.4934694-1.6736605-.8568367-2.4643589-.1062245-.2315815-.0058164-.5056042.2243877-.6126299.2311225-.1070257.5029592-.0052282.6094898.2257381.3912245.8515924.6514286 1.734862.9033674 2.5892223.0798979.2703321.1597959.5406643.2433673.8097662 1.2355102-.0286016 2.5157143-.0043056 3.947449.0756561.2381633.013532.4267347.2072854.4334694.4471706.0202041.6904388.0364285 1.3851832.052653 2.0799276.0128572.5668056.0260204 1.1339188.0416327 1.6985716 1.2590816.0039981 2.7006122.0162999 4.17.0608939.2479592.0076887.4454082.2118986.4454082.4610102v4.4074289h4.4494897c.2534694 0 .4591837.2066703.4591837.4613176 0 .2546474-.2057143.4613177-.4591837.4613177"></path><path d="m34.9144898 36.2448059c-4.137551 0-5.0047959-3.5767496-5.7697959-6.7327775-.6915306-2.8518657-1.2887755-5.3143794-3.9070408-5.3143794-.5522449 0-1.1537755.0544355-1.7354082.1070257-.9572449.0870353-1.9879592.1586933-2.7489796.0495147-.2513265-.0359827-.4258163-.2694095-.3903061-.5215965.0355102-.2521869.2684694-.4268726.5191837-.3918124.6704081.0962616 1.6322449.0273715 2.5377551-.054743.6018367-.0547431 1.2244898-.1110238 1.8177551-.1110238 3.3397959 0 4.0815306 3.0597662 4.7990816 6.0186577.7518367 3.1003622 1.4617347 6.0284992 4.8777551 6.0284992.2534694 0 .4591837.2066703.4591837.4613176 0 .2549549-.2057143.4613177-.4591837.4613177"></path><path d="m35.3485714 25.3789297c-1.4341836 0-2.7434694-.5194436-3.6958163-1.4691429-.949898-.9475465-1.4647959-2.2619943-1.4497959-3.7016129.0247959-2.2229361 1.3637755-4.1140309 3.3318367-4.7066703.6052041-.1820667 1.2162245-.2669492 1.8254082-.2663374 1.4507143.0129202 2.7495918.5646561 3.6578571 1.5537212.9642857 1.0505741 1.432347 2.5126435 1.317551 4.1167988-.1521428 2.1279046-1.9141836 4.4188081-4.8792857 4.4726285-.0358163.0003075-.0716326.000615-.1077551.000615zm-1.5502041-8.9938491c-1.5811224.4760799-2.6571428 2.0165733-2.6770408 3.8329347-.012551 1.1877392.4059184 2.2666074 1.1782653 3.0370079.7986735.7962343 1.9245919 1.2258748 3.139898 1.2006561 1.4406122-.0258338 3.7953061-1.0308912 3.9802041-3.6161153.0964285-1.3473551-.2859184-2.563696-1.0766327-3.4251299-.745102-.811304-1.7794898-1.2458652-2.9911224-1.256638-.5035715-.0009139-1.0368368.0716667-1.5535715.2272845z"></path><path d="m35.0452041 22.4034308c-1.0151021 0-2.4278572-1.0671815-2.4278572-2.117448l.0015307-.0593562c.057551-1.1569847 1.1794897-2.2097116 2.3540816-2.2097116.1656122 0 .3290816.0212206.4861224.0633543.1552041.0415186.2703062.1580782.317449.3004715 1.1871429.377973 1.3980612 1.2738519 1.3980612 1.8621857 0 .5950997-.6544898 2.1605043-2.1293877 2.1605043zm-.6967347-3.2895024c-.4383674.2423455-.7894898.7027405-.8121432 1.1575998-.0006119.4720817.9303065 1.2092673 1.5088779 1.2092673.8568367 0 1.2070408-1.0548797 1.2110204-1.2384841 0-.3050848 0-1.1173114-1.8070408-1.1173114-.0345919 0-.0685715-.0036905-.1007143-.0110716z"></path><path d="m35.0663265 20.7097799c-.1702041 0-.3339796-.0956465-.4132653-.2601831-.1105102-.2291211-.0153061-.5049891.2127551-.6163204 1.862449-.9072581 3.5895919-2.1374385 5.2594898-3.327023.3321429-.2368097.6642857-.4733119.9979592-.7079688.207551-.1460839.4943878-.0950315.6391837.1131766.1457143.2088231.0952041.4966853-.1126531.6424617-.3321428.2337343-.6627551.4693138-.9933673.7045858-1.7002041 1.2117278-3.4588776 2.464359-5.389898 3.4051395-.0645918.0313696-.1328571.0461317-.2002041.0461317"></path><path d="m34.174898 13.6823742c-.1604082 0-.3162245-.0845749-.4004082-.2349644-.1242857-.2223551-.0459184-.5034514.175102-.6283147 1.0738776-.6061714 2.4569388-.6366183 3.8837755-.0987219.2375511.0894956.3578572.3555221.2684694.5938696-.0890816.2383474-.3541836.3598277-.5908163.2700246-1.1687755-.4404046-2.2757143-.432716-3.1111224.0390582-.0713266.0402884-.1487756.0590486-.225.0590486"></path><path d="m31.2254082 27.9438559c-.2268368 0-.4239796-.1685347-.454898-.4001162-.0333673-.252802.1432653-.484691.3945918-.518521.9967347-.1334746 2.0121429-.1411632 2.9935715-.1488518 1.0714285-.0083038 2.1789796-.016915 3.2320408-.1931384.2504081-.0415185.4867347.1276313.5286735.3788956.0419387.2512644-.127347.4893043-.377449.5311304-1.1246939.1882176-2.2695919.1971364-3.3762245.2057477-.9532653.0073811-1.9392857.0147622-2.8790816.1411632-.0208164.0024604-.0410205.0036905-.0612245.0036905"></path><path d="m31.5 32.4220202c-.2412245 0-.4435714-.1891402-.4579592-.4342537-.015-.2540322.1781633-.4723892.4313265-.487459.2026531-.0119942.407449-.0221432.6137756-.0322922.4787755-.0230659.9697959-.0467468 1.4528571-.0990295.0018367-.0673524.0033673-.1347048.0052041-.2017496.0122449-.5169833.0254081-1.0511892.0603061-1.5940063.0159184-.2432682.2118367-.4339461.4604082-.4311782.3146938.0015377.6284694.0070735.9410204.0126093.6958163.0129169 1.4127551.0199904 1.9852041-.0061509-.0027551-.1454688-.0052041-.2912452-.0052041-.4373291 0-.2460361.0067347-.4508612.0217347-.6439995.0195918-.2543398.2436734-.4499385.4931632-.4244122.2528572.0193753.4420409.2411153.4221429.4951476-.012551.1691498-.0186735.3512165-.0186735.5732641 0 .1762233.0039796.3521391.0076531.5283625l.0064286.3367619c.0033673.2438832-.1827551.4477856-.4245919.4662383-.4267347.0325998-.8797959.0476695-1.4259183.0476695-.3593878 0-.7184694-.006766-1.0784694-.0129169-.1637755-.0030754-.3278572-.0061509-.4922449-.0086112-.0171429.3782805-.0263266.7541006-.034898 1.1206943-.004898.2002119-.0094898.4010389-.0159184.6021734-.0064285.2238928-.1723469.4105727-.3930612.4422498-.6471428.0941088-1.2958163.125786-1.9227551.1559254-.2032653.010149-.4046939.0196829-.6042857.0313696-.0088776.0006151-.0183673.0009226-.0272449.0009226"></path><path d="m43.1384694 34.5182477c-2.6430612 0-4.4853061-2.8001982-4.4853061-5.3134568 0-.2546474.2057143-.4613177.4591836-.4613177.2534694 0 .4591837.2066703.4591837.4613177 0 2.0768521 1.4647959 4.3908215 3.5669388 4.3908215.3584694 0 .7264286-.0695052 1.0940816-.2072854.2381633-.0879579.5020408.0329073.5908163.2715623.0881633.2392701-.0327551.5046815-.2703061.593562-.4705102.1756083-.9465306.2647964-1.4145918.2647964"></path></g></svg> 