<?xml version="1.0" encoding="UTF-8"?> <svg xmlns="http://www.w3.org/2000/svg" xmlns:xlink="http://www.w3.org/1999/xlink" height="46" viewBox="0 0 45 46" width="45"><mask id="a" fill="#fff"><path d="m0 45.1461039h44.5605195v-45.1461039h-44.5605195z" fill="#fff" fill-rule="evenodd"></path></mask><g fill="none" fill-rule="evenodd"><path d="m14.4637013 41.3491558h15.1948052v-3.5064935h-15.1948052z" fill="#fdebea" mask="url(#a)"></path><path d="m27.9052597 37.8426623h-13.4415584v2.337078h12.2727273c.6451948 0 1.1688311-.523052 1.1688311-1.1688312z" fill="#fff" mask="url(#a)"></path><path d="m14.902013 40.9108442h14.3181818v-2.6298702h-14.3181818zm14.7564935.8766233h-15.1948052c-.2419481 0-.4383117-.1963636-.4383117-.4383117v-3.5064935c0-.241948.1963636-.4383117.4383117-.4383117h15.1948052c.241948 0 .4383117.1963637.4383117.4383117v3.5064935c0 .2419481-.1963637.4383117-.4383117.4383117z" fill="#ee3124" mask="url(#a)"></path><path d="m39.0091558 37.8426623h-33.89610385c-.96837663 0-1.75324676-.7854545-1.75324676-1.7532467v-1.7532468h37.40259741v1.7532468c0 .9677922-.7854545 1.7532467-1.7532468 1.7532467" fill="#fdebea" mask="url(#a)"></path><path d="m37.8397403 36.6738312h-34.47993511v-2.3376624h35.64876621v1.1688312c0 .6451948-.5236363 1.1688312-1.1688311 1.1688312" fill="#fff" mask="url(#a)"></path><path d="m3.79811688 34.7744805v1.3149351c0 .7246753.59025974 1.314935 1.31493507 1.314935h33.89610385c.7246754 0 1.3149351-.5902597 1.3149351-1.314935v-1.3149351zm35.21103892 3.5064935h-33.89610385c-1.20798701 0-2.19155844-.9835714-2.19155844-2.1915584v-1.7532468c0-.241948.19636363-.4383117.43831168-.4383117h37.40259741c.241948 0 .4383117.1963637.4383117.4383117v1.7532468c0 1.207987-.9835714 2.1915584-2.1915585 2.1915584z" fill="#ee3124" mask="url(#a)"></path><path d="m33.7494156 41.7874675h-23.3766234c-.241948 0-.43831168-.1963636-.43831168-.4383117 0-.241948.19636368-.4383116.43831168-.4383116h23.3766234c.241948 0 .4383117.1963636.4383117.4383116 0 .2419481-.1963637.4383117-.4383117.4383117" fill="#ee3124" mask="url(#a)"></path><path d="m40.7624026 34.3361688h-37.40259741v-21.6233766c0-.9677922.78487013-1.7532467 1.75324676-1.7532467h33.89610385c.9677923 0 1.7532468.7854545 1.7532468 1.7532467z" fill="#fdebea" mask="url(#a)"></path><path d="m36.0864935 29.6608442h-32.72668831v-16.948052c0-.9677922.78487013-1.7532467 1.75324676-1.7532467h32.14227275v17.5324675c0 .6451948-.5236364 1.1688312-1.1688312 1.1688312" fill="#fff" mask="url(#a)"></path><path d="m3.79811688 33.8978571h36.52597402v-21.1850649c0-.7246753-.5902597-1.3149351-1.3149351-1.3149351h-33.89610385c-.72467533 0-1.31493507.5902598-1.31493507 1.3149351zm36.96428572.8766234h-37.40259741c-.24194805 0-.43831168-.1963636-.43831168-.4383117v-21.6233766c0-1.207987.98357143-2.1915584 2.19155844-2.1915584h33.89610385c1.2079871 0 2.1915585.9835714 2.1915585 2.1915584v21.6233766c0 .2419481-.1963637.4383117-.4383117.4383117z" fill="#ee3124" mask="url(#a)"></path><path d="m9.20396104 34.3361688h25.71428576v-25.7148701h-25.71428576z" fill="#fdebea" mask="url(#a)"></path><path d="m32.5805844 8.6212987h-23.37662336v23.3766234h13.44155846c5.4870779 0 9.9350649-4.4474026 9.9350649-9.935065z" fill="#fff" mask="url(#a)"></path><path d="m9.64227273 33.8978571h24.83766237v-24.83824671h-24.83766237zm25.27597407.8766234h-25.71428576c-.24194805 0-.43831169-.1963636-.43831169-.4383117v-25.7148701c0-.24194805.19636364-.43831169.43831169-.43831169h25.71428576c.241948 0 .4383116.19636364.4383116.43831169v25.7148701c0 .2419481-.1963636.4383117-.4383116.4383117z" fill="#ee3124" mask="url(#a)"></path><path d="m33.7494156 3.94597403h-23.3766234c-.6451948 0-1.16883116.52363636-1.16883116 1.16883116v3.50649351h25.71428576v-3.50649351c0-.6451948-.5236364-1.16883116-1.1688312-1.16883116" fill="#fdebea" mask="url(#a)"></path><path d="m33.165 3.94597403h-22.7922078c-.6451948 0-1.16883116.52363636-1.16883116 1.16883116v2.33766234h22.79220776c.6451948 0 1.1688312-.52363636 1.1688312-1.16883117z" fill="#fff" mask="url(#a)"></path><path d="m9.64227273 8.18357143h24.83707787v-3.06818182c0-.40266234-.3278571-.73051948-.7305194-.73051948h-23.376039c-.40266233 0-.73051947.32785714-.73051947.73051948zm25.27538957.87662338h-25.71370126c-.24194805 0-.43831169-.19636364-.43831169-.43831169v-3.50649351c0-.88655844.72058442-1.60714286 1.60714285-1.60714286h23.376039c.8865584 0 1.6071428.72058442 1.6071428 1.60714286v3.50649351c0 .24194805-.1963636.43831169-.4383117.43831169z" fill="#ee3124" mask="url(#a)"></path><g fill-rule="nonzero" mask="url(#a)"><g transform="translate(14 15)"><path d="m14.3400293 1.0772168c.0165234.05595703.0349805.1115332.0349805.17276367v8.75000976c0 .05774417-.0182813.10974607-.0329883.16289067-.3844622-.36666056-1.1225824-1.06762867-1.9651425-1.85300055l-.0005893-5.43668576c.8436861-.77102957 1.5817249-1.44632665 1.9637396-1.79597779z" fill="#fdebea"></path><path d="m13.7499902 0h-12.49998043c-.68941407 0-1.25000977.5605957-1.25000977 1.25000977v8.75000973c0 .6893848.5605957 1.2499805 1.25000977 1.2499805h12.50000973c.6893848 0 1.2499805-.5605957 1.2499805-1.25v-8.74999023c0-.68941407-.5605957-1.25000977-1.2500098-1.25000977zm-12.49998043.62499023h12.50000973c.0460547 0 .0866309.01678711.1298438.0262793-1.0821973.99043945-4.67059572 4.27321289-5.92634768 5.40462891-.09826171.08850586-.25664062.19409179-.45348632.19409179-.19684571 0-.35522461-.10558593-.4538086-.19438476-1.25563476-1.13124024-4.84423828-4.41418945-5.92625976-5.40427734.04330078-.00949219.08396484-.0263379.13004883-.0263379zm-.62501954 9.375v-8.74998046c0-.06123047.01845704-.11677735.03498047-.17273438.82828125.75808594 3.33210938 3.04863281 4.955625 4.52499024-1.61824218 1.39004882-4.12271484 3.76450195-4.95758789 4.56061527-.01473633-.0531446-.03301758-.1051172-.03301758-.16289067zm13.12499997.62501957h-12.49998043c-.04992188 0-.09430664-.0174024-.14091797-.0285352.86270508-.82242187 3.38311523-3.21052733 4.97291015-4.57057616.2072461.18799804.3965625.35941406.54580078.49388672.25757813.23255859.55907227.35522461.87219727.35522461s.61461914-.12269532.871875-.35493165c.14929688-.13453124.33875977-.30609375.54612305-.49417968 1.58988285 1.35990234 4.10994145 3.74783203 4.97291015 4.57057616-.0466113.0111328-.0909375.0285352-.140918.0285352zm.6250196-.62501957c0 .05774417-.0182813.10974607-.0329883.16289067-.8351953-.79652348-3.339375-3.17071293-4.95758791-4.56058598 1.62357421-1.47635742 4.12702151-3.76669922 4.95559571-4.52507812.0165234.05595703.0349805.1115332.0349805.17276367z" fill="#ee3124"></path></g></g></g></svg> 