<?xml version="1.0" encoding="UTF-8"?> <svg xmlns="http://www.w3.org/2000/svg" height="45" viewBox="0 0 45 45" width="45"><g fill="none" fill-rule="evenodd"><path d="m40.8189627 13.7266791c.7287313.4674627 1.1498507 1.2915672 1.1035074 2.1559702l-.5164925 9.6091791-4.4187313-.6508209.3519403-3.1829105c.774403-3.635597.4097015-6.1609701.9463433-7.406194.4956716-1.1491791 1.6925373-1.1679851 2.5334328-.5252239" fill="#fff"></path><path d="m41.9225373 15.8826493c.0201493-.3700747-.0503731-.731418-.1900746-1.0618657-.7791045-.3512687-1.6871642-.189403-2.1035821.7750746-.5366418 1.2445522-.1719403 3.7699254-.9463433 7.4055224l-.2270149 2.0558955 2.9505224.4345523z" fill="#fdebea"></path><path d="m37.5407463 24.413306 3.391791.4997015.4862687-9.0564179c.0369403-.6837314-.2968657-1.3365672-.8724627-1.7059702-.0114179-.0073881-.0228358-.0154478-.0335821-.0235075-.3552985-.2720149-.7717164-.3801492-1.1176119-.2908209-.2854478.0745523-.5037314.2820896-.6474627.6152239-.2202985.5117911-.27 1.3708209-.3331344 2.458209-.0752238 1.2969403-.1692537 2.9095522-.582985 4.8532836zm3.8646268 1.5817164c-.0235074 0-.0483582-.0006717-.0732089-.0047015l-4.4187314-.6508209c-.267985-.0396269-.4567164-.2841045-.4264925-.5534328l.3512687-3.1842538c.4063432-1.9175373.4970149-3.4878358.5702238-4.7498507.0698508-1.1867911.1235821-2.1250746.4137314-2.799403.2659701-.6152239.7341045-1.0390298 1.3184328-1.1908209.6360448-.1652239 1.3701493.0026866 1.9679105.4526866.8677612.566194 1.3728358 1.5595522 1.3170895 2.5958955l-.5171642 9.6085075c-.0067164.1410447-.0738806.2733582-.1840298.3626865-.0906717.0745523-.2028358.1135075-.3190299.1135075z" fill="#ee3124"></path><path d="m41.3682985 12.411c-1.1740298.5782836.0342537 4.1695522-1.6676866 11.3500746.0584329-1.0202239-.2901492-1.5474627-.7616418-1.7966418-2.1284328-1.1283582-2.8752985.8180597-2.8752985.8180597-4.2394029 9.8167165-3.2460447 1.3567165-9.2283582 14.6035075l8.5580597 3.8149254s11.4857463-12.4045523 7.9025373-27.2740299c0 0-.3922388-2.2728358-1.9276119-1.5158955" fill="#fff"></path><path d="m43.6448955 15.6826343c-.2505224-.1000746-.556791-.0987313-.9335821.0873135-1.1740298.5782835.0349254 4.1688806-1.6676865 11.3494029.0591044-1.0202238-.2894776-1.546791-.7609702-1.7966417-2.1284328-1.1276866-2.8759701.8187313-2.8759701.8187313-3.9680597 9.1873881-3.3528359 2.366194-8.1624627 12.3179104l6.1495522 2.7416418s10.584403-11.4420895 8.2511194-25.5183582" fill="#fdebea"></path><path d="m27.5042687 37.1321194 7.7554477 3.4582836c1.6052239-1.8772388 10.738209-13.301194 7.5465672-26.5452985-.0631343-.3465672-.2955224-1.0564926-.6568657-1.2398508-.054403-.0275373-.2189552-.1101492-.5581343.0577612-.2787314.137015-.3102985 1.2445523-.3452239 2.4172388-.0550746 1.882612-.1383582 4.7290299-1.0558209 8.5963433-.0604478.2545523-.3049254.4184329-.5628358.3835075-.2585821-.0382836-.4446269-.2679851-.4298508-.5285821.0591045-1.0289552-.3573134-1.2499254-.4943283-1.3224627-.5473881-.2901493-1.0175373-.3647015-1.4010448-.2216418-.5346269.2001493-.7663433.7703731-.7690298.7764179-2.034403 4.7122388-2.9088806 5.3482836-3.9217165 6.0850746-.9960447.7247015-2.1210447 1.5441045-5.1071641 8.083209zm7.8891044 4.573209c-.0691791 0-.1383582-.0141045-.2048507-.0436568l-8.5580597-3.8162686c-.1222388-.054403-.217612-.1551493-.2652985-.2814179-.0476866-.1242538-.0436567-.2632836.0114179-.3855224 3.2534328-7.2060448 4.5221642-8.1295523 5.641791-8.9435821.8932836-.6501493 1.665-1.2116418 3.5825373-5.651194.0073881-.0214926.3848508-.9792538 1.3479851-1.340597.6642538-.2478359 1.4131344-.1551493 2.2258209.2760447.1390299.0738806.2847761.1719403.4211194.3062687.5346269-2.8591791.5977612-5.0426866.6427612-6.5747015.0550746-1.8611194.0852985-2.8860448.9073881-3.2917164.6548507-.3223881 1.1565671-.2055224 1.4614925-.0510448.9067164.4620896 1.1585821 1.7838806 1.1847761 1.9336567 3.5979851 14.9258955-7.9119403 27.5762687-8.0288059 27.7025373-.0973881.1047761-.2323881.1611941-.3700747.1611941z" fill="#ee3124"></path><path d="m36.5201866 31.6098134c-.09 0-.1806717-.0235074-.262612-.0732089-.2370895-.1457463-.3123134-.4553732-.1672388-.6931344 2.4729851-4.05 3.0512687-6.1482089 3.1016418-7.1952985.0134328-.2780597.2485075-.4862686.5272388-.4788806.2773881.0127612.4923135.2491791.4788806.5265672-.0812686 1.6938806-1.1733582 4.275-3.2480597 7.6728358-.0947015.1558209-.260597.2411194-.4298507.2411194" fill="#ee3124"></path><path d="m26.6230075 35.334-1.1229851 8.289403h11.9075373l1.1035075-4.8264179z" fill="#fff"></path><path d="m38.1029104 40.5825448-7.2953731-2.1257463c-.7885074-.2303731-1.5964925.2955224-1.7073134 1.1088806l-.549403 4.0573881h8.8562687z" fill="#fdebea"></path><path d="m26.076291 43.1195373h10.9296269l.9080597-3.9707463-10.8705224-3.1681343zm11.3312687 1.0074627h-11.9075373c-.1457463 0-.2841045-.0631343-.3801493-.1719403-.0953731-.1094776-.1390298-.2552239-.1195522-.3989552l1.1236567-8.2900746c.0201493-.1450747.1014179-.2747015.2243284-.3546269.1229104-.0799254.2747015-.1020896.4157462-.0617911l11.8880597 3.4643284c.2558956.0745522.4097015.3364925.3499254.5957463l-1.1035074 4.8264179c-.0523881.2290298-.2558956.3908955-.4909702.3908955z" fill="#ee3124"></path><path d="m4.16988806 13.6604552c-.72873134.4681344-1.14985075 1.2922388-1.1041791 2.1566418l.51716417 9.6091791 4.41873135-.6508209-.3519403-3.1835821c-.77440299-3.635597-.40970149-6.1602985-.94634328-7.4055224-.49567165-1.1491791-1.69253732-1.1686567-2.53343284-.5258955" fill="#fff"></path><path d="m7.64946269 21.5916045c-.73544776-3.4535821-.45201493-5.8902985-.88119403-7.1939552-.67231344.4768656-1.05985075 1.2633582-1.01552239 2.0908208l.46007463 8.5506717 1.78858209-.2639552z" fill="#fdebea"></path><path d="m5.3478806 13.8052612c-.28477612 0-.59574627.1121642-.86910448.3217164-.01141791.0080597-.02216418.0161194-.03358209.0235075-.57492537.369403-.90940299 1.0222388-.87313433 1.7052985l.4869403 9.0570895 3.3911194-.4997015-.29820895-2.6993283c-.40567164-1.8940299-.49970149-3.5066418-.57492538-4.8029105-.06313432-1.0887313-.11283582-1.9477612-.33313432-2.4595522-.14373135-.3331343-.36201493-.5406716-.64746269-.6152239-.07992537-.0208209-.16320896-.0308955-.24850746-.0308955zm-1.76238806 12.1902985c-.11485075 0-.22768657-.0396269-.31835821-.1141791-.11014926-.0893284-.17664179-.2209702-.18470149-.3626866l-.5158209-9.6085074c-.05574627-1.0363433.44798507-2.0297015 1.31641791-2.5958956.59776119-.45 1.33119403-.6199253 1.96791045-.4526865.58432836.151791 1.05246269.575597 1.31776119 1.1908209.2908209.6743283.34589552 1.6126119.41440299 2.799403.07320895 1.2620149.16388059 2.832985.56216418 4.7008209l.36 3.2332835c.02955224.2693284-.15917911.513806-.42783582.5534329l-4.41805971.6508209c-.02485074.0040298-.04902985.0053731-.07388059.0053731z" fill="#ee3124"></path><path d="m3.62350746 12.411c1.1747015.5782836-.03425373 4.1695522 1.66768657 11.3500746-.05843284-1.0202239.29014925-1.5474627.76164179-1.7966418 2.12843284-1.1283582 2.87597015.8180597 2.87597015.8180597 4.23873133 9.8167165 3.24604473 1.3567165 9.22768653 14.6035075l-8.55805966 3.8149254s-11.48574627-12.4045523-7.90253732-27.2740299c0 0 .39223881-2.2728358 1.92761194-1.5158955" fill="#fff"></path><path d="m8.92873881 22.782694s-.43791045-1.1310447-1.59179105-1.1652985c1.26201493 8.6608209 6.37119404 15.2838806 7.88037314 17.0785075l2.9391045-1.3103731c-5.9816418-13.2461195-4.9882836-4.7867911-9.22768659-14.6028359" fill="#fdebea"></path><path d="m3.03192537 12.7605896c-.10074627 0-.15985074.0302238-.18873134.0443283-.36268657.1840299-.59507463.8932836-.6508209 1.2089552-3.19768656 13.2729851 5.93462687 24.6996269 7.53985075 26.5768657l7.75544772-3.4589552c-2.9861194-6.5391045-4.111791-7.3585075-5.1071641-8.0825373-1.0128359-.7374627-1.8879851-1.3735075-3.9143284-6.0662687-.00873134-.0214925-.24649253-.601791-.78380597-.7985821-.38082089-.1403731-.84962686-.0638059-1.39365671.2243284-.13701493.0732089-.55410448.2941791-.49432836 1.3231343.01544776.260597-.1719403.4896269-.42985075.5279105-.26328358.035597-.5030597-.1289553-.56350746-.3828359-.9161194-3.867985-1.00007463-6.7137313-1.05582089-8.5976865-.03358209-1.172015-.06649254-2.2795523-.34455224-2.4165672-.15917911-.0785821-.28007463-.1020895-.36873135-.1020895m6.56597015 28.9450746c-.13701492 0-.27201492-.0564179-.36873134-.1618657-.11686567-.1262686-11.62679105-12.7766418-8.02276119-27.7347761.01947761-.1168657.27134328-1.4386567 1.17873134-1.9014179.30492537-.1544776.80597015-.2706717 1.46082089.0517164.8227612.405.85164179 1.4299254.90671642 3.2910448.045 1.5320149.10880597 3.7148507.64343284 6.5747015.13634328-.1336568.28141791-.2323881.42044776-.3062687.81402985-.431194 1.56291045-.5238806 2.22649254-.2747015.96313432.3606717 1.34059701 1.3184329 1.35537313 1.3580597 1.91014929 4.4207463 2.68186569 4.9815672 3.57514929 5.6323881 1.1196268.8147015 2.3876865 1.7382089 5.641791 8.9435821.0550746.1222388.0597761.2612686.0120896.386194-.0483582.125597-.1437314.2270149-.2659702.2814179l-8.55738805 3.815597c-.06716418.0295523-.13701492.0443284-.20619403.0443284" fill="#ee3124"></path><path d="m8.4716194 31.6098134c-.16925373 0-.33582089-.0852985-.43052239-.2411194-2.07402985-3.3978358-3.16679104-5.9796268-3.24738805-7.6728358-.01343284-.2773881.20149253-.513806.47888059-.5265672.28208955-.0181343.51380597.2008209.52723881.4788806.05037313 1.0470896.62865671 3.1446269 3.10164179 7.1952985.14440298.2377612.06985075.5473881-.16791045.6931344-.0819403.0497015-.17261194.0732089-.2619403.0732089" fill="#ee3124"></path><path d="m18.3687985 35.334 1.1236567 8.289403h-11.90820893l-1.10350746-4.8264179z" fill="#fff"></path><path d="m18.7335 38.0252015-8.3498507 2.4326866c-.68238811.1994776-1.0920896.8959701-.93358214 1.5891044l.36067165 1.5763433h9.68171639z" fill="#fdebea"></path><path d="m7.98588806 43.1195373h10.92962684l-.9671642-7.1388806-10.87052234 3.1681343zm11.50589554 1.0074627h-11.90753733c-.23440299 0-.43858209-.1618657-.49029851-.3908955l-1.1041791-4.8264179c-.05977612-.2592538.09402985-.5211941.34992537-.5957463l11.88805967-3.4643284c.1410448-.0402985.2928359-.0181343.4157463.0617911s.2048507.2095522.2243284.3546269l1.1236567 8.2900746c.0194776.1437313-.0241791.2894776-.1202239.3989552-.0953731.108806-.2337313.1719403-.3794776.1719403z" fill="#ee3124"></path><path d="m30.2668657 20.4989104v-6.4867164l.007388.0026866c.6501493.7737313 1.6589553 1.2371642 2.7718657 1.1276866 1.4836567-.1450747 2.6986567-1.3419403 2.8625373-2.8229105.2142537-1.9336567-1.2935821-3.5697761-3.1842537-3.5697761-.9879851 0-1.8705224.44865671-2.4575373 1.15253731v-9.26395522h-5.9131344c.7038806.58768656 1.1525374 1.46888059 1.1525374 2.45820895 0 1.89-1.6361194 3.39716418-3.5697762 3.18358209-1.4809701-.1638806-2.6778358-1.3788806-2.8229104-2.86253731-.108806-1.11291045.3539552-2.12171642 1.1283582-2.77186567l.0033582-.00738806h-9.8388806v9.26395522c.5870149-.7038806 1.4695522-1.15253731 2.4575373-1.15253731 1.8906717 0 3.3985075 1.6361194 3.1842538 3.5697761-.1638806 1.4809702-1.3788806 2.6778358-2.8625374 2.8229105-1.1129104.1094776-2.1217164-.3539553-2.7718656-1.1276866l-.0073881-.0026866v6.4867164h6.3584328l-.0033582.0067165c-.7750746.6508209-1.2371641 1.6589552-1.1290298 2.7732089.1450746 1.4829851 1.3419403 2.6979851 2.8235821 2.8618657 1.9329851.2142537 3.5697761-1.2942537 3.5697761-3.1842537 0-.9879851-.4486567-1.8705224-1.1525373-2.4575374z" fill="#fff"></path><path d="m32.7244701 8.74974627c-.9886567 0-1.8705223.44865672-2.4575373 1.15253731v-6.36380597h-1.736194c-.961791 0-1.7449254.78044776-1.7449254 1.74358209v9.4157463c0 .9611194-.7777612 1.7395522-1.7388806 1.7395522h-10.0020895c-.9611194 0-1.738209.7811194-1.738209 1.7422388v2.3191791h3.4582836l-.0040298.0067164c-.8489553.7132836-1.3231344 1.8577612-1.08 3.0969403.2397761 1.2291045 1.2244029 2.2311941 2.4508209 2.4857463 2.0706716.4318657 3.8941791-1.1370895 3.8941791-3.1318657 0-.987985-.4493284-1.8705224-1.153209-2.4575373h9.3942537v-6.4867164l.0073881.0026866c.7126119.8489552 1.8564179 1.3231343 3.0962687 1.08 1.2291044-.2404478 2.2305223-1.224403 2.4864179-2.4508209.4318656-2.0713433-1.1370896-3.89417913-3.1325374-3.89417913" fill="#fdebea"></path><path d="m10.9099478 19.9951791h5.8547015c.177985 0 .3432089.0933582.4332089.2464925.0913433.1524627.0947015.3425374.0087314.4983583-.0288806.0544029-.073209.1108208-.1215672.1511194-.6823881.573582-1.0383582 1.4480597-.9510448 2.337985.1208955 1.2378358 1.1431343 2.2741791 2.3769403 2.4105224.7824627.0866418 1.5313433-.151791 2.1109702-.6702985.5722388-.5124627.9-1.2458955.9-2.0129104 0-.8005971-.3539553-1.5561941-.9718657-2.0713433-.1625373-.1356717-.2229851-.3586567-.1511194-.5581344.0725373-.1994776.2619403-.331791.4735074-.331791h8.8905224v-5.9829851c0-.1605224.0765672-.3123134.2061941-.4070149.1296268-.0953731.2968656-.1215672.4506716-.073209.0906716.0288806.1779851.0852986.2397761.1585075.5735821.6823881 1.449403 1.0403731 2.3379851.9503731 1.2378358-.1208955 2.2735075-1.1431343 2.4105224-2.3769403.0866418-.7811194-.1517911-1.5313432-.6702985-2.1102985-.5131343-.57223877-1.2458955-.89999996-2.0135821-.89999996-.800597 0-1.5555224.35395522-2.0706716.97119406-.1356717.1632089-.3586568.2236567-.5581344.1511194s-.3324627-.2619403-.3324627-.47350749v-8.76022388h-4.310597c.3613433.57962687.5574627 1.25395522.5574627 1.95447761 0 1.05246269-.45 2.05925373-1.2344776 2.76246269-.7844776.70186567-1.8396269 1.03768657-2.8941045.92216418-1.7254477-.19074627-3.0996268-1.58440299-3.2695522-3.31455224-.0799254-.82544776.1168657-1.64014926.5413433-2.32455224h-8.2430597v7.66208955c.5802985-.36134328 1.2546268-.55813433 1.9544776-.55813433 1.0531343 0 2.060597.45067165 2.7624627 1.23514926.7025373.78447759 1.0383582 1.83895519.9221641 2.89343279-.1914179 1.7254478-1.5850746 3.1002986-3.3145522 3.2688806-.8247761.0792538-1.6394776-.1155223-2.3245522-.5413432zm7.9025373 6.669403c-.137015 0-.2747015-.0080597-.4117164-.0228358-1.7254478-.1914179-3.1002986-1.5857463-3.2688806-3.3145523-.0805971-.8254477.1155223-1.6394776.5406716-2.3245522h-5.2663433c-.2780597 0-.50373133-.2256717-.50373133-.5037314v-6.4867164c0-.1605224.07723881-.3123134.20619403-.4070149.1296269-.0953731.2968657-.1215672.4506716-.073209.0906717.0288806.1786568.0852986.2397762.1585075.5735821.6823881 1.4480597 1.0403731 2.337985.9503731 1.2378359-.1208955 2.2741791-1.1431343 2.4105224-2.3769403.0866418-.7811194-.151791-1.5313432-.6702985-2.1102985-.5124627-.57223877-1.2458955-.89999996-2.0129104-.89999996-.8012687 0-1.5561941.35395522-2.0713433.97119406-.1356717.1632089-.3586567.2236567-.5581343.1511194-.1994777-.0725373-.33246273-.2619403-.33246273-.47350749v-9.26395522c0-.2780597.22567163-.50373135.50373133-.50373135h9.8388806c.1746269 0 .3371642.09.4291791.23843284.0913433.14910448.1000746.33447761.0214926.49097015-.0308956.0611194-.0772388.12291045-.1296269.16791045-.6823881.57291044-1.0376866 1.44671641-.9510448 2.33731343.1208955 1.23716418 1.1424627 2.2741791 2.3769403 2.40985075.7804478.08798507 1.5313433-.15111941 2.1109702-.67029851.5722388-.51179105.8993283-1.24589552.8993283-2.01223881 0-.8019403-.3539552-1.55619403-.971194-2.07134328-.1625373-.13567164-.2229851-.35865672-.1511194-.55813433.0725373-.19947761.2612686-.33246269.4735075-.33246269h5.9131343c.2780597 0 .5037313.22567165.5037313.50373135v8.16582089c.5802985-.36134328 1.2539552-.55813433 1.953806-.55813433 1.053806 0 2.060597.45067165 2.763806 1.23514926.7025373.78447759 1.0383582 1.83895519.9214925 2.89343279-.1907463 1.7254478-1.5850746 3.1002986-3.3138806 3.2688806-.8241045.0792538-1.6408209-.1155223-2.3252239-.5413432v5.3966417c0 .1336568-.0530597.2619403-.1477612.3559702-.0940298.0947015-.2223134.1477612-.3559701.1477612h-8.2947761c.3606716.5796269.5574626 1.2539552.5574626 1.953806 0 1.0531343-.4506716 2.060597-1.2351492 2.7631343-.6823881.6105224-1.5689552.945-2.4817164.945z" fill="#ee3124"></path></g></svg> 