<?xml version="1.0" encoding="UTF-8"?> <svg xmlns="http://www.w3.org/2000/svg" height="45" viewBox="0 0 45 45" width="45"><g fill="none" fill-rule="evenodd"><path d="m34.8136419 11.7060811h-29.18858109v-4.86486488c0-.67135136.54486487-1.21621622 1.21621622-1.21621622h26.75614867c.6713513 0 1.2162162.54486486 1.2162162 1.21621622z" fill="#ee3124" fill-opacity=".103338"></path><path d="m29.3400608 11.7060811h-23.71499999v-4.25675678h22.49878379c.6713513 0 1.2162162.54486487 1.2162162 1.21621622z" fill="#fff"></path><path d="m6.08138514 11.25h28.27641896v-4.40878378c0-.41898649-.3411487-.76013514-.7601352-.76013514h-26.75614863c-.41898649 0-.76013513.34114865-.76013513.76013514zm28.73249996.9121622h-29.18858105c-.25175675 0-.45608108-.2043244-.45608108-.4560811v-4.86486488c0-.9225.7497973-1.6722973 1.6722973-1.6722973h26.75614863c.9218919 0 1.6722973.7497973 1.6722973 1.6722973v4.86486488c0 .2517567-.2043243.4560811-.4560811.4560811z" fill="#ee3124"></path><path d="m34.8136419 11.7060811h-29.1891892v31.6216216c0 .6713514.54425676 1.2162162 1.21621622 1.2162162h26.75675678c.6713513 0 1.2162162-.5448648 1.2162162-1.2162162z" fill="#ee3124" fill-opacity=".098995"></path><path d="m29.9481689 14.1385135h-24.32432431v30.4054054h25.54054051v-29.1891892c0-.6713513-.5442567-1.2162162-1.2162162-1.2162162" fill="#fff"></path><path d="m6.08022973 12.1621622v31.1655405c0 .4189865.34114865.7601351.76013513.7601351h26.75675674c.4195946 0 .7601352-.3411486.7601352-.7601351v-31.1655405zm27.51689187 32.8378378h-26.75675674c-.92189189 0-1.67229729-.7497973-1.67229729-1.6722973v-31.6216216c0-.2517568.20432432-.4560811.45608108-.4560811h29.18918915c.2523649 0 .4560811.2043243.4560811.4560811v31.6216216c0 .9225-.7497973 1.6722973-1.6722973 1.6722973z" fill="#ee3124"></path><path d="m43.3277027 17.1790541h-30.4054054c-.6713514 0-1.2162162.5448648-1.2162162 1.2162162v19.4594594c0 .6713514.5448648 1.2162162 1.2162162 1.2162162h30.4054054c.6713514 0 1.2162162-.5448648 1.2162162-1.2162162v-19.4594594c0-.6713514-.5448648-1.2162162-1.2162162-1.2162162" fill="#ee3124" fill-opacity=".10383"></path><path d="m41.5030743 19.0033784h-29.7972973v18.8513513c0 .6713514.5448649 1.2162162 1.2162162 1.2162162h29.1891892v-19.4594594c0-.3362838-.2724324-.6081081-.6081081-.6081081" fill="#fff"></path><path d="m12.9222973 17.6351351c-.4189865 0-.7601351.3411487-.7601351.7601352v19.4594594c0 .4189865.3411486.7601352.7601351.7601352h30.4054054c.4189865 0 .7601351-.3411487.7601351-.7601352v-19.4594594c0-.4189865-.3411486-.7601352-.7601351-.7601352zm30.4054054 21.8918919h-30.4054054c-.9225 0-1.6722973-.7497973-1.6722973-1.6722973v-19.4594594c0-.9225.7497973-1.6722973 1.6722973-1.6722973h30.4054054c.9225 0 1.6722973.7497973 1.6722973 1.6722973v19.4594594c0 .9225-.7497973 1.6722973-1.6722973 1.6722973z" fill="#ee3124"></path><path d="m44.5439189 19.4868243-6.6885811 5.0673649-7.9072297-2.7638514-4.8636486 5.1829054-6.6897973-1.3317567-6.6885811 6.9062838v5.3069594c0 .6719595.5448648 1.2162162 1.2162162 1.2162162h30.4054054c.6719595 0 1.2162162-.5442567 1.2162162-1.2162162z" fill="#fff"></path><path d="m44.5439189 19.4868243-6.6885811 5.0673649-7.9072297-2.7638514-4.8636486 5.1829054-6.6897973-1.3317567-6.6885811 6.9062838v2.4123648l5.6189189-5.8013513c.2876351-.2967568.7060135-.4275 1.1110135-.3466216l5.3787162 1.0702702c.4116892.0814865.8367568-.0547297 1.1237838-.3612162l3.8602703-4.1132432c.3289865-.3508784.8337162-.4743244 1.287973-.3156081l6.5444594 2.2870946c.3849324.1343919.8112162.0675 1.135946-.1781757l3.3689189-2.5528379c.4007432-.3034459.9754054-.0176351.9754054.4846622v13.9378378h1.2162162c.6719595 0 1.2162162-.5442567 1.2162162-1.2162162z" fill="#ee3124" fill-opacity=".100033"></path><path d="m12.1621622 32.7321486v5.1227028c0 .4189864.3411486.7601351.7601351.7601351h30.4054054c.4195946 0 .7601351-.3411487.7601351-.7601351v-17.4496622l-5.957027 4.5121622c-.1222297.0924324-.2821622.1179729-.4262838.0675l-7.6268919-2.665946-4.6605405 4.9664189c-.107027.1143243-.2663514.1654054-.4214189.135l-6.4465541-1.2831081zm31.1655405 6.795h-30.4054054c-.9225 0-1.6722973-.7504054-1.6722973-1.6722972v-5.3075676c0-.117973.0462162-.2322973.1283108-.3168243l6.6885811-6.9062838c.1076351-.1112838.2639189-.1605406.416554-.1301352l6.4416892 1.2825 4.6903379-4.9986486c.1234459-.1313514.3131756-.1781757.4834459-.117973l7.6761487 2.682973 6.4933783-4.9189865c.1380406-.1045946.3229055-.1222297.4785811-.045.1550676.0772297.252973.2353378.252973.4086487v18.3672973c0 .9218918-.7497973 1.6722972-1.6722973 1.6722972z" fill="#ee3124"></path><path d="m44.5439189 31.7736486-6.6192567-2.7869594-5.2181757 3.6480405-6.558446-2.0772973-4.5498648 3.8000676-5.5544595-1.6084459-4.3376351 4.2567567v.8489189c0 .6713514.5448648 1.2162162 1.2162162 1.2162162h30.4054054c.6719595 0 1.2162162-.5448648 1.2162162-1.2162162z" fill="#fff"></path><path d="m44.5439189 31.7736486-6.6192567-2.7869594-5.2181757 3.6480405-6.558446-2.0772973-4.5498648 3.8000676-5.5544595-1.6084459-4.3376351 4.2567567v.8489189c0 .2815541.0997297.5369595.2596621.7431081l2.3545946-2.3102027c.3131757-.3077027.7680406-.422027 1.1900676-.2997973l4.2500676 1.2308108c.3885811.1125.8075675.0243244 1.1177027-.2353378l3.5422297-2.9578378c.3186487-.2657433.7510135-.3514865 1.1468919-.2262162l5.3507432 1.6954054c.3606081.1143243.7540541.0541216 1.0641892-.1623649l4.1758784-2.9201351c.3423649-.2395946.7838514-.286419 1.1687838-.1240541l3.6681081 1.5445946c.6762162.2845946 1.1164865.9468243 1.1164865 1.6808108v3.5574324h1.2162162c.6719595 0 1.2162162-.5448648 1.2162162-1.2162162z" fill="#ee3124" fill-opacity=".103229"></path><path d="m12.1621622 37.1973649v.6573648c0 .4195946.3411486.7601352.7601351.7601352h30.4054054c.4195946 0 .7601351-.3405406.7601351-.7601352v-5.7782432l-6.1078378-2.5716892-5.0126351 3.5039189c-.1161487.0820946-.2633108.1045946-.398919.0614189l-6.3194594-2.0025-4.3583108 3.6395271c-.1167568.0972973-.2742568.129527-.4189865.0887837l-5.298446-1.5342567zm31.1655405 2.3296621h-30.4054054c-.9225 0-1.6722973-.7497973-1.6722973-1.6722973v-.8483108c0-.1228378.0492568-.2402027.1368243-.3259459l4.3376352-4.2567568c.1173648-.1155405.2882432-.1581081.4463513-.1125l5.320946 1.540946 4.3637837-3.6443919c.1197973-.0997298.2815541-.1313514.4305406-.0851352l6.3431757 2.0097973 5.034527-3.5191216c.1283108-.0912162.2931081-.107027.4378378-.0468243l6.6192568 2.7869594c.169054.0711487.2791216.2365541.2791216.4202027v6.0810811c0 .9225-.7497973 1.6722973-1.6722973 1.6722973z" fill="#ee3124"></path><path d="m39.4451149 28.9866892c0 .8397973-.6810811 1.5202703-1.5202703 1.5202703-.8397973 0-1.5202703-.680473-1.5202703-1.5202703s.680473-1.5202703 1.5202703-1.5202703c.8391892 0 1.5202703.680473 1.5202703 1.5202703" fill="#fff"></path><path d="m37.9248446 27.9225c-.5868243 0-1.0641892.4773649-1.0641892 1.0641892s.4773649 1.0641892 1.0641892 1.0641892 1.0641892-.4773649 1.0641892-1.0641892-.4773649-1.0641892-1.0641892-1.0641892m0 3.0405405c-1.0897297 0-1.9763514-.8866216-1.9763514-1.9763513s.8866217-1.9763514 1.9763514-1.9763514 1.9763513.8866217 1.9763513 1.9763514-.8866216 1.9763513-1.9763513 1.9763513" fill="#ee3124"></path><path d="m27.6683716 30.5574324c0 .8397973-.680473 1.5202703-1.5202702 1.5202703-.8391892 0-1.5202703-.680473-1.5202703-1.5202703s.6810811-1.5202702 1.5202703-1.5202702c.8397972 0 1.5202702.6804729 1.5202702 1.5202702" fill="#fff"></path><path d="m26.1481014 29.4932432c-.5868244 0-1.0641892.4773649-1.0641892 1.0641892 0 .5868244.4773648 1.0641892 1.0641892 1.0641892.5868243 0 1.0641891-.4773648 1.0641891-1.0641892 0-.5868243-.4773648-1.0641892-1.0641891-1.0641892m0 3.0405406c-1.0897298 0-1.9763514-.8866216-1.9763514-1.9763514 0-1.0897297.8866216-1.9763513 1.9763514-1.9763513 1.0897297 0 1.9763513.8866216 1.9763513 1.9763513 0 1.0897298-.8866216 1.9763514-1.9763513 1.9763514" fill="#ee3124"></path><path d="m19.9146892 25.6414865c0 .8397973-.6810811 1.5202703-1.5202703 1.5202703-.8397973 0-1.5202703-.680473-1.5202703-1.5202703s.680473-1.5202703 1.5202703-1.5202703c.8391892 0 1.5202703.680473 1.5202703 1.5202703" fill="#fff"></path><path d="m18.3944189 24.5772973c-.5868243 0-1.0641892.4773649-1.0641892 1.0641892s.4773649 1.0641892 1.0641892 1.0641892 1.0641892-.4773649 1.0641892-1.0641892-.4773649-1.0641892-1.0641892-1.0641892m0 3.0405405c-1.0897297 0-1.9763513-.8866216-1.9763513-1.9763513s.8866216-1.9763514 1.9763513-1.9763514 1.9763514.8866217 1.9763514 1.9763514-.8866217 1.9763513-1.9763514 1.9763513" fill="#ee3124"></path><path d="m31.4684392 21.7903378c0 .8397973-.680473 1.5202703-1.5202703 1.5202703s-1.5202703-.680473-1.5202703-1.5202703.680473-1.5202702 1.5202703-1.5202702 1.5202703.6804729 1.5202703 1.5202702" fill="#fff"></path><g fill="#ee3124"><path d="m29.9481689 20.7261486c-.5868243 0-1.0641892.4773649-1.0641892 1.0641892 0 .5868244.4773649 1.0641892 1.0641892 1.0641892s1.0641892-.4773648 1.0641892-1.0641892c0-.5868243-.4773649-1.0641892-1.0641892-1.0641892m0 3.0405406c-1.0897297 0-1.9763513-.8866216-1.9763513-1.9763514 0-1.0897297.8866216-1.9763513 1.9763513-1.9763513s1.9763514.8866216 1.9763514 1.9763513c0 1.0897298-.8866217 1.9763514-1.9763514 1.9763514"></path><path d="m37.9248446 39.527027c-.2517568 0-.4560811-.2043243-.4560811-.4560811v-8.5639864c0-.2517568.2043243-.4560811.4560811-.4560811s.4560811.2043243.4560811.4560811v8.5639864c0 .2517568-.2043243.4560811-.4560811.4560811"></path><path d="m29.9481689 39.527027c-.2517567 0-.4560811-.2043243-.4560811-.4560811v-15.7603378c0-.2517567.2043244-.4560811.4560811-.4560811.2517568 0 .4560811.2043244.4560811.4560811v15.7603378c0 .2517568-.2043243.4560811-.4560811.4560811"></path><path d="m26.1481014 39.527027c-.2517568 0-.4560811-.2043243-.4560811-.4560811v-6.9932432c0-.2517568.2043243-.4560811.4560811-.4560811.2517567 0 .456081.2043243.456081.4560811v6.9932432c0 .2517568-.2043243.4560811-.456081.4560811"></path><path d="m18.3944189 39.527027c-.2517567 0-.4560811-.2043243-.4560811-.4560811v-11.9091891c0-.2517568.2043244-.4560811.4560811-.4560811.2517568 0 .4560811.2043243.4560811.4560811v11.9091891c0 .2517568-.2043243.4560811-.4560811.4560811"></path></g></g></svg> 