<?xml version="1.0" encoding="UTF-8"?> <svg xmlns="http://www.w3.org/2000/svg" height="64" viewBox="0 0 64 64" width="64"><g fill="none" fill-rule="evenodd"><path d="m0 0h64v64h-64z" fill="#fff" opacity="0"></path><g fill="#1198eb" fill-rule="nonzero" transform="translate(7 6)"><path d="m36.1648 43.5005333c-1.7429333 0-3.5541333-.736-4.8981333-2.0821333l-6.7541334-6.7541333c-1.3184-1.3184-2.0714666-3.1104-2.0651071-4.9173334.0064405-1.6768.6507071-3.232 1.8133738-4.3754666 1.1733333-1.2117334 2.7989333-1.8688 4.6186667-1.7856 1.7749333.0896 3.4218666.8192 4.6592 2.0544l.6570666.6570666-2.2144 2.3104-.7061333-.7061333c-.6741333-.6741333-1.5765333-1.0709333-2.5365333-1.12-.8469334-.0469333-1.6448.2666667-2.2037334.8426667-.576.5674666-.8810666 1.3184-.8853333 2.1354666-.0021333.96.4074667 1.9221334 1.1264 2.6410667l6.7541333 6.7541333c.928.9258667 2.2293334 1.3269334 3.3984 1.0453334.0192-.0064.2773334-.0853334.2986667-.0896.2048-.0661334.4288-.1749334.6506667-.3136.7488-.4693334 1.7344-.2432 2.2058666.5056.4693334.7488.2432 1.7365333-.5056 2.2058666-.448.2816-.9066666.4992-1.3632.6464-.1792.0682667-.4224.1450667-.6634666.1813334-.4501334.1109333-.9152.1642666-1.3866667.1642666z"></path><path d="m44.024 51.2914667c-1.7984 0-3.5797333-.7509334-4.8917333-2.0650667l-.6570667-.6570667c-.6250667-.6229333-.6250667-1.6384-.0021333-2.2634666.6250666-.6272 1.6384-.6250667 2.2634666-.0021334l.6592.6570667c.7168.7168 1.6768 1.1285333 2.6304 1.1285333h.0128c.8170667-.0021333 1.5658667-.3093333 2.1056-.8576.5674667-.5589333.8725334-1.3077333.8768-2.1269333.0021334-.9578667-.4074666-1.9221333-1.1264-2.6410667l-6.7541333-6.7562666c-.6848-.6826667-1.5808-1.0858667-2.5237333-1.1349334-.1685334-.0042666-.3264 0-.4608.0234667-.0810667.0213333-.1621334.0362667-.2474667.0448-.1834667.0192-.3413333.0576-.4885333.1216-.0725334.0426667-.1493334.0789333-.224.1066667-.1344.0490666-.2197334.0917333-.2922667.1450666-.7104.5205334-1.7130667.3690667-2.2357333-.3456-.5226667-.7125333-.3669334-1.7130666.3456-2.2357333.2709333-.1984.5632-.3605333.9045333-.5013333.0064-.0021334.0128-.0064.0213333-.0106667.4736-.2325333.9728-.3818667 1.5168-.4501333.0042667 0 .0085334-.0021334.0128-.0021334.3925334-.0810666.8234667-.1173333 1.2885334-.0938666 1.7578666.0896 3.4005333.8234666 4.6464 2.0672l6.7541333 6.7562666c1.3184 1.3184 2.0714667 3.1104 2.0651071 4.9173334-.0064404 1.6768-.6507071 3.232-1.8133738 4.3754666-1.1264 1.1434667-2.6794666 1.7877334-4.3562666 1.7941334-.0128.0064-.0213334.0064-.0298667.0064z"></path><path d="m33.6453333 51.3h-29.88799997c-1.27146666 0-2.43626666-.6421333-3.11253333-1.7152-.6784-1.0773333-.75733333-2.4085333-.20693333-3.5584l20.81920003-43.81653333c.6272-1.30773334 1.9072-2.11413334 3.3429333-2.11413334s2.7157333.8064 3.3408 2.10773334l8.4501333 17.77706663c.3797334.7978667.0405334 1.7514667-.7573333 2.1312-.7957333.3797334-1.7536.0405334-2.1312-.7573333l-8.448-17.77066667c-.2261333-.47146666-.6784-.47786666-.9109333.0064l-20.81920003 43.81013337c-.1024.2176-.02773334.3925333.0256.4778666.064.1002667.18773333.2218667.40746666.2218667h29.88799997c.8832 0 1.6.7168 1.6 1.6s-.7168 1.6-1.6 1.6z"></path><path d="m33.6666667 20.3666667h-18.1333334c-.8832 0-1.6-.7168-1.6-1.6s.7168-1.6 1.6-1.6h18.1333334c.8832 0 1.6.7168 1.6 1.6s-.7168 1.6-1.6 1.6z"></path><path d="m21.0373333 39.5666667h-14.0373333c-.8832 0-1.6-.7168-1.6-1.6s.7168-1.6 1.6-1.6h14.0373333c.8832 0 1.6.7168 1.6 1.6s-.7168 1.6-1.6 1.6z"></path></g></g></svg> 