<?xml version="1.0" encoding="UTF-8"?> <svg xmlns="http://www.w3.org/2000/svg" height="64" viewBox="0 0 64 64" width="64"><g fill="none" fill-rule="evenodd"><path d="m0 0h64v64h-64z" fill="#fff" opacity="0"></path><g fill="#1198eb" fill-rule="nonzero" transform="translate(6 8)"><path d="m24.8106667 28.8192h-9.3226667c-1.8602667 0-3.6032-.7253333-4.9109333-2.0437333-1.3034667-1.312-2.0138667-3.0528-2.0010667-4.9002667-.0256-1.8133333.68693333-3.5562667 2.0053333-4.8746667 1.3546667-1.3248 3.0933334-2.0458666 4.9066667-2.0458666h.96c.8832 0 1.6426667.7168 1.6426667 1.6s-.6741334 1.6-1.5573334 1.6h-1.0453333c-.9749333 0-1.9178667.3989333-2.6581333 1.1221333-.6890667.6869333-1.0666667 1.6106667-1.0538667 2.5856-.0064 1.0218667.3733333 1.9562667 1.0709333 2.6581333.704.7082667 1.6405334 1.0986667 2.6410667 1.0986667h9.3226667c1.3674666 0 2.5856-.7104 3.2576-1.8986667l.1301333-.2538666c.1386667-.2986667.2304-.5802667.2944-.8874667.1813333-.864 1.0325333-1.4144 1.8965333-1.2352.864.1813333 1.4186667 1.0304 1.2352 1.8965333-.1173333.5525334-.2858666 1.0666667-.5013333 1.5253334-.0874667.2048-.1962667.4330666-.3285333.6314666-1.1712 2.0714667-3.4858667 3.4218667-5.984 3.4218667z"></path><path d="m35.712 28.7765333h-.96c-.8832 0-1.6-.7168-1.6-1.6s.7168-1.6 1.6-1.6h.96c1.0005333 0 1.9370667-.3904 2.6410667-1.0986666.6976-.7018667 1.0773333-1.6341334 1.0709333-2.6218667.0064-1.0133333-.3733333-1.9434667-1.0688-2.6453333-.704-.7104-1.6426667-1.0986667-2.6410667-1.0986667h-9.3226666c-.9877334 0-1.9306667.3904-2.6581334 1.1008-.1365333.1365333-.2581333.2816-.3498666.4202667-.0384.0704-.0810667.1386666-.128.2026666-.1386667.1856-.2368.3648-.3072.5589334-.0192.0789333-.0448.1557333-.0725334.2261333-.0746666.1770667-.1109333.3008-.128.4245333-.1258666.8746667-.9429333 1.4784-1.8112 1.3589334-.8746666-.1258667-1.4826666-.9344-1.3589333-1.8112.0512-.3541334.1386667-.6826667.2816-1.0538667.0042667-.0128.0064-.0234667.0106667-.0362667.1685333-.5333333.416-1.0218666.7530666-1.4912.0021334-.0042666.0064-.0106666.0106667-.0170666.224-.3626667.5098667-.7189334.8490667-1.0602667 1.3376-1.3098667 3.0762666-2.0266667 4.9066666-2.0266667h9.3226667c1.8602667 0 3.6032.7253334 4.9130667 2.0437334 1.3034666 1.312 2.0117333 3.0528 1.9991038 4.9002666.0126295 1.824-.6977705 3.5648-1.9991038 4.8768-1.3098667 1.3205334-3.0528 2.048-4.9130667 2.048z"></path><path d="m36.8 51.2c-.4288 0-.8533333-.1706667-1.1690667-.5077333l-7.4666666-8c-.5738667-.6144-.5738667-1.568 0-2.1824l7.4666666-8c.6037334-.6464 1.6149334-.6805334 2.2613334-.0789334.6464.6037334.6805333 1.6149334.0789333 2.2613334l-6.4490667 6.9077333 6.4469334 6.9077333c.6037333.6464.5674666 1.6576-.0789334 2.2613334-.3072.288-.6976.4309333-1.0901333.4309333z"></path><path d="m49.6 43.2h-19.2c-.8832 0-1.6-.7168-1.6-1.6s.7168-1.6 1.6-1.6h19.2c.8832 0 1.6.7168 1.6 1.6s-.7168 1.6-1.6 1.6z"></path><path d="m24.1493333 46.9333333h-18.28266663c-3.23626667 0-5.86666667-2.6304-5.86666667-5.8666666v-35.20000003c0-3.23626667 2.6304-5.86666667 5.86666667-5.86666667h39.46666663c3.2362667 0 5.8666667 2.6304 5.8666667 5.86666667v29.33333333c0 .8832-.7168 1.6-1.6 1.6s-1.6-.7168-1.6-1.6v-29.33333333c0-1.46986667-1.1968-2.66666667-2.6666667-2.66666667h-39.46666663c-1.46986667 0-2.66666667 1.1968-2.66666667 2.66666667v35.20000003c0 1.4698666 1.1968 2.6666666 2.66666667 2.6666666h18.28266663c.8832 0 1.6.7168 1.6 1.6s-.7168 1.6-1.6 1.6z"></path><path d="m49.6 10.6666667h-48c-.8832 0-1.6-.71680003-1.6-1.60000003s.7168-1.6 1.6-1.6h48c.8832 0 1.6.7168 1.6 1.6s-.7168 1.60000003-1.6 1.60000003z"></path></g></g></svg> 