<?xml version="1.0" encoding="UTF-8"?> <svg xmlns="http://www.w3.org/2000/svg" height="42" viewBox="0 0 45 42" width="45"><g fill="#ee3124" fill-rule="evenodd" transform="translate(0 1)"><path d="m34.6386133 10.5951257c-.1223205-.3301658-.2606768-.6603315-.4137017-.98950277l1.4836326-2.45138122-5.3223066-5.32243094-2.4505111 1.48475138c-.3290469-.15314917-.659337-.29138121-.9895027-.41370165l-.6830802-2.77856354h-7.5261878l-.6833287 2.77856354c-.3300415.12232044-.6603315.26055248-.9893785.41370165l-2.4515055-1.4837569-5.32243095 5.32243094 1.48375695 2.45138121c-.1530249.32917127-.2912569.659337-.4137017.9895028l-2.77744475.6822099v3.7630939h6.96132595c0-4.3935911 3.56221-7.95580107 7.9558011-7.95580107 4.3934669 0 7.9558011 3.56220997 7.9558011 7.95580107h6.961326v-3.7630939z" fill-opacity=".098285" stroke="#ee3124" stroke-width="1.1"></path><path d="m34.3894779 14.4198771h8c1.4393785 0 2.6104972 1.1709944 2.6104972 2.6104972v1.9889503c0 1.4395027-1.1711187 2.6104972-2.6104972 2.6104972h-1.7086326l-13.7358149 15.568384c-.541616.6134669-.8400829 1.4022099-.8400829 2.2207873v1.561326h-1.2430939v-1.561326c0-1.1238812.4088536-2.2046271 1.1513536-3.0435912l13.0099724-14.7455801h-4.6337017c1.4393785 0 2.6104972-1.1709945 2.6104972-2.6104972v-1.9889503c0-1.4395028-1.1711187-2.6104972-2.6104972-2.6104972zm-14.2513812 25.1423204v1.4181216h-1.2430939v-1.4181216c0-.5872995-.1501827-1.1520369-.4323852-1.6503482.1279358-.255143.2897985-.495477.4824128-.7136435l.3089231-.3489487c.5741112.782828.8841432 1.7241285.8841432 2.7129404zm-5.9867403-17.9323757c-.2696271 0-.5317956.0793094-.7579144.2292265l-1.9818647 1.3211603c-.4296132.286906-.9302071.4385635-1.44795575.4385635h-3.86378453l12.30861248 12.3083039-.3952423.4483259c-.1451905.1640534-.2776234.3373518-.3967363.5184099l-13.27424438-13.2750397h-1.73175414c-.11176597 0-.2219145-.0070603-.33002292-.0207584.40407653-.0474355.78998104-.1899791 1.13112789-.4178051l1.98186464-1.3211603c.22611878-.1499171.48828729-.2292265.75791436-.2292265zm16.8696546-7.5417265.0367956.3317818h-8l-.0367956-.3317818c-.3239307-2.9160444-2.0794248-5.3510401-4.5210213-6.63787538 1.1971523-.63108049 2.5600084-.98614395 3.9999854-.98614395 4.3750691 0 8.0382183 3.27766574 8.5210359 7.62401933z" fill-opacity=".097738"></path><path d="m22.5009696 11.6850704c-1.4080525 0-2.6746409.8987569-3.1517403 2.2365746l-.1776381.4982321h6.6577624l-.1776381-.4982321c-.4770995-1.3378177-1.7433149-2.2365746-3.1507459-2.2365746zm-.0009945-1.2430939c2.1761603 0 4.0715056 1.5475276 4.5065884 3.679558l.0609116.2983426h2.7448757l-.0614088-.4261326c-.5166298-3.5839641-3.6338122-6.28657461-7.2509669-6.28657461s-6.734337 2.70261051-7.2508425 6.28657461l-.0614088.4261326h2.7448756l.0609116-.2983426c.4349586-2.1321547 2.3301796-3.679558 4.5064641-3.679558zm-19.88950272 5.2209945c-.75393647 0-1.36740332.6134668-1.36740332 1.3674033v3.9779006c0 .7539364.61346685 1.3674033 1.36740332 1.3674033h7.35414364c.27049728 0 .53254148-.0794337.75791438-.2298481l1.9808702-1.3205387c.4296132-.286906.9302071-.4385635 1.4479558-.4385635h28.2381215c.7540608 0 1.3674033-.6134669 1.3674033-1.3674033v-1.9889503c0-.7539365-.6133425-1.3674033-1.3674033-1.3674033zm22.25138122 25.3173481v-1.561326c0-1.1238812.4088536-2.2046271 1.1513536-3.0435912l13.0099724-14.7455801h-24.8718232c-.2696271 0-.5317956.0793094-.7579144.2292265l-1.9818647 1.3211603c-.4296132.286906-.9302071.4385635-1.44795575.4385635h-3.86378453l12.69062158 12.6906215c.8690469.869047 1.3476381 2.0242542 1.3476381 3.2528039v1.4181216h-1.2430939v-1.4181216c0-.8955248-.3491851-1.7385911-.983163-2.3736878l-13.56961328-13.5697376h-1.73175414c-1.43937846 0-2.61049724-1.1709945-2.61049724-2.6104972v-3.9779006c0-1.4395028 1.17111878-2.6104972 2.61049724-2.6104972h11.33167122l.0369199-.3317818c.4826934-4.34635359 4.1458426-7.62401933 8.5209116-7.62401933 4.3750691 0 8.0382183 3.27766574 8.5210359 7.62401933l.0367956.3317818h11.3316713c1.4393785 0 2.6104972 1.1709944 2.6104972 2.6104972v1.9889503c0 1.4395027-1.1711187 2.6104972-2.6104972 2.6104972h-1.7086326l-13.7358149 15.568384c-.541616.6134669-.8400829 1.4022099-.8400829 2.2207873v1.561326z"></path></g></svg> 