<?xml version="1.0" encoding="UTF-8"?> <svg xmlns="http://www.w3.org/2000/svg" height="44" viewBox="0 0 45 44" width="45"><g fill="none" fill-rule="evenodd"><path d="m39.5127537 7.21887313h-38.95522385v-5.37313432c0-.74149254.60179105-1.34328359 1.34328358-1.34328359h36.26865667c.7414926 0 1.3432836.60179105 1.3432836 1.34328359z" fill="#fdebea"></path><path d="m31.4524478 5.20394776h-30.89619407v-3.35820895c0-.74149254.60179105-1.34328359 1.34328358-1.34328359h34.25440299c0 2.59656717-2.1049254 4.70149254-4.7014925 4.70149254" fill="#fff"></path><path d="m1.06126119 6.71514179h37.94776121v-4.86940298c0-.4627612-.3767911-.83955224-.8395523-.83955224h-36.26865667c-.46276119 0-.83955224.37679104-.83955224.83955224zm38.45149251 1.00746269h-38.95522385c-.2780597 0-.50373134-.22567164-.50373134-.50373135v-5.37313432c0-1.01820896.82813433-1.84701493 1.84701492-1.84701493h36.26865667c1.0188806 0 1.847015.82880597 1.847015 1.84701493v5.37313432c0 .27805971-.2256717.50373135-.5037314.50373135z" fill="#ee3124"></path><path d="m39.5127537 7.21887313h-38.95656713v34.92537317c0 .7421641.60179104 1.3432836 1.34328358 1.3432836h36.26999995c.7414926 0 1.3432836-.6011195 1.3432836-1.3432836z" fill="#fdebea"></path><path d="m36.1539403 7.21887313h-35.59768657v34.25373137h34.25440297c.7414926 0 1.3432836-.6011194 1.3432836-1.3432836z" fill="#fff"></path><path d="m1.05998507 7.72260448v34.42164182c0 .4627612.37679105.8395522.83955224.8395522h36.26999999c.4627612 0 .8395523-.376791.8395523-.8395522v-34.42164182zm37.10955223 36.26865672h-36.26999999c-1.01888059 0-1.84701492-.8274627-1.84701492-1.8470149v-34.92537317c0-.2780597.22567164-.50373134.50373134-.50373134h38.95656717c.2780597 0 .5037313.22567164.5037313.50373134v34.92537317c0 1.0195522-.8281343 1.8470149-1.8470149 1.8470149z" fill="#ee3124"></path><path d="m34.8106567 21.8264776h-1.0074627c-.2780597 0-.5037313-.2256716-.5037313-.5037313s.2256716-.5037314.5037313-.5037314h.5037314v-.5037313c0-.2780597.2256716-.5037314.5037313-.5037314s.5037314.2256717.5037314.5037314v1.0074627c0 .2780597-.2256717.5037313-.5037314.5037313" fill="#21365f"></path><path d="m34.8106567 17.9776343c-.2780597 0-.5037313-.2256716-.5037313-.5037313v-1.7046269c0-.2780597.2256716-.5037313.5037313-.5037313s.5037314.2256716.5037314.5037313v1.7046269c0 .2780597-.2256717.5037313-.5037314.5037313" fill="#21365f"></path><g transform="translate(13.486634 14.103201)"><path d="m29.3843284.50373134h-28.20895527c-.37074626 0-.67164179.30022388-.67164179.67164179v8.0597015c0 .37074627.30089553.67164179.67164179.67164179h28.20895527c.3714179 0 .6716417-.30089552.6716417-.67164179v-8.0597015c0-.37141791-.3002238-.67164179-.6716417-.67164179" fill="#fdebea"></path><path d="m28.0410448.50373134h-26.86567167c-.37074626 0-.67164179.30022388-.67164179.67164179v6.71641791h26.86567166c.3707463 0 .6716418-.30089552.6716418-.67164179z" fill="#fff"></path><g fill="#ee3124"><path d="m1.17537313 1.00746269c-.09268656 0-.16791044.07455224-.16791044.16791044v8.0597015c0 .09201492.07522388.16791044.16791044.16791044h28.20895527c.0926865 0 .1679104-.07589552.1679104-.16791044v-8.0597015c0-.0933582-.0752239-.16791044-.1679104-.16791044zm28.20895527 9.40298511h-28.20895527c-.64813432 0-1.17537313-.52723884-1.17537313-1.17537317v-8.0597015c0-.64813432.52723881-1.17537313 1.17537313-1.17537313h28.20895527c.6481343 0 1.1753731.52723881 1.1753731 1.17537313v8.0597015c0 .64813433-.5272388 1.17537317-1.1753731 1.17537317z"></path><path d="m3.19029851 3.02238806c-.09268657 0-.16791045.07455224-.16791045.16791045v2.01492537c0 .09201493.07522388.16791045.16791045.16791045h2.01492537c.09268657 0 .16791045-.07589552.16791045-.16791045v-2.01492537c0-.09335821-.07522388-.16791045-.16791045-.16791045zm0 3.35820895c-.64813433 0-1.17537314-.5272388-1.17537314-1.17537313v-2.01492537c0-.64813433.52723881-1.17537314 1.17537314-1.17537314h2.01492537c.64813433 0 1.17537313.52723881 1.17537313 1.17537314v2.01492537c0 .64813433-.5272388 1.17537313-1.17537313 1.17537313z"></path><path d="m7.83799254 3.69530597c-.2780597 0-.50373135-.22567164-.50373135-.50373134s.22567165-.50373135.50373135-.50373135h6.77021646c.2780597 0 .5037313.22567165.5037313.50373135s-.2256716.50373134-.5037313.50373134z"></path><path d="m7.83799254 7.72515672c-.2780597 0-.50373135-.22567165-.50373135-.50373135s.22567165-.50373134.50373135-.50373134h12.14335076c.2780597 0 .5037313.22567164.5037313.50373134s-.2256716.50373135-.5037313.50373135z"></path><path d="m7.83799254 5.71023134c-.2780597 0-.50373135-.22567164-.50373135-.50373134s.22567165-.50373134.50373135-.50373134h16.84685816c.2780597 0 .5037314.22567164.5037314.50373134s-.2256717.50373134-.5037314.50373134z"></path></g></g><g transform="translate(13.486634 27.537313)"><path d="m29.3843284.50373134h-28.20895527c-.37074626 0-.67164179.30022388-.67164179.67164179v8.0597015c0 .37074627.30089553.67164179.67164179.67164179h28.20895527c.3714179 0 .6716417-.30089552.6716417-.67164179v-8.0597015c0-.37141791-.3002238-.67164179-.6716417-.67164179" fill="#fdebea"></path><path d="m28.0410448.50373134h-26.86567167c-.37074626 0-.67164179.30022388-.67164179.67164179v6.71641791h26.86567166c.3707463 0 .6716418-.30089552.6716418-.67164179z" fill="#fff"></path><g fill="#ee3124"><path d="m1.17537313 1.00746269c-.09268656 0-.16791044.07455224-.16791044.16791044v8.0597015c0 .09201492.07522388.16791044.16791044.16791044h28.20895527c.0926865 0 .1679104-.07589552.1679104-.16791044v-8.0597015c0-.0933582-.0752239-.16791044-.1679104-.16791044zm28.20895527 9.40298511h-28.20895527c-.64813432 0-1.17537313-.52723884-1.17537313-1.17537317v-8.0597015c0-.64813432.52723881-1.17537313 1.17537313-1.17537313h28.20895527c.6481343 0 1.1753731.52723881 1.1753731 1.17537313v8.0597015c0 .64813433-.5272388 1.17537317-1.1753731 1.17537317z"></path><path d="m3.19029851 3.02238806c-.09268657 0-.16791045.07455224-.16791045.16791045v2.01492537c0 .09201493.07522388.16791045.16791045.16791045h2.01492537c.09268657 0 .16791045-.07589552.16791045-.16791045v-2.01492537c0-.09335821-.07522388-.16791045-.16791045-.16791045zm0 3.35820895c-.64813433 0-1.17537314-.5272388-1.17537314-1.17537313v-2.01492537c0-.64813433.52723881-1.17537314 1.17537314-1.17537314h2.01492537c.64813433 0 1.17537313.52723881 1.17537313 1.17537314v2.01492537c0 .64813433-.5272388 1.17537313-1.17537313 1.17537313z"></path><path d="m7.83799254 3.69530597c-.2780597 0-.50373135-.22567164-.50373135-.50373134s.22567165-.50373135.50373135-.50373135h6.77021646c.2780597 0 .5037313.22567165.5037313.50373135s-.2256716.50373134-.5037313.50373134z"></path><path d="m7.83799254 7.72515672c-.2780597 0-.50373135-.22567165-.50373135-.50373135s.22567165-.50373134.50373135-.50373134h12.14335076c.2780597 0 .5037313.22567164.5037313.50373134s-.2256716.50373135-.5037313.50373135z"></path><path d="m7.83799254 5.71023134c-.2780597 0-.50373135-.22567164-.50373135-.50373134s.22567165-.50373134.50373135-.50373134h16.84685816c.2780597 0 .5037314.22567164.5037314.50373134s-.2256717.50373134-.5037314.50373134z"></path></g></g></g></svg> 