<?xml version="1.0" encoding="UTF-8"?> <svg xmlns="http://www.w3.org/2000/svg" height="46" viewBox="0 0 46 46" width="46"><g fill="none" fill-rule="evenodd"><path d="m12.7193451 44.2071761v-3.6576761c0-1.2859859-.8366197-2.0357746-2.1276761-2.0357746-1.49197182 0-5.50838027-.1793662-5.86901407-2.0712677-.44302817-2.3279577.06021127-6.1352112.06021127-6.1352112s-1.87732395-.726338-3.45422535-1.6415493c-1.57183099-.9101409-.56281691-2.333662-.18316902-2.783662 3.04732394-3.6107746 3.53661972-5.9609155 3.53661972-5.9609155 0-8.9898591 7.28746475-16.27732393 16.27669015-16.27732393 8.9898591 0 16.2773239 7.28746483 16.2773239 16.27732393 0 2.9490845-.7846479 5.7156338-2.1561971 8.1019014l.0006338-.003169c-1.3734508 2.3792958-3.1804226 4.9709155-4.0398592 6.8685211-1.2657042 2.7938029-1.3252817 9.3188029-1.3252817 9.3188029z"></path><path d="m37.2362324 19.9208662c0-8.9898592-7.2874648-16.27732395-16.2773239-16.27732395-2.0072536 0-3.9289437.36570423-5.7048592 1.02992958 6.1757746 2.31211268 10.5730986 8.26478877 10.5730986 15.24739437 0 2.9490845-.7852817 5.7162676-2.156831 8.1019014l.0006338-.003169c-1.3734507 2.3792958-3.1804225 4.9709155-4.0398592 6.8685211-1.2657042 2.7938028-1.3252816 9.3188028-1.3252816 9.3188028h11.4097183s.0595774-6.525 1.3252817-9.3188028c.8594366-1.8976056 2.6664084-4.4892253 4.0398591-6.8685211l-.0006338.003169c1.3715493-2.3856338 2.1561972-5.1528169 2.1561972-8.1019014" fill="#fdebea"></path><path d="m13.1946972 41.193507h16.0542253c.0399296-1.5711971.2528874-6.5991549 1.3588733-9.0399295.5552112-1.2257747 1.4716901-2.6949296 2.4420422-4.2496479.5488733-.8790845 1.1161268-1.7892254 1.6187324-2.6594366.0044366-.0076057.0088733-.0145775.0126761-.0209155 1.3607746-2.3748592 2.079507-5.0862676 2.079507-7.8407747 0-8.71288731-7.0884507-15.80197181-15.8019718-15.80197181-8.7128873 0-15.80133804 7.0890845-15.80133804 15.80197181 0 .032324-.00380281.0646479-.01014084.096338-.0209155.1007747-.54887324 2.5111268-3.63866197 6.1713381-.15147888.18-.63950705.8093662-.54570423 1.3493662.04753521.2744366.24528169.5095774.60401408.7174648 1.52683099.8854225 3.36866198 1.6009859 3.38767606 1.6085915.20408451.0792254.32767606.2877465.29915493.5057747-.00507042.0373943-.48802817 3.7597183-.06401408 5.9837324.23704225 1.2435211 3.05746478 1.6852816 5.40190139 1.6852816 1.581338 0 2.6030282.9849296 2.6030282 2.510493zm16.5200704.9507043h-16.9954225c-.2623944 0-.4753521-.2129578-.4753521-.4753521v-3.6576761c0-.9912676-.6021127-1.5597887-1.652324-1.5597887-2.19169013 0-5.92859154-.3194367-6.33612675-2.4572536-.37521126-1.9730281-.10394366-4.8935915.01204226-5.9197183-.62176057-.2554225-1.97429578-.8378873-3.17725352-1.5350704-.60845071-.3523944-.9665493-.8157042-1.06415493-1.3766197-.15464789-.8860563.40753521-1.7119014.75612676-2.1251409 2.69746479-3.1962676 3.34014084-5.3873239 3.42443662-5.7118309.03105633-9.21105637 7.53401406-16.69563384 16.75204226-16.69563384 9.237676 0 16.752676 7.515 16.752676 16.75267604 0 2.9307042-.7675352 5.8132395-2.2195774 8.3389437-.0044366.0082394-.0088733.0152112-.0139437.0228169-.5070422.8771831-1.073662 1.7841549-1.6219014 2.6626056-.9526056 1.5274648-1.8532394 2.9706338-2.3824648 4.1387324-1.2092958 2.6702113-1.2828169 9.0627465-1.2834507 9.1273944-.0019014.2604929-.2142253.4709155-.4753521.4709155z" fill="#ee3124" transform="translate(0 2.537683)"></path><path d="m41.0393662 20.755838c0-6.8697887-5.7523944-12.39591546-12.7033099-12.02450701-6.1694366.32957746-11.175845 5.45260561-11.3748591 11.62774651-.1147183 3.570845 1.3297183 6.7988028 3.7007746 9.0716197 1.3208451 1.2669718 2.0269014 3.0447887 2.0269014 4.8752113v2.2956338h12.6158451v-2.4274648c0-1.8316902.7992254-3.5435916 2.1099296-4.8226057 2.2347887-2.1834507 3.6247183-5.2244366 3.6247183-8.5956338"></path><path d="m28.3360563 8.73088732c-.0507042.00316902-.099507.01267606-.1502112.01521127 3.5771831 2.78366201 5.8810563 7.12647891 5.8810563 12.00992961 0 7.0764084-4.8327465 13.0233803-11.3780282 14.7226056v1.1230986h12.6158451v-2.4274648c0-1.8316901.7992254-3.5435915 2.1099296-4.8232394 2.2347887-2.1828169 3.6247183-5.2238028 3.6247183-8.595 0-6.8697888-5.7523944-12.39591552-12.7033099-12.02514088" fill="#fdebea"></path><path d="m23.1644155 36.1255563h11.6651408v-1.9514788c0-1.9109155.7998592-3.7445071 2.2525352-5.1635916 2.2449296-2.1929577 3.4814789-5.1242958 3.4814789-8.2546479 0-3.207676-1.2821831-6.1890845-3.6107746-8.3959859-2.327324-2.2069014-5.3809859-3.33126759-8.5911972-3.15443661-5.9349296.31753521-10.7340845 5.22380281-10.925493 11.16887321-.1052112 3.2710564 1.1902817 6.4464085 3.5543662 8.7135212 1.3816902 1.3233802 2.1739437 3.2254225 2.1739437 5.2180986zm12.140493.9507043h-12.6158451c-.2623944 0-.4753521-.2129578-.4753521-.4753521v-2.295c0-1.7340846-.6857747-3.3864085-1.8811268-4.532324-2.5580282-2.4528169-3.9606338-5.8892958-3.8465493-9.4297183.2072535-6.435 5.4012676-11.7443662 11.8248592-12.08788733 3.4783098-.18697183 6.7785211 1.02676057 9.2959859 3.41366193 2.52 2.3888029 3.9073943 5.615493 3.9073943 9.0861972 0 3.3889437-1.3379577 6.5623944-3.7679577 8.9347183-1.2676056 1.2390845-1.9660563 2.8305634-1.9660563 4.4835212v2.426831c0 .2623943-.2129578.4753521-.4753521.4753521z" fill="#ee3124"></path><path d="m32.7999296 39.1361197h-7.6056338c-.6997183 0-1.2676057-.5678873-1.2676057-1.2676056v-1.2669718h10.1408451v1.2669718c0 .6997183-.5678873 1.2676056-1.2676056 1.2676056" fill="#fff"></path><path d="m32.7999296 41.6719648h-7.6056338c-.6997183 0-1.2676057-.5678873-1.2676057-1.2676056 0-.6997184.5678874-1.2676057 1.2676057-1.2676057h7.6056338c.6997183 0 1.2676056.5678873 1.2676056 1.2676057 0 .6997183-.5678873 1.2676056-1.2676056 1.2676056" fill="#fff"></path><path d="m32.7999296 39.1361197h-5.0704226c-.7003521 0-1.2676056-.5678873-1.2676056-1.2676056v-1.2669718h7.6056338v1.2669718c0 .6997183-.5678873 1.2676056-1.2676056 1.2676056" fill="#fdebea"></path><path d="m32.7999296 41.6719648h-2.5352113c-.6997183 0-1.2676056-.5678873-1.2676056-1.2676056 0-.6997184.5678873-1.2676057 1.2676056-1.2676057h2.5352113c.6997183 0 1.2676056.5678873 1.2676056 1.2676057 0 .6997183-.5678873 1.2676056-1.2676056 1.2676056" fill="#fdebea"></path><path d="m24.4020423 37.0762606v.7922535c0 .4366901.3555633.7922535.7922535.7922535h7.6056338c.4366901 0 .7922535-.3555634.7922535-.7922535v-.7922535zm8.3978873 2.5352112h-7.6056338c-.9614789 0-1.7429578-.7814788-1.7429578-1.7429577v-1.2676056c0-.2623944.2129578-.4753522.4753521-.4753522h10.1408451c.2623944 0 .4753521.2129578.4753521.4753522v1.2676056c0 .9614789-.7814788 1.7429577-1.7429577 1.7429577z" fill="#ee3124"></path><path d="m25.1939789 39.6121056c-.4366902 0-.7922535.3555634-.7922535.7916198 0 .4366901.3555633.7922535.7922535.7922535h7.6056338c.4373239 0 .7922535-.3555634.7922535-.7922535 0-.4360564-.3549296-.7916198-.7922535-.7916198zm7.6056338 2.5345775h-7.6056338c-.9608451 0-1.7429578-.7814789-1.7429578-1.7429577 0-.9608451.7821127-1.742324 1.7429578-1.742324h7.6056338c.9614788 0 1.7429577.7814789 1.7429577 1.742324 0 .9614788-.7814789 1.7429577-1.7429577 1.7429577z" fill="#ee3124"></path><path d="m32.7999296 44.2071761h-7.6056338c-.6997183 0-1.2676057-.5678874-1.2676057-1.2676057s.5678874-1.2676056 1.2676057-1.2676056h7.6056338c.6997183 0 1.2676056.5678873 1.2676056 1.2676056s-.5678873 1.2676057-1.2676056 1.2676057" fill="#fff"></path><path d="m32.7999296 44.2071761h-3.8028169c-.6997183 0-1.2676057-.5678874-1.2676057-1.2676057s.5678874-1.2676056 1.2676057-1.2676056h3.8028169c.6997183 0 1.2676056.5678873 1.2676056 1.2676056s-.5678873 1.2676057-1.2676056 1.2676057" fill="#fdebea"></path><path d="m25.1939789 42.1466831c-.4366902 0-.7922535.3555634-.7922535.7922535 0 .4366902.3555633.7922535.7922535.7922535h7.6056338c.4373239 0 .7922535-.3555633.7922535-.7922535 0-.4366901-.3549296-.7922535-.7922535-.7922535zm7.6056338 2.5352113h-7.6056338c-.9608451 0-1.7429578-.7814789-1.7429578-1.7429578s.7821127-1.7429577 1.7429578-1.7429577h7.6056338c.9614788 0 1.7429577.7814788 1.7429577 1.7429577s-.7814789 1.7429578-1.7429577 1.7429578z" fill="#ee3124"></path><path d="m37.1251268 22.0939859c.0709859-.4347887.1115493-.8809859.1115493-1.3366901 0-.4550704-.0405634-.9019014-.1115493-1.337324l-2.8039437-.4461972c-.0830282-.2478169-.1857042-.4880281-.3010563-.7206338l1.6675352-2.2969014c-.5216197-.7307746-1.1611268-1.3702817-1.8893662-1.8925352l-2.2975352 1.6688028c-.2319719-.1159859-.4740845-.2186619-.7212676-.3010563l-.446831-2.8052113c-.4347888-.0722535-.8822535-.1096479-1.3366902-.1096479-.4557042 0-.9019014.0373944-1.3360563.1096479l-.446831 2.8052113c-.2484507.0823944-.4892958.1850704-.7206338.2997887l-2.3000704-1.6675352c-.726338.5222535-1.3664789 1.1617606-1.8893662 1.8925352l1.6688028 2.2969014c-.1172535.2326057-.2180282.4728169-.3004225.7206338l-2.8026761.4461972c-.0728873.4354226-.1109155.8822536-.1109155 1.337324 0 .4557042.0380282.9019014.1109155 1.3366901l2.8026761.4455634c.0823943.2497183.183169.4899296.3004225.7206338l-1.6688028 2.2994366c.5228873.7282395 1.1630282 1.3683803 1.8893662 1.8912676l2.3000704-1.6694366c.231338.1191549.4721831.2180282.7206338.3016901l.446831 2.8039437c.4341549.0716197.8803521.1083803 1.3360563.1083803.4544367 0 .9019014-.0367606 1.3366902-.1083803l.446831-2.8039437c.2471831-.0836619.4892957-.1844366.7212676-.3016901l2.2975352 1.6694366c.7282394-.5228873 1.3677465-1.1630281 1.8893662-1.8912676l-1.6675352-2.2994366c.1153521-.2307042.2180281-.4709155.3010563-.7206338z"></path><path d="m27.2129577 26.0831408.4474648 2.8039437c.434155.0716197.8797183.1083803 1.3354226.1083803.4544366 0 .9019014-.0367606 1.3366901-.1083803l.446831-2.8039437c.2478169-.0836619.4892958-.1844366.7212676-.3016901l2.298169 1.6694366c.7276057-.5228873 1.3671127-1.1630281 1.8893662-1.8912676l-1.668169-2.2994366c.1153521-.2307042.2180282-.4709155.3010563-.7206338l2.8039437-.4455634c.0709859-.4341549.1115493-.8809859.1115493-1.3366901 0-.4550704-.0405634-.9019014-.1115493-1.337324l-2.8039437-.4461972c-.0830281-.2478169-.1857042-.4880281-.3010563-.7206338l.6971831-.9595774c-.3321127-.0411972-.6680282-.0684507-1.0115493-.0684507-4.5507042 0-8.2394366 3.6893662-8.2394366 8.2394366 0 .3428873.0278873.6800704.0684507 1.0121831l.957676-.6952817c.2313381.1191549.4721831.2180282.7206338.3016901" fill="#fdebea"></path><path d="m30.7895704 22.5482958c-.99.99-2.5954225.99-3.5854225 0s-.99-2.5954226 0-3.5847888c.99-.9906338 2.5954225-.9906338 3.5854225 0 .99.9893662.99 2.5947888 0 3.5847888" fill="#fff"></path><path d="m30.7895704 22.5482958c.7345775-.7345775.9215493-1.8076057.5659859-2.7164789-.909507-.3561972-1.9819014-.1692254-2.7171126.5653521-.7345775.7352113-.9215493 1.8076056-.5653522 2.7171127.9088733.3555634 1.9819015.1685915 2.7164789-.5659859" fill="#fdebea"></path><g fill="#ee3124"><path d="m28.9967958 18.6959789c-1.1357747 0-2.0598592.9240845-2.0598592 2.0598591 0 1.1357747.9240845 2.0598592 2.0598592 2.0598592 1.1357746 0 2.0598591-.9240845 2.0598591-2.0598592 0-1.1357746-.9240845-2.0598591-2.0598591-2.0598591m0 5.0704225c-1.6599296 0-3.0105634-1.3506338-3.0105634-3.0105634 0-1.6599295 1.3506338-3.0105634 3.0105634-3.0105634s3.0105634 1.3506339 3.0105634 3.0105634c0 1.6599296-1.3506338 3.0105634-3.0105634 3.0105634"></path><path d="m16.2080493 12.9911197c-.0887324 0-.1780986-.0247183-.2579578-.0760563-.2199295-.1426057-.2833098-.4366902-.1407042-.6572535.3371831-.5222536.710493-1.0311972 1.109155-1.5122536.1673239-.2021831.4677464-.2307042.6692957-.0627464.2021831.1673239.2307043.4677464.0627465.6692957-.3745775.4525352-.7257042.9310564-1.0432394 1.4216198-.0906338.1407042-.2433803.2173943-.3992958.2173943"></path><path d="m17.3191056 30.9783803c-.1362676 0-.2712676-.0583099-.3650704-.1711268-2.349507-2.8109155-3.6437324-6.3811267-3.6437324-10.0514789 0-1.954014.3549296-3.8611267 1.0552817-5.6674647.0944366-.2452817.3707747-.3650705.6147887-.2712676.2446479.0944366.3663381.3701408.2712676.6154225-.6572535 1.6954225-.9906338 3.4871831-.9906338 5.3233098 0 3.4485212 1.2156338 6.8019719 3.4225353 9.4430282.1685915.2009155.141338.5007042-.0602113.668662-.0887324.0741549-.1971127.1109155-.3042254.1109155"></path><path d="m28.0741056 28.4656056c.6065493.0728874 1.2378169.0728874 1.8443662 0l.3916902-2.4578873c.0278873-.1749296.1502112-.3194366.318169-.3758451.225-.0754225.4461972-.1679577.6585211-.2750704.1578169-.0798591.3485916-.0640141.4930986.0405634l2.0135916 1.4628169c.4854929-.3821831.9228169-.819507 1.3037323-1.3056338l-1.4615492-2.0161268c-.1045775-.1432394-.1197888-.3327464-.0405634-.4911971.1115493-.2243662.2040845-.4449296.2750704-.6578874.0564084-.1685915.2015493-.2909155.3764789-.3188028l2.4572535-.3910563c.0380282-.311831.0570422-.6211268.0570422-.9221831 0-.3016902-.019014-.6109859-.0570422-.9228169l-2.4572535-.3916902c-.1749296-.0278873-.3200705-.1502112-.3764789-.3188028-.0709859-.2123239-.1609859-.4284507-.2757042-.6604225-.0785916-.1584507-.0627465-.3466902.0411972-.4899296l1.4615492-2.0135915c-.3796478-.485493-.816338-.9228169-1.3037323-1.3056338l-2.0142254 1.4615492c-.1426056.1045775-.3308451.1210564-.4905634.041831-.225-.1115493-.446831-.2040845-.6597887-.2750704-.1679578-.0564084-.2909155-.2009155-.3188028-.3764789l-.3916902-2.4591549c-.6116197-.0735211-1.2333803-.0735211-1.8437324 0l-.3923239 2.4591549c-.0278873.1755634-.1514789.3207043-.3194366.3764789-.2129578.0709859-.4290845.1603521-.6616902.2744366-.1571831.0779578-.3454225.0621127-.4886619-.041831l-2.0148592-1.4609154c-.4873944.3834507-.9240845.8214084-1.3037324 1.3056338l1.4621831 2.0135915c.1052113.1438732.1204225.3340141.0399296.4930986-.1083803.215493-.2002817.4360563-.273169.6559859-.0557747.1685916-.2009155.2921831-.3764789.3200704l-2.4572535.3916902c-.0373944.3054929-.0564085.6147887-.0564085.9228169 0 .3073943.0190141.6160563.0557747.9221831l2.4578873.3910563c.1755634.0278873.3207042.1514789.3764789.3207042.0735211.221831.1654225.4417606.2725352.6521831.0811267.1597183.0659155.350493-.0392958.495l-1.4621831 2.0161268c.3815493.485493.8176056.9228169 1.3037324 1.3056338l2.0148592-1.4634507c.1451408-.1052113.3371831-.1197887.4962676-.0380282.2009155.1026761.4214788.1952113.6547183.273169.1679577.0557747.2909155.2002817.3188028.3758451zm.9221831 1.0052113c-.4778873 0-.9538732-.038662-1.4140141-.1147183-.2015492-.0335916-.3593661-.1926761-.3916901-.3942254l-.4030986-2.5276056c-.0830282-.0323239-.1647887-.0665493-.2446479-.1020422l-2.0712676 1.504014c-.1660563.1197888-.3910563.1204226-.5571127.0006338-.7719718-.555845-1.4438028-1.2289436-1.9977464-2.0002817-.119155-.1660563-.1185212-.3904225.0019014-.5564788l1.5027465-2.0712676c-.0361268-.080493-.0697184-.1616197-.1020423-.2440141l-2.5257042-.401831c-.2015493-.0316901-.36-.189507-.3942254-.3904225-.0773239-.4658451-.1172535-.941831-.1172535-1.4152817s.0399296-.9494366.1172535-1.4159155c.0342254-.2015493.1926761-.3593662.3942254-.3910564l2.526338-.4018309c.0316901-.0817606.0659155-.1635212.1014085-.2440141l-1.5027465-2.0693662c-.1204226-.1654226-.1210564-.389155-.0019014-.5558451.5514084-.7707042 1.2232394-1.4438028 1.9977464-2.0015493.1660564-.1204225.3904226-.1197887.5571127.0006338l2.073169 1.5033803c.0817606-.0367606.1622536-.0703521.2427465-.1014085l.4030986-2.529507c.032324-.2015493.1901409-.3606338.3916901-.3942254.9316902-.1533802 1.8969719-.1533802 2.8280282 0 .2021831.0335916.36.1926761.3916902.3942254l.4030985 2.5301408c.080493.0310564.1616198.0652817.2427465.1014085l2.0719014-1.5033803c.1654226-.1216901.389155-.1223239.5558451-.0019014.7751409.5571127 1.4476056 1.2308451 1.9990141 2.0028169.1191549.1660563.1178873.3897887-.0019014.5552113l-1.5027465 2.0693662c.0367606.0817605.0703521.1628873.1020423.2433803l2.5276056.4024647c.2021831.0316902.3612676.1901409.3942253.392324.0785916.4772535.1178874.9532394.1178874 1.4146479 0 .4614084-.0392958.9367605-.1178874 1.4140141-.0335915.2015493-.1920422.36-.3942253.3916901l-2.5276056.4024648c-.0316902.0804929-.0659155.1616197-.1020423.2427465l1.5027465 2.0719014c.1204225.1660563.1210563.3904225.0019014.555845-.5539437.7732395-1.2264085 1.4463381-1.9990141 2.0015493-.1666901.119155-.3910563.1185212-.5564789-.0019014l-2.07-1.5033802c-.0811267.0348591-.1622535.0690845-.2440141.1014084l-.4030985 2.5282394c-.0316902.2015493-.1895071.3606338-.3916902.3942254-.4607746.0760563-.9367605.1147183-1.4140141.1147183z"></path><path d="m14.4168592 33.2765493h-2.5352113c-.2623944 0-.4753521-.2129578-.4753521-.4753521 0-.2623944.2129577-.4753521.4753521-.4753521h2.5352113c.2623943 0 .4753521.2129577.4753521.4753521 0 .2623943-.2129578.4753521-.4753521.4753521"></path><path d="m13.1492535 34.5441549c-.2623943 0-.4753521-.2129577-.4753521-.4753521v-2.5352113c0-.2623943.2129578-.4753521.4753521-.4753521.2623944 0 .4753521.2129578.4753521.4753521v2.5352113c0 .2623944-.2129577.4753521-.4753521.4753521"></path><path d="m11.881331 13.6267606h-2.53521128c-.26239437 0-.47535211-.2129578-.47535211-.4753521 0-.2623944.21295774-.4753522.47535211-.4753522h2.53521128c.2623944 0 .4753521.2129578.4753521.4753522 0 .2623943-.2129577.4753521-.4753521.4753521"></path><path d="m10.6137254 14.8943662c-.2623944 0-.4753522-.2129577-.4753522-.4753521v-2.5352113c0-.2623943.2129578-.4753521.4753522-.4753521.2623943 0 .4753521.2129578.4753521.4753521v2.5352113c0 .2623944-.2129578.4753521-.4753521.4753521"></path></g></g></svg> 