<?xml version="1.0" encoding="UTF-8"?> <svg xmlns="http://www.w3.org/2000/svg" height="45" viewBox="0 0 45 45" width="45"><g fill="none" fill-rule="evenodd"><path d="m35.2460821.50507463h-28.88059703c-2.96731343 0-5.37313432 2.40582089-5.37313432 5.37313433v36.94029854c0 .3714179.30089552.6716418.67164179.6716418h32.91044776c.3714179 0 .6716418-.3002239.6716418-.6716418z" fill="#fff"></path><path d="m35.2467537 9.90873134c-13.3535821 0-24.1791044 10.82552236-24.1791044 24.17910446v9.4029851h23.5074626c.371418 0 .6716418-.3008955.6716418-.6716418z" fill="#ee3124" fill-opacity=".098339"></path><path d="m6.36615672 1.00880597c-2.68522388 0-4.86940299 2.1841791-4.86940299 4.86940299v36.94029854c0 .0926865.07522388.1679104.16791045.1679104h32.91044772c.0926866 0 .1679105-.0752239.1679105-.1679104v-41.80970153zm28.20895518 42.98507463h-32.91044772c-.64813433 0-1.17537313-.5272388-1.17537313-1.1753731v-36.94029854c0-3.24 2.63619402-5.87686568 5.87686567-5.87686568h28.88059698c.2780597 0 .5037314.22567165.5037314.50373135v42.31343287c0 .6481343-.5272388 1.1753731-1.1753732 1.1753731z" fill="#ee3124"></path><path d="m6.36615672.50507463c2.96731343 0 5.37313428 2.40582089 5.37313428 5.37313433h28.8799254c0-2.96731344-2.4058209-5.37313433-5.3731343-5.37313433z" fill="#fff"></path><path d="m24.5018284.50507463c2.967985 0 5.3731343 2.40582089 5.3731343 5.37313433h10.7442537c0-2.96731344-2.4058209-5.37313433-5.3731343-5.37313433z" fill="#ee3124" fill-opacity=".097383"></path><path d="m12.2213955 5.37447761h27.8684329c-.253209-2.44880597-2.3292538-4.36567164-4.8438806-4.36567164h-25.59223884c1.43059704.96850746 2.41320894 2.55156716 2.56768654 4.36567164m28.3976866 1.00746269h-28.8799254c-.2780597 0-.5037313-.22567164-.5037313-.50373134 0-2.68522389-2.18417913-4.86940299-4.86940301-4.86940299-.2780597 0-.50373135-.22567164-.50373135-.50373134s.22567165-.50373135.50373135-.50373135h28.87992541c3.2406716 0 5.8768656 2.63686568 5.8768656 5.87686568 0 .2780597-.2256716.50373134-.5037313.50373134" fill="#ee3124"></path><path d="m37.7693731 34.5896194-2.6919403 2.6919403-3.3340298-3.3347015 2.6919403-2.6919403z" fill="#fff"></path><path d="m32.1253657 33.9468582 2.9599253 2.9599254 2.3104478-2.3097761-2.960597-2.9599254zm2.9599253 4.1762687c-.1289552 0-.2579104-.0490299-.3559701-.1477612l-3.6725373-3.6725373c-.1967911-.1967911-.1967911-.5151493 0-.7119403l3.022388-3.0223881c.1967911-.196791.5158209-.196791.712612 0l3.6725373 3.6718657c.1961194.196791.1961194.5158209 0 .7126119l-3.0230597 3.0223881c-.0980597.0987313-.2263433.1477612-.3559702.1477612z" fill="#ee3124"></path><path d="m42.5679179 37.6271194-4.4523134 4.4529851-4.3119403-4.3119403 4.4523134-4.4529851z" fill="#fff"></path><path d="m40.993791 39.2019179-2.877985 2.8779851-2.9861194-2.9861194 1.9282835-1.9282836c.5245523-.5245522 1.3748508-.5245522 1.899403 0z" fill="#ee3124" fill-opacity=".100115"></path><path d="m34.5160746 37.768097 3.5993284 3.5986567 3.7410448-3.7397015-3.6-3.5993283zm3.5993284 4.815c-.1289552 0-.2572388-.0490298-.3559702-.1477612l-4.3119403-4.3112686c-.0940298-.0947015-.1477612-.2229851-.1477612-.3559702 0-.1336567.0537314-.2626119.1477612-.3566418l4.4529851-4.4523134c.1967911-.1967911.5158209-.1967911.712612 0l4.3119403 4.3119403c.0940298.0940298.1470895.2229851.1470895.3559701 0 .1329851-.0530597.2619403-.1470895.3559702l-4.4529851 4.4523134c-.0987314.0987314-.2270149.1477612-.3566418.1477612z" fill="#ee3124"></path><path d="m43.3642164 41.3912687-1.4843283 1.4843283c-.8200747.8200746-2.1485821.8200746-2.9686568 0l-.7952238-.7958955 4.4516418-4.4523134.7965671.7952238c.819403.8200747.819403 2.1485821 0 2.9686568" fill="#fff"></path><path d="m42.7850597 40.9931866.4889552.4889552.09-.0906717c.819403-.8200746.819403-2.148582 0-2.9686567l-.7958955-.7958955-4.4523134 4.4529851.7952239.7958955c.0873134.0873134.1826865.1591791.2794029.2276866l2.1109702-2.1102985c.4097015-.4097015 1.0746269-.4097015 1.4836567 0" fill="#fff"></path><path d="m41.8798881 42.875597 1.3936567-1.3936567-.4882836-.4889552c-.4097015-.4097015-1.0739552-.4097015-1.4836567 0l-2.1109702 2.1102985c.819403.5776119 1.9564926.5050746 2.6892538-.2276866" fill="#ee3124" fill-opacity=".097356"></path><path d="m38.8280149 42.0793657.4399254.4399253c.6031343.6024627 1.6542537.6017911 2.2560448 0l1.4843283-1.4843283c.3008956-.3008955.4667911-.7018657.4667911-1.1270149 0-.4264926-.1658955-.8274627-.4667911-1.1283582l-.4399253-.4399254zm1.567612 1.9148507c-.6951493 0-1.3486568-.2706716-1.8396269-.7623134l-.7965672-.7965672c-.0940298-.0940298-.1477612-.2229851-.1477612-.3559701 0-.1329851.0537314-.2619403.1477612-.3559702l4.4529851-4.4523134c.0947015-.0947015.2223134-.1477612.3559702-.1477612.1343283 0 .2619403.0530597.3566418.1477612l.7952238.7958955c.4923135.4909702.7623135 1.1444776.7623135 1.8409702 0 .6944776-.27 1.347985-.7623135 1.8396268l-1.4843283 1.4843284c-.4909702.4916418-1.1444776.7623134-1.8402985.7623134z" fill="#ee3124"></path><path d="m24.0400746 9.9080597c7.5351493 0 13.6430597 6.1085821 13.6430597 13.6430597 0 7.5351493-6.1079104 13.6437313-13.6430597 13.6437313-7.5351492 0-13.6430597-6.108582-13.6430597-13.6437313 0-7.5344776 6.1079105-13.6430597 13.6430597-13.6430597" fill="#fff"></path><path d="m37.6827985 23.5514552c0-2.735597-.8133582-5.2777612-2.1989552-7.4135821-2.1358209-1.3862686-4.6779851-2.1996268-7.4142537-2.1996268-7.5344777 0-13.6423881 6.1085821-13.6423881 13.6437313 0 2.7349254.8133582 5.2770896 2.1989552 7.4129105 2.1358209 1.3869403 4.6779851 2.1996268 7.4135821 2.1996268 7.5351493 0 13.6430597-6.1079104 13.6430597-13.6430597" fill="#ee3124" fill-opacity=".098776"></path><path d="m24.0400746 10.411791c-7.245 0-13.1393283 5.8943284-13.1393283 13.1393284 0 7.2456716 5.8943283 13.14 13.1393283 13.14s13.1393284-5.8943284 13.1393284-13.14c0-7.245-5.8943284-13.1393284-13.1393284-13.1393284m0 27.2867911c-7.8004477 0-14.14679102-6.3463433-14.14679102-14.1474627 0-7.8004478 6.34634332-14.14679104 14.14679102-14.14679104 7.8004478 0 14.1467911 6.34634324 14.1467911 14.14679104 0 7.8011194-6.3463433 14.1474627-14.1467911 14.1474627" fill="#ee3124"></path><path d="m17.3905522 16.9026045c3.6725374-3.673209 9.6259702-3.673209 13.2978359 0 3.6725373 3.6718656 3.6725373 9.6252985 0 13.2978358-3.6718657 3.6718657-9.6252985 3.6718657-13.2978359 0-3.6725373-3.6725373-3.6725373-9.6259702 0-13.2978358" fill="#fff"></path><path d="m30.6882537 30.200306c2.557612-2.557612 3.3279851-6.219403 2.3245523-9.4473135-3.2292538-1.0047761-6.8910448-.2330597-9.4473135 2.3238806-2.5569403 2.5569403-3.3286567 6.2180597-2.3245522 9.4473135 3.2285821 1.0041044 6.8903731.2330597 9.4473134-2.3238806" fill="#ee3124" fill-opacity=".103502"></path><path d="m24.039403 14.6515299c-4.9070149 0-8.8992537 3.9922388-8.8992537 8.8992537 0 4.9076865 3.9922388 8.8992537 8.8992537 8.8992537s8.8992537-3.9915672 8.8992537-8.8992537c0-4.9070149-3.9922388-8.8992537-8.8992537-8.8992537m0 18.8059701c-5.4624627 0-9.9067164-4.4442537-9.9067164-9.9067164s4.4442537-9.9067164 9.9067164-9.9067164 9.9067164 4.4442537 9.9067164 9.9067164-4.4442537 9.9067164-9.9067164 9.9067164" fill="#ee3124"></path><path d="m24.039403 24.0545149c-.0658209 0-.1309702-.0127612-.1934329-.0389552-.187388-.0779104-.3102985-.2612687-.3102985-.4647761v-9.4029851c0-.2780597.2256717-.5037313.5037314-.5037313s.5037313.2256716.5037313.5037313v8.1926866l5.8117164-5.7741045c.1974627-.1947761.5164926-.1954478.712612.0020149s.1947761.5164926-.0026866.712612l-6.6707462 6.6270895c-.0953732.0953731-.2243284.1464179-.3546269.1464179" fill="#ee3124"></path><path d="m12.0731642 37.9491045h-2.68455226c-.2780597 0-.50373134-.2256717-.50373134-.5037314s.22567164-.5037313.50373134-.5037313h2.45350746l11.8155224-13.7196269c.1578358-.1840298.4251492-.2290298.6333582-.1074627l8.1423134 4.7014926c.2411194.1390298.3237314.4466418.1847015.6877612-.1383582.2404477-.4466418.324403-.6884328.1847015l-7.7809702-4.4932836-11.6939552 13.5779104c-.0953731.1114926-.234403.1759702-.3814925.1759702" fill="#ee3124"></path><path d="m20.6818657 23.5507836c0-1.854403 1.5031343-3.3575373 3.3575373-3.3575373s3.3575373 1.5031343 3.3575373 3.3575373c0 1.8550746-1.5031343 3.3582089-3.3575373 3.3582089s-3.3575373-1.5031343-3.3575373-3.3582089" fill="#fff"></path><path d="m27.3969403 23.5507836c0-.2088806-.0248507-.4103732-.0611194-.6091791-.198806-.0362687-.4002985-.0611194-.6098508-.0611194-1.8544029 0-3.3575373 1.5031343-3.3575373 3.3575373 0 .2088806.0248508.4110448.0617911.6091791.1981343.0369403.4002985.061791.6091791.061791 1.854403 0 3.3575373-1.5031343 3.3575373-3.3582089" fill="#ee3124" fill-opacity=".101043"></path><path d="m24.039403 20.6969776c-1.5736567 0-2.853806 1.2801493-2.853806 2.853806 0 1.5743283 1.2801493 2.8544776 2.853806 2.8544776 1.5743283 0 2.8544776-1.2801493 2.8544776-2.8544776 0-1.5736567-1.2801493-2.853806-2.8544776-2.853806m0 6.7157463c-2.1291045 0-3.8612687-1.7328358-3.8612687-3.8619403s1.7321642-3.8612687 3.8612687-3.8612687c2.1297761 0 3.8619403 1.7321642 3.8619403 3.8612687s-1.7321642 3.8619403-3.8619403 3.8619403" fill="#ee3124"></path><path d="m7.3736194 37.4453731c0-.9275373-.75156716-1.6791044-1.67910447-1.6791044-.92753732 0-1.67910448.7515671-1.67910448 1.6791044s.75156716 1.6791045 1.67910448 1.6791045c.92753731 0 1.67910447-.7515672 1.67910447-1.6791045" fill="#fff"></path><path d="m5.69451493 36.27c-.64813433 0-1.17537314.5272388-1.17537314 1.1753731 0 .6481344.52723881 1.1753732 1.17537314 1.1753732.64813432 0 1.17537313-.5272388 1.17537313-1.1753732 0-.6481343-.52723881-1.1753731-1.17537313-1.1753731m0 3.358209c-1.20358209 0-2.18283583-.9799254-2.18283583-2.1828359 0-1.2042537.97925374-2.1828358 2.18283583-2.1828358 1.20358208 0 2.18283582.9785821 2.18283582 2.1828358 0 1.2029105-.97925374 2.1828359-2.18283582 2.1828359" fill="#ee3124"></path><path d="m7.3736194 31.3999925c0-.9275373-.75156716-1.6791044-1.67910447-1.6791044-.92753732 0-1.67910448.7515671-1.67910448 1.6791044 0 .9268657.75156716 1.6791045 1.67910448 1.6791045.92753731 0 1.67910447-.7522388 1.67910447-1.6791045" fill="#fff"></path><path d="m5.69451493 30.2239478c-.64813433 0-1.17537314.5272388-1.17537314 1.1753731s.52723881 1.1753731 1.17537314 1.1753731c.64813432 0 1.17537313-.5272388 1.17537313-1.1753731s-.52723881-1.1753731-1.17537313-1.1753731m0 3.3582089c-1.20358209 0-2.18283583-.9785821-2.18283583-2.1828358 0-1.2029105.97925374-2.1828358 2.18283583-2.1828358 1.20358208 0 2.18283582.9799253 2.18283582 2.1828358 0 1.2042537-.97925374 2.1828358-2.18283582 2.1828358" fill="#ee3124"></path><path d="m7.3736194 25.3545448c0-.9275373-.75156716-1.6791045-1.67910447-1.6791045-.92753732 0-1.67910448.7515672-1.67910448 1.6791045s.75156716 1.6791045 1.67910448 1.6791045c.92753731 0 1.67910447-.7515672 1.67910447-1.6791045" fill="#fff"></path><g fill="#ee3124"><path d="m5.69451493 24.1791716c-.64813433 0-1.17537314.5272388-1.17537314 1.1753732 0 .6481343.52723881 1.1753731 1.17537314 1.1753731.64813432 0 1.17537313-.5272388 1.17537313-1.1753731 0-.6481344-.52723881-1.1753732-1.17537313-1.1753732m0 3.358209c-1.20358209 0-2.18283583-.9792537-2.18283583-2.1828358 0-1.2042538.97925374-2.1828358 2.18283583-2.1828358 1.20358208 0 2.18283582.978582 2.18283582 2.1828358 0 1.2035821-.97925374 2.1828358-2.18283582 2.1828358"></path><path d="m15.3080597 10.411791h-5.2475373c-.27873136 0-.50373136-.2256716-.50373136-.5037313s.225-.50373134.50373136-.50373134h5.2475373c.2780597 0 .5037313.22567164.5037313.50373134s-.2256716.5037313-.5037313.5037313"></path><path d="m7.3736194 10.411791h-3.35820895c-.2780597 0-.50373135-.2256716-.50373135-.5037313s.22567165-.50373134.50373135-.50373134h3.35820895c.2780597 0 .50373135.22567164.50373135.50373134s-.22567165.5037313-.50373135.5037313"></path><path d="m11.9491791 13.77h-7.93410447c-.2780597 0-.50373135-.225-.50373135-.5037313 0-.2780597.22567165-.5037314.50373135-.5037314h7.93410447c.2780597 0 .5037313.2256717.5037313.5037314 0 .2787313-.2256716.5037313-.5037313.5037313"></path><path d="m9.66143284 17.1288806h-5.6458209c-.2780597 0-.50373134-.2256716-.50373134-.5037313s.22567164-.5037314.50373134-.5037314h5.6458209c.2780597 0 .50373136.2256717.50373136.5037314s-.22567166.5037313-.50373136.5037313"></path></g></g></svg> 