<?xml version="1.0" encoding="UTF-8"?> <svg xmlns="http://www.w3.org/2000/svg" height="53" viewBox="0 0 58 53" width="58"><g fill="none" fill-rule="evenodd"><g fill="#fff"><path d="m57.5302 28.21126c0 5.4124-4.3876 9.8-9.8 9.8s-9.8-4.3876-9.8-9.8 4.3876-9.8 9.8-9.8 9.8 4.3876 9.8 9.8" opacity=".201499"></path><path d="m22.4 44.40422c0 4.6389-3.7611 8.4-8.4 8.4s-8.4-3.7611-8.4-8.4c0-4.6396 3.7611-8.4 8.4-8.4s8.4 3.7604 8.4 8.4" opacity=".201499"></path><path d="m28 14c0 7.7322-6.2685 14-14 14-7.7322 0-14-6.2678-14-14s6.2678-14 14-14c7.7315 0 14 6.2678 14 14" opacity=".201499"></path><path d="m48.14243 16.40625c.7595.4872 1.1984 1.3461 1.1501 2.247l-.5383 10.0149-4.6053-.6783.3668-3.3173c.8071-3.7891.427-6.4211.9863-7.7189.5166-1.1977 1.764-1.2173 2.6404-.5474"></path></g><path d="m49.2926 18.65325c.021-.3857-.0525-.7623-.1981-1.1067-.812-.3661-1.7584-.1974-2.1924.8078-.5593 1.2971-.1792 3.9291-.9863 7.7182l-.2366 2.1427 3.0751.4529z" fill="#e4f2db"></path><path d="m44.7258 27.54409 3.535.5208.5068-9.4388c.0385-.7126-.3094-1.393-.9093-1.778-.0119-.0077-.0238-.0161-.035-.0245-.3703-.2835-.8043-.3962-1.1648-.3031-.2975.0777-.525.294-.6748.6412-.2296.5334-.2814 1.4287-.3472 2.562-.0784 1.3517-.1764 3.0324-.6076 5.0582zm4.0278 1.6485c-.0245 0-.0504-.0007-.0763-.0049l-4.6053-.6783c-.2793-.0413-.476-.2961-.4445-.5768l.3661-3.3187c.4235-1.9985.518-3.6351.5943-4.9504.0728-1.2369.1288-2.2148.4312-2.9176.2772-.6412.7651-1.0829 1.3741-1.2411.6629-.1722 1.428.0028 2.051.4718.9044.5901 1.4308 1.6254 1.3727 2.7055l-.539 10.0142c-.007.147-.077.2849-.1918.378-.0945.0777-.2114.1183-.3325.1183z" fill="#1198eb"></path><path d="m48.71496 15.03502c-1.2236.6027.0357 4.3456-1.7381 11.8293.0609-1.0633-.3024-1.6128-.7938-1.8725-2.2183-1.176-2.9967.8526-2.9967.8526-4.4184 10.2312-3.3831 1.414-9.618 15.2201l8.9194 3.976s11.9707-12.9283 8.2362-28.4256c0 0-.4088-2.3688-2.009-1.5799" fill="#fff"></path><path d="m51.08768 18.44479c-.2611-.1043-.5803-.1029-.973.091-1.2236.6027.0364 4.3449-1.7381 11.8286.0616-1.0633-.3017-1.6121-.7931-1.8725-2.2183-1.1753-2.9974.8533-2.9974.8533-4.1356 9.5753-3.4944 2.4661-8.5071 12.838l6.4092 2.8574s11.0313-11.9252 8.5995-26.5958" fill="#dbe9f2"></path><path d="m34.26556 40.79992 8.0829 3.6043c1.673-1.9565 11.1916-13.8628 7.8652-27.6661-.0658-.3612-.308-1.1011-.6846-1.2922-.0567-.0287-.2282-.1148-.5817.0602-.2905.1428-.3234 1.2971-.3598 2.5193-.0574 1.9621-.1442 4.9287-1.1004 8.9593-.063.2653-.3178.4361-.5866.3997-.2695-.0399-.4634-.2793-.448-.5509.0616-1.0724-.3724-1.3027-.5152-1.3783-.5705-.3024-1.0605-.3801-1.4602-.231-.5572.2086-.7987.8029-.8015.8092-2.1203 4.9112-3.0317 5.5741-4.0873 6.342-1.0381.7553-2.2106 1.6093-5.3228 8.4245zm8.2222 4.7663c-.0721 0-.1442-.0147-.2135-.0455l-8.9194-3.9774c-.1274-.0567-.2268-.1617-.2765-.2933-.0497-.1295-.0455-.2744.0119-.4018 3.3908-7.5103 4.7131-8.4728 5.88-9.3212.931-.6776 1.7353-1.2628 3.7338-5.8898.0077-.0224.4011-1.0206 1.4049-1.3972.6923-.2583 1.4728-.1617 2.3198.2877.1449.077.2968.1792.4389.3192.5572-2.9799.623-5.2556.6699-6.8523.0574-1.9397.0889-3.0079.9457-3.4307.6825-.336 1.2054-.2142 1.5232-.0532.945.4816 1.2075 1.8592 1.2348 2.0153 3.7499 15.5561-8.246 28.7406-8.3678 28.8722-.1015.1092-.2422.168-.3857.168z" fill="#1198eb"></path><path d="m43.66215 35.04445c-.0938 0-.1883-.0245-.2737-.0763-.2471-.1519-.3255-.4746-.1743-.7224 2.5774-4.221 3.1801-6.4078 3.2326-7.4991.014-.2898.259-.5068.5495-.4991.2891.0133.5131.2597.4991.5488-.0847 1.7654-1.2229 4.4555-3.3852 7.9968-.0987.1624-.2716.2513-.448.2513" fill="#1198eb"></path><path d="m33.34709 38.92588-1.1704 8.6394h12.4103l1.1501-5.0302z" fill="#fff"></path><path d="m45.3117 44.39603-7.6034-2.2155c-.8218-.2401-1.6639.308-1.7794 1.1557l-.5726 4.2287h9.2302z" fill="#dbe9f2"></path><path d="m32.77729 47.04014h11.3911l.9464-4.1384-11.3295-3.3019zm11.8097 1.05h-12.4103c-.1519 0-.2961-.0658-.3962-.1792-.0994-.1141-.1449-.266-.1246-.4158l1.1711-8.6401c.021-.1512.1057-.2863.2338-.3696s.2863-.1064.4333-.0644l12.39 3.6106c.2667.0777.427.3507.3647.6209l-1.1501 5.0302c-.0546.2387-.2667.4074-.5117.4074z" fill="#1198eb"></path><path d="m41.91285 44.29691c.3682.1183.5698.5124.4522.8813-.119.3675-.5131.5698-.8813.4508s-.5698-.5124-.4515-.8799c.1183-.3682.5131-.5705.8806-.4522" fill="#1198eb"></path><path d="m9.94595 16.33723c-.7595.4879-1.1984 1.3468-1.1508 2.2477l.539 10.0149 4.6053-.6783-.3668-3.318c-.8071-3.7891-.427-6.4204-.9863-7.7182-.5166-1.1977-1.764-1.218-2.6404-.5481" fill="#fff"></path><path d="m13.57244 24.60325c-.7665-3.5994-.4711-6.139-.9184-7.4977-.7007.497-1.1046 1.3167-1.0584 2.1791l.4795 8.9117 1.8641-.2751z" fill="#e4f2db"></path><path d="m11.17368 16.48815c-.2968 0-.6209.1169-.9058.3353-.0119.0084-.0231.0168-.035.0245-.5992.385-.9478 1.0654-.91 1.7773l.5075 9.4395 3.5343-.5208-.3108-2.8133c-.4228-1.974-.5208-3.6547-.5992-5.0057-.0658-1.1347-.1176-2.03-.3472-2.5634-.1498-.3472-.3773-.5635-.6748-.6412-.0833-.0217-.1701-.0322-.259-.0322zm-1.8368 12.705c-.1197 0-.2373-.0413-.3318-.119-.1148-.0931-.1841-.2303-.1925-.378l-.5376-10.0142c-.0581-1.0801.4669-2.1154 1.372-2.7055.623-.469 1.3874-.6461 2.051-.4718.609.1582 1.0969.5999 1.3734 1.2411.3031.7028.3605 1.6807.4319 2.9176.0763 1.3153.1708 2.9526.5859 4.8993l.3752 3.3698c.0308.2807-.1659.5355-.4459.5768l-4.6046.6783c-.0259.0042-.0511.0056-.077.0056z" fill="#1198eb"></path><path d="m9.3765 15.03502c1.2243.6027-.0357 4.3456 1.7381 11.8293-.0609-1.0633.3024-1.6128.7938-1.8725 2.2183-1.176 2.9974.8526 2.9974.8526 4.4177 10.2312 3.3831 1.414 9.6173 15.2201l-8.9194 3.976s-11.9707-12.9283-8.2362-28.4256c0 0 .4088-2.3688 2.009-1.5799" fill="#fff"></path><path d="m14.90573 25.84463s-.4564-1.1788-1.659-1.2145c1.3153 9.0265 6.6402 15.9292 8.2131 17.7996l3.0632-1.3657c-6.2342-13.8054-5.1989-4.9889-9.6173-15.2194" fill="#dbe9f2"></path><path d="m8.75994 15.39937c-.105 0-.1666.0315-.1967.0462-.378.1918-.6202.931-.6783 1.26-3.3327 13.8334 6.1852 25.7425 7.8582 27.699l8.0829-3.605c-3.1122-6.8152-4.2854-7.6692-5.3228-8.4238-1.0556-.7686-1.9677-1.4315-4.0796-6.3224-.0091-.0224-.2569-.6272-.8169-.8323-.3969-.1463-.8855-.0665-1.4525.2338-.1428.0763-.5775.3066-.5152 1.379.0161.2716-.1792.5103-.448.5502-.2744.0371-.5243-.1344-.5873-.399-.9548-4.0313-1.0423-6.9972-1.1004-8.9607-.035-1.2215-.0693-2.3758-.3591-2.5186-.1659-.0819-.2919-.1064-.3843-.1064m6.8432 30.1672c-.1428 0-.2835-.0588-.3843-.1687-.1218-.1316-12.1177-13.3161-8.3615-28.9058.0203-.1218.2828-1.4994 1.2285-1.9817.3178-.161.84-.2821 1.5225.0539.8575.4221.8876 1.4903.945 3.43.0469 1.5967.1134 3.8717.6706 6.8523.1421-.1393.2933-.2422.4382-.3192.8484-.4494 1.6289-.546 2.3205-.2863 1.0038.3759 1.3972 1.3741 1.4126 1.4154 1.9908 4.6074 2.7951 5.1919 3.7261 5.8702 1.1669.8491 2.4885 1.8116 5.88 9.3212.0574.1274.0623.2723.0126.4025-.0504.1309-.1498.2366-.2772.2933l-8.9187 3.9767c-.07.0308-.1428.0462-.2149.0462" fill="#1198eb"></path><path d="m14.42931 35.04445c-.1764 0-.35-.0889-.4487-.2513-2.1616-3.5413-3.3005-6.2321-3.3845-7.9968-.014-.2891.21-.5355.4991-.5488.294-.0189.5355.2093.5495.4991.0525 1.0913.6552 3.2774 3.2326 7.4991.1505.2478.0728.5705-.175.7224-.0854.0518-.1799.0763-.273.0763" fill="#1198eb"></path><path d="m24.74437 38.92588 1.1711 8.6394h-12.411l-1.1501-5.0302z" fill="#fff"></path><path d="m25.12447 41.73071-8.7024 2.5354c-.7112.2079-1.1382.9338-.973 1.6562l.3759 1.6429h10.0905z" fill="#dbe9f2"></path><path d="m13.92307 47.04014h11.3911l-1.008-7.4403-11.3295 3.3019zm11.9917 1.05h-12.4103c-.2443 0-.4571-.1687-.511-.4074l-1.1508-5.0302c-.0623-.2702.098-.5432.3647-.6209l12.39-3.6106c.147-.042.3052-.0189.4333.0644s.2135.2184.2338.3696l1.1711 8.6401c.0203.1498-.0252.3017-.1253.4158-.0994.1134-.2436.1792-.3955.1792z" fill="#1198eb"></path><path d="m22.47931 44.29691c-.3675.1183-.5698.5124-.4515.8813.1183.3675.5124.5698.8806.4508s.5698-.5124.4515-.8799c-.1183-.3682-.5131-.5705-.8806-.4522" fill="#1198eb"></path><path d="m37.1448 23.46442v-6.7606l.0077.0028c.6776.8064 1.729 1.2894 2.8889 1.1753 1.5463-.1512 2.8126-1.3986 2.9834-2.9421.2233-2.0153-1.3482-3.7205-3.3187-3.7205-1.0297 0-1.9495.4676-2.5613 1.2012v-9.6551h-6.1628c.7336.6125 1.2012 1.5309 1.2012 2.562 0 1.9698-1.7052 3.5406-3.7205 3.318-1.5435-.1708-2.7909-1.4371-2.9421-2.9834-.1134-1.1599.3689-2.2113 1.176-2.8889l.0035-.0077h-10.2543v9.6551c.6118-.7336 1.5316-1.2012 2.5613-1.2012 1.9705 0 3.542 1.7052 3.3187 3.7205-.1708 1.5435-1.4371 2.7909-2.9834 2.9421-1.1599.1141-2.2113-.3689-2.8889-1.1753l-.0077-.0028v6.7606h6.6269l-.0035.007c-.8078.6783-1.2894 1.729-1.1767 2.8903.1512 1.5456 1.3986 2.8119 2.9428 2.9827 2.0146.2233 3.7205-1.3489 3.7205-3.3187 0-1.0297-.4676-1.9495-1.2012-2.5613z" fill="#fff"></path><path d="m39.70617 11.21918c-1.0304 0-1.9495.4676-2.5613 1.2012v-6.6325h-1.8095c-1.0024 0-1.8186.8134-1.8186 1.8172v9.8133c0 1.0017-.8106 1.813-1.8123 1.813h-10.4244c-1.0017 0-1.8116.8141-1.8116 1.8158v2.4171h3.6043l-.0042.007c-.8848.7434-1.379 1.9362-1.1256 3.2277.2499 1.281 1.2761 2.3254 2.5543 2.5907 2.1581.4501 4.0586-1.1851 4.0586-3.2641 0-1.0297-.4683-1.9495-1.2019-2.5613h9.7909v-6.7606l.0077.0028c.7427.8848 1.9348 1.379 3.227 1.1256 1.281-.2506 2.3247-1.2761 2.5914-2.5543.4501-2.1588-1.1851-4.0586-3.2648-4.0586" fill="#dbe9f2"></path><path d="m16.97059 22.93942h6.1019c.1855 0 .3577.0973.4515.2569.0952.1589.0987.357.0091.5194-.0301.0567-.0763.1155-.1267.1575-.7112.5978-1.0822 1.5092-.9912 2.4367.126 1.2901 1.1914 2.3702 2.4773 2.5123.8155.0903 1.596-.1582 2.2001-.6986.5964-.5341.938-1.2985.938-2.0979 0-.8344-.3689-1.6219-1.0129-2.1588-.1694-.1414-.2324-.3738-.1575-.5817.0756-.2079.273-.3458.4935-.3458h9.2659v-6.2356c0-.1673.0798-.3255.2149-.4242.1351-.0994.3094-.1267.4697-.0763.0945.0301.1855.0889.2499.1652.5978.7112 1.5106 1.0843 2.4367.9905 1.2901-.126 2.3695-1.1914 2.5123-2.4773.0903-.8141-.1582-1.596-.6986-2.1994-.5348-.5964-1.2985-.938-2.0986-.938-.8344 0-1.6212.3689-2.1581 1.0122-.1414.1701-.3738.2331-.5817.1575s-.3465-.273-.3465-.4935v-9.1301h-4.4926c.3766.6041.581 1.3069.581 2.037 0 1.0969-.469 2.1462-1.2866 2.8791-.8176.7315-1.9173 1.0815-3.0163.9611-1.7983-.1988-3.2305-1.6513-3.4076-3.4545-.0833-.8603.1218-1.7094.5642-2.4227h-8.5911v7.9856c.6048-.3766 1.3076-.5817 2.037-.5817 1.0976 0 2.1476.4697 2.8791 1.2873.7322.8176 1.0822 1.9166.9611 3.0156-.1995 1.7983-1.652 3.2312-3.4545 3.4069-.8596.0826-1.7087-.1204-2.4227-.5642zm8.2362 6.951c-.1428 0-.2863-.0084-.4291-.0238-1.7983-.1995-3.2312-1.6527-3.4069-3.4545-.084-.8603.1204-1.7087.5635-2.4227h-5.4887c-.2898 0-.525-.2352-.525-.525v-6.7606c0-.1673.0805-.3255.2149-.4242.1351-.0994.3094-.1267.4697-.0763.0945.0301.1862.0889.2499.1652.5978.7112 1.5092 1.0843 2.4367.9905 1.2901-.126 2.3702-1.1914 2.5123-2.4773.0903-.8141-.1582-1.596-.6986-2.1994-.5341-.5964-1.2985-.938-2.0979-.938-.8351 0-1.6219.3689-2.1588 1.0122-.1414.1701-.3738.2331-.5817.1575s-.3465-.273-.3465-.4935v-9.6551c0-.2898.2352-.525.525-.525h10.2543c.182 0 .3514.0938.4473.2485.0952.1554.1043.3486.0224.5117-.0322.0637-.0805.1281-.1351.175-.7112.5971-1.0815 1.5078-.9912 2.436.126 1.2894 1.1907 2.3702 2.4773 2.5116.8134.0917 1.596-.1575 2.2001-.6986.5964-.5334.9373-1.2985.9373-2.0972 0-.8358-.3689-1.6219-1.0122-2.1588-.1694-.1414-.2324-.3738-.1575-.5817.0756-.2079.2723-.3465.4935-.3465h6.1628c.2898 0 .525.2352.525.525v8.5106c.6048-.3766 1.3069-.5817 2.0363-.5817 1.0983 0 2.1476.4697 2.8805 1.2873.7322.8176 1.0822 1.9166.9604 3.0156-.1988 1.7983-1.652 3.2312-3.4538 3.4069-.8589.0826-1.7101-.1204-2.4234-.5642v5.6245c0 .1393-.0553.273-.154.371-.098.0987-.2317.154-.371.154h-8.645c.3759.6041.581 1.3069.581 2.0363 0 1.0976-.4697 2.1476-1.2873 2.8798-.7112.6363-1.6352.9849-2.5865.9849z" fill="#1198eb"></path></g></svg> 