<?xml version="1.0" encoding="UTF-8"?> <svg xmlns="http://www.w3.org/2000/svg" height="64" viewBox="0 0 64 64" width="64"><g fill="none" fill-rule="evenodd"><path d="m0 0h64v64h-64z" fill="#fff" opacity="0"></path><g fill="#1198eb" fill-rule="nonzero" transform="translate(6 10)"><path d="m35.7333333 25.6c-.8832 0-1.6-.7168-1.6-1.6v-14.93333333c0-.8832.7168-1.6 1.6-1.6s1.6.7168 1.6 1.6v14.93333333c0 .8832-.7168 1.6-1.6 1.6z"></path><path d="m38.9333333 10.6666667h-3.2c-.8832 0-1.6-.71680003-1.6-1.60000003v-1.06666667c0-4.41173333 3.5882667-8 8-8h3.2c.8832 0 1.6.7168 1.6 1.6v1.06666667c0 4.41173333-3.5882666 8.00000003-8 8.00000003zm-1.5701333-3.20000003h1.5701333c2.4661334 0 4.5034667-1.8688 4.7701334-4.26666667h-1.5701334c-2.4661333 0-4.5034666 1.8688-4.7701333 4.26666667z"></path><path d="m35.2 19.2h-3.2c-5.5872 0-10.1333333-4.5461333-10.1333333-10.13333333v-1.06666667c0-.8832.7168-1.6 1.6-1.6h3.2c5.5872 0 10.1333333 4.5461333 10.1333333 10.1333333v1.0666667c0 .8832-.7168 1.6-1.6 1.6zm-10.1141333-9.6c.2730666 3.5754667 3.2704 6.4 6.9141333 6.4h1.5808c-.2730667-3.5754667-3.2704-6.4-6.9141333-6.4z"></path><path d="m42.1333333 40.5333333h-2.7306666c-.8832 0-1.6-.7168-1.6-1.6s.7168-1.6 1.6-1.6h2.7306666c1.5701334 0 3.0378667-.6101333 4.1301334-1.7194666 1.1264-1.1093334 1.7365333-2.5770667 1.7365333-4.1472 0-3.2362667-2.6304-5.8666667-5.8666667-5.8666667h-18.1333333c-1.952 0-3.7674667.9706667-4.8576 2.5962667-.0384.0917333-.0981333.1877333-.1536.2709333-.5589333.8746667-.8554667 1.9114667-.8554667 2.9994667 0 .8832-.7168 1.6-1.6 1.6s-1.6-.7168-1.6-1.6c0-1.6618667.4501334-3.2597334 1.3013334-4.6293334.0512-.1024.1109333-.2026666.1749333-.3050666 1.76-2.6304 4.5696-4.1322667 7.5904-4.1322667h18.1333333c4.9984 0 9.0666667 4.0682667 9.0666667 9.0666667 0 2.4341333-.9493333 4.7104-2.6730667 6.4085333-1.6832 1.7088-3.9594666 2.6581333-6.3936 2.6581333z"></path><path d="m27.2 40.5333333h-18.13333333c-4.9984 0-9.06666667-4.0682666-9.06666667-9.0666666 0-2.4341334.94933333-4.7104 2.67306667-6.4085334 1.6832-1.7066666 3.95733333-2.6581333 6.3936-2.6581333h2.73066663c.8832 0 1.6.7168 1.6 1.6s-.7168 1.6-1.6 1.6h-2.73066663c-1.57013334 0-3.03786667.6101333-4.13013334 1.7194667-1.1264 1.1093333-1.73653333 2.5770666-1.73653333 4.1472 0 3.2362666 2.6304 5.8666666 5.86666667 5.8666666h18.13333333c3.2362667 0 5.8666667-2.6304 5.8666667-5.8666666 0-.8832.7168-1.6 1.6-1.6s1.6.7168 1.6 1.6c0 4.9984-4.0682667 9.0666666-9.0666667 9.0666666z"></path></g></g></svg> 