<?xml version="1.0" encoding="UTF-8"?> <svg xmlns="http://www.w3.org/2000/svg" height="50" viewBox="0 0 43 50" width="43"><g fill="none" fill-rule="evenodd"><path d="m21.3 49.80012c-.0696 0-.138-.0072-.2064-.0228-.2112-.0504-21.0936-5.1852-21.0936-24.8796v-14.3964c0-.348.2016-.6648.5172-.8136l20.4-9.6012c.2436-.1152.522-.1152.7656 0l20.4 9.6012c.3156.1488.5172.4656.5172.8136v14.3964c0 19.6824-20.8824 24.8292-21.0936 24.8796-.0684.0156-.1368.0228-.2064.0228z" fill="#fff"></path><path d="m1.8 11.07252v13.8252c0 17.4552 17.2812 22.5 19.5 23.0748 2.2188-.5748 19.5-5.6292 19.5-23.0748v-13.8252l-19.5-9.1764zm19.5 38.7276c-.0696 0-.138-.0072-.2064-.0228-.2112-.0504-21.0936-5.1852-21.0936-24.8796v-14.3964c0-.348.2016-.6648.5172-.8136l20.4-9.6012c.2436-.1152.522-.1152.7656 0l20.4 9.6012c.3156.1488.5172.4656.5172.8136v14.3964c0 19.6824-20.8824 24.8292-21.0936 24.8796-.0684.0156-.1368.0228-.2064.0228z" fill="#fff"></path><g fill="#1198eb"><path d="m7.8 15.0264v9.8724c0 12.174 11.7828 15.9804 13.5036 16.47 1.8108-.498 13.4964-4.1892 13.4964-16.47v-9.8724l-13.5-6.5256zm13.5 28.1748c-.0708 0-.1416-.0084-.2112-.0252-.1512-.0372-15.0888-3.81-15.0888-18.2772v-10.4376c0-.3456.198-.66.5088-.81l14.4-6.96c.246-.12.5364-.12.7824 0l14.4 6.96c.3108.15.5088.4644.5088.81v10.4376c0 14.4588-14.9376 18.24-15.0876 18.276-.0708.018-.1404.0264-.2124.0264z"></path><path d="m18.19812 30.66516h6.204l-1.4304-7.1328c-.0672-.336.0612-.6816.3324-.8904.8232-.6348 1.296-1.5828 1.296-2.6004 0-1.8192-1.4796-3.3-3.3-3.3s-3.3 1.4808-3.3 3.3c0 1.0176.4728 1.9656 1.296 2.6004.2712.2088.3996.5544.3324.8904zm7.302 1.8h-8.4c-.27 0-.5256-.1212-.696-.3288-.1716-.2088-.2388-.4836-.186-.7476l1.5432-7.6968c-.9984-.9588-1.5612-2.2608-1.5612-3.6504 0-2.8116 2.2872-5.1 5.1-5.1s5.1 2.2884 5.1 5.1c0 1.3896-.5628 2.6916-1.5612 3.6504l1.5432 7.6968c.0528.264-.0144.5388-.186.7476-.1716.2076-.426.3288-.696.3288z"></path></g></g></svg> 