<?xml version="1.0" encoding="UTF-8"?> <svg xmlns="http://www.w3.org/2000/svg" xmlns:xlink="http://www.w3.org/1999/xlink" height="55" viewBox="0 0 56 55" width="56"><mask id="a" fill="#fff"><path d="m.57491.59409h19.59979v19.6h-19.59979z" fill="#fff" fill-rule="evenodd"></path></mask><mask id="b" fill="#fff"><path d="m0 .00007h28v27.99993h-28z" fill="#fff" fill-rule="evenodd"></path></mask><g fill="none" fill-rule="evenodd"><path d="m20.17491 10.39409c0 5.4117-4.3876 9.8-9.8 9.8s-9.8-4.3883-9.8-9.8c0-5.4124 4.3876-9.8 9.8-9.8s9.8 4.3876 9.8 9.8" fill="#fff" mask="url(#a)" opacity=".201596" transform="translate(35 23.2722)"></path><path d="m31.1234 8.4c0 4.6389-3.7611 8.4-8.4 8.4s-8.4-3.7611-8.4-8.4c0-4.6396 3.7611-8.4 8.4-8.4s8.4 3.7604 8.4 8.4" fill="#fff" opacity=".201596"></path><path d="m28 14.00007c0 7.7315-6.2678 14-14 14-7.7315 0-14-6.2685-14-14 0-7.7322 6.2685-14 14-14 7.7322 0 14 6.2678 14 14" fill="#fff" mask="url(#b)" opacity=".201596" transform="translate(0 26.0722)"></path><path d="m17.4993 49.6972h18.2v-4.2h-18.2z" fill="#dbe9f2"></path><path d="m32.19937 45.49727h-14.7v2.8h11.9c1.5463 0 2.8-1.2537 2.8-2.8" fill="#fff"></path><path d="m18.0243 49.1722h17.15v-3.15h-17.15zm17.675 1.05h-18.2c-.2898 0-.525-.2352-.525-.525v-4.2c0-.2898.2352-.525.525-.525h18.2c.2898 0 .525.2352.525.525v4.2c0 .2898-.2352.525-.525.525z" fill="#1198eb"></path><path d="m46.89937 45.49727h-40.6c-1.1599 0-2.1-.9401-2.1-2.1v-2.1h44.8v2.1c0 1.1599-.9401 2.1-2.1 2.1" fill="#dbe9f2"></path><path d="m42.69867 44.09727h-38.4993v-2.8h41.2993c0 1.5463-1.2537 2.8-2.8 2.8" fill="#fff"></path><path d="m4.72437 41.82227v1.575c0 .868.707 1.575 1.575 1.575h40.6c.868 0 1.575-.707 1.575-1.575v-1.575zm42.175 4.2h-40.6c-1.4469 0-2.625-1.1781-2.625-2.625v-2.1c0-.2898.2352-.525.525-.525h44.8c.2898 0 .525.2352.525.525v2.1c0 1.4469-1.1781 2.625-2.625 2.625z" fill="#1198eb"></path><path d="m40.59937 50.22227h-28c-.2898 0-.525-.2352-.525-.525s.2352-.525.525-.525h28c.2898 0 .525.2352.525.525s-.2352.525-.525.525" fill="#1198eb"></path><path d="m27.12437 43.39727c0 .2898-.2352.525-.525.525s-.525-.2352-.525-.525.2352-.525.525-.525.525.2352.525.525" fill="#1198eb"></path><path d="m48.99937 41.29797h-44.8v-25.9c0-1.1599.9401-2.1 2.1-2.1h40.6c1.1599 0 2.1.9401 2.1 2.1z" fill="#dbe9f2"></path><path d="m42.69937 37.79727h-38.5v-22.3993c0-1.1599.9401-2.1 2.1-2.1h39.2v21.6993c0 1.5463-1.2537 2.8-2.8 2.8" fill="#fff"></path><path d="m4.72437 40.77227h43.75v-25.375c0-.868-.707-1.575-1.575-1.575h-40.6c-.868 0-1.575.707-1.575 1.575zm44.275 1.05h-44.8c-.2898 0-.525-.2352-.525-.525v-25.9c0-1.4469 1.1781-2.625 2.625-2.625h40.6c1.4469 0 2.625 1.1781 2.625 2.625v25.9c0 .2898-.2352.525-.525.525z" fill="#1198eb"></path><path d="m41.29937 4.89727h-29.4c-.7735 0-1.4.6272-1.4 1.4v4.2h32.2v-4.2c0-.7728-.6272-1.4-1.4-1.4" fill="#dbe9f2"></path><path d="m40.59937 4.89727h-28.7c-.7735 0-1.4.6272-1.4 1.4v2.7993h28.7c.7728 0 1.4-.6265 1.4-1.4z" fill="#fff"></path><path d="m10.4993 41.2972h32.2v-30.8007h-32.2z" fill="#dbe9f2"></path><path d="m39.19937 10.49657h-28.7v27.3h25.9c1.5463 0 2.8-1.253 2.8-2.8z" fill="#fff"></path><path d="m11.0243 40.7722h31.15v-29.7507h-31.15zm31.675 1.05h-32.2c-.2898 0-.525-.2352-.525-.525v-30.8007c0-.2898.2352-.525.525-.525h32.2c.2898 0 .525.2352.525.525v30.8007c0 .2898-.2352.525-.525.525z" fill="#1198eb"></path><path d="m21.69867 14.69657h-5.6c-.7728 0-1.4.6272-1.4 1.4v5.6c0 .7728.6272 1.4 1.4 1.4h5.6c.7728 0 1.4-.6272 1.4-1.4v-5.6c0-.7728-.6272-1.4-1.4-1.4" fill="#dbe9f2"></path><path d="m21.69867 27.29727h-5.6c-.7728 0-1.4.6272-1.4 1.4v5.6c0 .7735.6272 1.4 1.4 1.4h5.6c.7728 0 1.4-.6265 1.4-1.4v-5.6c0-.7728-.6272-1.4-1.4-1.4" fill="#dbe9f2"></path><path d="m20.99867 14.69657h-4.9c-.7728 0-1.4.6272-1.4 1.4v4.8993h4.9c.7728 0 1.4-.6265 1.4-1.4z" fill="#fff"></path><path d="m20.99867 27.29727h-4.9c-.7728 0-1.4.6272-1.4 1.4v4.9h4.9c.7728 0 1.4-.6272 1.4-1.4z" fill="#fff"></path><g fill="#1198eb"><path d="m16.09867 15.22157c-.4823 0-.875.3927-.875.875v5.6c0 .4823.3927.875.875.875h5.6c.4823 0 .875-.3927.875-.875v-5.6c0-.4823-.3927-.875-.875-.875zm5.6 8.4h-5.6c-1.0619 0-1.925-.8631-1.925-1.925v-5.6c0-1.0619.8631-1.925 1.925-1.925h5.6c1.0619 0 1.925.8631 1.925 1.925v5.6c0 1.0619-.8631 1.925-1.925 1.925z"></path><path d="m16.09867 27.82227c-.4823 0-.875.3927-.875.875v5.6c0 .4823.3927.875.875.875h5.6c.4823 0 .875-.3927.875-.875v-5.6c0-.4823-.3927-.875-.875-.875zm5.6 8.4h-5.6c-1.0619 0-1.925-.8631-1.925-1.925v-5.6c0-1.0619.8631-1.925 1.925-1.925h5.6c1.0619 0 1.925.8631 1.925 1.925v5.6c0 1.0619-.8631 1.925-1.925 1.925z"></path><path d="m11.02437 9.97227h31.15v-3.675c0-.4823-.3927-.875-.875-.875h-29.4c-.4823 0-.875.3927-.875.875zm31.675 1.05h-32.2c-.2898 0-.525-.2352-.525-.525v-4.2c0-1.0619.8631-1.925 1.925-1.925h29.4c1.0619 0 1.925.8631 1.925 1.925v4.2c0 .2898-.2352.525-.525.525z"></path><path d="m39.2 8.225c-.14 0-.273-.056-.371-.154s-.154-.238-.154-.371c0-.14.056-.2793.154-.378.196-.189.546-.196.742 0 .098.0987.154.238.154.378 0 .133-.056.266-.154.371-.098.098-.231.154-.371.154"></path><path d="m35.175 7.69314c0-.287.231-.518.525-.518.287 0 .525.231.525.518 0 .294-.238.532-.525.532-.294 0-.525-.238-.525-.532"></path><path d="m32.2 8.225c-.14 0-.273-.056-.371-.154-.098-.105-.154-.238-.154-.371 0-.14.056-.273.147-.371.21-.203.553-.196.749-.007.098.105.154.238.154.378 0 .133-.056.266-.154.371-.098.098-.238.154-.371.154"></path><path d="m20.64867 33.77227c-.1344 0-.2688-.0511-.371-.154l-3.5-3.5c-.2051-.2051-.2051-.5369 0-.742s.5369-.2051.742 0l3.5 3.5c.2051.2051.2051.5369 0 .742-.1022.1029-.2366.154-.371.154"></path><path d="m17.14867 33.77227c-.1344 0-.2688-.0511-.371-.154-.2051-.2051-.2051-.5369 0-.742l3.5-3.5c.2051-.2051.5369-.2051.742 0s.2051.5369 0 .742l-3.5 3.5c-.1022.1029-.2366.154-.371.154"></path><path d="m18.19867 21.52157c-.1393 0-.273-.0553-.371-.154l-1.5015-1.5008c-.2051-.2051-.2051-.5376 0-.7427s.5376-.2051.7427 0l1.1298 1.1298 2.4941-2.4941c.2044-.2051.5369-.2051.742 0s.2051.5376 0 .7427l-2.8651 2.8651c-.098.0987-.2317.154-.371.154"></path><path d="m31.49797 21.17157h-4.8993c-.2898 0-.525-.2352-.525-.525s.2352-.525.525-.525h4.8993c.2898 0 .525.2352.525.525s-.2352.525-.525.525"></path><path d="m39.19867 17.67087h-4.9c-.2898 0-.525-.2352-.525-.525s.2352-.525.525-.525h4.9c.2898 0 .525.2352.525.525s-.2352.525-.525.525"></path><path d="m31.49867 17.67087h-4.9c-.2898 0-.525-.2352-.525-.525s.2352-.525.525-.525h4.9c.2898 0 .525.2352.525.525s-.2352.525-.525.525"></path><path d="m37.09867 33.77297h-10.5c-.2898 0-.525-.2352-.525-.525s.2352-.525.525-.525h10.5c.2898 0 .525.2352.525.525s-.2352.525-.525.525"></path><path d="m35.69867 30.27227h-3.5c-.2898 0-.525-.2352-.525-.525s.2352-.525.525-.525h3.5c.2898 0 .525.2352.525.525s-.2352.525-.525.525"></path><path d="m29.39867 30.27227h-2.8c-.2898 0-.525-.2352-.525-.525s.2352-.525.525-.525h2.8c.2898 0 .525.2352.525.525s-.2352.525-.525.525"></path></g><path d="m35.69867 20.99657 9.8 3.3628-4.4548 1.9824-1.9824 4.4548z" fill="#dbe9f2"></path><path d="m35.69867 20.99657 5.3452 5.3452-1.9824 4.4548z" fill="#fff"></path><path d="m36.54357 21.84147 2.5809 7.5215 1.4392-3.2347c.0532-.119.1477-.2135.2667-.2667l3.2347-1.4392zm2.5179 9.4801c-.0077 0-.0154 0-.0238-.0007-.2149-.0098-.4032-.1498-.4725-.3542l-3.3628-9.8c-.0658-.189-.0161-.3997.1253-.5411s.3542-.1897.5411-.1253l9.8 3.3628c.2044.0693.3444.2576.3542.4725.0098.2163-.1134.4151-.3108.5033l-4.2707 1.9005-1.9005 4.2707c-.0847.1897-.273.3115-.4795.3115z" fill="#1198eb"></path><path d="m6.99937 30.62157c-.2898 0-.525-.2352-.525-.525v-7.4893c0-.2898.2352-.525.525-.525s.525.2352.525.525v7.4893c0 .2898-.2352.525-.525.525" fill="#1198eb"></path><path d="m6.99937 20.33213c-.2898 0-.525-.2352-.525-.525v-1.61c0-.2898.2352-.525.525-.525s.525.2352.525.525v1.61c0 .2898-.2352.525-.525.525" fill="#1198eb"></path></g></svg> 