<?xml version="1.0" encoding="UTF-8"?> <svg xmlns="http://www.w3.org/2000/svg" height="45" viewBox="0 0 45 45" width="45"><g fill="none" fill-rule="evenodd"><path d="m41.6861591 14.3195455h-24.5454546c-1.5061363 0-2.7272727 1.2211363-2.7272727 2.7272727v19.0902273c0 1.5061363 1.2211364 2.7272727 2.7272727 2.7272727h20.4552273l6.8175 5.4552273v-27.2727273c0-1.5061364-1.2211363-2.7272727-2.7272727-2.7272727" fill="#fdebea"></path><path d="m39.6400909 14.3195455h-22.4993182c-1.5061363 0-2.7272727 1.2211363-2.7272727 2.7272727v19.0895454h22.5006818c1.5061364 0 2.7272727-1.2211363 2.7272727-2.7272727z" fill="#fff"></path><path d="m17.1410455 14.8309091c-1.2218182 0-2.2159091.9940909-2.2159091 2.2159091v19.0902273c0 1.2218181.9940909 2.215909 2.2159091 2.215909h20.4552272c.1159091 0 .2284091.0395455.3197728.1118182l5.9863636 4.7904546v-26.2084091c0-1.2218182-.9940909-2.2159091-2.2159091-2.2159091zm27.2727272 30c-.1138636 0-.2270454-.0381818-.3197727-.1118182l-6.6770455-5.3434091h-20.275909c-1.7856819 0-3.2386364-1.4529545-3.2386364-3.2386363v-19.0902273c0-1.7856818 1.4529545-3.2386364 3.2386364-3.2386364h24.5454545c1.7856818 0 3.2386364 1.4529546 3.2386364 3.2386364v27.2727273c0 .1963636-.1131819.3756818-.2904546.460909-.0702273.034091-.1459091.0504546-.2209091.0504546z" fill="#ee3124"></path><path d="m28.0485.68181818h-24.54545455c-1.50613636 0-2.72727272 1.22113637-2.72727272 2.72727273v27.27272729l6.8175-5.4552273h20.45522727c1.5061364 0 2.7272727-1.2211364 2.7272727-2.7272727v-19.09022729c0-1.50613636-1.2211363-2.72727273-2.7272727-2.72727273" fill="#fdebea"></path><path d="m27.3663409.68181818h-23.86363635c-1.50545455 0-2.72727273 1.22113637-2.72727273 2.72727273v19.77204549h23.86363638c1.5061363 0 2.7272727-1.2211364 2.7272727-2.7272728z" fill="#fff"></path><g fill="#ee3124"><path d="m3.50338636 1.19318182c-1.22181818 0-2.21590909.99409091-2.21590909 2.21590909v26.20840909l5.98636364-4.7904545c.09068182-.0722728.20318182-.1118182.31977273-.1118182h20.45522726c1.2218182 0 2.2159091-.9940909 2.2159091-2.2159091v-19.09022729c0-1.22181818-.9940909-2.21590909-2.2159091-2.21590909zm-2.72727272 29.99999998c-.075 0-.15136364-.0163636-.22159091-.0504545-.17727273-.0852273-.28977273-.2645455-.28977273-.4609091v-27.27272729c0-1.78568182 1.45295455-3.23863636 3.23863636-3.23863636h24.54545454c1.7856818 0 3.2386364 1.45295454 3.2386364 3.23863636v19.09022729c0 1.7856818-1.4529546 3.2386363-3.2386364 3.2386363h-20.27590908l-6.67704546 5.3434091c-.09272727.0736364-.20590909.1118182-.31977272.1118182z"></path><path d="m41.0040682 25.7393182h-7.4979546c-.2822727 0-.5113636-.2290909-.5113636-.5113637 0-.2822727.2290909-.5113636.5113636-.5113636h7.4979546c.2822727 0 .5113636.2290909.5113636.5113636 0 .2822728-.2290909.5113637-.5113636.5113637"></path><path d="m41.0040682 21.6484091h-7.4979546c-.2822727 0-.5113636-.2290909-.5113636-.5113636 0-.2822728.2290909-.5113637.5113636-.5113637h7.4979546c.2822727 0 .5113636.2290909.5113636.5113637 0 .2822727-.2290909.5113636-.5113636.5113636"></path><path d="m36.2306591 33.9225h-7.4993182c-.2822727 0-.5113636-.2290909-.5113636-.5113636 0-.2822728.2290909-.5113637.5113636-.5113637h7.4993182c.2822727 0 .5113636.2290909.5113636.5113637 0 .2822727-.2290909.5113636-.5113636.5113636"></path><path d="m26.0036591 33.9225h-8.1804546c-.2822727 0-.5113636-.2290909-.5113636-.5113636 0-.2822728.2290909-.5113637.5113636-.5113637h8.1804546c.2822727 0 .5113636.2290909.5113636.5113637 0 .2822727-.2290909.5113636-.5113636.5113636"></path><path d="m41.0040682 29.8309091h-5.9331818c-.2822728 0-.5113637-.2290909-.5113637-.5113636 0-.2822728.2290909-.5113637.5113637-.5113637h5.9331818c.2822727 0 .5113636.2290909.5113636.5113637 0 .2822727-.2290909.5113636-.5113636.5113636"></path><path d="m32.3434773 29.8309091h-6.3388637c-.2822727 0-.5113636-.2290909-.5113636-.5113636 0-.2822728.2290909-.5113637.5113636-.5113637h6.3388637c.2822727 0 .5113636.2290909.5113636.5113637 0 .2822727-.2290909.5113636-.5113636.5113636"></path><path d="m23.2770682 29.8309091h-5.4538637c-.2822727 0-.5113636-.2290909-.5113636-.5113636 0-.2822728.2290909-.5113637.5113636-.5113637h5.4538637c.2822727 0 .5113636.2290909.5113636.5113637 0 .2822727-.2290909.5113636-.5113636.5113636"></path></g></g></svg> 