<?xml version="1.0" encoding="UTF-8"?> <svg xmlns="http://www.w3.org/2000/svg" height="45" viewBox="0 0 45 45" width="45"><g fill="none" fill-rule="evenodd"><g fill="#fdebea"><path d="m39.122449 5.87755102v5.87755098h2.4795918c1.8736531 0 3.3979592 1.5243062 3.3979592 3.3979592v22.0408164c0 1.873653-1.5243061 3.3979591-3.3979592 3.3979591h-6c1.8736531 0 3.3979592-1.5243061 3.3979592-3.3979591v-22.0408164c0-1.873653-1.5243061-3.3979592-3.3979592-3.3979592h-2.4795918v-5.87755098zm-6.2791531-.12903061.081.12903061h-6l-.081-.12903061c-1.7089235-2.72336881-4.3382365-4.61639987-7.3437572-5.37661526.9678652-.24457867 1.973754-.37190515 3.0004613-.37190515 4.2179694 0 8.0845714 2.14897959 10.3432959 5.74852041zm-1.0677857 34.84331629v3.489796h2.9387755v.9183673h-6v-.9183673h-2.9387755v-3.489796z"></path><path d="m23.9693878 11.4795918h1.233c1.0923061 0 2.139153.4341123 2.9122346 1.2064592l.5671837.5670919c.2755102.2755102.6492857.4305306 1.0388572.4305306h.1262755c.8118367 0 1.4693877-.6575511 1.4693877-1.4693878 0-1.3768163.6884082-2.6625306 1.8338878-3.42661223l.3701939-.24685714.1255408-.04196939c-1.2512755-3.75492857-4.3428674-6.65779592-8.2071735-7.65477551v3.28858163c0 1.85005102-.8713469 3.59201021-2.3512041 4.70194898-.3701938.27771429-.5875714.71283674-.5875714 1.17560206 0 .8118367.657551 1.4693877 1.4693878 1.4693877" stroke="#ee3124" stroke-width=".7"></path><path d="m10.744898 12.2142857c0 .2482347.0218571.4907755.036551.7346939h2.1675306c.8630816 0 1.6165102-.5875714 1.8256224-1.4253061l.0222245-.0875204c.2091123-.8383776.9625408-1.425949 1.8256225-1.425949.8630816 0 1.6165102-.58757145 1.8256224-1.42530614l.0896327-.35761225c.1765102-.70567347.7436939-1.24622449 1.4568979-1.38939795l1.2071021-.24180613c.7544388-.15061224 1.2982959-.81321428 1.2982959-1.58308163 0-.89219388-.7228469-1.61504082-1.6150408-1.61504082-.8272653 0-1.5992449-.41363265-2.0584286-1.10130612l-.666551-.99982653c-4.3417653 1.72735714-7.4150816 5.9597449-7.4150816 10.91745917" stroke="#ee3124" stroke-width=".7"></path><path d="m26.9081633 17.6018051c0-.6163163-.2902041-1.1974592-.7838266-1.5669184l-1.3312653-.9987245c-.5348571-.4011428-1.1853367-.6177857-1.8528979-.6177857-1.1705511 0-2.2396225.6611327-2.7633674 1.7076123-.3773571.7544388-1.1483265 1.2311632-1.9923979 1.2311632h-.3379592c-.7706021 0-1.4966633.3630307-1.9594286.979347l-1.6656428 2.2209796c2.1255612 2.1079285 5.0489081 3.4119183 8.2786224 3.4119183 3.7100204 0 7.0140306-1.7230408 9.1682449-4.4081632h-2.8006531c-1.0822959 0-1.9594285-.8771327-1.9594285-1.9594286" stroke="#ee3124" stroke-width=".7"></path></g><path d="m22.5.91836735c-6.228551 0-11.2959184 5.06736734-11.2959184 11.29591835 0 6.228551 5.0673674 11.2959184 11.2959184 11.2959184s11.2959184-5.0673674 11.2959184-11.2959184c0-6.22855101-5.0673674-11.29591835-11.2959184-11.29591835zm-19.10204082 11.75510205c-1.3672653 0-2.47959183 1.1123265-2.47959183 2.4795918v20.1122449h4.95918367v-22.5918367zm3.39795919 22.5918367h31.40816323v-28.46938773h-4.7629285l.1767857.38938775c.7274388 1.60255102 1.0963469 3.29455098 1.0963469 5.02897958 0 4.2179694-2.1488877 8.0845714-5.7485204 10.3432959l-.1290306.081v3.5348878c0 .5569898.4532143 1.0102041 1.0102041 1.0102041h3.2997857l-1.2255612-1.2254694.6492857-.6492857 2.3339388 2.3339387-2.3339388 2.3339388-.6492857-.6492857 1.2255612-1.2254694h-3.2997857c-1.0633776 0-1.9285715-.8651939-1.9285715-1.9285714v-3.0181225l-.3893877.1768776c-1.3532143.6145714-2.8035.9710816-4.310449 1.0595204l-.2593469.0152449v7.2703469l1.2254694-1.2255612.6492857.6492857-2.3339388 2.3339388-2.3339388-2.3339388.6492857-.6492857 1.2254694 1.2255612v-7.2703469l-.2593469-.0152449c-1.5070408-.0884388-2.9572347-.444949-4.3103572-1.0595204l-.3894795-.1768776v3.0181225c0 1.0633775-.8651021 1.9285714-1.9285715 1.9285714h-3.2996939l1.2254694 1.2254694-.6492857.6492857-2.3339388-2.3339388 2.3339388-2.3339387.6492857.6492857-1.2254694 1.2254694h3.2996939c.5569898 0 1.0102041-.4532143 1.0102041-1.0102041v-3.5348878l-.1290306-.081c-3.5995408-2.2587245-5.7485204-6.1253265-5.7485204-10.3432959 0-1.7344286.3689081-3.42642856 1.0963469-5.02897958l.1768776-.38938775h-4.76302043zm32.32653063 0h4.9591837v-20.1122449c0-1.3672653-1.1123266-2.4795918-2.4795919-2.4795918h-2.4795918zm-38.20408165 1.9285715c0 1.3672653 1.11232653 2.4795918 2.47959183 2.4795918h38.20408162c1.3672653 0 2.4795919-1.1123265 2.4795919-2.4795918v-1.0102041h-43.16326535zm13.22448975 6.8877551h16.7142858v-3.489796h-16.7142858zm-3.8571428.9183673v-.9183673h2.9387755v-3.489796h-9.82653062c-1.87365306 0-3.39795918-1.5243061-3.39795918-3.3979591v-22.0408164c0-1.873653 1.52430612-3.3979592 3.39795918-3.3979592h2.47959184v-5.87755098h6.19815308l.081-.12903061c2.2587245-3.59954082 6.1253265-5.74852041 10.3432959-5.74852041s8.0845714 2.14897959 10.3432959 5.74852041l.081.12903061h6.1981531v5.87755098h2.4795918c1.8736531 0 3.3979592 1.5243062 3.3979592 3.3979592v22.0408164c0 1.873653-1.5243061 3.3979591-3.3979592 3.3979591h-9.8265306v3.489796h2.9387755v.9183673z" fill="#ee3124"></path></g></svg> 