<?xml version="1.0" encoding="UTF-8"?> <svg xmlns="http://www.w3.org/2000/svg" xmlns:xlink="http://www.w3.org/1999/xlink" height="56" viewBox="0 0 60 56" width="60"><mask id="a" fill="#fff"><path d="m.19215.63441h27.99965v28h-27.99965z" fill="#fff" fill-rule="evenodd"></path></mask><g fill="none" fill-rule="evenodd"><path d="m45.14937 45.56566c0 5.4117-4.3876 9.8-9.8 9.8-5.4117 0-9.8-4.3883-9.8-9.8 0-5.4124 4.3883-9.8 9.8-9.8 5.4124 0 9.8 4.3876 9.8 9.8" fill="#fff" opacity=".195731"></path><path d="m16.80007 31.39206c0 4.6389-3.7611 8.4-8.4 8.4-4.6396 0-8.4-3.7611-8.4-8.4 0-4.6396 3.7604-8.4 8.4-8.4 4.6389 0 8.4 3.7604 8.4 8.4" fill="#fff" opacity=".195731"></path><path d="m28.19215 14.63441c0 7.7322-6.2678 14-14 14-7.7315 0-14-6.2678-14-14 0-7.7315 6.2685-14 14-14 7.7322 0 14 6.2685 14 14" fill="#fff" mask="url(#a)" opacity=".195731" transform="translate(30.8 .06566)"></path><path d="m48.56873 12.07507h-39.1993v-5.6c0-.7728.6265-1.4 1.4-1.4h36.3993c.7728 0 1.4.6272 1.4 1.4z" fill="#dbe9f2"></path><path d="m44.36873 9.97507h-34.9993v-3.5c0-.7728.6265-1.4 1.4-1.4h34.9993v3.5c0 .7728-.6272 1.4-1.4 1.4" fill="#fff"></path><path d="m44.37076 9.27577c-.189 0-.371-.077-.497-.203-.133-.133-.203-.315-.203-.497 0-.1827.07-.3647.203-.4977.259-.2583.728-.2583.987 0 .133.133.21.315.21.4977 0 .189-.077.364-.21.497-.1253.126-.308.203-.49.203" fill="#1198eb"></path><path d="m39.47076 8.57577c0-.3857.308-.7.7-.7.385 0 .7.3143.7.7 0 .385-.315.7-.7.7-.392 0-.7-.315-.7-.7" fill="#1198eb"></path><path d="m35.97076 9.27577c-.189 0-.371-.077-.497-.2107-.133-.1253-.203-.3073-.203-.4893 0-.1827.07-.3647.203-.4977.252-.2583.728-.2583.987 0 .133.133.21.315.21.4977 0 .189-.077.364-.21.497-.1253.126-.308.203-.49.203" fill="#1198eb"></path><path d="m9.89373 11.55007h38.15v-5.075c0-.4823-.3927-.875-.875-.875h-36.4c-.4823 0-.875.3927-.875.875zm38.675 1.05h-39.2c-.2898 0-.525-.2352-.525-.525v-5.6c0-1.0619.8631-1.925 1.925-1.925h36.4c1.0619 0 1.925.8631 1.925 1.925v5.6c0 .2898-.2352.525-.525.525z" fill="#1198eb"></path><path d="m48.56873 12.07507h-39.2014v36.4c0 .7728.6279 1.4 1.4 1.4h36.4014c.7728 0 1.4-.6272 1.4-1.4z" fill="#dbe9f2"></path><path d="m45.76803 12.07507h-36.3986v35h34.9986c.7735 0 1.4-.6272 1.4-1.4z" fill="#fff"></path><path d="m9.89233 12.60007v35.875c0 .4823.3927.875.875.875h36.4014c.4823 0 .875-.3927.875-.875v-35.875zm37.2764 37.8h-36.4014c-1.0619 0-1.925-.8631-1.925-1.925v-36.4c0-.2898.2352-.525.525-.525h39.2014c.2898 0 .525.2352.525.525v36.4c0 1.0619-.8631 1.925-1.925 1.925z" fill="#1198eb"></path><path d="m52.76943 17.67507h-36.4014c-.7728 0-1.4.6272-1.4 1.4v23.8c0 .7728.6272 1.4 1.4 1.4h4.8986l.0007 5.6007 11.2014-5.6007h20.3007c.7728 0 1.4-.6272 1.4-1.4v-23.8c0-.7728-.6272-1.4-1.4-1.4" fill="#dbe9f2"></path><path d="m48.56873 17.67507h-32.2007c-.7728 0-1.4.6272-1.4 1.4v23.1h32.2007c.7728 0 1.4-.6272 1.4-1.4z" fill="#fff"></path><path d="m16.36803 18.20007c-.4823 0-.875.3927-.875.875v23.8c0 .4823.3927.875.875.875h4.8986c.2898 0 .525.2352.525.525v4.7509l10.4419-5.2206c.0728-.0364.1533-.0553.2345-.0553h20.3007c.4823 0 .875-.3927.875-.875v-23.8c0-.4823-.3927-.875-.875-.875zm4.8986 32.2007c-.0959 0-.1911-.0259-.2758-.0784-.1547-.0959-.2492-.2646-.2492-.4466v-5.0757h-4.3736c-1.0619 0-1.925-.8631-1.925-1.925v-23.8c0-1.0619.8631-1.925 1.925-1.925h36.4007c1.0619 0 1.925.8631 1.925 1.925v23.8c0 1.0619-.8631 1.925-1.925 1.925h-20.1768l-11.0908 5.5454c-.0735.0371-.1547.0553-.2345.0553z" fill="#1198eb"></path><path d="m46.47006 21.17577 1.3643 2.765 3.052.4431-2.2085 2.1525.5208 3.0394-2.7286-1.435-2.7293 1.435.5215-3.0394-2.2085-2.1525 3.052-.4431z" fill="#fff"></path><path d="m48.67807 26.53651 2.2078-2.1525-2.0307-.2954-1.4 1.365c-.3304.322-.4809.7854-.4025 1.2397l.3297 1.9278 1.8165.9548z" fill="#dbe9f2"></path><path d="m46.46943 27.61521c.084 0 .1673.0196.2443.0602l1.7878.9401-.3409-1.9901c-.0294-.1701.0273-.3437.1512-.4648l1.4462-1.4105-1.9985-.2905c-.1715-.0245-.3192-.1316-.3962-.287l-.8939-1.8116-.8932 1.8116c-.077.1554-.2247.2625-.3962.287l-1.9985.2905 1.4462 1.4105c.1239.1211.1806.2947.1512.4648l-.3409 1.9901 1.7871-.9401c.0763-.0406.1603-.0602.2443-.0602m-2.7286 2.485c-.1092 0-.2177-.0336-.3087-.1008-.1617-.1169-.2429-.3164-.2093-.5131l.4746-2.7664-2.0104-1.96c-.1428-.1393-.1946-.3479-.1323-.5383.0609-.1897.2254-.3283.4235-.357l2.7783-.4046 1.2418-2.5172c.1778-.3584.7644-.3584.9422 0l1.2425 2.5172 2.7783.4046c.1981.0287.3626.1673.4235.357.0623.1904.0105.399-.1323.5383l-2.0104 1.96.4746 2.7664c.0336.1967-.0476.3962-.2093.5131-.161.119-.3759.1337-.5523.0406l-2.4857-1.3062-2.485 1.3062c-.0763.0399-.1603.0602-.2436.0602" fill="#1198eb"></path><path d="m34.56873 21.17577 1.3643 2.765 3.052.4431-2.2085 2.1525.5215 3.0394-2.7293-1.435-2.7293 1.435.5215-3.0394-2.2085-2.1525 3.052-.4431z" fill="#fff"></path><path d="m36.77674 26.53651 2.2078-2.1525-2.0307-.2954-1.4 1.365c-.3304.322-.4809.7854-.4025 1.2397l.3297 1.9278 1.8172.9548z" fill="#dbe9f2"></path><path d="m34.56873 27.61521c.084 0 .168.0196.2443.0602l1.7871.9401-.3409-1.9901c-.0294-.1701.0273-.3437.1512-.4648l1.4462-1.4105-1.9985-.2905c-.1715-.0245-.3192-.1316-.3962-.287l-.8932-1.8116-.8939 1.8116c-.077.1554-.2247.2625-.3955.287l-1.9985.2905 1.4462 1.4105c.1239.1211.1806.2947.1512.4648l-.3416 1.9901 1.7878-.9401c.077-.0406.1603-.0602.2443-.0602m-2.7293 2.485c-.1092 0-.2177-.0336-.3087-.1008-.1617-.1176-.2429-.3164-.2093-.5131l.4753-2.7664-2.0104-1.96c-.1428-.1393-.1946-.3479-.1323-.5383.0609-.1897.2254-.3283.4228-.357l2.7783-.4046 1.2425-2.5172c.0889-.1792.2716-.2926.4711-.2926s.3822.1134.4711.2926l1.2418 2.5172 2.7783.4046c.1981.0287.3626.1673.4235.357.0623.1904.0105.399-.1323.5383l-2.0104 1.96.4746 2.7664c.0336.1967-.0476.3962-.2093.5131-.161.119-.3759.1337-.5523.0406l-2.485-1.3062-2.4857 1.3062c-.0763.0399-.1603.0602-.2436.0602" fill="#1198eb"></path><path d="m22.66733 21.17577 1.365 2.765 3.052.4431-2.2092 2.1525.5215 3.0394-2.7293-1.435-2.7286 1.435.5208-3.0394-2.2085-2.1525 3.052-.4431z" fill="#fff"></path><path d="m24.87534 26.53651 2.2085-2.1525-2.0307-.2954-1.4007 1.365c-.3304.322-.4809.7854-.4025 1.2397l.3304 1.9278 1.8165.9548z" fill="#dbe9f2"></path><g fill="#1198eb"><path d="m22.66733 27.61521c.084 0 .1673.0196.2443.0602l1.7878.9401-.3416-1.9901c-.0294-.1701.0273-.3437.1512-.4648l1.4462-1.4105-1.9985-.2905c-.1715-.0245-.3192-.1316-.3962-.287l-.8932-1.8109-.8932 1.8109c-.077.1554-.2247.2625-.3962.287l-1.9985.2905 1.4462 1.4105c.1239.1211.1806.2947.1512.4648l-.3416 1.9901 1.7878-.9401c.077-.0406.1603-.0602.2443-.0602m2.7293 2.485c-.0833 0-.1673-.0203-.2436-.0602l-2.4857-1.3062-2.4857 1.3062c-.1764.0931-.3913.0777-.5523-.0406-.1617-.1176-.2429-.3164-.2093-.5131l.4753-2.7664-2.0104-1.96c-.1428-.1393-.1946-.3479-.1323-.5383.0609-.1897.2254-.3283.4235-.357l2.7783-.4046 1.2418-2.5172c.1778-.3584.7644-.3584.9422 0l1.2418 2.5172 2.7783.4046c.1981.0287.3626.1673.4235.357.0623.1904.0105.399-.1323.5383l-2.0104 1.96.4753 2.7664c.0336.1967-.0476.3955-.2093.5131-.091.0672-.1995.1008-.3087.1008"></path><path d="m50.88608 33.60007h-11.3939c-.2898 0-.525-.2352-.525-.525s.2352-.525.525-.525h11.3939c.2898 0 .525.2352.525.525s-.2352.525-.525.525"></path><path d="m36.69197 33.60007h-7.9625c-.2898 0-.525-.2352-.525-.525s.2352-.525.525-.525h7.9625c.2898 0 .525.2352.525.525s-.2352.525-.525.525"></path><path d="m25.92947 33.60007h-7.6783c-.2898 0-.525-.2352-.525-.525s.2352-.525.525-.525h7.6783c.2898 0 .525.2352.525.525s-.2352.525-.525.525"></path><path d="m50.88608 37.10077h-6.0319c-.2898 0-.525-.2352-.525-.525s.2352-.525.525-.525h6.0319c.2898 0 .525.2352.525.525s-.2352.525-.525.525"></path><path d="m42.05341 37.10077h-7.4858c-.2898 0-.525-.2352-.525-.525s.2352-.525.525-.525h7.4858c.2898 0 .525.2352.525.525s-.2352.525-.525.525"></path><path d="m31.76733 37.10077h-13.5163c-.2898 0-.525-.2352-.525-.525s.2352-.525.525-.525h13.5163c.2898 0 .525.2352.525.525s-.2352.525-.525.525"></path><path d="m43.18475 40.60077h-14.455c-.2898 0-.525-.2352-.525-.525s.2352-.525.525-.525h14.455c.2898 0 .525.2352.525.525s-.2352.525-.525.525"></path><path d="m25.92947 40.60077h-7.6783c-.2898 0-.525-.2352-.525-.525s.2352-.525.525-.525h7.6783c.2898 0 .525.2352.525.525s-.2352.525-.525.525"></path></g></g></svg> 