<svg fill="none" height="80" viewBox="0 0 239 80" width="239" xmlns="http://www.w3.org/2000/svg"><path clip-rule="evenodd" d="m220.088 21.3646c-.527-.4014-1.218-.5839-1.94-.3692-.63.1889-1.262.3799-1.895.5688 4.897-3.3636 9.574-7.0192 14.055-10.9602-2.793 7.3197-5.69 14.5964-8.709 21.8259.037-2.9858.073-5.9716.112-8.9574.015-1.1935-.733-1.8804-1.623-2.1079zm-130.6253 3.0522c16.2393-.0837 14.1453 18.5245 4.2814 25.2646-6.3458 4.336-15.0333 5.7849-22.5812 6.2207-5.0513-13.4802 1.4386-31.3973 18.2998-31.4853zm144.8073-23.798364c-10.662 10.663964-22.592 19.404564-35.963 26.387264-2.31 1.2063-.721 4.9435 1.774 4.1986 4.425-1.3265 8.851-2.651 13.276-3.9754-13.827 19.6107-34.664 32.4105-57.437 39.8954-23.45 7.7082-60.4709 16.9511-79.8911-3.355-1.0214-1.0669-1.9096-2.2346-2.688-3.4688 10.7477-.8093 22.7232-3.823 29.1741-12.7246 5.275-7.2789 5.849-18.4709-1.873-24.3481-19.9253-15.16521-41.3733 13.9846-34.7931 32.7925-25.0671-.3563-48.4547-13.6669-63.02149-33.9237-1.00853-1.4038-3.294397-.1567-2.365428 1.3781 14.018418 23.1653 40.285418 37.3431 67.386818 37.0383 13.1002 24.7452 49.0222 20.7505 72.1072 15.7083 30.064-6.562 59.123-20.8707 77.083-46.2148-.061 4.6516-.119 9.3031-.177 13.9546-.028 2.1294 3.338 3.3164 4.277 1.157 6.069-13.9267 11.731-28.0079 16.971-42.26728.818-2.221651-2.303-3.769298-3.84-2.232384z" fill="#b2e4ff" fill-rule="evenodd"/></svg>