<?xml version="1.0" encoding="UTF-8"?> <svg xmlns="http://www.w3.org/2000/svg" fill="none" height="28" viewBox="0 0 28 28" width="28"><path d="m22.9007 21.5257c1.7855-2.1011 2.7659-4.7687 2.7659-7.526 0-2.7574-.9804-5.42491-2.7659-7.52604l.8361-.83611c.1823-.18243.2846-.42981.2845-.68771 0-.2579-.1026-.50521-.285-.68751s-.4298-.28466-.6877-.28457-.5052.10263-.6875.28506l-.8361.83611c-2.1012-1.78556-4.7687-2.76592-7.5261-2.76592-2.7573 0-5.42484.98036-7.52597 2.76592l-.83611-.83611c-.18349-.17698-.42915-.2748-.68406-.27241-.25492.0024-.4987.10482-.67883.2852-.18013.18039-.28221.42431-.28424.67923s.09614.50044.27337.68368l.83612.83611c-1.78557 2.10113-2.76593 4.76867-2.76593 7.52597 0 2.7574.98036 5.4249 2.76593 7.5261l-.83612.8361c-.09279.0897-.16678.1971-.21765.3157-.05086.1187-.07759.2463-.07862.3753-.00103.1291.02366.2571.07263.3766.04897.1194.12123.2279.21258.3192.09135.0912.19995.1633.31947.2121.11951.0488.24755.0733.37664.0721s.25665-.0281.37523-.0792c.11858-.051.2258-.1252.31542-.2181l.83612-.8361c2.10113 1.7856 4.76862 2.7659 7.52602 2.7659 2.7573 0 5.4249-.9803 7.526-2.7659l.8361.8361c.1835.177.4292.2748.6841.2724s.4987-.1048.6788-.2852.2822-.4243.2842-.6792c.0021-.2549-.0961-.5004-.2733-.6837zm.8215-7.526c.0018 2.2424-.7756 4.4158-2.1992 6.1483l-3.4718-3.4718c.528-.7927.8098-1.724.8098-2.6765 0-.9526-.2818-1.8838-.8098-2.6766l3.4718-3.47179c1.4236 1.73258 2.201 3.90599 2.1992 6.14839zm-12.639 0c0-.5769.1711-1.1408.4916-1.6204.3205-.4797.776-.8535 1.309-1.0743.5329-.2207 1.1194-.2785 1.6851-.166.5658.1126 1.0855.3904 1.4934.7983s.6857.9276.7983 1.4934c.1125.5657.0547 1.1522-.166 1.6851-.2208.533-.5946.9885-1.0743 1.309-.4796.3205-1.0435.4916-1.6204.4916-.7735 0-1.5154-.3073-2.0624-.8543s-.8543-1.2889-.8543-2.0624zm2.9167-9.7223c2.2424-.00179 4.4158.77559 6.1484 2.19918l-3.4718 3.47182c-.7928-.52805-1.7241-.80981-2.6766-.80981s-1.8838.28176-2.6765.80981l-3.47185-3.47182c1.73258-1.42359 3.90595-2.20097 6.14835-2.19918zm-9.72226 9.7223c-.00178-2.2424.7756-4.41581 2.19918-6.14839l3.47183 3.47179c-.52806.7928-.80982 1.724-.80982 2.6766 0 .9525.28176 1.8838.80982 2.6765l-3.47183 3.4718c-1.42358-1.7325-2.20096-3.9059-2.19918-6.1483zm9.72226 9.7222c-2.2424.0018-4.41577-.7755-6.14835-2.1991l3.47185-3.4719c.7927.5281 1.724.8099 2.6765.8099s1.8838-.2818 2.6766-.8099l3.4718 3.4719c-1.7326 1.4236-3.906 2.2009-6.1484 2.1991z" fill="#1ab394"></path></svg> 