<?xml version="1.0" encoding="UTF-8"?> <svg xmlns="http://www.w3.org/2000/svg" fill="none" height="28" viewBox="0 0 28 28" width="28"><g fill="#1ab394"><path d="m15.7947 19.1202-3.1718 3.1718c-1.935 1.8832-5.03016 1.8413-6.91338-.0936-1.84689-1.8976-1.8473-4.9207-.00095-6.8188l3.17177-3.1747c.37967-.3799.37945-.9957-.0005-1.3754-.37994-.3796-.99571-.3794-1.37538.0005l-3.17082 3.1747c-2.66813 2.6695-2.66704 6.9965.00241 9.6647 2.66946 2.6681 6.99645 2.667 9.66465-.0024l3.1718-3.1718c.373-.3863.3623-1.0018-.0239-1.3749-.3768-.364-.9742-.364-1.351 0h-.0029z"></path><path d="m23.6694 4.3346c-1.278-1.28683-3.018-2.00852-4.8316-2.00401-1.8126-.00483-3.552.71536-4.8306 2.00013l-3.1767 3.17273c-.3799.37967-.3802.99544-.0005 1.37539.3797.37994.9955.38017 1.3754.0005l3.1747-3.17178c.9143-.91987 2.1587-1.43559 3.4557-1.43226 2.7001.00091 4.8882 2.19046 4.8873 4.89055-.0004 1.29585-.5153 2.53865-1.4316 3.45505l-3.1718 3.1718c-.3799.38-.3799.996 0 1.3759.38.3799.996.3799 1.3759 0l3.1718-3.1699c2.6644-2.6701 2.6653-6.99292.002-9.6641z"></path><path d="m16.23 10.394-5.834 5.8341c-.3863.3731-.39698.9886-.0239 1.3749.373.3862.9886.3969 1.3749.0239.0081-.0079.016-.0158.0238-.0239l5.8341-5.8341c.3731-.3863.3624-1.0018-.0239-1.3749-.3768-.3639-.9741-.3639-1.351 0z"></path></g></svg> 