<?xml version="1.0" encoding="UTF-8"?> <svg xmlns="http://www.w3.org/2000/svg" fill="none" height="28" viewBox="0 0 28 28" width="28"><path d="m6.22278 8.04488c-.38329.00099-.76297-.07274-1.11708-.21691-.3541-.14417-.67561-.35593-.94591-.62301l-1.50106-1.31292c-.19261-.16878-.30911-.40585-.32388-.65906s.07341-.50181.24513-.69112.41292-.30382.67054-.31833c.25762-.01452.51056.07215.70316.24093l1.54092 1.35114c.08822.09736.19577.17596.31604.23094s.25072.0852.38332.08878c.13259.00358.26453-.01955.38769-.06796.12317-.04841.23495-.12108.32846-.21354l3.50379-3.27847c.1884-.16486.4346-.25129.6867-.24104.252.01026.4901.1164.664.296s.27.4186.2679.66652c-.0021.24793-.1021.48536-.2789.66215l-3.48922 3.26222c-.26855.26241-.58709.47022-.9374.61155-.35031.14134-.72553.21342-1.1042.21213zm19.44382-1.91109c0-.25342-.1024-.49647-.2848-.67567-.1823-.1792-.4296-.27987-.6874-.27987h-9.7219c-.2579 0-.5051.10067-.6875.27987-.1823.1792-.2847.42225-.2847.67567 0 .25343.1024.49647.2847.67567.1824.1792.4296.27988.6875.27988h9.7219c.2578 0 .5051-.10068.6874-.27988.1824-.1792.2848-.42224.2848-.67567zm-17.40222 8.73171 3.48922-3.2622c.0974-.0852.1763-.1888.2321-.3046s.0874-.2415.0928-.3695c.0054-.1281-.0155-.2559-.0614-.3759-.0459-.1199-.1158-.2296-.2057-.3224s-.1979-.167-.3175-.2179c-.1196-.05102-.2485-.07784-.3789-.07888-.1303-.00105-.2596.0237-.3801.07278-.1204.049-.2296.1214-.321.2128l-3.4999 3.2785c-.18507.1739-.43127.271-.68734.271-.25606 0-.50226-.0971-.68733-.271l-1.54579-1.5146c-.18335-.174-.42893-.2703-.68384-.2682-.2549.0022-.49874.1027-.67899.2799-.18025.1771-.2825.4168-.28471.6673-.00222.2506.09577.4919.27287.6722l1.54092 1.5145c.54411.5349 1.28126.8368 2.05083.8398.76957.0031 1.50917-.293 2.05764-.8236zm17.40222-1.0874c0-.2534-.1024-.4964-.2848-.6756-.1823-.1792-.4296-.2799-.6874-.2799h-9.7219c-.2579 0-.5051.1007-.6875.2799-.1823.1792-.2847.4222-.2847.6756 0 .2535.1024.4965.2847.6757.1824.1792.4296.2799.6875.2799h9.7219c.2578 0 .5051-.1007.6874-.2799.1824-.1792.2848-.4222.2848-.6757zm-17.40222 8.7318 3.48532-3.2622c.0974-.0852.1763-.1888.2321-.3047.0558-.1158.0874-.2415.0928-.3695s-.0155-.2558-.0614-.3758-.1158-.2296-.2057-.3225c-.0899-.0928-.1979-.1669-.3175-.2179s-.2485-.0778-.3788-.0788c-.1304-.0011-.2597.0237-.3801.0727-.1205.0491-.2297.1215-.3211.2128l-3.49989 3.2785c-.09351.0925-.20529.1651-.32846.2136-.12316.0484-.2551.0715-.38769.0679-.1326-.0036-.26305-.0338-.38332-.0888s-.22782-.1335-.31604-.2309l-1.54092-1.3512c-.1926-.1687-.44554-.2554-.70316-.2409s-.49882.129-.67054.3183c-.17172.1894-.2599.438-.24513.6912s.13127.4902.32388.659l1.50106 1.3129c.54411.535 1.28126.8368 2.05083.8399.76957.003 1.50917-.293 2.05764-.8236zm17.40222-1.0874c0-.2534-.1024-.4965-.2848-.6757-.1823-.1792-.4296-.2799-.6874-.2799h-9.7219c-.2579 0-.5051.1007-.6875.2799-.1823.1792-.2847.4223-.2847.6757s.1024.4965.2847.6757c.1824.1792.4296.2798.6875.2798h9.7219c.2578 0 .5051-.1006.6874-.2798.1824-.1792.2848-.4223.2848-.6757z" fill="#1ab394"></path></svg> 