<?xml version="1.0" encoding="UTF-8"?> <svg xmlns="http://www.w3.org/2000/svg" fill="none" height="28" viewBox="0 0 28 28" width="28"><path d="m19.8333 4.6665h-11.66672c-3.21708 0-5.83333 2.61625-5.83333 5.8333v8.75c0 1.6081 1.30861 2.9167 2.91667 2.9167h17.49998c1.6081 0 2.9167-1.3086 2.9167-2.9167v-8.75c0-3.21705-2.6163-5.8333-5.8333-5.8333zm-15.5556 14.5833v-8.75c0-2.14469 1.74416-3.88885 3.88888-3.88885s3.88892 1.74416 3.88892 3.88885v8.75c0 .5367-.4366.9723-.9722.9723h-5.83338c-.5357 0-.97222-.4356-.97222-.9723zm19.4444 0c0 .5367-.4355.9723-.9722.9723h-8.9172c.1079-.3043.1672-.631.1672-.9723v-8.75c0-1.49232-.5639-2.85635-1.4894-3.88885h7.3228c2.1447 0 3.8888 1.74416 3.8888 3.88885zm-1.9444-7.7777v1.9444c0 .5367-.4346.9722-.9722.9722-.5377 0-.9722-.4355-.9722-.9722v-.9722h-2.9167c-.5377 0-.9722-.4356-.9722-.9722 0-.5367.4345-.9723.9722-.9723h3.8889c.5376 0 .9722.4356.9722.9723zm-11.6667 0c0 .5366-.43553.9722-.97219.9722h-1.94445c-.53666 0-.97222-.4356-.97222-.9722 0-.5367.43556-.9723.97222-.9723h1.94445c.53666 0 .97219.4356.97219.9723z" fill="#1ab394"></path></svg> 