<?xml version="1.0" encoding="UTF-8"?> <svg xmlns="http://www.w3.org/2000/svg" fill="none" height="40" viewBox="0 0 40 40" width="40"><path d="m29.8333 18.1667c-5.3333-3.1667-14.25-3.5-19.3333-1.9167-.83335.25-1.66669-.25-1.91669-1-.25-.8333.25-1.6666 1-1.9166 5.91669-1.75 15.66669-1.4167 21.83329 2.25.75.4166 1 1.4166.5834 2.1666-.4167.5834-1.4167.8334-2.1667.4167zm-.1667 4.6667c-.4166.5833-1.1666.8333-1.75.4166-4.5-2.75-11.3333-3.5833-16.5833-1.9166-.6667.1666-1.41665-.1667-1.58332-.8334-.16667-.6666.16667-1.4166.83332-1.5833 6.0833-1.8333 13.5833-.9167 18.75 2.25.5.25.75 1.0833.3333 1.6667zm-2 4.5833c-.3333.5-.9166.6667-1.4166.3333-3.9167-2.4166-8.8334-2.9166-14.6667-1.5833-.5833.1667-1.0833-.25-1.25-.75-.1667-.5833.25-1.0833.75-1.25 6.3333-1.4167 11.8333-.8333 16.1667 1.8333.5833.25.6666.9167.4166 1.4167zm-7.6666-24.08333c-2.1887 0-4.356.4311-6.3781 1.26868s-3.85939 2.06523-5.40703 3.61288c-3.12561 3.12557-4.88156 7.36487-4.88156 11.78507 0 4.4203 1.75595 8.6595 4.88156 11.7852 1.54764 1.5476 3.38493 2.7753 5.40703 3.6128 2.0221.8376 4.1894 1.2687 6.3781 1.2687 4.4203 0 8.6595-1.7559 11.7851-4.8815 3.1256-3.1257 4.8815-7.3649 4.8815-11.7852 0-2.1887-.4311-4.3559-1.2686-6.378-.8376-2.0221-2.0653-3.85943-3.6129-5.40707-1.5477-1.54765-3.385-2.7753-5.4071-3.61288s-4.1893-1.26868-6.378-1.26868z" fill="#fcfcfc"></path></svg> 