<?xml version="1.0" encoding="UTF-8"?> <svg xmlns="http://www.w3.org/2000/svg" fill="none" height="28" viewBox="0 0 28 28" width="28"><path d="m24.8104 3.19044c-.3486-.3528-.7823-.60974-1.2592-.74599-.477-.13625-.981-.14721-1.4634-.03181l-15.55757 3.27647c-.89594.12286-1.73979.49339-2.43651 1.06987s-1.21864 1.33601-1.50698 2.19305-.33164 1.77757-.12504 2.65787.6549 1.6855 1.29442 2.3248l1.6705 1.6694c.09041.0904.16211.1977.211.3158.04888.1181.07399.2447.07389.3725v3.0801c.00215.4331.10185.8601.29171 1.2493l-.00778.0068.02528.0253c.28491.5728.75025 1.036 1.32434 1.3184l.02528.0253.00681-.0078c.38929.1898.81636.2895 1.24947.2917h3.08038c.2578-.0002.505.1019.6875.2839l1.6695 1.6693c.4478.4527.9808.8123 1.5682 1.0581s1.2177.3729 1.8545.374c.5306-.0006 1.0577-.0873 1.5606-.2566.8493-.2789 1.6038-.7895 2.1783-1.4743.5745-.6847.9463-1.5164 1.0732-2.4011l3.2817-15.58999c.1214-.48647.1143-.99614-.0207-1.47902-.135-.48287-.3933-.92236-.7494-1.27535zm-18.00694 11.04086-1.67147-1.6694c-.38921-.3798-.662-.8627-.78635-1.3921s-.0951-1.0832.08432-1.59657c.17394-.52664.49551-.99224.92645-1.34144.43094-.34919.95311-.56728 1.50442-.62833l15.40297-3.24244-14.60953 14.60998v-2.6786c.00147-.3827-.07296-.7619-.219-1.1157s-.36078-.6752-.63181-.9454zm13.58474 6.971c-.0747.537-.2976 1.0426-.6436 1.4599-.3461.4174-.8017.7301-1.3156.903-.5139.1728-1.0659.1991-1.5939.0757s-1.0111-.3914-1.3952-.7741l-1.6725-1.6723c-.2699-.2714-.591-.4866-.9447-.6331-.3536-.1466-.7329-.2215-1.1157-.2205h-2.6788l14.6115-14.60512z" fill="#1ab394"></path></svg> 