<?xml version="1.0" encoding="UTF-8"?> <svg xmlns="http://www.w3.org/2000/svg" xmlns:xlink="http://www.w3.org/1999/xlink" height="66" viewBox="0 0 65 66" width="65"><mask id="a" fill="#fff"><path d="m0 0h65v66h-65z" fill="#fff" fill-rule="evenodd"></path></mask><g fill="none" fill-rule="evenodd" mask="url(#a)"><g fill-rule="nonzero" transform="translate(-.000439 -.051654)"><path d="m.00043891 43.1296026 7.72607422 4.9220512 2.27392577-1.8461538 3.686864 4.5048569c-1.2085918 2.1256509-1.2085918 3.4448866 0 3.9577072 1.2085919.5128205 2.4171837.9736415 3.6257755 1.382463-.3453788 1.0099201-.2322901 1.8439553.3392661 2.5021059.5715563.6581506 1.35444.9872259 2.3486511.9872259-.4989781 1.9473505-.2904821 3.1179487.6254881 3.5117949.9159701.3938462 2.2745086.227472 4.0756154-.4991225.4797787 1.6660816 1.3704037 2.4991225 2.6718749 2.4991225s2.5102928-.4697436 3.6264649-1.4092308l2 .4092308 3-3 4 1.5008775 2.9452457-3.6586645 2.2058742.6459921c1.9125998-.836923 2.5288931-2.4608547 1.8488801-4.8717948-.2146-.5774359 6 3.7483358 7 .5659627.6666667-2.121582-.1854655-3.8490396-2.5563965-5.182373l2.9707031-3.2609863 2.5856934 2.2609864 8.1535789-5.0000001-10.2763157-19.4192545-8.9433355 7.4192545-.7828078.5-18.1511199.5-8.49076.7795411-.50924-2.2651368-8.99999999-7.2651453z" fill="#fff"></path><path d="m51.2064936 40.0516539c2.0755208 3.5890598 5.9560547 3.5890598 11.6416016 0 0 0 .7687203 1.5 2.3061611 4.5l-8.1538174 4.5z" fill="#e6e5ff"></path><path d="m.00043811 39.0516539c2.07552083 3.5890598 5.95605469 3.5890598 11.64160159 0 0 0 .7687204 1.5 2.3061612 4.5l-8.15381748 4.5z" fill="#e6e5ff" transform="matrix(-1 0 0 1 13.94864 0)"></path><circle cx="33.000439" cy="14.051654" fill="#fff" r="13"></circle><path d="m23.0004389 10.0516538c0 7.1797017 5.8202983 13.0000001 13 13.0000001 3.35085 0 6.4055952-1.2677758 8.7107454-3.349837-2.1014037 4.3492694-6.5556645 7.349837-11.7107454 7.349837-7.1797017 0-13-5.8202984-13-13.0000001 0-3.8288517 1.6552726-7.27109377 4.2892546-9.65016297-.8261585 1.7079118-1.2892546 3.62495647-1.2892546 5.65016297z" fill="#e6e5ff"></path><path d="m13.6873029 42.3603717c5.3734708 5.0595605 9.9356945 8.3928939 13.6866711 10 3.7509766 1.6071063 8.6083985 3.634877 14.5722657 6.0833119l-.9458008 3.8905512-5-1.282581-2 3.0000001h-3l-4 1-3-2h-2.7231445l-1.2768555-3.5117949-2.6873605-1.601641-1.3126395-1.8876908-3.0615234-1.9988733v-3.341297l-2.9384766-4.5048569z" fill="#e6e5ff"></path><g fill="#706f75"><path d="m51.4394359 57.0516539c-.687549 0-1.3680822-.1996786-1.9515634-.583676l-11.4264098-7.5298927c-.3858693-.254029-.493445-.7750839-.2420453-1.1649889.2490611-.3887235.7658922-.4962427 1.1505922-.2457583l11.4275791 7.5310743c.446673.2953825.9775357.3863604 1.4967053.2552105.5180004-.1287868.9459646-.4607968 1.2043801-.9334089.4875985-.8908739.2022891-2.0133277-.6513007-2.5556501l-15.8440291-10.0784537c-.710935-.4525262-1.5317843-.6911952-2.3736811-.6911952h-7.4753415v1.9908786c0 1.8809963-1.5142448 3.4122596-3.3769414 3.4122596s-3.3769414-1.5312633-3.3769414-3.4122596v-5.7469635c0-.8837846.5121539-1.6966775 1.3026014-2.0735857l6.5071602-3.0944279c.1110836-.0531688.2315216-.0791625.3542982-.0791625h17.7698679c.4607046 0 .8325424.3757266.8325424.8412495 0 .4643415-.3718378.8412496-.8325424.8412496h-17.583949l-6.3387809 3.0129023c-.2116435.0992485-.3472824.3166501-.3472824.5517746v5.7469635c0 .9546765.7682308 1.7297605 1.713026 1.7297605s1.713026-.7750839 1.713026-1.7297605v-2.8321282c0-.4655229.3718377-.840068.8313731-.840068h8.3078838c1.1564388 0 2.2824757.3272839 3.2600113.9487688l15.8451984 10.0784536c1.5984345 1.0172976 2.1351437 3.1239662 1.219581 4.7946501-.4770748.8719693-1.3014321 1.5099957-2.2602589 1.7510279-.2818016.0708918-.5682803.1051563-.8547591.1051563"></path><path d="m44.3260051 60.0516538c-.7216322 0-1.4248789-.2216122-2.037347-.649348l-7.9264636-5.5236278c-.3746053-.2609306-.4745766-.7875578-.2229246-1.1759751s.7607015-.4920747 1.1353067-.231144l7.9253145 5.5224363c.4573402.3193124 1.0066081.4313101 1.5466831.3157381.538926-.1167635.9997135-.4444161 1.2984784-.9245762.6021263-.9722347.3320887-2.274505-.599828-2.905981l-7.2036823-4.869514c-.3780526-.2561648-.4849185-.7816005-.2378629-1.1735922s.7526578-.5016064 1.1318595-.2478245l7.2025332 4.8707054c1.6834255 1.1390396 2.1694931 3.4909899 1.0824483 5.2412508-.5354787.8685774-1.3685732 1.460735-2.3430065 1.6716242-.2493538.0536158-.5021549.079828-.7515088.079828"></path><path d="m39.170673 63.0516539c-.7096249 0-1.4240772-.1825865-2.0576709-.5635385l-5.7180322-3.439839c-.3994657-.2400674-.514116-.7371084-.2582649-1.1090439.2582649-.3719353.7892768-.4790076 1.1875356-.2400674l5.7192391 3.439839c.9208228.5556491 2.1590459.3460128 2.8167765-.4711181.3499851-.4350517.4887723-.9715404.3922247-1.5057748-.0965476-.5364887-.4163616-.9985903-.9003065-1.3006469l-3.7291514-2.342066c-.3946384-.2457028-.4984271-.7461249-.234128-1.112425.2642991-.3674272.7989315-.4666099 1.192363-.218653l3.7291514 2.3409389c.8785833.5511407 1.4590758 1.390813 1.6352752 2.3646076.1761994.9749216-.0760313 1.9464619-.7108318 2.7365429-.7446234.9264573-1.8959537 1.4212442-3.0641798 1.4212442"></path><path d="m32.1067098 65.0516539c-.6971618 0-1.3981125-.1791216-2.0283366-.5569948l-.6491688-.3889146c-.4230963-.2515065-.5557086-.7900983-.2955359-1.1998697.2601727-.4122251.8133554-.5385918 1.2364517-.2858585l.6504318.3876879c.930812.5569948 2.1596859.3153032 2.7949619-.5520872.3334252-.4551652.4571967-1.0084793.3485809-1.5581128-.1086158-.5484067-.4357261-1.0182942-.9207082-1.3213288l-1.467576-.9189185c-.4167815-.2600944-.5367641-.8011399-.2690136-1.2060038.2702765-.4036371.8259852-.5214157 1.2440297-.2613213l1.466313.9176916c.9017636.5655827 1.5092542 1.4378805 1.7113301 2.4610822.2033388 1.0219748-.0277854 2.0525376-.6479058 2.9002982-.7527326 1.0268822-1.9538211 1.5826501-3.1738542 1.5826501"></path><path d="m27.6385537 60.7202102c-.4624566 0-.9213829.1899482-1.253222.5592916l-.2800627.3107175c-.3118346.3470656-.4612799.7926228-.4236244 1.2557677.0376555.4643176.2600583.8793893.6224924 1.1713465.6907431.5510839 1.6980276.4736976 2.2934551-.1735328l.2847697-.309545c.3177183-.3458931.4742239-.7926228.4389219-1.2592854-.0364788-.4596274-.2494677-.8723541-.6048414-1.1654838-.3330158-.2673343-.7072173-.3892763-1.0778886-.3892763m-.2824162 5.3314436c-.7401659 0-1.4838619-.2403663-2.099294-.7339968-.7272217-.5803969-1.1684971-1.4081952-1.2449848-2.3333126-.075311-.9251175.2235795-1.8150593.8460719-2.5068455l.2788861-.31189c1.1861481-1.3190838 3.19248-1.4879266 4.5857334-.3927939.7460495.6003297 1.1990922 1.4586136 1.2685195 2.3766959.0694274.9180823-.2494676 1.8338196-.8743135 2.5127081l-.283593.309545c-.6577944.714064-1.5662333 1.0798898-2.4770256 1.0798898"></path><path d="m25.6870039 54.7710313c-.4534422 0-.9046001.2002578-1.2301191.5887097l-3.4185201 4.0920151c-.2981069.3546734-.4420205.8118886-.4066132 1.2847865.0354074.4741044.2478513.9011602.5962137 1.2015468.6773079.5911225 1.6721395.5115019 2.260358-.1773366l3.4619227-4.0522048c.3038177-.3558799.4523-.8143014.419177-1.2920248-.0342652-.4753107-.2444248-.9059857-.5927872-1.2087851-.3517889-.3064186-.7218525-.4367068-1.0896318-.4367068m-3.4185202 9.2806225c-.7309899 0-1.4642642-.2581636-2.0730418-.784142-.6910139-.6007735-1.1124753-1.4500596-1.1844321-2.3922364-.0708147-.9433832.2158704-1.852988.8086576-2.5599222l3.417378-4.0920151c1.1730104-1.3993919 3.1603893-1.5682841 4.5264268-.38242l-.4728592.7021087.5162617-.6635048c.6967248.6055989 1.117044 1.4597106 1.1844321 2.410332.066246.9482087-.2295765 1.8614325-.8337854 2.5683668l-3.4619227 4.0522047c-.645327.7551891-1.5339367 1.1412283-2.427115 1.1412283"></path><path d="m20.5911949 53.6573707c-.516176 0-1.0288722.2158551-1.3745362.6317434l-1.1796652 1.4171847c-.2934664.3537311-.4257003.7967426-.3735027 1.247665s.2830269.8532492.6495699 1.1335217c.7156867.5469836 1.7515187.4543128 2.3546907-.2113345l1.2411423-1.3697192c.324785-.3593818.4790578-.8193452.43266-1.2973908-.0463979-.4791757-.2865067-.9041051-.6762487-1.1979392-.3178252-.2373276-.6971276-.3537311-1.0741101-.3537311m-1.2179434 6.3942832c-.7296062 0-1.4638521-.2294168-2.0786236-.697291-.7180066-.5481138-1.1703856-1.3369454-1.2724609-2.2207082-.1020752-.8826326.1577527-1.7494433.731926-2.4399536l1.1808252-1.4183148c1.1587862-1.3911917 3.2849675-1.6330398 4.73954-.5356822.7446854.5605452 1.2225832 1.4058834 1.3107391 2.3167692.0893159.912016-.2169099 1.8285525-.839801 2.5156723l-1.2399824 1.3697192c-.6634892.7323251-1.594926 1.1097891-2.5321624 1.1097891"></path><path d="m15.7730753 50.7103569c-.4385652 0-.8735746.1841424-1.1770143.5396073l-.5452433.6340095c-.2773629.3216666-.4018206.7307426-.3532228 1.1491422.0497831.4207306.2666951.7890155.6104354 1.0430855.688666.5023127 1.6203208.3846014 2.1406725-.2575663l.5274636-.647995c.2595833-.3205012.3769291-.7214189.3247754-1.1293295-.0509684-.4090759-.2619538-.7703681-.5938411-1.0186108-.2785482-.2097826-.6080647-.3123429-.9340254-.3123429m-.5239077 5.341297c-.6720716 0-1.3488844-.2062862-1.9308724-.632844-.7289665-.5337801-1.1947939-1.3297883-1.2967307-2.1945586-.1019368-.8659359.1683142-1.7446917.7396343-2.4101685l.5452433-.635175c1.1106369-1.293659 3.055733-1.5034416 4.4235824-.4755071.6969632.5221255 1.1390844 1.2796736 1.2457624 2.1351202.106678.8542812-.1351255 1.6957423-.6815541 2.3693774l-.5262783.647995c-.6388829.7843537-1.5752789 1.1957606-2.5187869 1.1957606"></path><path d="m14.4268907 52.0516539c-.21455 0-.4279527-.0876683-.5885784-.2630049l-4.60880947-5.0091018c-.27306364-.2954301-.30518877-.7517856-.07916551-1.0856457l8.29516868-12.281967c.1537417-.2269768.4004169-.3602806.6665965-.3602806h8.0725874c.4508993 0 .815749.3818975.815749.8538651 0 .4719677-.3648497.8550661-.815749.8550661h-7.6503713l-7.6606973 11.3428354 4.1407004 4.5011062c.3132201.3386638.3028941.8802857-.0217992 1.208141-.158331.1597245-.3625551.2389862-.5656318.2389862"></path><path d="m57.1761231 49.5723084c-.9216842 0-1.8202105-.4538182-2.376-1.2929091-2.1015789-3.1672728-6.6497895-10.173091-9.1751579-14.066-.8302105-1.2834546-.5418947-3.0195455.6565263-3.9508182l7.4417895-5.7885455c.3612632-.2836363.8788421-.2103636 1.1544211.1583637.2755789.369909.2049473.897-.1563158 1.1794545l-7.4417895 5.7873636c-.5106316.3982728-.6345263 1.1392728-.2790526 1.6864546 2.5230526 3.8893636 7.0666315 10.8892727 9.1647368 14.0506363.3716842.5613637 1.1046316.7185455 1.6673684.358091l6.0592632-3.8858182c.3867368-.247.8938947-.1276364 1.1358947.2647272.242.3935455.1262105.9123637-.2582105 1.1593637l-6.0604211 3.8858182c-.4793684.3072727-1.0096842.4538182-1.5330526.4538182"></path><path d="m7.62926244 48.2698976c-.49058824.0011654-.98588235-.1241073-1.44235294-.3841074l-5.76117647-3.2712727c-.40235294-.2280909-.54470589-.7421818-.31764706-1.1451818.22823529-.4041818.73764706-.5460001 1.14117647-.3179092l5.76235294 3.2712729c.56.3167272 1.26352941.1595454 1.63294118-.3710911l8.64705884-12.402c.3729411-.5353636.2788235-1.2574545-.2211765-1.677l-8.29294117-6.8651818c-.35764706-.2942727-.40941176-.8249091-.11529411-1.183.29529411-.3580909.82235294-.4089091 1.17882353-.1134545l8.30117645 6.8675454c1.1752941.9891819 1.3964706 2.679182.5211765 3.9342729l-8.6470588 12.402c-.56588239.8142726-1.46588239 1.2551073-2.38705886 1.2551073"></path><path d="m50.7711177 51.0516539c-.1960124 0-.3898588-.0727114-.5403876-.218134-.3032234-.2940532-.3075552-.7763005-.0097464-1.0767695l3.4589133-3.477313c.2978088-.3004689.7862151-.3036767 1.0894386-.0096235.3043064.2951225.3086381.7773698.0097464 1.0767694l-3.4578304 3.477313c-.1516117.1518384-.3508728.2277576-.5501339.2277576"></path><path d="m4.81824881 43.0516538c-.15984239 0-.31968479-.045987-.46112806-.14256-.37373222-.2563784-.46917768-.7645363-.21273988-1.1381818l4.36289244-6.3634709c.2564378-.3724959.76471362-.4679192 1.13729589-.2126906.3725823.2563784.4680277.7645363.21273988 1.137032l-4.36289244 6.363471c-.15869245.232235-.41513025.3564003-.67616783.3564003"></path><path d="m59.1496168 44.0516539c-.2836618 0-.5625362-.132755-.7229188-.3737221l-4.2968192-6.412402c-.2489522-.371491-.1280667-.8601187.2704962-1.0932767.3997597-.2320423.9263894-.1193679 1.1741447.2532386l4.2968191 6.4112864c.2489522.371491.1268699.8623499-.271693 1.0955078-.1400356.0803224-.2968276.119368-.450029.119368"></path><path d="m32.6477589 28.1261539c-7.79636 0-14.13808-6.3092309-14.13808-14.063077 0-7.75384613 6.34172-14.0630769 14.13808-14.0630769 3.77696 0 7.32656 1.46307693 9.99688 4.11923077.32248.32076923.32248.84 0 1.16076923-.32248.32192308-.84448.32192308-1.16696 0-2.35944-2.34576923-5.49492-3.63692307-8.82992-3.63692307-6.88576 0-12.4874 5.57192307-12.4874 12.41999997 0 6.8492308 5.60164 12.4211539 12.4874 12.4211539s12.4874-5.5719231 12.4874-12.4211539c0-.7119231-.06148-1.4226923-.18096-2.1161539-.07772-.4465384.22504-.87.6728-.9484615.45356-.0773077.87696.2238461.95468.6703846.13572.7846154.20416 1.59.20416 2.3942308 0 7.7538461-6.34172 14.063077-14.13808 14.063077"></path><path d="m22.8224334 13.0516538c-.066928 0-.1327022-.0080604-.2007841-.0241812-.439648-.109391-.7062063-.5550152-.5965828-.9937307 1.1781644-4.70035826 5.3957851-7.98208805 10.2572997-7.98208805 2.824825 0 5.4788681 1.0962129 7.4774779 3.08828045.3207931.32126407.3207931.83943193 0 1.15954452-.3219469.32011259-.8412162.32011259-1.1620093 0-1.6870483-1.6834698-3.9291377-2.61041453-6.3154686-2.61041453-4.1056893 0-7.6690307 2.77392528-8.6648738 6.74193961-.0934685.3730808-.4281087.6206499-.795059.6206499"></path><path d="m32.7311602 24.0516538c-.2015017 0-.3971459-.0750659-.5506152-.2120912l-8.8953653-7.9450809c-.3467705-.3074132-.3819162-.8447904-.0773205-1.19629.3034242-.3514995.8294375-.3860537 1.1762079-.077449l8.2369701 7.3564682 12.8914263-16.60388484c.2858513-.36698935.8095216-.42894859 1.1703503-.13940829.3620003.28954029.4240909.82334297.1370681 1.19152384l-13.4338409 17.30330929c-.1429257.1823032-.3514566.297881-.5799034.3193284-.0246019.0023831-.0503754.0035745-.0749774.0035745"></path></g></g></g></svg> 