<?xml version="1.0" encoding="UTF-8"?> <svg xmlns="http://www.w3.org/2000/svg" height="66" viewBox="0 0 66 66" width="66"><g fill="none"><path d="m49.2491 11.25h-47.999v-8c0-1.104.896-2 2-2h43.999c1.104 0 2 .896 2 2z" fill="#e6e5ff"></path><path d="m40.2481 11.25h-38.998v-7h36.998c1.104 0 2 .896 2 2z" fill="#fff"></path><g fill="#706f75"><path d="m44.2539 7.25c-.27 0-.53-.11-.71-.29-.19-.19-.3-.45-.3-.71 0-.261.11-.521.3-.71.37-.37 1.04-.37 1.41 0 .19.189.3.449.3.71 0 .26-.11.52-.3.71-.19.18-.44.29-.7.29"></path><path d="m37.2539 6.25c0-.55.44-1 1-1 .55 0 1 .45 1 1s-.45 1-1 1c-.56 0-1-.45-1-1"></path><path d="m32.2437 7.25c-.26 0-.52-.11-.7-.29-.19-.19-.3-.45-.3-.71 0-.261.11-.521.3-.71.36-.37 1.05-.37 1.41 0 .19.189.3.449.3.71 0 .26-.11.52-.3.71-.18.18-.44.29-.71.29"></path><path d="m2.0005 10.5h46.499v-7.25c0-.689-.561-1.25-1.25-1.25h-43.999c-.689 0-1.25.561-1.25 1.25zm47.249 1.5h-47.999c-.414 0-.75-.336-.75-.75v-8c0-1.517 1.233-2.75 2.75-2.75h43.999c1.516 0 2.75 1.233 2.75 2.75v8c0 .414-.336.75-.75.75z"></path></g><path d="m49.2491 11.25h-48v52c0 1.104.895 2 2 2h44c1.104 0 2-.896 2-2z" fill="#e6e5ff"></path><path d="m41.2481 15.25h-40v50h42v-48c0-1.104-.895-2-2-2" fill="#fff"></path><path d="m1.9986 12v51.25c0 .689.561 1.25 1.25 1.25h44c.69 0 1.25-.561 1.25-1.25v-51.25zm45.25 54h-44c-1.516 0-2.75-1.233-2.75-2.75v-52c0-.414.336-.75.75-.75h48c.415 0 .75.336.75.75v52c0 1.517-1.233 2.75-2.75 2.75z" fill="#706f75"></path><path d="m63.25 20.25h-50c-1.104 0-2 .896-2 2v32c0 1.104.896 2 2 2h50c1.104 0 2-.896 2-2v-32c0-1.104-.896-2-2-2" fill="#e6e5ff"></path><path d="m60.2495 23.25h-49v31c0 1.104.896 2 2 2h48v-32c0-.553-.448-1-1-1" fill="#fff"></path><path d="m13.25 21c-.689 0-1.25.561-1.25 1.25v32c0 .689.561 1.25 1.25 1.25h50c.689 0 1.25-.561 1.25-1.25v-32c0-.689-.561-1.25-1.25-1.25zm50 36h-50c-1.517 0-2.75-1.233-2.75-2.75v-32c0-1.517 1.233-2.75 2.75-2.75h50c1.517 0 2.75 1.233 2.75 2.75v32c0 1.517-1.233 2.75-2.75 2.75z" fill="#706f75"></path><path d="m65.25 24.045-10.999 8.333-13.003-4.545-7.998 8.523-11.001-2.19-10.999 11.357v8.727c0 1.105.896 2 2 2h50c1.105 0 2-.895 2-2z" fill="#fff"></path><path d="m65.25 24.045-10.999 8.333-13.003-4.545-7.998 8.523-11.001-2.19-10.999 11.357v3.967l9.24-9.54c.473-.488 1.161-.703 1.827-.57l8.845 1.76c.677.134 1.376-.09 1.848-.594l6.348-6.764c.541-.577 1.371-.78 2.118-.519l10.762 3.761c.633.221 1.334.111 1.868-.293l5.54-4.198c.659-.499 1.604-.029 1.604.797v22.92h2c1.105 0 2-.895 2-2z" fill="#e6e5ff"></path><path d="m12 45.8262v8.424c0 .689.561 1.25 1.25 1.25h50c.69 0 1.25-.561 1.25-1.25v-28.695l-9.796 7.42c-.201.152-.464.194-.701.111l-12.542-4.384-7.664 8.167c-.176.188-.438.272-.693.222l-10.601-2.11zm51.25 11.174h-50c-1.517 0-2.75-1.234-2.75-2.75v-8.728c0-.194.076-.382.211-.521l10.999-11.357c.177-.183.434-.264.685-.214l10.593 2.109 7.713-8.22c.203-.216.515-.293.795-.194l12.623 4.412 10.678-8.089c.227-.172.531-.201.787-.074.255.127.416.387.416.672v30.204c0 1.516-1.233 2.75-2.75 2.75z" fill="#706f75"></path><path d="m65.25 44.25-10.885-4.583-8.581 5.999-10.785-3.416-7.482 6.249-9.134-2.645-7.133 7v1.396c0 1.104.896 2 2 2h50c1.105 0 2-.896 2-2z" fill="#fff"></path><path d="m65.25 44.25-10.885-4.583-8.581 5.999-10.785-3.416-7.482 6.249-9.134-2.645-7.133 7v1.396c0 .463.164.883.427 1.222l3.872-3.799c.515-.506 1.263-.694 1.957-.493l6.989 2.024c.639.185 1.328.04 1.838-.387l5.825-4.864c.524-.437 1.235-.578 1.886-.372l8.799 2.788c.593.188 1.24.089 1.75-.267l6.867-4.802c.563-.394 1.289-.471 1.922-.204l6.032 2.54c1.112.468 1.836 1.557 1.836 2.764v5.85h2c1.105 0 2-.896 2-2z" fill="#e6e5ff"></path><path d="m12 53.169v1.081c0 .69.561 1.25 1.25 1.25h50c.69 0 1.25-.56 1.25-1.25v-9.502l-10.044-4.229-8.243 5.762c-.191.135-.433.172-.656.101l-10.392-3.293-7.167 5.985c-.192.16-.451.213-.689.146l-8.713-2.523zm51.25 3.831h-50c-1.517 0-2.75-1.233-2.75-2.75v-1.395c0-.202.081-.395.225-.536l7.133-7c.193-.19.474-.26.734-.185l8.75 2.534 7.176-5.993c.197-.164.463-.216.708-.14l10.431 3.305 8.279-5.787c.211-.15.482-.176.72-.077l10.885 4.583c.278.117.459.389.459.691v10c0 1.517-1.233 2.75-2.75 2.75z" fill="#706f75"></path><path d="m56.8653 39.667c0 1.381-1.12 2.5-2.5 2.5-1.381 0-2.5-1.119-2.5-2.5s1.119-2.5 2.5-2.5c1.38 0 2.5 1.119 2.5 2.5" fill="#fff"></path><path d="m54.3653 37.917c-.965 0-1.75.785-1.75 1.75s.785 1.75 1.75 1.75 1.75-.785 1.75-1.75-.785-1.75-1.75-1.75m0 5c-1.792 0-3.25-1.458-3.25-3.25s1.458-3.25 3.25-3.25 3.25 1.458 3.25 3.25-1.458 3.25-3.25 3.25" fill="#706f75"></path><path d="m37.4991 42.25c0 1.381-1.119 2.5-2.5 2.5-1.38 0-2.5-1.119-2.5-2.5s1.12-2.5 2.5-2.5c1.381 0 2.5 1.119 2.5 2.5" fill="#fff"></path><path d="m34.9991 40.5c-.965 0-1.75.785-1.75 1.75s.785 1.75 1.75 1.75 1.75-.785 1.75-1.75-.785-1.75-1.75-1.75m0 5c-1.792 0-3.25-1.458-3.25-3.25s1.458-3.25 3.25-3.25 3.25 1.458 3.25 3.25-1.458 3.25-3.25 3.25" fill="#706f75"></path><path d="m24.7486 34.166c0 1.381-1.12 2.5-2.5 2.5-1.381 0-2.5-1.119-2.5-2.5s1.119-2.5 2.5-2.5c1.38 0 2.5 1.119 2.5 2.5" fill="#fff"></path><path d="m22.2486 32.416c-.965 0-1.75.785-1.75 1.75s.785 1.75 1.75 1.75 1.75-.785 1.75-1.75-.785-1.75-1.75-1.75m0 5c-1.792 0-3.25-1.458-3.25-3.25s1.458-3.25 3.25-3.25 3.25 1.458 3.25 3.25-1.458 3.25-3.25 3.25" fill="#706f75"></path><path d="m43.7481 27.833c0 1.381-1.119 2.5-2.5 2.5s-2.5-1.119-2.5-2.5 1.119-2.5 2.5-2.5 2.5 1.119 2.5 2.5" fill="#fff"></path><g fill="#706f75" transform="translate(4 24)"><path d="m37.2481 2.083c-.965 0-1.75.785-1.75 1.75s.785 1.75 1.75 1.75 1.75-.785 1.75-1.75-.785-1.75-1.75-1.75m0 5c-1.792 0-3.25-1.458-3.25-3.25s1.458-3.25 3.25-3.25 3.25 1.458 3.25 3.25-1.458 3.25-3.25 3.25"></path><path d="m50.3653 33c-.414 0-.75-.336-.75-.75v-14.083c0-.414.336-.75.75-.75s.75.336.75.75v14.083c0 .414-.336.75-.75.75"></path><path d="m37.2481 33c-.414 0-.75-.336-.75-.75v-25.917c0-.414.336-.75.75-.75s.75.336.75.75v25.917c0 .414-.336.75-.75.75"></path><path d="m30.9991 33c-.414 0-.75-.336-.75-.75v-11.5c0-.414.336-.75.75-.75s.75.336.75.75v11.5c0 .414-.336.75-.75.75"></path><path d="m18.2486 33c-.414 0-.75-.336-.75-.75v-19.584c0-.414.336-.75.75-.75s.75.336.75.75v19.584c0 .414-.336.75-.75.75"></path><path d="m1.251 22.7012c-.414 0-.75-.336-.75-.75v-12.699c0-.414.336-.75.75-.75s.75.336.75.75v12.699c0 .414-.336.75-.75.75"></path><path d="m1.251 29.001c-.414 0-.75-.336-.75-.75v-2.3c0-.414.336-.75.75-.75s.75.336.75.75v2.3c0 .414-.336.75-.75.75"></path></g></g></svg> 