<?xml version="1.0" encoding="UTF-8"?> <svg xmlns="http://www.w3.org/2000/svg" height="66" viewBox="0 0 66 66" width="66"><g fill="none"><path d="m5.0001 65.1339h36c2.209 0 4-1.791 4-4v-56c0-2.209-1.791-4-4-4h-36c-2.209 0-4 1.791-4 4v56c0 2.209 1.791 4 4 4" fill="#fff"></path><path d="m7.0001 65.1339h34c2.209 0 4-1.791 4-4v-55.5h-36c-1.104 0-2 .896-2 2z" fill="#e6e5ff"></path><path d="m5.0001 1.8839c-1.792 0-3.25 1.458-3.25 3.25v56c0 1.792 1.458 3.25 3.25 3.25h36c1.792 0 3.25-1.458 3.25-3.25v-56c0-1.792-1.458-3.25-3.25-3.25zm36 64h-36c-2.619 0-4.75-2.131-4.75-4.75v-56c0-2.619 2.131-4.75 4.75-4.75h36c2.619 0 4.75 2.131 4.75 4.75v56c0 2.619-2.131 4.75-4.75 4.75z" fill="#706f75"></path><path d="m3.0001 56.1339h40c1.104 0 2-.896 2-2v-42c0-1.104-.896-2-2-2h-40c-1.104 0-2 .896-2 2v42c0 1.104.896 2 2 2" fill="#fff"></path><path d="m11.0005 56.1339h32c1.104 0 2-.896 2-2v-38h-9c-13.807 0-25 11.193-25 25z" fill="#e6e5ff"></path><path d="m3.0001 10.8839c-.689 0-1.25.561-1.25 1.25v42c0 .689.561 1.25 1.25 1.25h40c.689 0 1.25-.561 1.25-1.25v-42c0-.689-.561-1.25-1.25-1.25zm40 46h-40c-1.517 0-2.75-1.233-2.75-2.75v-42c0-1.517 1.233-2.75 2.75-2.75h40c1.517 0 2.75 1.233 2.75 2.75v42c0 1.517-1.233 2.75-2.75 2.75z" fill="#706f75"></path><path d="m9.4986 37.1339h3c1.381 0 2.5-1.119 2.5-2.5v-3c0-1.381-1.119-2.5-2.5-2.5h-3c-1.381 0-2.5 1.119-2.5 2.5v3c0 1.381 1.119 2.5 2.5 2.5" fill="#fff"></path><path d="m9.9991 37.1339h2.5c1.38 0 2.5-1.119 2.5-2.5v-2.5h-3c-1.104 0-2 .896-2 2z" fill="#e6e5ff"></path><path d="m9.4986 29.8839c-.965 0-1.75.785-1.75 1.75v3c0 .965.785 1.75 1.75 1.75h3c.965 0 1.75-.785 1.75-1.75v-3c0-.965-.785-1.75-1.75-1.75zm3 8h-3c-1.792 0-3.25-1.458-3.25-3.25v-3c0-1.792 1.458-3.25 3.25-3.25h3c1.792 0 3.25 1.458 3.25 3.25v3c0 1.792-1.458 3.25-3.25 3.25z" fill="#706f75"></path><path d="m9.4986 50.1348h3c1.381 0 2.5-1.119 2.5-2.5v-3c0-1.381-1.119-2.5-2.5-2.5h-3c-1.381 0-2.5 1.119-2.5 2.5v3c0 1.381 1.119 2.5 2.5 2.5" fill="#fff"></path><path d="m9.9991 50.1348h2.5c1.38 0 2.5-1.119 2.5-2.5v-2.499h-3c-1.104 0-2 .895-2 2z" fill="#e6e5ff"></path><path d="m9.4986 42.8848c-.965 0-1.75.785-1.75 1.75v3c0 .965.785 1.75 1.75 1.75h3c.965 0 1.75-.785 1.75-1.75v-3c0-.965-.785-1.75-1.75-1.75zm3 8h-3c-1.792 0-3.25-1.458-3.25-3.25v-3c0-1.792 1.458-3.25 3.25-3.25h3c1.792 0 3.25 1.458 3.25 3.25v3c0 1.792-1.458 3.25-3.25 3.25z" fill="#706f75"></path><path d="m9.4986 24.1339h3c1.381 0 2.5-1.119 2.5-2.5v-3c0-1.381-1.119-2.5-2.5-2.5h-3c-1.381 0-2.5 1.119-2.5 2.5v3c0 1.381 1.119 2.5 2.5 2.5" fill="#fff"></path><path d="m9.9991 24.1339h2.5c1.38 0 2.5-1.119 2.5-2.5v-2.5h-3c-1.104 0-2 .896-2 2z" fill="#e6e5ff"></path><g fill="#706f75" transform="translate(6 4)"><path d="m3.4986 12.8839c-.965 0-1.75.785-1.75 1.75v3c0 .965.785 1.75 1.75 1.75h3c.965 0 1.75-.785 1.75-1.75v-3c0-.965-.785-1.75-1.75-1.75zm3 8h-3c-1.792 0-3.25-1.458-3.25-3.25v-3c0-1.792 1.458-3.25 3.25-3.25h3c1.792 0 3.25 1.458 3.25 3.25v3c0 1.792-1.458 3.25-3.25 3.25z"></path><path d="m22.5699 2.3839h-10c-.414 0-.75-.336-.75-.75s.336-.75.75-.75h10c.414 0 .75.336.75.75s-.336.75-.75.75"></path><path d="m19.5699 57.3839h-4c-.414 0-.75-.336-.75-.75s.336-.75.75-.75h4c.414 0 .75.336.75.75s-.336.75-.75.75"></path><path d="m29.5709 57.3839h-4c-.414 0-.75-.336-.75-.75s.336-.75.75-.75h4c.414 0 .75.336.75.75s-.336.75-.75.75"></path><path d="m9.5689 57.3839h-4c-.414 0-.75-.336-.75-.75s.336-.75.75-.75h4c.414 0 .75.336.75.75s-.336.75-.75.75"></path><path d="m27.5704 1.6339c0 .553-.448 1-1 1s-1-.447-1-1 .448-1 1-1 1 .447 1 1"></path></g><path d="m36.9991 24.1319 22.001-7.001v28l-22.001-7.001z" fill="#fff"></path><path d="m59.0005 17.1309v28l-14.003-4.848z" fill="#e6e5ff"></path><path d="m59.0005 17.1309 6-5v38l-6-5z" fill="#fff"></path><path d="m65.0005 12.1309v38l-3.962-3.302z" fill="#e6e5ff"></path><path d="m37.7491 37.5811 20.501 6.524v-25.949l-20.501 6.524zm21.251 8.3c-.076 0-.152-.012-.227-.035l-22.002-7.001c-.311-.1-.522-.389-.522-.715v-13.999c0-.326.211-.615.522-.715l22.002-7c.228-.072.476-.031.67.109.193.142.307.367.307.606v28c0 .239-.114.464-.307.605-.13.095-.285.145-.443.145z" fill="#706f75"></path><path d="m59.7505 44.7794 4.5 3.75v-34.798l-4.5 3.751zm5.25 6.102c-.172 0-.343-.06-.48-.174l-6-5c-.171-.143-.27-.354-.27-.576v-28c0-.223.099-.434.27-.577l6-5.001c.223-.186.535-.225.798-.103.264.124.432.389.432.68v38.001c0 .291-.168.555-.432.678-.101.048-.21.072-.318.072z" fill="#706f75"></path><path d="m23.9991 24.1309h13v14h-13c-1.657 0-3-1.344-3-3v-8c0-1.657 1.343-3 3-3" fill="#fff"></path><path d="m33.0001 30.1309h4v8h-9z" fill="#e6e5ff"></path><path d="m30.9996 38.1319h6v12h-2c-2.209 0-4-1.791-4-4z" fill="#fff"></path><path d="m34.9996 42.1319h2v8h-3v-7c0-.552.448-1 1-1" fill="#e6e5ff"></path><g fill="#706f75"><path d="m23.9996 24.8809c-1.241 0-2.25 1.01-2.25 2.25v8c0 1.24 1.009 2.25 2.25 2.25h12.25v-12.5zm13 14h-13c-2.068 0-3.75-1.683-3.75-3.75v-8c0-2.067 1.682-3.75 3.75-3.75h13c.414 0 .75.336.75.75v14c0 .414-.336.75-.75.75z"></path><path d="m31.7501 38.8819v7.25c0 1.792 1.458 3.25 3.25 3.25h1.25v-10.5zm5.25 12h-2c-2.619 0-4.75-2.131-4.75-4.75v-8c0-.414.336-.75.75-.75h6c.414 0 .75.336.75.75v12c0 .414-.336.75-.75.75z"></path><path d="m28.9996 34.8809c-.414 0-.75-.336-.75-.75v-6c0-.414.336-.75.75-.75s.75.336.75.75v6c0 .414-.336.75-.75.75"></path><path d="m33.0001 34.8809c-.414 0-.75-.336-.75-.75v-6c0-.414.336-.75.75-.75s.75.336.75.75v6c0 .414-.336.75-.75.75"></path><path d="m24.9991 34.8809c-.414 0-.75-.336-.75-.75v-6c0-.414.336-.75.75-.75s.75.336.75.75v6c0 .414-.336.75-.75.75"></path></g></g></svg> 