<?xml version="1.0" encoding="UTF-8"?> <svg xmlns="http://www.w3.org/2000/svg" xmlns:xlink="http://www.w3.org/1999/xlink" height="66" viewBox="0 0 66 66" width="66"><mask id="a" fill="#fff"><path d="m0 0h66v66h-66z" fill="#fff" fill-rule="evenodd"></path></mask><mask id="b" fill="#fff"><path d="m0 79.751h81.001v-79.751h-81.001z" fill="#fff" fill-rule="evenodd"></path></mask><mask id="c" fill="#fff"><path d="m0 79.751h81.001v-79.751h-81.001z" fill="#fff" fill-rule="evenodd"></path></mask><mask id="d" fill="#fff"><path d="m0 79.751h81.001v-79.751h-81.001z" fill="#fff" fill-rule="evenodd"></path></mask><mask id="e" fill="#fff"><path d="m0 79.751h81.001v-79.751h-81.001z" fill="#fff" fill-rule="evenodd"></path></mask><mask id="f" fill="#fff"><path d="m0 79.751h81.001v-79.751h-81.001z" fill="#fff" fill-rule="evenodd"></path></mask><mask id="g" fill="#fff"><path d="m0 79.751h81.001v-79.751h-81.001z" fill="#fff" fill-rule="evenodd"></path></mask><mask id="h" fill="#fff"><path d="m0 79.751h81.001v-79.751h-81.001z" fill="#fff" fill-rule="evenodd"></path></mask><mask id="i" fill="#fff"><path d="m0 79.751h81.001v-79.751h-81.001z" fill="#fff" fill-rule="evenodd"></path></mask><mask id="j" fill="#fff"><path d="m0 79.751h81.001v-79.751h-81.001z" fill="#fff" fill-rule="evenodd"></path></mask><mask id="k" fill="#fff"><path d="m0 79.751h81.001v-79.751h-81.001z" fill="#fff" fill-rule="evenodd"></path></mask><mask id="l" fill="#fff"><path d="m0 79.751h81.001v-79.751h-81.001z" fill="#fff" fill-rule="evenodd"></path></mask><mask id="m" fill="#fff"><path d="m0 79.751h81.001v-79.751h-81.001z" fill="#fff" fill-rule="evenodd"></path></mask><mask id="n" fill="#fff"><path d="m0 79.751h81.001v-79.751h-81.001z" fill="#fff" fill-rule="evenodd"></path></mask><mask id="o" fill="#fff"><path d="m0 79.751h81.001v-79.751h-81.001z" fill="#fff" fill-rule="evenodd"></path></mask><mask id="p" fill="#fff"><path d="m0 79.751h81.001v-79.751h-81.001z" fill="#fff" fill-rule="evenodd"></path></mask><mask id="q" fill="#fff"><path d="m0 79.751h81.001v-79.751h-81.001z" fill="#fff" fill-rule="evenodd"></path></mask><mask id="r" fill="#fff"><path d="m0 79.751h81.001v-79.751h-81.001z" fill="#fff" fill-rule="evenodd"></path></mask><mask id="s" fill="#fff"><path d="m0 79.751h81.001v-79.751h-81.001z" fill="#fff" fill-rule="evenodd"></path></mask><mask id="t" fill="#fff"><path d="m0 79.751h81.001v-79.751h-81.001z" fill="#fff" fill-rule="evenodd"></path></mask><mask id="u" fill="#fff"><path d="m0 79.751h81.001v-79.751h-81.001z" fill="#fff" fill-rule="evenodd"></path></mask><mask id="v" fill="#fff"><path d="m0 79.751h81.001v-79.751h-81.001z" fill="#fff" fill-rule="evenodd"></path></mask><mask id="w" fill="#fff"><path d="m0 79.751h81.001v-79.751h-81.001z" fill="#fff" fill-rule="evenodd"></path></mask><mask id="x" fill="#fff"><path d="m0 79.751h81.001v-79.751h-81.001z" fill="#fff" fill-rule="evenodd"></path></mask><mask id="y" fill="#fff"><path d="m0 79.751h81.001v-79.751h-81.001z" fill="#fff" fill-rule="evenodd"></path></mask><mask id="z" fill="#fff"><path d="m0 79.751h81.001v-79.751h-81.001z" fill="#fff" fill-rule="evenodd"></path></mask><g fill="none" fill-rule="evenodd"><g mask="url(#a)"><path d="m12.25 70.752h48v-42h-48z" fill="#e6e5ff" fill-rule="nonzero" mask="url(#b)" transform="translate(-9 -6)"></path></g><g mask="url(#a)"><path d="m37.2491 68.752h-24.999v-40h42.999v22c0 9.941-8.059 18-18 18" fill="#fff" fill-rule="nonzero" mask="url(#c)" transform="translate(-9 -6)"></path></g><g mask="url(#a)"><path d="m13 70.002h46.5v-40.5h-46.5zm47.25 1.5h-48c-.414 0-.75-.336-.75-.75v-42c0-.414.336-.75.75-.75h48c.414 0 .75.336.75.75v42c0 .414-.336.75-.75.75z" fill="#706f75" fill-rule="nonzero" mask="url(#d)" transform="translate(-9 -6)"></path></g><g mask="url(#a)"><path d="m10.2501 20.752 14-14h50l-14 14z" fill="#e6e5ff" fill-rule="nonzero" mask="url(#e)" transform="translate(-9 -6)"></path></g><g mask="url(#a)"><path d="m13.2501 17.752 11-11h46l-10.414 10.414c-.376.375-.884.586-1.415.586z" fill="#fff" fill-rule="nonzero" mask="url(#f)" transform="translate(-9 -6)"></path></g><g mask="url(#a)"><path d="m12.0606 20.002h47.879l12.501-12.5h-47.879zm48.189 1.5h-50c-.303 0-.577-.183-.693-.463-.115-.28-.052-.603.163-.817l14.001-14c.141-.142.331-.22.53-.22h50c.304 0 .578.182.694.463.115.279.052.602-.163.816l-14.001 14.001c-.141.141-.331.22-.531.22z" fill="#706f75" fill-rule="nonzero" mask="url(#g)" transform="translate(-9 -6)"></path></g><g mask="url(#a)"><path d="m60.2501 28.752 14-14v-8l-14 14z" fill="#e6e5ff" fill-rule="nonzero" mask="url(#h)" transform="translate(-9 -6)"></path></g><g mask="url(#a)"><path d="m60.2501 25.752 11.414-11.414c.375-.375.586-.884.586-1.414v-4.172l-12 12z" fill="#fff" fill-rule="nonzero" mask="url(#i)" transform="translate(-9 -6)"></path></g><g mask="url(#a)"><path d="m61.0001 21.0625v5.879l12.501-12.5v-5.879zm-.75 8.439c-.097 0-.194-.018-.287-.056-.28-.117-.463-.391-.463-.694v-8c0-.199.079-.389.22-.53l14.001-14c.215-.216.537-.279.817-.163s.463.39.463.693v8c0 .2-.079.39-.22.531l-14.001 14c-.143.143-.335.219-.53.219z" fill="#706f75" fill-rule="nonzero" mask="url(#j)" transform="translate(-9 -6)"></path></g><g mask="url(#a)"><path d="m60.2501 70.752 13-13v-42l-13 13.001z" fill="#e6e5ff" fill-rule="nonzero" mask="url(#k)" transform="translate(-9 -6)"></path></g><g mask="url(#a)"><path d="m60.2501 64.752 9.414-9.415c.375-.375.586-.884.586-1.414v-35.171l-10 10z" fill="#fff" fill-rule="nonzero" mask="url(#l)" transform="translate(-9 -6)"></path></g><g mask="url(#a)"><path d="m61.0001 29.0635v39.878l11.501-11.5v-39.879zm-.75 42.438c-.097 0-.194-.018-.287-.056-.28-.117-.463-.391-.463-.694v-41.999c0-.198.079-.389.22-.53l13.001-13.001c.215-.215.537-.278.817-.163.28.117.463.391.463.693v42c0 .199-.079.389-.22.53l-13.001 13.001c-.143.143-.335.219-.53.219z" fill="#706f75" fill-rule="nonzero" mask="url(#m)" transform="translate(-9 -6)"></path></g><g mask="url(#a)"><path d="m10.25 28.752h50v-8h-50z" fill="#e6e5ff" fill-rule="nonzero" mask="url(#n)" transform="translate(-9 -6)"></path></g><g mask="url(#a)"><path d="m55.2491 26.752h-44.999v-6h46.999v4c0 1.104-.895 2-2 2" fill="#fff" fill-rule="nonzero" mask="url(#o)" transform="translate(-9 -6)"></path></g><g mask="url(#a)"><g fill="#706f75" fill-rule="nonzero" transform="translate(-9 -6)"><path d="m11 28.002h48.5v-6.5h-48.5zm49.25 1.5h-50c-.414 0-.75-.336-.75-.75v-8c0-.414.336-.75.75-.75h50c.414 0 .75.336.75.75v8c0 .414-.336.75-.75.75z" mask="url(#p)"></path><path d="m45.252 25.5079c-.199 0-.39-.08-.529-.22-.141-.14-.221-.341-.221-.53 0-.2.08-.391.211-.54.289-.28.779-.271 1.069 0 .141.149.22.34.22.54 0 .189-.079.38-.22.52-.149.15-.34.23-.53.23" mask="url(#q)"></path><path d="m49.502 24.7481c0-.41.33-.75.75-.75.41 0 .75.34.75.75 0 .42-.34.75-.75.75-.42 0-.75-.33-.75-.75" mask="url(#r)"></path><path d="m55.252 25.4981c-.199 0-.39-.08-.529-.21-.141-.15-.221-.341-.221-.54 0-.19.08-.391.221-.53.279-.281.779-.281 1.059 0 .141.139.22.34.22.53 0 .199-.079.39-.22.529-.139.141-.34.221-.53.221" mask="url(#s)"></path></g></g><g mask="url(#a)"><path d="m51.4503 47.752h-2.151c-.148-.969-.404-1.902-.75-2.791l1.864-1.076c.383-.221.514-.711.293-1.093l-1.2-2.079c-.221-.383-.71-.514-1.093-.293l-1.866 1.078c-.605-.754-1.289-1.437-2.043-2.043l1.078-1.866c.221-.382.09-.872-.293-1.093l-2.078-1.2c-.383-.221-.872-.089-1.093.293l-1.077 1.864c-.888-.346-1.821-.602-2.791-.75v-2.15c0-.442-.359-.801-.8-.801h-2.4c-.442 0-.8.359-.8.801v2.15c-.97.148-1.904.404-2.792.75l-1.076-1.864c-.221-.382-.71-.514-1.093-.293l-2.078 1.2c-.383.221-.514.711-.293 1.093l1.077 1.866c-.753.605-1.439 1.289-2.042 2.043l-1.867-1.078c-.382-.221-.871-.09-1.093.293l-1.2 2.079c-.221.382-.089.872.293 1.093l1.864 1.076c-.346.889-.603 1.822-.749 2.791h-2.151c-.442 0-.8.359-.8.801v2.4c0 .442.358.799.8.799h2.151c.146.971.403 1.904.749 2.792l-1.864 1.077c-.382.221-.514.709-.293 1.092l1.2 2.079c.222.382.711.514 1.093.292l1.867-1.077c.604.753 1.289 1.438 2.042 2.043l-1.077 1.866c-.221.383-.09.872.293 1.093l2.078 1.2c.383.221.872.09 1.093-.293l1.076-1.864c.888.346 1.822.602 2.792.75v2.151c0 .442.358.799.8.799h2.4c.441 0 .8-.357.8-.799v-2.151c.97-.148 1.903-.404 2.791-.75l1.077 1.864c.221.383.71.514 1.093.293l2.078-1.2c.383-.221.514-.71.293-1.093l-1.078-1.866c.754-.605 1.438-1.29 2.043-2.043l1.866 1.077c.383.222.872.09 1.093-.292l1.2-2.079c.221-.383.09-.871-.293-1.092l-1.864-1.077c.346-.888.602-1.821.75-2.792h2.151c.441 0 .8-.357.8-.799v-2.4c0-.442-.359-.801-.8-.801" fill="#fff" fill-rule="nonzero" mask="url(#t)" transform="translate(-9 -6)"></path></g><g mask="url(#a)"><path d="m51.4503 47.752h-2.151c-.148-.969-.404-1.902-.75-2.791l1.864-1.076c.383-.221.514-.711.293-1.093l-1.2-2.079c-.221-.383-.71-.514-1.093-.293l-1.866 1.078c-.055-.068-.12-.129-.177-.197.751 1.724 1.174 3.627 1.174 5.628 0 7.797-6.322 14.118-14.118 14.118-2.001 0-3.903-.423-5.628-1.174.068.057.129.121.197.177l-1.077 1.866c-.221.383-.09.872.293 1.093l2.078 1.2c.383.221.872.09 1.093-.293l1.076-1.864c.888.346 1.822.602 2.792.75v2.151c0 .442.358.799.8.799h2.4c.441 0 .8-.357.8-.799v-2.151c.97-.148 1.903-.404 2.791-.75l1.077 1.864c.221.383.71.514 1.093.293l2.078-1.2c.383-.221.514-.71.293-1.093l-1.078-1.866c.754-.605 1.438-1.29 2.043-2.042l1.866 1.076c.383.222.872.09 1.093-.292l1.2-2.079c.221-.383.09-.871-.293-1.092l-1.864-1.077c.346-.888.602-1.821.75-2.792h2.151c.441 0 .8-.357.8-.799v-2.4c0-.442-.359-.801-.8-.801" fill="#e6e5ff" fill-rule="nonzero" mask="url(#u)" transform="translate(-9 -6)"></path></g><g mask="url(#a)"><path d="m31.459 61.3018c.091 0 .184.017.272.052.857.334 1.743.572 2.631.707.368.055.638.371.638.741v2.15l2.45.05.05-2.2c0-.37.271-.686.638-.741.888-.135 1.774-.373 2.632-.707.343-.135.736.003.921.323l1.077 1.864 2.146-1.181-1.059-1.934c-.185-.321-.108-.728.18-.961.71-.57 1.359-1.219 1.927-1.927.231-.29.64-.366.96-.18l1.867 1.078 1.268-2.098-1.882-1.144c-.32-.185-.458-.577-.324-.922.335-.859.573-1.744.708-2.632.055-.366.37-.638.741-.638h2.15l.05-2.449-.05-.051h-2.15c-.371 0-.686-.27-.741-.637-.135-.886-.373-1.773-.708-2.632-.134-.344.004-.737.324-.921l1.864-1.077-1.182-2.147-1.934 1.06c-.319.184-.729.109-.96-.181-.568-.708-1.217-1.356-1.928-1.927-.288-.231-.365-.639-.18-.96l1.078-1.866-2.097-1.268-1.145 1.882c-.185.321-.578.457-.921.325-.858-.334-1.744-.573-2.632-.707-.367-.057-.638-.372-.638-.743v-2.15l-2.45-.051-.05 2.201c0 .371-.27.686-.638.743-.888.134-1.774.373-2.631.707-.344.132-.736-.003-.921-.325l-1.078-1.864-2.146 1.182 1.059 1.934c.185.321.108.729-.18.96-.709.57-1.358 1.218-1.927 1.927-.232.289-.641.365-.96.181l-1.866-1.077-1.269 2.096 1.883 1.145c.321.184.458.577.323.922-.333.855-.571 1.741-.707 2.631-.055.367-.37.637-.741.637h-2.151l-.05 2.45 2.201.05c.371 0 .686.272.741.638.136.891.374 1.776.707 2.632.135.344-.002.737-.323.922l-1.864 1.076 1.182 2.147 1.934-1.059c.319-.186.729-.11.96.18.568.708 1.217 1.357 1.927 1.927.288.233.365.64.18.961l-1.078 1.865 2.097 1.268 1.146-1.882c.137-.238.388-.375.649-.375m5.991 5.2h-2.4c-.855 0-1.55-.695-1.55-1.55v-1.521c-.574-.116-1.145-.27-1.706-.459l-.763 1.319c-.207.359-.541.615-.941.723-.399.105-.819.051-1.176-.156l-2.078-1.2c-.358-.207-.615-.541-.723-.941-.106-.399-.051-.817.156-1.176l.762-1.322c-.441-.39-.858-.807-1.247-1.248l-1.322.764c-.74.425-1.691.171-2.117-.569l-1.2-2.078c-.427-.74-.173-1.689.567-2.117l1.319-.762c-.189-.56-.343-1.131-.459-1.707h-1.522c-.855 0-1.55-.695-1.55-1.55v-2.399c0-.855.695-1.551 1.55-1.551h1.522c.116-.574.27-1.144.459-1.706l-1.319-.762c-.358-.207-.615-.542-.723-.941-.106-.399-.051-.817.156-1.176l1.2-2.079c.207-.358.541-.615.941-.723.398-.106.819-.052 1.176.157l1.322.762c.389-.441.807-.858 1.247-1.248l-.762-1.322c-.428-.741-.173-1.69.567-2.117l2.078-1.2c.359-.207.777-.262 1.176-.155.4.107.735.364.941.723l.763 1.318c.561-.189 1.132-.343 1.706-.459v-1.521c0-.855.695-1.551 1.55-1.551h2.4c.855 0 1.55.696 1.55 1.551v1.521c.574.116 1.146.27 1.707.46l.762-1.32c.206-.358.541-.615.941-.722.397-.108.816-.053 1.176.155l2.078 1.2c.74.427.995 1.376.567 2.116l-.762 1.323c.441.39.859.808 1.248 1.248l1.322-.762c.739-.428 1.689-.174 2.116.565l1.2 2.08c.208.358.263.776.156 1.176-.108.399-.364.733-.722.941l-1.319.762c.189.563.343 1.133.459 1.706h1.521c.855 0 1.55.696 1.55 1.551v2.399c0 .855-.695 1.55-1.55 1.55h-1.521c-.116.574-.27 1.145-.459 1.707l1.319.762c.358.207.615.542.722.941.107.401.052.819-.156 1.177l-1.199 2.078c-.427.739-1.378.994-2.117.568l-1.323-.764c-.389.441-.806.858-1.247 1.248l.762 1.322c.208.359.262.777.156 1.176-.108.4-.365.734-.723.942l-2.078 1.199c-.359.209-.779.263-1.176.156-.4-.108-.734-.364-.941-.723l-.762-1.319c-.561.189-1.133.343-1.707.459v1.521c0 .855-.695 1.55-1.55 1.55" fill="#706f75" fill-rule="nonzero" mask="url(#v)" transform="translate(-9 -6)"></path></g><g mask="url(#a)"><path d="m43.7501 49.752c0 4.143-3.358 7.5-7.5 7.5-4.143 0-7.5-3.357-7.5-7.5 0-4.142 3.357-7.5 7.5-7.5 4.142 0 7.5 3.358 7.5 7.5" fill="#fff" fill-rule="nonzero" mask="url(#w)" transform="translate(-9 -6)"></path></g><g mask="url(#a)"><path d="m40.0567 43.2989c.66 1.117 1.046 2.415 1.046 3.807 0 4.142-3.358 7.5-7.5 7.5-1.392 0-2.69-.386-3.807-1.047 1.306 2.209 3.703 3.693 6.454 3.693 4.142 0 7.5-3.357 7.5-7.5 0-2.75-1.485-5.148-3.693-6.453" fill="#e6e5ff" fill-rule="nonzero" mask="url(#x)" transform="translate(-9 -6)"></path></g><g mask="url(#a)"><path d="m36.2501 43.002c-3.722 0-6.75 3.028-6.75 6.75 0 3.723 3.028 6.75 6.75 6.75s6.75-3.027 6.75-6.75c0-3.722-3.028-6.75-6.75-6.75m0 15c-4.549 0-8.25-3.701-8.25-8.25s3.701-8.25 8.25-8.25 8.25 3.701 8.25 8.25-3.701 8.25-8.25 8.25" fill="#706f75" fill-rule="nonzero" mask="url(#y)" transform="translate(-9 -6)"></path></g><g mask="url(#a)"><path d="m66.7501 65.002c-.414 0-.75-.336-.75-.75v-49.25h-49.25c-.414 0-.75-.336-.75-.75s.336-.75.75-.75h50c.414 0 .75.336.75.75v50c0 .414-.336.75-.75.75" fill="#706f75" fill-rule="nonzero" mask="url(#z)" transform="translate(-9 -6)"></path></g></g></svg> 