<?xml version="1.0" encoding="UTF-8"?> <svg xmlns="http://www.w3.org/2000/svg" fill="none" height="22" viewBox="0 0 24 22" width="24"><path d="m18.8057.5h-13.61109c-1.28878.001516-2.52432.50484-3.43562 1.39957-.911303.89474-1.42395 2.10782-1.425494 3.37316v11.45457c.001544 1.2653.514191 2.4784 1.425494 3.3731.9113.8948 2.14684 1.3981 3.43562 1.3996h13.61109c1.2888-.0015 2.5243-.5048 3.4356-1.3996.9113-.8947 1.424-2.1078 1.4255-3.3731v-11.45457c-.0015-1.26534-.5142-2.47842-1.4255-3.37316-.9113-.89473-2.1468-1.398054-3.4356-1.39957zm-13.61109 1.90909h13.61109c.7736 0 1.5154.3017 2.0624.83874s.8543 1.26541.8543 2.0249v.95454h-19.44446v-.95454c0-.75949.30729-1.48786.85427-2.0249s1.28885-.83874 2.0624-.83874zm13.61109 17.18181h-13.61109c-.77355 0-1.51542-.3017-2.0624-.8387-.54698-.5371-.85427-1.2654-.85427-2.0249v-8.59094h19.44446v8.59094c0 .7595-.3073 1.4878-.8543 2.0249-.547.537-1.2888.8387-2.0624.8387zm0-7.6364c0 .2532-.1024.496-.2847.675-.1824.179-.4297.2796-.6875.2796h-11.66667c-.25785 0-.50514-.1006-.68747-.2796-.18232-.179-.28475-.4218-.28475-.675 0-.2531.10243-.4959.28475-.6749.18233-.179.42962-.2796.68747-.2796h11.66667c.2578 0 .5051.1006.6875.2796.1823.179.2847.4218.2847.6749zm-3.8889 3.8182c0 .2532-.1024.496-.2847.675-.1824.179-.4296.2796-.6875.2796h-7.77777c-.25785 0-.50514-.1006-.68747-.2796-.18232-.179-.28475-.4218-.28475-.675 0-.2531.10243-.4959.28475-.6749.18233-.1791.42962-.2796.68747-.2796h7.77777c.2579 0 .5051.1005.6875.2796.1823.179.2847.4218.2847.6749zm-11.66664-11.45452c0-.18879.05702-.37334.16385-.53032.10683-.15697.25867-.27932.43632-.35156.17765-.07225.37313-.09115.56173-.05432.18859.03683.36182.12774.49779.26124.13597.13349.22856.30358.26608.48874.03751.18516.01826.37709-.05533.55151-.07358.17442-.1982.3235-.35808.42839-.15988.10488-.34785.16087-.54014.16087-.25784 0-.50513-.10057-.68746-.27958s-.28476-.42181-.28476-.67497zm2.91667 0c0-.18879.05702-.37334.16385-.53032.10683-.15697.25867-.27932.43632-.35156.17765-.07225.37313-.09115.56172-.05432s.36183.12774.4978.26124c.13596.13349.22856.30358.26607.48874.03752.18516.01826.37709-.05532.55151-.07359.17442-.1982.3235-.35808.42839-.15988.10488-.34785.16087-.54014.16087-.25785 0-.50514-.10057-.68746-.27958-.18233-.17901-.28476-.42181-.28476-.67497zm2.91667 0c0-.18879.05702-.37334.16384-.53032.10683-.15697.25867-.27932.43632-.35156.17765-.07225.37314-.09115.56174-.05432s.3618.12774.4978.26124c.1359.13349.2285.30358.2661.48874.0375.18516.0182.37709-.0554.55151s-.1982.3235-.358.42839c-.1599.10488-.3479.16087-.5402.16087-.25783 0-.50512-.10057-.68745-.27958-.18232-.17901-.28475-.42181-.28475-.67497z" fill="#1ab394"></path></svg> 