<?xml version="1.0" encoding="UTF-8"?> <svg xmlns="http://www.w3.org/2000/svg" fill="none" height="28" viewBox="0 0 28 28" width="28"><path d="m21.875 24.5h-7.7206l.2971-1.2556c.1528-.5915.2458-1.1968.2777-1.8069 0-.5415-.2151-1.0608-.598-1.4437s-.9022-.598-1.4437-.598-1.0608.2151-1.4437.598-.598.9022-.598 1.4437c.0319.6101.1249 1.2154.2777 1.8069l.2971 1.2556h-7.7206v-15.3125c0-.81223.32266-1.59118.89699-2.16551s1.35328-.89699 2.16551-.89699h2.31933c-.16166-.66936-.2547-1.35345-.27766-2.04167 0-1.08296.4302-2.12158 1.19598-2.88735.76575-.765773 1.80435-1.19598 2.88735-1.19598s2.1216.430207 2.8874 1.19598c.7657.76577 1.1959 1.80439 1.1959 2.88735-.0229.68822-.116 1.37231-.2776 2.04167h2.3193c.8122 0 1.5912.32266 2.1655.89699s.897 1.35328.897 2.16551v1.8089c.6695-.161 1.3535-.254 2.0417-.2776 1.0829 0 2.1215.4302 2.8873 1.1959.7658.7658 1.196 1.8044 1.196 2.8874s-.4302 2.1216-1.196 2.8873c-.7658.7658-1.8044 1.196-2.8873 1.196-.6882-.0236-1.3722-.1166-2.0417-.2776zm-5.192-2.0417h3.1503v-6.5517l1.3179.4002c.8962.292 1.8251.4724 2.7655.537.5415 0 1.0608-.2152 1.4436-.598.3829-.3829.598-.9022.598-1.4437s-.2151-1.0608-.598-1.4437c-.3828-.3829-.9021-.598-1.4436-.598-.9404.0646-1.8693.2449-2.7655.537l-1.3179.4001v-4.51c0-.27074-.1075-.53039-.299-.72184-.1914-.19144-.4511-.29899-.7218-.29899h-5.0205l.4002-1.3179c.2923-.89615.4727-1.82501.537-2.76544 0-.54148-.2151-1.06079-.598-1.44367-.3829-.38289-.9022-.59799-1.4437-.59799s-1.0608.2151-1.4437.59799c-.3829.38288-.598.90219-.598 1.44367.0643.94043.2447 1.86929.537 2.76544l.4002 1.3179h-5.0205c-.27074 0-.53039.10755-.72184.29899-.19144.19145-.29899.4511-.29899.72184v13.2708h3.15029c-.05315-.3378-.08248-.6789-.08779-1.0208 0-1.083.4302-2.1216 1.19598-2.8874.76575-.7657 1.80435-1.1959 2.88735-1.1959s2.1216.4302 2.8874 1.1959c.7657.7658 1.1959 1.8044 1.1959 2.8874-.0053.3419-.0346.683-.0878 1.0208z" fill="#1ab394"></path></svg> 