<?xml version="1.0" encoding="UTF-8"?> <svg xmlns="http://www.w3.org/2000/svg" height="98" viewBox="0 0 306 98" width="306"><g fill="#fff"><path d="m149.683038 77.623363h13.485972v-65.623363h-13.485972zm-40.224486-28.6349652c1.116004-6.1498959 4.371014-10.096255 11.067965-10.096255 5.766018 0 9.76596 4.1299107 10.137032 10.096255zm10.881964-19.733631c-13.950973 0-23.5309333 10.8304614-23.5309333 24.7812996 0 14.0426141 8.9289583 24.9639336 24.7399373 24.9639336 12.276968 0 19.809992-7.0667361 21.576998-15.4183333h-12.462969c-1.395005 3.5792559-4.278014 5.781875-9.207029 5.781875-7.161953 0-11.253965-4.497014-12.183968-11.7473015h34.598898c0-16.7968057-8.184956-28.3614734-23.530934-28.3614734zm87.233344 19.733631c1.116002-6.1498959 4.371012-10.096255 11.067963-10.096255 5.765089 0 9.765031 4.1299107 10.137033 10.096255zm10.881964-19.733631c-13.950975 0-23.530935 10.8304614-23.530935 24.7812996 0 14.0426141 8.928958 24.9639336 24.739938 24.9639336 12.276037 0 19.809062-7.0667361 21.576998-15.4183333h-12.462969c-1.395005 3.5792559-4.278015 5.781875-9.20703 5.781875-7.161952 0-11.254895-4.497014-12.184898-11.7473015h34.598899c0-16.7968057-8.184025-28.3614734-23.530003-28.3614734zm-24.781788 1.2857788h-13.113041l-15.531979 22.118884 15.810979 24.9639334h15.066978l-17.019984-25.0557093zm78.348094-.5515724c-5.580018 0-8.835028 2.7541916-11.718036 8.0771876h-.279001v-7.5256152h-12.183038v47.0828174h12.64804v-22.944866c0-9.9117857 5.952017-14.2252479 14.229973-13.4001834h.279932v-10.9213196c-.744933-.2753272-1.581935-.3680208-2.97787-.3680208zm-213.154806 18.9994246c1.1160035-6.1498959 4.3710138-10.096255 11.0679647-10.096255 5.766018 0 9.7659605 4.1299107 10.1379616 10.096255zm10.8819641-19.733631c-13.9509736 0-23.5309337 10.8304614-23.5309337 24.7812996 0 14.0426141 8.928958 24.9639336 24.7399374 24.9639336 12.2769685 0 19.8099919-7.0667361 21.5769975-15.4183333h-12.462039c-1.3950044 3.5792559-4.2789433 5.781875-9.2079588 5.781875-7.1619522 0-11.2539652-4.497014-12.1839681-11.7473015h34.5988982c0-16.7968057-8.1849556-28.3614734-23.5309335-28.3614734zm-44.1732782 19.733631c-6.7890212-1.3775546-13.1130409-1.7437401-13.1130409-5.7818748 0-3.3966223 3.2550101-5.2321381 8.1840256-5.2321381 5.3940168 0 8.6499571 1.8355158 9.2079587 6.8831846h11.4399659c-.930933-9.4529067-7.9059548-15.6028027-20.461924-15.6028027-10.88103408 0-19.43799084 4.8650349-19.43799084 15.0530656 0 10.2788889 8.37002616 12.5732836 16.92698294 14.2261657 6.5109503 1.2839434 12.5559692 1.7428222 12.5559692 6.2398362 0 3.3048462-3.1620098 5.4156895-8.7429572 5.4156895-5.6730178 0-9.5799601-2.3861706-10.4169627-7.8009425h-11.7180366c.74400233 10.0035616 8.46302645 16.6114187 22.3209999 16.6114187 11.9049672 0 20.0889928-5.6900992 20.0889928-15.1439236 0-11.0130952-8.8350277-13.2157143-16.8339828-14.8676786z"></path><path d="m299 98h7v-98h-7z"></path></g></svg> 