<?xml version="1.0" encoding="UTF-8"?> <svg xmlns="http://www.w3.org/2000/svg" fill="none" height="28" viewBox="0 0 28 28" width="28"><g fill="#1ab394"><path d="m13.9494 25.6878-.3445-.1528c-.3834-.1684-9.33586-4.2116-9.33586-11.5331v-6.3485c.00034-.61093.19344-1.20619.55179-1.70099.35834-.49481.86368-.86393 1.44403-1.05481l7.73514-2.5641 7.7351 2.5641c.5804.19088 1.0857.56 1.444 1.05481.3584.4948.5515 1.09006.5518 1.70099v6.3485c0 8.3462-9.0381 11.4387-9.4234 11.5671zm.0506-21.31372-7.11917 2.36072c-.1937.06327-.36241.18621-.48197.35122-.11956.165-.18384.36361-.18363.56738v6.3485c0 5.3462 6.26677 8.8143 7.83047 9.5957 1.5609-.6277 7.739-3.5012 7.739-9.5957v-6.3485c.0003-.20377-.064-.40238-.1836-.56738-.1195-.16501-.2883-.28795-.482-.35122z"></path><path d="m13.1347 16.4754h-.0321c-.2463-.0037-.4893-.0574-.7143-.1578-.2249-.1003-.4272-.2453-.5945-.426l-2.244-2.3354 1.4022-1.3449 2.1837 2.2771 5.0416-5.04162 1.3759 1.37592-5.1194 5.1195c-.1706.1704-.3732.3052-.5962.3967-.2229.0916-.4619.138-.7029.1365z"></path></g></svg> 