<?xml version="1.0" encoding="UTF-8"?> <svg xmlns="http://www.w3.org/2000/svg" fill="none" height="45" viewBox="0 0 45 45" width="45"><path d="m35.409 3.13818h-26.05261c-1.00658 0-1.77631.76974-1.77631 1.77632v34.3421c0 1.0066.76973 1.7763 1.77631 1.7763h26.05261c1.0066 0 1.7763-.7697 1.7763-1.7763v-34.3421c0-.94737-.7697-1.77632-1.7763-1.77632z" fill="#fdebea"></path><path d="m33.5143 3.13818h-24.15791c-1.00657 0-1.77631.76974-1.77631 1.77632v33.75h24.15792c1.0066 0 1.7763-.7697 1.7763-1.7763z" fill="#fff"></path><path d="m35.4081 41.5067h-26.05263c-1.24342 0-2.25-1.0066-2.25-2.25v-34.34215c0-1.24342 1.00658-2.25 2.25-2.25h26.05263c1.2434 0 2.25 1.00658 2.25 2.25v34.34215c0 1.2434-1.0066 2.25-2.25 2.25zm-26.05263-37.89478c-.71053 0-1.30263.5921-1.30263 1.30263v34.34215c0 .7105.5921 1.3026 1.30263 1.3026h26.05263c.7105 0 1.3026-.5921 1.3026-1.3026v-34.34215c0-.71053-.5921-1.30263-1.3026-1.30263z" fill="#ee3124"></path><path d="m30.0783 3.13818h-15.3947v2.36842c0 1.00658.7697 1.77632 1.7763 1.77632h11.8421c1.0066 0 1.7763-.76974 1.7763-1.77632z" fill="#fdebea"></path><path d="m28.302 3.13818h-13.6184v1.18421c0 .65132.5329 1.18421 1.1842 1.18421h11.8421c.3553 0 .5921-.23684.5921-.5921z" fill="#fff"></path><g fill="#ee3124"><path d="m28.303 7.75666h-11.8421c-1.2434 0-2.25-1.00658-2.25-2.25v-2.36842c0-.23685.1777-.47369.4737-.47369h15.3948c.2368 0 .4736.17763.4736.47369v2.36842c0 1.24342-1.0065 2.25-2.25 2.25zm-13.1447-4.14474v1.89474c0 .71052.5921 1.30263 1.3026 1.30263h11.8421c.7106 0 1.3027-.59211 1.3027-1.30263v-1.89474z"></path><path d="m27.1183 13.5001h-7.6974c-.2368 0-.4736-.1776-.4736-.4737 0-.2368.1776-.4737.4736-.4737h7.6974c.2369 0 .4737.1777.4737.4737 0 .2961-.1776.4737-.4737.4737z"></path><path d="m27.1183 31.8553h-7.6974c-.2368 0-.4736-.1776-.4736-.4737 0-.2368.1776-.4736.4736-.4736h7.6974c.2369 0 .4737.1776.4737.4736 0 .2961-.1776.4737-.4737.4737z"></path><path d="m24.7499 16.1647h-5.329c-.2368 0-.4736-.1777-.4736-.4737 0-.2369.1776-.4737.4736-.4737h5.329c.2368 0 .4737.1776.4737.4737 0 .296-.1777.4737-.4737.4737z"></path><path d="m24.7499 34.5199h-5.329c-.2368 0-.4736-.1777-.4736-.4737 0-.2368.1776-.4737.4736-.4737h5.329c.2368 0 .4737.1776.4737.4737 0 .296-.1777.4737-.4737.4737z"></path><path d="m30.6709 22.3817h-11.25c-.2368 0-.4736-.1776-.4736-.4737 0-.2368.1776-.4737.4736-.4737h11.25c.2369 0 .4737.1777.4737.4737 0 .2961-.1776.4737-.4737.4737z"></path><path d="m23.5657 25.0462h-4.1448c-.2368 0-.4736-.1776-.4736-.4736 0-.2369.1776-.4737.4736-.4737h4.1448c.2368 0 .4737.1776.4737.4737 0 .296-.1777.4736-.4737.4736z"></path><path d="m41.5663 7.16441h-.8289c-.2369 0-.4737-.17763-.4737-.47368 0-.23685.1776-.47369.4737-.47369h.8289c.2368 0 .4737.17763.4737.47369 0 .23684-.2369.47368-.4737.47368z"></path><path d="m44.2909 7.16441h-.8289c-.2369 0-.4737-.17763-.4737-.47368 0-.23685.1776-.47369.4737-.47369h.8289c.2369 0 .4737.17763.4737.47369 0 .23684-.1776.47368-.4737.47368z"></path><path d="m42.5127 8.94087c-.2368 0-.4736-.17764-.4736-.47369v-.82895c0-.23684.1776-.47368.4736-.47368.2369 0 .4737.17763.4737.47368v.82895c0 .23684-.1776.47369-.4737.47369z"></path><path d="m42.5127 6.15789c-.2368 0-.4736-.17763-.4736-.47368v-.76974c0-.23684.1776-.41447.4736-.41447.2369 0 .4737.17763.4737.41447v.82895c0 .23684-.1776.41447-.4737.41447z"></path><path d="m1.30263 13.6776h-.828946c-.236842 0-.473684-.1776-.473684-.4737 0-.2368.177631-.4737.473684-.4737h.828946c.23684 0 .47369.1777.47369.4737 0 .2369-.23685.4737-.47369.4737z"></path><path d="m4.02724 13.6776h-.82894c-.23685 0-.47369-.1776-.47369-.4737 0-.2368.17763-.4737.47369-.4737h.82894c.23685 0 .47369.1777.47369.4737 0 .2369-.17763.4737-.47369.4737z"></path><path d="m2.24908 15.4541c-.23685 0-.47369-.1777-.47369-.4737v-.829c0-.2368.17763-.4737.47369-.4737.23684 0 .47368.1777.47368.4737v.829c0 .2368-.17763.4737-.47368.4737z"></path><path d="m2.24908 12.6711c-.23685 0-.47369-.1776-.47369-.4737v-.8289c0-.2369.17763-.4737.47369-.4737.23684 0 .47368.1776.47368.4737v.8289c0 .2961-.17763.4737-.47368.4737z"></path><path d="m41.5663 37.954h-.8289c-.2369 0-.4737-.1777-.4737-.4737 0-.2369.1776-.4737.4737-.4737h.8289c.2368 0 .4737.1776.4737.4737 0 .2368-.2369.4737-.4737.4737z"></path><path d="m44.2909 37.954h-.8289c-.2369 0-.4737-.1777-.4737-.4737 0-.2369.1776-.4737.4737-.4737h.8289c.2369 0 .4737.1776.4737.4737 0 .2368-.1776.4737-.4737.4737z"></path><path d="m42.5127 39.7304c-.2368 0-.4736-.1776-.4736-.4737v-.8289c0-.2369.1776-.4737.4736-.4737.2369 0 .4737.1776.4737.4737v.8289c0 .2369-.1776.4737-.4737.4737z"></path><path d="m42.5127 36.9475c-.2368 0-.4736-.1777-.4736-.4737v-.829c0-.2368.1776-.4737.4736-.4737.2369 0 .4737.1777.4737.4737v.829c0 .296-.1776.4737-.4737.4737z"></path><path clip-rule="evenodd" d="m12.4333 11.6941c-.7358 0-1.3323.5964-1.3323 1.3322v2.3684c0 .7358.5965 1.3323 1.3323 1.3323h2.3684c.7358 0 1.3322-.5965 1.3322-1.3323v-2.171h.8882v2.171c0 1.2263-.9941 2.2204-2.2204 2.2204h-2.3684c-1.2263 0-2.2204-.9941-2.2204-2.2204v-2.3684c0-1.2263.9941-2.2204 2.2204-2.2204h2.171v.8882z" fill-rule="evenodd"></path><path clip-rule="evenodd" d="m12.4333 20.8896c-.7358 0-1.3323.5965-1.3323 1.3323v2.3684c0 .7358.5965 1.3322 1.3323 1.3322h2.3684c.7358 0 1.3322-.5964 1.3322-1.3322v-2.1711h.8882v2.1711c0 1.2263-.9941 2.2204-2.2204 2.2204h-2.3684c-1.2263 0-2.2204-.9941-2.2204-2.2204v-2.3684c0-1.2263.9941-2.2204 2.2204-2.2204h2.171v.8881z" fill-rule="evenodd"></path><path clip-rule="evenodd" d="m12.4333 30.3633c-.7358 0-1.3323.5964-1.3323 1.3322v2.3684c0 .7358.5965 1.3323 1.3323 1.3323h2.3684c.7358 0 1.3322-.5965 1.3322-1.3323v-2.3684c0-.7358-.5964-1.3322-1.3322-1.3322zm-2.2204 1.3322c0-1.2263.9941-2.2204 2.2204-2.2204h2.3684c1.2263 0 2.2204.9941 2.2204 2.2204v2.3684c0 1.2263-.9941 2.2204-2.2204 2.2204h-2.3684c-1.2263 0-2.2204-.9941-2.2204-2.2204z" fill-rule="evenodd"></path><path clip-rule="evenodd" d="m17.1891 11.5641-3.8667 3.8666-1.4982-1.4982.628-.628.8702.8702 3.2387-3.2387z" fill-rule="evenodd"></path><path clip-rule="evenodd" d="m17.1891 20.7596-3.8667 3.8667-1.4982-1.4983.628-.628.8702.8702 3.2387-3.2386z" fill-rule="evenodd"></path></g></svg> 